<?xml version="1.0" encoding="utf-8" standalone="no"?>
<!DOCTYPE svg PUBLIC "-//W3C//DTD SVG 1.1//EN"
  "http://www.w3.org/Graphics/SVG/1.1/DTD/svg11.dtd">
<svg xmlns:xlink="http://www.w3.org/1999/xlink" width="725.610547pt" height="371.629766pt" viewBox="0 0 725.610547 371.629766" xmlns="http://www.w3.org/2000/svg" version="1.1">
 <metadata>
  <rdf:RDF xmlns:dc="http://purl.org/dc/elements/1.1/" xmlns:cc="http://creativecommons.org/ns#" xmlns:rdf="http://www.w3.org/1999/02/22-rdf-syntax-ns#">
   <cc:Work>
    <dc:type rdf:resource="http://purl.org/dc/dcmitype/StillImage"/>
    <dc:date>2024-03-19T20:57:37.083654</dc:date>
    <dc:format>image/svg+xml</dc:format>
    <dc:creator>
     <cc:Agent>
      <dc:title>Matplotlib v3.8.3, https://matplotlib.org/</dc:title>
     </cc:Agent>
    </dc:creator>
   </cc:Work>
  </rdf:RDF>
 </metadata>
 <defs>
  <style type="text/css">*{stroke-linejoin: round; stroke-linecap: butt}</style>
 </defs>
 <g id="figure_1">
  <g id="patch_1">
   <path d="M 0 371.629766 
L 725.610547 371.629766 
L 725.610547 0 
L 0 0 
z
" style="fill: #ffffff"/>
  </g>
  <g id="axes_1">
   <g id="patch_2">
    <path d="M 48.810547 339.84 
L 718.410547 339.84 
L 718.410547 7.2 
L 48.810547 7.2 
z
" style="fill: #eaeaf2"/>
   </g>
   <g id="matplotlib.axis_1">
    <g id="xtick_1">
     <g id="line2d_1">
      <path d="M 168.246036 339.84 
L 168.246036 7.2 
" clip-path="url(#pb247ded6d6)" style="fill: none; stroke: #ffffff; stroke-linecap: round"/>
     </g>
     <g id="text_1">
      <!-- 0.2 -->
      <g style="fill: #262626" transform="translate(156.778536 361.150391) scale(0.165 -0.165)">
       <defs>
        <path id="ArialMT-30" d="M 266 2259 
Q 266 3072 433 3567 
Q 600 4063 929 4331 
Q 1259 4600 1759 4600 
Q 2128 4600 2406 4451 
Q 2684 4303 2865 4023 
Q 3047 3744 3150 3342 
Q 3253 2941 3253 2259 
Q 3253 1453 3087 958 
Q 2922 463 2592 192 
Q 2263 -78 1759 -78 
Q 1097 -78 719 397 
Q 266 969 266 2259 
z
M 844 2259 
Q 844 1131 1108 757 
Q 1372 384 1759 384 
Q 2147 384 2411 759 
Q 2675 1134 2675 2259 
Q 2675 3391 2411 3762 
Q 2147 4134 1753 4134 
Q 1366 4134 1134 3806 
Q 844 3388 844 2259 
z
" transform="scale(0.015625)"/>
        <path id="ArialMT-2e" d="M 581 0 
L 581 641 
L 1222 641 
L 1222 0 
L 581 0 
z
" transform="scale(0.015625)"/>
        <path id="ArialMT-32" d="M 3222 541 
L 3222 0 
L 194 0 
Q 188 203 259 391 
Q 375 700 629 1000 
Q 884 1300 1366 1694 
Q 2113 2306 2375 2664 
Q 2638 3022 2638 3341 
Q 2638 3675 2398 3904 
Q 2159 4134 1775 4134 
Q 1369 4134 1125 3890 
Q 881 3647 878 3216 
L 300 3275 
Q 359 3922 746 4261 
Q 1134 4600 1788 4600 
Q 2447 4600 2831 4234 
Q 3216 3869 3216 3328 
Q 3216 3053 3103 2787 
Q 2991 2522 2730 2228 
Q 2469 1934 1863 1422 
Q 1356 997 1212 845 
Q 1069 694 975 541 
L 3222 541 
z
" transform="scale(0.015625)"/>
       </defs>
       <use xlink:href="#ArialMT-30"/>
       <use xlink:href="#ArialMT-2e" x="55.615234"/>
       <use xlink:href="#ArialMT-32" x="83.398438"/>
      </g>
     </g>
    </g>
    <g id="xtick_2">
     <g id="line2d_2">
      <path d="M 308.463676 339.84 
L 308.463676 7.2 
" clip-path="url(#pb247ded6d6)" style="fill: none; stroke: #ffffff; stroke-linecap: round"/>
     </g>
     <g id="text_2">
      <!-- 0.4 -->
      <g style="fill: #262626" transform="translate(296.996176 361.150391) scale(0.165 -0.165)">
       <defs>
        <path id="ArialMT-34" d="M 2069 0 
L 2069 1097 
L 81 1097 
L 81 1613 
L 2172 4581 
L 2631 4581 
L 2631 1613 
L 3250 1613 
L 3250 1097 
L 2631 1097 
L 2631 0 
L 2069 0 
z
M 2069 1613 
L 2069 3678 
L 634 1613 
L 2069 1613 
z
" transform="scale(0.015625)"/>
       </defs>
       <use xlink:href="#ArialMT-30"/>
       <use xlink:href="#ArialMT-2e" x="55.615234"/>
       <use xlink:href="#ArialMT-34" x="83.398438"/>
      </g>
     </g>
    </g>
    <g id="xtick_3">
     <g id="line2d_3">
      <path d="M 448.681317 339.84 
L 448.681317 7.2 
" clip-path="url(#pb247ded6d6)" style="fill: none; stroke: #ffffff; stroke-linecap: round"/>
     </g>
     <g id="text_3">
      <!-- 0.6 -->
      <g style="fill: #262626" transform="translate(437.213817 361.150391) scale(0.165 -0.165)">
       <defs>
        <path id="ArialMT-36" d="M 3184 3459 
L 2625 3416 
Q 2550 3747 2413 3897 
Q 2184 4138 1850 4138 
Q 1581 4138 1378 3988 
Q 1113 3794 959 3422 
Q 806 3050 800 2363 
Q 1003 2672 1297 2822 
Q 1591 2972 1913 2972 
Q 2475 2972 2870 2558 
Q 3266 2144 3266 1488 
Q 3266 1056 3080 686 
Q 2894 316 2569 119 
Q 2244 -78 1831 -78 
Q 1128 -78 684 439 
Q 241 956 241 2144 
Q 241 3472 731 4075 
Q 1159 4600 1884 4600 
Q 2425 4600 2770 4297 
Q 3116 3994 3184 3459 
z
M 888 1484 
Q 888 1194 1011 928 
Q 1134 663 1356 523 
Q 1578 384 1822 384 
Q 2178 384 2434 671 
Q 2691 959 2691 1453 
Q 2691 1928 2437 2201 
Q 2184 2475 1800 2475 
Q 1419 2475 1153 2201 
Q 888 1928 888 1484 
z
" transform="scale(0.015625)"/>
       </defs>
       <use xlink:href="#ArialMT-30"/>
       <use xlink:href="#ArialMT-2e" x="55.615234"/>
       <use xlink:href="#ArialMT-36" x="83.398438"/>
      </g>
     </g>
    </g>
    <g id="xtick_4">
     <g id="line2d_4">
      <path d="M 588.898958 339.84 
L 588.898958 7.2 
" clip-path="url(#pb247ded6d6)" style="fill: none; stroke: #ffffff; stroke-linecap: round"/>
     </g>
     <g id="text_4">
      <!-- 0.8 -->
      <g style="fill: #262626" transform="translate(577.431458 361.150391) scale(0.165 -0.165)">
       <defs>
        <path id="ArialMT-38" d="M 1131 2484 
Q 781 2613 612 2850 
Q 444 3088 444 3419 
Q 444 3919 803 4259 
Q 1163 4600 1759 4600 
Q 2359 4600 2725 4251 
Q 3091 3903 3091 3403 
Q 3091 3084 2923 2848 
Q 2756 2613 2416 2484 
Q 2838 2347 3058 2040 
Q 3278 1734 3278 1309 
Q 3278 722 2862 322 
Q 2447 -78 1769 -78 
Q 1091 -78 675 323 
Q 259 725 259 1325 
Q 259 1772 486 2073 
Q 713 2375 1131 2484 
z
M 1019 3438 
Q 1019 3113 1228 2906 
Q 1438 2700 1772 2700 
Q 2097 2700 2305 2904 
Q 2513 3109 2513 3406 
Q 2513 3716 2298 3927 
Q 2084 4138 1766 4138 
Q 1444 4138 1231 3931 
Q 1019 3725 1019 3438 
z
M 838 1322 
Q 838 1081 952 856 
Q 1066 631 1291 507 
Q 1516 384 1775 384 
Q 2178 384 2440 643 
Q 2703 903 2703 1303 
Q 2703 1709 2433 1975 
Q 2163 2241 1756 2241 
Q 1359 2241 1098 1978 
Q 838 1716 838 1322 
z
" transform="scale(0.015625)"/>
       </defs>
       <use xlink:href="#ArialMT-30"/>
       <use xlink:href="#ArialMT-2e" x="55.615234"/>
       <use xlink:href="#ArialMT-38" x="83.398438"/>
      </g>
     </g>
    </g>
   </g>
   <g id="matplotlib.axis_2">
    <g id="ytick_1">
     <g id="line2d_5">
      <path d="M 48.810547 312.026779 
L 718.410547 312.026779 
" clip-path="url(#pb247ded6d6)" style="fill: none; stroke: #ffffff; stroke-linecap: round"/>
     </g>
     <g id="text_5">
      <!-- 5.0 -->
      <g style="fill: #262626" transform="translate(16.375547 317.931974) scale(0.165 -0.165)">
       <defs>
        <path id="ArialMT-35" d="M 266 1200 
L 856 1250 
Q 922 819 1161 601 
Q 1400 384 1738 384 
Q 2144 384 2425 690 
Q 2706 997 2706 1503 
Q 2706 1984 2436 2262 
Q 2166 2541 1728 2541 
Q 1456 2541 1237 2417 
Q 1019 2294 894 2097 
L 366 2166 
L 809 4519 
L 3088 4519 
L 3088 3981 
L 1259 3981 
L 1013 2750 
Q 1425 3038 1878 3038 
Q 2478 3038 2890 2622 
Q 3303 2206 3303 1553 
Q 3303 931 2941 478 
Q 2500 -78 1738 -78 
Q 1113 -78 717 272 
Q 322 622 266 1200 
z
" transform="scale(0.015625)"/>
       </defs>
       <use xlink:href="#ArialMT-35"/>
       <use xlink:href="#ArialMT-2e" x="55.615234"/>
       <use xlink:href="#ArialMT-30" x="83.398438"/>
      </g>
     </g>
    </g>
    <g id="ytick_2">
     <g id="line2d_6">
      <path d="M 48.810547 273.903206 
L 718.410547 273.903206 
" clip-path="url(#pb247ded6d6)" style="fill: none; stroke: #ffffff; stroke-linecap: round"/>
     </g>
     <g id="text_6">
      <!-- 7.5 -->
      <g style="fill: #262626" transform="translate(16.375547 279.808401) scale(0.165 -0.165)">
       <defs>
        <path id="ArialMT-37" d="M 303 3981 
L 303 4522 
L 3269 4522 
L 3269 4084 
Q 2831 3619 2401 2847 
Q 1972 2075 1738 1259 
Q 1569 684 1522 0 
L 944 0 
Q 953 541 1156 1306 
Q 1359 2072 1739 2783 
Q 2119 3494 2547 3981 
L 303 3981 
z
" transform="scale(0.015625)"/>
       </defs>
       <use xlink:href="#ArialMT-37"/>
       <use xlink:href="#ArialMT-2e" x="55.615234"/>
       <use xlink:href="#ArialMT-35" x="83.398438"/>
      </g>
     </g>
    </g>
    <g id="ytick_3">
     <g id="line2d_7">
      <path d="M 48.810547 235.779633 
L 718.410547 235.779633 
" clip-path="url(#pb247ded6d6)" style="fill: none; stroke: #ffffff; stroke-linecap: round"/>
     </g>
     <g id="text_7">
      <!-- 10.0 -->
      <g style="fill: #262626" transform="translate(7.2 241.684828) scale(0.165 -0.165)">
       <defs>
        <path id="ArialMT-31" d="M 2384 0 
L 1822 0 
L 1822 3584 
Q 1619 3391 1289 3197 
Q 959 3003 697 2906 
L 697 3450 
Q 1169 3672 1522 3987 
Q 1875 4303 2022 4600 
L 2384 4600 
L 2384 0 
z
" transform="scale(0.015625)"/>
       </defs>
       <use xlink:href="#ArialMT-31"/>
       <use xlink:href="#ArialMT-30" x="55.615234"/>
       <use xlink:href="#ArialMT-2e" x="111.230469"/>
       <use xlink:href="#ArialMT-30" x="139.013672"/>
      </g>
     </g>
    </g>
    <g id="ytick_4">
     <g id="line2d_8">
      <path d="M 48.810547 197.65606 
L 718.410547 197.65606 
" clip-path="url(#pb247ded6d6)" style="fill: none; stroke: #ffffff; stroke-linecap: round"/>
     </g>
     <g id="text_8">
      <!-- 12.5 -->
      <g style="fill: #262626" transform="translate(7.2 203.561255) scale(0.165 -0.165)">
       <use xlink:href="#ArialMT-31"/>
       <use xlink:href="#ArialMT-32" x="55.615234"/>
       <use xlink:href="#ArialMT-2e" x="111.230469"/>
       <use xlink:href="#ArialMT-35" x="139.013672"/>
      </g>
     </g>
    </g>
    <g id="ytick_5">
     <g id="line2d_9">
      <path d="M 48.810547 159.532487 
L 718.410547 159.532487 
" clip-path="url(#pb247ded6d6)" style="fill: none; stroke: #ffffff; stroke-linecap: round"/>
     </g>
     <g id="text_9">
      <!-- 15.0 -->
      <g style="fill: #262626" transform="translate(7.2 165.437682) scale(0.165 -0.165)">
       <use xlink:href="#ArialMT-31"/>
       <use xlink:href="#ArialMT-35" x="55.615234"/>
       <use xlink:href="#ArialMT-2e" x="111.230469"/>
       <use xlink:href="#ArialMT-30" x="139.013672"/>
      </g>
     </g>
    </g>
    <g id="ytick_6">
     <g id="line2d_10">
      <path d="M 48.810547 121.408913 
L 718.410547 121.408913 
" clip-path="url(#pb247ded6d6)" style="fill: none; stroke: #ffffff; stroke-linecap: round"/>
     </g>
     <g id="text_10">
      <!-- 17.5 -->
      <g style="fill: #262626" transform="translate(7.2 127.314109) scale(0.165 -0.165)">
       <use xlink:href="#ArialMT-31"/>
       <use xlink:href="#ArialMT-37" x="55.615234"/>
       <use xlink:href="#ArialMT-2e" x="111.230469"/>
       <use xlink:href="#ArialMT-35" x="139.013672"/>
      </g>
     </g>
    </g>
    <g id="ytick_7">
     <g id="line2d_11">
      <path d="M 48.810547 83.28534 
L 718.410547 83.28534 
" clip-path="url(#pb247ded6d6)" style="fill: none; stroke: #ffffff; stroke-linecap: round"/>
     </g>
     <g id="text_11">
      <!-- 20.0 -->
      <g style="fill: #262626" transform="translate(7.2 89.190536) scale(0.165 -0.165)">
       <use xlink:href="#ArialMT-32"/>
       <use xlink:href="#ArialMT-30" x="55.615234"/>
       <use xlink:href="#ArialMT-2e" x="111.230469"/>
       <use xlink:href="#ArialMT-30" x="139.013672"/>
      </g>
     </g>
    </g>
    <g id="ytick_8">
     <g id="line2d_12">
      <path d="M 48.810547 45.161767 
L 718.410547 45.161767 
" clip-path="url(#pb247ded6d6)" style="fill: none; stroke: #ffffff; stroke-linecap: round"/>
     </g>
     <g id="text_12">
      <!-- 22.5 -->
      <g style="fill: #262626" transform="translate(7.2 51.066963) scale(0.165 -0.165)">
       <use xlink:href="#ArialMT-32"/>
       <use xlink:href="#ArialMT-32" x="55.615234"/>
       <use xlink:href="#ArialMT-2e" x="111.230469"/>
       <use xlink:href="#ArialMT-35" x="139.013672"/>
      </g>
     </g>
    </g>
   </g>
   <g id="line2d_13">
    <path d="M 79.246911 158.001155 
L 98.269638 158.777513 
L 117.292365 148.656843 
L 136.315092 147.141999 
L 155.33782 149.560482 
L 174.360547 149.560482 
L 193.383274 143.621077 
L 212.406001 139.617666 
L 231.428729 136.726539 
L 250.451456 137.39271 
L 269.474183 137.302173 
L 288.496911 119.71619 
L 307.519638 119.71619 
L 326.542365 117.853768 
L 345.565092 108.243806 
L 364.58782 107.013206 
L 383.610547 103.268128 
L 402.633274 94.998516 
L 421.656001 85.982676 
L 440.678729 85.121829 
L 459.701456 85.121829 
L 478.724183 85.121829 
L 497.746911 87.157133 
L 516.769638 81.929061 
L 535.792365 76.540792 
L 554.815092 74.598671 
L 573.83782 56.745422 
L 592.860547 55.397907 
L 611.883274 49.382906 
L 630.906001 41.641045 
L 649.928729 40.740394 
L 668.951456 39.408696 
L 687.974183 39.408696 
" clip-path="url(#pb247ded6d6)" style="fill: none; stroke: #1f77b4; stroke-opacity: 0.5; stroke-width: 0.5; stroke-linecap: round"/>
   </g>
   <g id="line2d_14">
    <path d="M 79.246911 158.001155 
L 98.269638 158.777513 
L 117.292365 148.656843 
L 136.315092 147.141999 
L 155.33782 149.560482 
L 174.360547 149.560482 
L 193.383274 143.621077 
L 212.406001 139.617666 
L 231.428729 136.726539 
L 250.451456 137.39271 
L 269.474183 137.302173 
L 288.496911 119.71619 
L 307.519638 119.71619 
L 326.542365 117.853768 
L 345.565092 108.243806 
L 364.58782 107.013206 
L 383.610547 103.268128 
L 402.633274 94.998516 
L 421.656001 85.982676 
L 440.678729 85.121829 
L 459.701456 85.121829 
L 478.724183 85.121829 
L 497.746911 87.157133 
L 516.769638 81.929061 
L 535.792365 76.540792 
L 554.815092 74.598671 
L 573.83782 56.745422 
L 592.860547 55.397907 
L 611.883274 49.382906 
L 630.906001 41.641045 
L 649.928729 40.740394 
L 668.951456 39.408696 
L 687.974183 39.408696 
" clip-path="url(#pb247ded6d6)" style="fill: none; stroke: #1f77b4; stroke-opacity: 0.5; stroke-width: 0.5; stroke-linecap: round"/>
   </g>
   <g id="line2d_15">
    <path d="M 79.246911 240.899168 
L 98.269638 239.473434 
L 117.292365 237.412521 
L 136.315092 230.101466 
L 155.33782 227.265067 
L 174.360547 228.548994 
L 193.383274 228.548994 
L 212.406001 226.232912 
L 231.428729 221.22283 
L 250.451456 217.891392 
L 269.474183 212.939427 
L 288.496911 210.069582 
L 307.519638 210.069582 
L 326.542365 186.387666 
L 345.565092 176.531243 
L 364.58782 165.240166 
L 383.610547 164.304361 
L 402.633274 164.405485 
L 421.656001 158.479965 
L 440.678729 158.947365 
L 459.701456 158.947365 
L 478.724183 143.1167 
L 497.746911 137.468423 
L 516.769638 119.668319 
L 535.792365 121.483982 
L 554.815092 120.12499 
L 573.83782 120.12499 
L 592.860547 113.849485 
L 611.883274 112.94065 
L 630.906001 108.151021 
L 649.928729 107.082966 
L 668.951456 106.508267 
L 687.974183 105.838169 
" clip-path="url(#pb247ded6d6)" style="fill: none; stroke: #1f77b4; stroke-opacity: 0.5; stroke-width: 0.5; stroke-linecap: round"/>
   </g>
   <g id="line2d_16">
    <path d="M 79.246911 166.395917 
L 98.269638 162.702662 
L 117.292365 154.158256 
L 136.315092 151.499605 
L 155.33782 151.58117 
L 174.360547 151.58117 
L 193.383274 151.845851 
L 212.406001 151.845851 
L 231.428729 151.602433 
L 250.451456 153.173344 
L 269.474183 154.011785 
L 288.496911 154.011785 
L 307.519638 156.495048 
L 326.542365 138.247515 
L 345.565092 119.514909 
L 364.58782 119.548444 
L 383.610547 118.720225 
L 402.633274 111.495125 
L 421.656001 102.187311 
L 440.678729 101.070592 
L 459.701456 99.462147 
L 478.724183 98.25943 
L 497.746911 98.25943 
L 516.769638 97.262679 
L 535.792365 96.117677 
L 554.815092 93.080378 
L 573.83782 93.080378 
L 592.860547 91.358728 
L 611.883274 86.272095 
L 630.906001 84.487756 
L 649.928729 79.321524 
L 668.951456 71.404507 
L 687.974183 71.404507 
" clip-path="url(#pb247ded6d6)" style="fill: none; stroke: #1f77b4; stroke-opacity: 0.5; stroke-width: 0.5; stroke-linecap: round"/>
   </g>
   <g id="line2d_17">
    <path d="M 79.246911 247.098464 
L 98.269638 246.351657 
L 117.292365 247.109183 
L 136.315092 244.002037 
L 155.33782 239.526261 
L 174.360547 239.300573 
L 193.383274 234.495914 
L 212.406001 235.174003 
L 231.428729 233.647053 
L 250.451456 232.3686 
L 269.474183 228.918321 
L 288.496911 225.780611 
L 307.519638 225.780611 
L 326.542365 208.805435 
L 345.565092 176.14985 
L 364.58782 177.354952 
L 383.610547 177.354952 
L 402.633274 163.210337 
L 421.656001 147.778848 
L 440.678729 140.823386 
L 459.701456 140.823386 
L 478.724183 137.811591 
L 497.746911 129.267463 
L 516.769638 123.889063 
L 535.792365 122.934294 
L 554.815092 121.274483 
L 573.83782 113.072071 
L 592.860547 107.151471 
L 611.883274 104.974003 
L 630.906001 105.671387 
L 649.928729 105.39948 
L 668.951456 104.027099 
L 687.974183 104.027099 
" clip-path="url(#pb247ded6d6)" style="fill: none; stroke: #1f77b4; stroke-opacity: 0.5; stroke-width: 0.5; stroke-linecap: round"/>
   </g>
   <g id="line2d_18">
    <path d="M 79.246911 217.975774 
L 98.269638 216.55004 
L 117.292365 215.612532 
L 136.315092 213.530635 
L 155.33782 210.33324 
L 174.360547 210.107553 
L 193.383274 210.107553 
L 212.406001 209.969401 
L 231.428729 210.029002 
L 250.451456 208.160023 
L 269.474183 203.208058 
L 288.496911 198.995861 
L 307.519638 197.378655 
L 326.542365 179.083841 
L 345.565092 175.552201 
L 364.58782 160.587743 
L 383.610547 159.303 
L 402.633274 159.410111 
L 421.656001 155.503261 
L 440.678729 153.758114 
L 459.701456 153.758114 
L 478.724183 146.151185 
L 497.746911 142.818778 
L 516.769638 127.682959 
L 535.792365 127.247381 
L 554.815092 124.143157 
L 573.83782 125.056275 
L 592.860547 124.661657 
L 611.883274 124.661657 
L 630.906001 123.755036 
L 649.928729 122.843265 
L 668.951456 122.843265 
L 687.974183 120.944789 
" clip-path="url(#pb247ded6d6)" style="fill: none; stroke: #1f77b4; stroke-opacity: 0.5; stroke-width: 0.5; stroke-linecap: round"/>
   </g>
   <g id="line2d_19">
    <path d="M 79.246911 305.203656 
L 98.269638 304.24856 
L 117.292365 301.440067 
L 136.315092 301.723124 
L 155.33782 300.202313 
L 174.360547 297.75775 
L 193.383274 295.624421 
L 212.406001 288.164382 
L 231.428729 281.360839 
L 250.451456 281.286435 
L 269.474183 280.99262 
L 288.496911 277.98477 
L 307.519638 277.98477 
L 326.542365 277.265519 
L 345.565092 260.681835 
L 364.58782 260.158857 
L 383.610547 258.937629 
L 402.633274 258.020699 
L 421.656001 254.061713 
L 440.678729 251.884743 
L 459.701456 248.823092 
L 478.724183 246.765128 
L 497.746911 231.66282 
L 516.769638 222.419078 
L 535.792365 210.450255 
L 554.815092 188.374794 
L 573.83782 173.474093 
L 592.860547 173.474093 
L 611.883274 169.238197 
L 630.906001 169.238197 
L 649.928729 168.988198 
L 668.951456 168.988198 
L 687.974183 170.879663 
" clip-path="url(#pb247ded6d6)" style="fill: none; stroke: #1f77b4; stroke-opacity: 0.5; stroke-width: 0.5; stroke-linecap: round"/>
   </g>
   <g id="line2d_20">
    <path d="M 79.246911 180.722214 
L 98.269638 180.474333 
L 117.292365 173.642303 
L 136.315092 173.642303 
L 155.33782 172.563826 
L 174.360547 172.563826 
L 193.383274 164.934753 
L 212.406001 164.83306 
L 231.428729 163.366338 
L 250.451456 156.187803 
L 269.474183 153.451903 
L 288.496911 149.864425 
L 307.519638 148.576649 
L 326.542365 141.951986 
L 345.565092 127.212585 
L 364.58782 125.836601 
L 383.610547 124.408656 
L 402.633274 111.495872 
L 421.656001 99.472249 
L 440.678729 96.174007 
L 459.701456 96.174007 
L 478.724183 96.174007 
L 497.746911 95.82374 
L 516.769638 88.457031 
L 535.792365 77.973361 
L 554.815092 77.13739 
L 573.83782 65.478124 
L 592.860547 66.150933 
L 611.883274 63.649101 
L 630.906001 56.590918 
L 649.928729 55.690267 
L 668.951456 55.690267 
L 687.974183 55.690267 
" clip-path="url(#pb247ded6d6)" style="fill: none; stroke: #1f77b4; stroke-opacity: 0.5; stroke-width: 0.5; stroke-linecap: round"/>
   </g>
   <g id="line2d_21">
    <path d="M 79.246911 320.946888 
L 98.269638 318.413517 
L 117.292365 301.603452 
L 136.315092 298.880946 
L 155.33782 295.20551 
L 174.360547 290.572009 
L 193.383274 278.136092 
L 212.406001 270.735845 
L 231.428729 265.20419 
L 250.451456 261.830098 
L 269.474183 260.647645 
L 288.496911 257.875712 
L 307.519638 248.300981 
L 326.542365 244.989402 
L 345.565092 255.680896 
L 364.58782 254.321913 
L 383.610547 253.374561 
L 402.633274 250.937462 
L 421.656001 244.641665 
L 440.678729 244.947607 
L 459.701456 242.666706 
L 478.724183 242.541012 
L 497.746911 225.452417 
L 516.769638 224.313137 
L 535.792365 217.383926 
L 554.815092 200.808946 
L 573.83782 178.938853 
L 592.860547 180.317255 
L 611.883274 176.902595 
L 630.906001 170.501534 
L 649.928729 167.272841 
L 668.951456 168.875282 
L 687.974183 169.060842 
" clip-path="url(#pb247ded6d6)" style="fill: none; stroke: #1f77b4; stroke-opacity: 0.5; stroke-width: 0.5; stroke-linecap: round"/>
   </g>
   <g id="line2d_22">
    <path d="M 79.246911 193.040441 
L 98.269638 190.773803 
L 117.292365 188.067272 
L 136.315092 189.134297 
L 155.33782 190.03887 
L 174.360547 188.724108 
L 193.383274 186.24435 
L 212.406001 186.197981 
L 231.428729 184.778671 
L 250.451456 182.940438 
L 269.474183 184.309415 
L 288.496911 182.816418 
L 307.519638 182.816418 
L 326.542365 174.077835 
L 345.565092 149.162209 
L 364.58782 144.117505 
L 383.610547 144.117505 
L 402.633274 143.449671 
L 421.656001 136.841346 
L 440.678729 133.789955 
L 459.701456 132.50795 
L 478.724183 123.339493 
L 497.746911 117.810712 
L 516.769638 119.325728 
L 535.792365 119.325728 
L 554.815092 116.060052 
L 573.83782 117.09485 
L 592.860547 116.077219 
L 611.883274 116.025863 
L 630.906001 112.03877 
L 649.928729 109.325417 
L 668.951456 111.811254 
L 687.974183 111.811254 
" clip-path="url(#pb247ded6d6)" style="fill: none; stroke: #1f77b4; stroke-opacity: 0.5; stroke-width: 0.5; stroke-linecap: round"/>
   </g>
   <g id="line2d_23">
    <path d="M 79.246911 228.136567 
L 98.269638 218.114939 
L 117.292365 200.348654 
L 136.315092 201.415678 
L 155.33782 196.665363 
L 174.360547 191.791 
L 193.383274 189.929894 
L 212.406001 189.929894 
L 231.428729 188.510584 
L 250.451456 186.961109 
L 269.474183 181.387597 
L 288.496911 173.247653 
L 307.519638 173.247653 
L 326.542365 161.146253 
L 345.565092 135.847103 
L 364.58782 138.454093 
L 383.610547 138.454093 
L 402.633274 139.020176 
L 421.656001 126.796109 
L 440.678729 128.745756 
L 459.701456 127.747966 
L 478.724183 124.692976 
L 497.746911 123.443251 
L 516.769638 121.136221 
L 535.792365 121.136221 
L 554.815092 114.855316 
L 573.83782 114.855316 
L 592.860547 111.064773 
L 611.883274 110.625828 
L 630.906001 105.12516 
L 649.928729 87.721124 
L 668.951456 83.898522 
L 687.974183 83.898522 
" clip-path="url(#pb247ded6d6)" style="fill: none; stroke: #1f77b4; stroke-opacity: 0.5; stroke-width: 0.5; stroke-linecap: round"/>
   </g>
   <g id="line2d_24">
    <path d="M 79.246911 125.036587 
L 98.269638 122.691877 
L 117.292365 117.97334 
L 136.315092 117.97334 
L 155.33782 111.236008 
L 174.360547 111.402808 
L 193.383274 111.810261 
L 212.406001 105.252759 
L 231.428729 105.785651 
L 250.451456 107.388178 
L 269.474183 120.034261 
L 288.496911 116.612533 
L 307.519638 116.612533 
L 326.542365 108.566168 
L 345.565092 94.43633 
L 364.58782 96.564177 
L 383.610547 92.819098 
L 402.633274 81.95604 
L 421.656001 65.307949 
L 440.678729 63.207846 
L 459.701456 63.207846 
L 478.724183 63.207846 
L 497.746911 63.207846 
L 516.769638 63.207846 
L 535.792365 58.50207 
L 554.815092 55.335982 
L 573.83782 39.576744 
L 592.860547 40.915127 
L 611.883274 32.303452 
L 630.906001 22.32 
L 649.928729 22.32 
L 668.951456 24.053576 
L 687.974183 24.053576 
" clip-path="url(#pb247ded6d6)" style="fill: none; stroke: #1f77b4; stroke-opacity: 0.5; stroke-width: 0.5; stroke-linecap: round"/>
   </g>
   <g id="line2d_25">
    <path d="M 79.246911 206.38798 
L 98.269638 200.096214 
L 117.292365 190.333915 
L 136.315092 190.333915 
L 155.33782 189.255439 
L 174.360547 189.255439 
L 193.383274 181.220482 
L 212.406001 181.220482 
L 231.428729 180.649786 
L 250.451456 179.104784 
L 269.474183 175.194659 
L 288.496911 171.746211 
L 307.519638 171.746211 
L 326.542365 164.154368 
L 345.565092 145.450774 
L 364.58782 146.103197 
L 383.610547 144.675251 
L 402.633274 139.990962 
L 421.656001 136.920977 
L 440.678729 132.47725 
L 459.701456 131.053236 
L 478.724183 130.387169 
L 497.746911 128.441855 
L 516.769638 128.441855 
L 535.792365 127.671512 
L 554.815092 123.324693 
L 573.83782 123.324693 
L 592.860547 121.912074 
L 611.883274 119.291488 
L 630.906001 111.583352 
L 649.928729 96.539584 
L 668.951456 95.384798 
L 687.974183 95.384798 
" clip-path="url(#pb247ded6d6)" style="fill: none; stroke: #1f77b4; stroke-opacity: 0.5; stroke-width: 0.5; stroke-linecap: round"/>
   </g>
   <g id="line2d_26">
    <path d="M 79.246911 239.814196 
L 98.269638 238.388462 
L 117.292365 236.327549 
L 136.315092 235.062557 
L 155.33782 231.670673 
L 174.360547 231.444986 
L 193.383274 231.444986 
L 212.406001 231.444986 
L 231.428729 229.995185 
L 250.451456 230.138523 
L 269.474183 225.511705 
L 288.496911 221.851986 
L 307.519638 221.851986 
L 326.542365 197.265036 
L 345.565092 186.750369 
L 364.58782 181.986243 
L 383.610547 181.004178 
L 402.633274 176.428878 
L 421.656001 164.98462 
L 440.678729 164.623647 
L 459.701456 163.965242 
L 478.724183 152.439433 
L 497.746911 145.789581 
L 516.769638 139.677487 
L 535.792365 138.591806 
L 554.815092 136.585374 
L 573.83782 139.174981 
L 592.860547 137.221543 
L 611.883274 135.942604 
L 630.906001 135.030343 
L 649.928729 135.030343 
L 668.951456 133.657962 
L 687.974183 133.657962 
" clip-path="url(#pb247ded6d6)" style="fill: none; stroke: #1f77b4; stroke-opacity: 0.5; stroke-width: 0.5; stroke-linecap: round"/>
   </g>
   <g id="line2d_27">
    <path d="M 79.246911 167.248007 
L 98.269638 159.993392 
L 117.292365 154.438665 
L 136.315092 152.92382 
L 155.33782 142.26778 
L 174.360547 141.362803 
L 193.383274 127.344922 
L 212.406001 124.000526 
L 231.428729 123.711018 
L 250.451456 122.842413 
L 269.474183 122.842413 
L 288.496911 101.343779 
L 307.519638 103.050251 
L 326.542365 94.874398 
L 345.565092 83.827317 
L 364.58782 86.14321 
L 383.610547 87.621494 
L 402.633274 60.273202 
L 421.656001 55.307104 
L 440.678729 55.307104 
L 459.701456 55.307104 
L 478.724183 54.306089 
L 497.746911 53.307519 
L 516.769638 53.307519 
L 535.792365 56.50398 
L 554.815092 56.372783 
L 573.83782 58.124347 
L 592.860547 56.271185 
L 611.883274 59.680496 
L 630.906001 50.335313 
L 649.928729 48.652098 
L 668.951456 44.373699 
L 687.974183 44.373699 
" clip-path="url(#pb247ded6d6)" style="fill: none; stroke: #1f77b4; stroke-opacity: 0.5; stroke-width: 0.5; stroke-linecap: round"/>
   </g>
   <g id="line2d_28">
    <path d="M 79.246911 170.552972 
L 98.269638 169.127238 
L 117.292365 166.192257 
L 136.315092 161.644177 
L 155.33782 147.876317 
L 174.360547 147.876317 
L 193.383274 147.876317 
L 212.406001 147.911355 
L 231.428729 147.796512 
L 250.451456 149.399039 
L 269.474183 150.46888 
L 288.496911 148.711845 
L 307.519638 147.094638 
L 326.542365 121.055787 
L 345.565092 77.770646 
L 364.58782 79.671851 
L 383.610547 80.4963 
L 402.633274 69.203814 
L 421.656001 55.690432 
L 440.678729 51.20442 
L 459.701456 51.20442 
L 478.724183 47.942001 
L 497.746911 53.69111 
L 516.769638 49.025158 
L 535.792365 49.632173 
L 554.815092 50.528068 
L 573.83782 41.038765 
L 592.860547 41.577659 
L 611.883274 41.050253 
L 630.906001 41.279711 
L 649.928729 41.279711 
L 668.951456 43.216246 
L 687.974183 43.216246 
" clip-path="url(#pb247ded6d6)" style="fill: none; stroke: #1f77b4; stroke-opacity: 0.5; stroke-width: 0.5; stroke-linecap: round"/>
   </g>
   <g id="line2d_29">
    <path d="M 79.246911 228.337752 
L 98.269638 220.914051 
L 117.292365 208.924759 
L 136.315092 208.924759 
L 155.33782 209.459586 
L 174.360547 205.700074 
L 193.383274 202.325831 
L 212.406001 202.325831 
L 231.428729 202.325831 
L 250.451456 199.167473 
L 269.474183 196.697057 
L 288.496911 194.84391 
L 307.519638 194.84391 
L 326.542365 177.475871 
L 345.565092 137.900088 
L 364.58782 138.811834 
L 383.610547 138.811834 
L 402.633274 134.307772 
L 421.656001 122.946782 
L 440.678729 126.245909 
L 459.701456 125.24812 
L 478.724183 123.534218 
L 497.746911 123.534218 
L 516.769638 123.534218 
L 535.792365 123.534218 
L 554.815092 118.503351 
L 573.83782 118.503351 
L 592.860547 115.599988 
L 611.883274 114.081674 
L 630.906001 111.513508 
L 649.928729 92.483915 
L 668.951456 84.135619 
L 687.974183 84.135619 
" clip-path="url(#pb247ded6d6)" style="fill: none; stroke: #1f77b4; stroke-opacity: 0.5; stroke-width: 0.5; stroke-linecap: round"/>
   </g>
   <g id="line2d_30">
    <path d="M 79.246911 193.558474 
L 98.269638 186.620607 
L 117.292365 183.558924 
L 136.315092 183.558924 
L 155.33782 178.668408 
L 174.360547 178.668408 
L 193.383274 170.545177 
L 212.406001 170.34884 
L 231.428729 170.181599 
L 250.451456 170.349996 
L 269.474183 170.488515 
L 288.496911 170.178296 
L 307.519638 170.178296 
L 326.542365 154.534398 
L 345.565092 138.470609 
L 364.58782 138.123505 
L 383.610547 140.071114 
L 402.633274 117.752513 
L 421.656001 93.925354 
L 440.678729 86.803898 
L 459.701456 85.195452 
L 478.724183 80.299619 
L 497.746911 83.039336 
L 516.769638 79.671043 
L 535.792365 78.716273 
L 554.815092 74.011842 
L 573.83782 77.004206 
L 592.860547 69.191615 
L 611.883274 71.559218 
L 630.906001 69.015053 
L 649.928729 69.015053 
L 668.951456 66.263313 
L 687.974183 66.263313 
" clip-path="url(#pb247ded6d6)" style="fill: none; stroke: #1f77b4; stroke-opacity: 0.5; stroke-width: 0.5; stroke-linecap: round"/>
   </g>
   <g id="line2d_31">
    <path d="M 79.246911 172.531894 
L 98.269638 171.119237 
L 117.292365 161.338133 
L 136.315092 161.338133 
L 155.33782 160.746173 
L 174.360547 160.746173 
L 193.383274 154.788287 
L 212.406001 153.835235 
L 231.428729 152.368513 
L 250.451456 150.090541 
L 269.474183 150.000005 
L 288.496911 141.109713 
L 307.519638 143.51098 
L 326.542365 145.047979 
L 345.565092 135.965551 
L 364.58782 133.675305 
L 383.610547 129.143183 
L 402.633274 112.447263 
L 421.656001 98.046691 
L 440.678729 97.593932 
L 459.701456 97.593932 
L 478.724183 97.593932 
L 497.746911 95.8721 
L 516.769638 90.040842 
L 535.792365 86.067433 
L 554.815092 85.231462 
L 573.83782 76.703649 
L 592.860547 72.507465 
L 611.883274 70.005633 
L 630.906001 68.569118 
L 649.928729 67.668466 
L 668.951456 67.668466 
L 687.974183 67.668466 
" clip-path="url(#pb247ded6d6)" style="fill: none; stroke: #1f77b4; stroke-opacity: 0.5; stroke-width: 0.5; stroke-linecap: round"/>
   </g>
   <g id="line2d_32">
    <path d="M 79.246911 298.392111 
L 98.269638 297.437015 
L 117.292365 284.325503 
L 136.315092 286.169999 
L 155.33782 286.173048 
L 174.360547 280.328006 
L 193.383274 268.719295 
L 212.406001 268.019586 
L 231.428729 264.061664 
L 250.451456 265.665032 
L 269.474183 265.016785 
L 288.496911 260.603094 
L 307.519638 255.804631 
L 326.542365 242.456137 
L 345.565092 218.860818 
L 364.58782 217.155028 
L 383.610547 215.224674 
L 402.633274 210.917758 
L 421.656001 203.319279 
L 440.678729 201.662587 
L 459.701456 198.423127 
L 478.724183 194.496804 
L 497.746911 182.864939 
L 516.769638 177.897776 
L 535.792365 174.001947 
L 554.815092 169.719138 
L 573.83782 169.719138 
L 592.860547 167.691836 
L 611.883274 162.504719 
L 630.906001 162.504719 
L 649.928729 158.103122 
L 668.951456 158.103122 
L 687.974183 158.103122 
" clip-path="url(#pb247ded6d6)" style="fill: none; stroke: #1f77b4; stroke-opacity: 0.5; stroke-width: 0.5; stroke-linecap: round"/>
   </g>
   <g id="line2d_33">
    <path d="M 79.246911 309.607362 
L 98.269638 310.10053 
L 117.292365 294.626863 
L 136.315092 294.246706 
L 155.33782 294.212952 
L 174.360547 288.05814 
L 193.383274 274.861254 
L 212.406001 271.172787 
L 231.428729 267.839586 
L 250.451456 268.39186 
L 269.474183 270.247919 
L 288.496911 265.590553 
L 307.519638 262.377904 
L 326.542365 253.721432 
L 345.565092 237.013171 
L 364.58782 231.142144 
L 383.610547 230.194793 
L 402.633274 226.755798 
L 421.656001 218.357051 
L 440.678729 218.357051 
L 459.701456 216.954517 
L 478.724183 217.544028 
L 497.746911 207.497763 
L 516.769638 205.592892 
L 535.792365 200.176919 
L 554.815092 198.199189 
L 573.83782 188.32454 
L 592.860547 188.486356 
L 611.883274 184.532271 
L 630.906001 184.532271 
L 649.928729 183.39344 
L 668.951456 184.435852 
L 687.974183 184.621411 
" clip-path="url(#pb247ded6d6)" style="fill: none; stroke: #1f77b4; stroke-opacity: 0.5; stroke-width: 0.5; stroke-linecap: round"/>
   </g>
   <g id="line2d_34">
    <path d="M 79.246911 298.603999 
L 98.269638 297.648904 
L 117.292365 292.478204 
L 136.315092 288.396453 
L 155.33782 287.03533 
L 174.360547 284.576867 
L 193.383274 272.927984 
L 212.406001 268.961593 
L 231.428729 262.461702 
L 250.451456 266.378058 
L 269.474183 263.68811 
L 288.496911 263.754821 
L 307.519638 264.692593 
L 326.542365 264.442355 
L 345.565092 250.21021 
L 364.58782 249.315155 
L 383.610547 247.452939 
L 402.633274 245.182422 
L 421.656001 236.179697 
L 440.678729 234.582799 
L 459.701456 232.837935 
L 478.724183 232.837935 
L 497.746911 225.336432 
L 516.769638 224.321125 
L 535.792365 218.045741 
L 554.815092 213.881988 
L 573.83782 200.241948 
L 592.860547 200.241948 
L 611.883274 199.509349 
L 630.906001 200.166159 
L 649.928729 194.193491 
L 668.951456 194.193491 
L 687.974183 194.37905 
" clip-path="url(#pb247ded6d6)" style="fill: none; stroke: #1f77b4; stroke-opacity: 0.5; stroke-width: 0.5; stroke-linecap: round"/>
   </g>
   <g id="line2d_35">
    <path d="M 79.246911 133.386003 
L 98.269638 131.041294 
L 117.292365 128.300881 
L 136.315092 128.300881 
L 155.33782 116.920023 
L 174.360547 117.086822 
L 193.383274 119.09979 
L 212.406001 116.427278 
L 231.428729 118.362118 
L 250.451456 121.952853 
L 269.474183 131.421211 
L 288.496911 128.652202 
L 307.519638 128.559607 
L 326.542365 121.011901 
L 345.565092 101.830214 
L 364.58782 103.958062 
L 383.610547 98.243634 
L 402.633274 90.283882 
L 421.656001 71.007923 
L 440.678729 76.649547 
L 459.701456 76.649547 
L 478.724183 76.649547 
L 497.746911 76.649547 
L 516.769638 76.649547 
L 535.792365 80.697999 
L 554.815092 76.076631 
L 573.83782 65.633915 
L 592.860547 65.92037 
L 611.883274 64.418048 
L 630.906001 58.79308 
L 649.928729 58.79308 
L 668.951456 57.678408 
L 687.974183 57.678408 
" clip-path="url(#pb247ded6d6)" style="fill: none; stroke: #1f77b4; stroke-opacity: 0.5; stroke-width: 0.5; stroke-linecap: round"/>
   </g>
   <g id="line2d_36">
    <path d="M 79.246911 240.31914 
L 98.269638 234.777851 
L 117.292365 232.694006 
L 136.315092 234.556614 
L 155.33782 235.316599 
L 174.360547 235.218214 
L 193.383274 240.400126 
L 212.406001 238.280755 
L 231.428729 234.827614 
L 250.451456 235.152565 
L 269.474183 235.152565 
L 288.496911 230.663569 
L 307.519638 230.663569 
L 326.542365 204.350136 
L 345.565092 159.290079 
L 364.58782 153.840771 
L 383.610547 154.516878 
L 402.633274 155.9218 
L 421.656001 157.895359 
L 440.678729 158.506193 
L 459.701456 159.27842 
L 478.724183 160.045158 
L 497.746911 154.441591 
L 516.769638 154.352069 
L 535.792365 150.95414 
L 554.815092 147.709705 
L 573.83782 140.478888 
L 592.860547 135.546328 
L 611.883274 134.210628 
L 630.906001 128.86599 
L 649.928729 122.064874 
L 668.951456 122.064874 
L 687.974183 121.251882 
" clip-path="url(#pb247ded6d6)" style="fill: none; stroke: #1f77b4; stroke-opacity: 0.5; stroke-width: 0.5; stroke-linecap: round"/>
   </g>
   <g id="line2d_37">
    <path d="M 79.246911 165.478513 
L 98.269638 168.364771 
L 117.292365 158.186592 
L 136.315092 157.213717 
L 155.33782 160.008175 
L 174.360547 160.911516 
L 193.383274 162.699921 
L 212.406001 162.699921 
L 231.428729 163.94888 
L 250.451456 160.126399 
L 269.474183 155.989218 
L 288.496911 154.222685 
L 307.519638 156.138567 
L 326.542365 136.258168 
L 345.565092 113.533709 
L 364.58782 114.445455 
L 383.610547 112.18929 
L 402.633274 108.965307 
L 421.656001 94.920039 
L 440.678729 96.869686 
L 459.701456 96.869686 
L 478.724183 94.885873 
L 497.746911 93.636148 
L 516.769638 91.717704 
L 535.792365 90.595949 
L 554.815092 87.245384 
L 573.83782 87.245384 
L 592.860547 86.363551 
L 611.883274 83.993986 
L 630.906001 79.452288 
L 649.928729 70.014287 
L 668.951456 67.081104 
L 687.974183 67.081104 
" clip-path="url(#pb247ded6d6)" style="fill: none; stroke: #1f77b4; stroke-opacity: 0.5; stroke-width: 0.5; stroke-linecap: round"/>
   </g>
   <g id="line2d_38">
    <path d="M 79.246911 146.098724 
L 98.269638 145.821113 
L 117.292365 133.500607 
L 136.315092 128.537925 
L 155.33782 131.654782 
L 174.360547 131.654782 
L 193.383274 136.697062 
L 212.406001 136.697062 
L 231.428729 136.453644 
L 250.451456 136.794652 
L 269.474183 135.995901 
L 288.496911 135.995901 
L 307.519638 137.911782 
L 326.542365 124.079343 
L 345.565092 107.371226 
L 364.58782 108.507064 
L 383.610547 107.678845 
L 402.633274 103.651426 
L 421.656001 83.96404 
L 440.678729 85.913686 
L 459.701456 85.913686 
L 478.724183 87.065003 
L 497.746911 85.815278 
L 516.769638 83.896833 
L 535.792365 79.316246 
L 554.815092 74.709161 
L 573.83782 72.462342 
L 592.860547 67.19012 
L 611.883274 59.129738 
L 630.906001 50.157424 
L 649.928729 35.51 
L 668.951456 27.256571 
L 687.974183 27.256571 
" clip-path="url(#pb247ded6d6)" style="fill: none; stroke: #1f77b4; stroke-opacity: 0.5; stroke-width: 0.5; stroke-linecap: round"/>
   </g>
   <g id="line2d_39">
    <path d="M 79.246911 224.562993 
L 98.269638 213.295149 
L 117.292365 200.272503 
L 136.315092 198.399099 
L 155.33782 191.975702 
L 174.360547 187.28986 
L 193.383274 181.045546 
L 212.406001 180.672032 
L 231.428729 180.672032 
L 250.451456 179.002196 
L 269.474183 178.53554 
L 288.496911 177.968885 
L 307.519638 177.968885 
L 326.542365 174.114046 
L 345.565092 158.466696 
L 364.58782 155.886051 
L 383.610547 155.886051 
L 402.633274 155.218217 
L 421.656001 151.196184 
L 440.678729 152.488691 
L 459.701456 151.206686 
L 478.724183 140.345446 
L 497.746911 135.340525 
L 516.769638 134.44155 
L 535.792365 134.44155 
L 554.815092 133.11558 
L 573.83782 133.11558 
L 592.860547 129.162739 
L 611.883274 126.358868 
L 630.906001 124.580758 
L 649.928729 122.542247 
L 668.951456 121.831647 
L 687.974183 121.831647 
" clip-path="url(#pb247ded6d6)" style="fill: none; stroke: #1f77b4; stroke-opacity: 0.5; stroke-width: 0.5; stroke-linecap: round"/>
   </g>
   <g id="line2d_40">
    <path d="M 79.246911 313.713756 
L 98.269638 313.437104 
L 117.292365 304.345732 
L 136.315092 302.930605 
L 155.33782 302.745812 
L 174.360547 302.281904 
L 193.383274 297.038905 
L 212.406001 288.108721 
L 231.428729 278.676838 
L 250.451456 278.551126 
L 269.474183 276.848757 
L 288.496911 272.955586 
L 307.519638 273.700659 
L 326.542365 272.867434 
L 345.565092 255.035295 
L 364.58782 254.484406 
L 383.610547 255.007312 
L 402.633274 254.207395 
L 421.656001 249.905358 
L 440.678729 248.629777 
L 459.701456 246.560882 
L 478.724183 245.763864 
L 497.746911 241.235785 
L 516.769638 237.893102 
L 535.792365 230.387364 
L 554.815092 218.818431 
L 573.83782 197.075466 
L 592.860547 201.769515 
L 611.883274 199.149332 
L 630.906001 198.026214 
L 649.928729 192.928258 
L 668.951456 192.928258 
L 687.974183 193.700813 
" clip-path="url(#pb247ded6d6)" style="fill: none; stroke: #1f77b4; stroke-opacity: 0.5; stroke-width: 0.5; stroke-linecap: round"/>
   </g>
   <g id="line2d_41">
    <path d="M 79.246911 208.012182 
L 98.269638 206.586448 
L 117.292365 205.299926 
L 136.315092 196.45449 
L 155.33782 185.23072 
L 174.360547 186.740334 
L 193.383274 186.740334 
L 212.406001 183.027751 
L 231.428729 176.701003 
L 250.451456 174.832025 
L 269.474183 172.57882 
L 288.496911 170.821785 
L 307.519638 168.150921 
L 326.542365 145.658614 
L 345.565092 134.627039 
L 364.58782 127.728116 
L 383.610547 127.621923 
L 402.633274 125.134089 
L 421.656001 119.060899 
L 440.678729 118.021688 
L 459.701456 118.021688 
L 478.724183 110.354741 
L 497.746911 112.323374 
L 516.769638 100.938148 
L 535.792365 102.884723 
L 554.815092 104.129753 
L 573.83782 104.129753 
L 592.860547 104.847392 
L 611.883274 103.917685 
L 630.906001 101.257063 
L 649.928729 102.233499 
L 668.951456 100.369277 
L 687.974183 99.1409 
" clip-path="url(#pb247ded6d6)" style="fill: none; stroke: #1f77b4; stroke-opacity: 0.5; stroke-width: 0.5; stroke-linecap: round"/>
   </g>
   <g id="line2d_42">
    <path d="M 79.246911 178.077744 
L 98.269638 177.829863 
L 117.292365 172.241089 
L 136.315092 172.241089 
L 155.33782 173.015728 
L 174.360547 173.015728 
L 193.383274 164.624514 
L 212.406001 161.91217 
L 231.428729 160.55951 
L 250.451456 152.216467 
L 269.474183 148.306341 
L 288.496911 143.543675 
L 307.519638 145.209905 
L 326.542365 137.284949 
L 345.565092 120.620546 
L 364.58782 121.532292 
L 383.610547 119.276127 
L 402.633274 114.46574 
L 421.656001 99.994842 
L 440.678729 101.944488 
L 459.701456 100.946699 
L 478.724183 98.962886 
L 497.746911 97.713161 
L 516.769638 96.71641 
L 535.792365 95.946068 
L 554.815092 96.978016 
L 573.83782 95.394811 
L 592.860547 95.394811 
L 611.883274 91.913185 
L 630.906001 83.204603 
L 649.928729 70.727154 
L 668.951456 69.228961 
L 687.974183 69.228961 
" clip-path="url(#pb247ded6d6)" style="fill: none; stroke: #1f77b4; stroke-opacity: 0.5; stroke-width: 0.5; stroke-linecap: round"/>
   </g>
   <g id="line2d_43">
    <path d="M 79.246911 180.237918 
L 98.269638 179.53035 
L 117.292365 180.216308 
L 136.315092 180.216308 
L 155.33782 180.419133 
L 174.360547 180.419133 
L 193.383274 182.477191 
L 212.406001 182.049612 
L 231.428729 182.049612 
L 250.451456 181.223007 
L 269.474183 180.631615 
L 288.496911 181.079403 
L 307.519638 181.079403 
L 326.542365 182.720793 
L 345.565092 175.303121 
L 364.58782 175.486411 
L 383.610547 176.649434 
L 402.633274 173.959285 
L 421.656001 172.032191 
L 440.678729 171.304616 
L 459.701456 172.241553 
L 478.724183 172.241553 
L 497.746911 167.034897 
L 516.769638 162.195941 
L 535.792365 158.05088 
L 554.815092 140.735347 
L 573.83782 124.152877 
L 592.860547 120.389833 
L 611.883274 118.271557 
L 630.906001 108.388701 
L 649.928729 105.085718 
L 668.951456 105.085718 
L 687.974183 105.085718 
" clip-path="url(#pb247ded6d6)" style="fill: none; stroke: #1f77b4; stroke-opacity: 0.5; stroke-width: 0.5; stroke-linecap: round"/>
   </g>
   <g id="line2d_44">
    <path d="M 79.246911 207.87931 
L 98.269638 203.087004 
L 117.292365 186.227664 
L 136.315092 186.227664 
L 155.33782 186.253697 
L 174.360547 186.253697 
L 193.383274 174.158243 
L 212.406001 174.158243 
L 231.428729 172.805584 
L 250.451456 165.512119 
L 269.474183 163.893308 
L 288.496911 161.034041 
L 307.519638 161.034041 
L 326.542365 152.545224 
L 345.565092 130.797037 
L 364.58782 131.708783 
L 383.610547 131.708783 
L 402.633274 128.478936 
L 421.656001 115.651096 
L 440.678729 117.600742 
L 459.701456 116.602953 
L 478.724183 113.547963 
L 497.746911 112.298238 
L 516.769638 112.255934 
L 535.792365 112.255934 
L 554.815092 111.790239 
L 573.83782 107.473635 
L 592.860547 105.7191 
L 611.883274 102.337808 
L 630.906001 93.603265 
L 649.928729 81.603013 
L 668.951456 78.11488 
L 687.974183 78.11488 
" clip-path="url(#pb247ded6d6)" style="fill: none; stroke: #1f77b4; stroke-opacity: 0.5; stroke-width: 0.5; stroke-linecap: round"/>
   </g>
   <g id="line2d_45">
    <path d="M 79.246911 146.793542 
L 98.269638 149.471152 
L 117.292365 145.298923 
L 136.315092 143.784079 
L 155.33782 147.425296 
L 174.360547 147.425296 
L 193.383274 141.197607 
L 212.406001 137.194196 
L 231.428729 134.303069 
L 250.451456 132.025098 
L 269.474183 131.934561 
L 288.496911 116.163196 
L 307.519638 117.869668 
L 326.542365 113.209799 
L 345.565092 108.321029 
L 364.58782 107.090429 
L 383.610547 104.363274 
L 402.633274 93.547269 
L 421.656001 84.53143 
L 440.678729 83.670583 
L 459.701456 83.670583 
L 478.724183 83.670583 
L 497.746911 85.705887 
L 516.769638 77.973789 
L 535.792365 72.58552 
L 554.815092 70.6434 
L 573.83782 52.79015 
L 592.860547 53.553903 
L 611.883274 47.538902 
L 630.906001 39.797041 
L 649.928729 38.896389 
L 668.951456 38.93278 
L 687.974183 38.93278 
" clip-path="url(#pb247ded6d6)" style="fill: none; stroke: #1f77b4; stroke-opacity: 0.5; stroke-width: 0.5; stroke-linecap: round"/>
   </g>
   <g id="line2d_46">
    <path d="M 79.246911 284.533531 
L 98.269638 281.387568 
L 117.292365 267.240769 
L 136.315092 267.240769 
L 155.33782 268.802346 
L 174.360547 268.589152 
L 193.383274 266.097669 
L 212.406001 265.568675 
L 231.428729 263.212323 
L 250.451456 261.208933 
L 269.474183 257.279194 
L 288.496911 255.25686 
L 307.519638 256.538073 
L 326.542365 241.911466 
L 345.565092 213.312851 
L 364.58782 214.197128 
L 383.610547 214.197128 
L 402.633274 214.65061 
L 421.656001 212.44831 
L 440.678729 212.44831 
L 459.701456 212.357068 
L 478.724183 214.046866 
L 497.746911 214.871016 
L 516.769638 212.20797 
L 535.792365 207.134174 
L 554.815092 200.216421 
L 573.83782 202.050347 
L 592.860547 202.050347 
L 611.883274 202.050347 
L 630.906001 200.218319 
L 649.928729 200.823361 
L 668.951456 200.823361 
L 687.974183 200.823361 
" clip-path="url(#pb247ded6d6)" style="fill: none; stroke: #1f77b4; stroke-opacity: 0.5; stroke-width: 0.5; stroke-linecap: round"/>
   </g>
   <g id="line2d_47">
    <path d="M 79.246911 212.996367 
L 98.269638 211.707066 
L 117.292365 208.247555 
L 136.315092 205.394763 
L 155.33782 205.736791 
L 174.360547 207.975984 
L 193.383274 206.294685 
L 212.406001 204.613386 
L 231.428729 200.519167 
L 250.451456 204.462086 
L 269.474183 209.477701 
L 288.496911 204.159161 
L 307.519638 204.159161 
L 326.542365 201.344778 
L 345.565092 183.562009 
L 364.58782 180.428374 
L 383.610547 178.416963 
L 402.633274 175.857327 
L 421.656001 166.855926 
L 440.678729 164.067783 
L 459.701456 161.177332 
L 478.724183 150.627001 
L 497.746911 138.546759 
L 516.769638 133.295155 
L 535.792365 133.295155 
L 554.815092 129.576403 
L 573.83782 129.576403 
L 592.860547 130.365611 
L 611.883274 124.987338 
L 630.906001 116.025395 
L 649.928729 116.386588 
L 668.951456 114.643971 
L 687.974183 114.643971 
" clip-path="url(#pb247ded6d6)" style="fill: none; stroke: #1f77b4; stroke-opacity: 0.5; stroke-width: 0.5; stroke-linecap: round"/>
   </g>
   <g id="line2d_48">
    <path d="M 79.246911 249.930804 
L 98.269638 242.002127 
L 117.292365 227.189175 
L 136.315092 227.189175 
L 155.33782 224.449996 
L 174.360547 216.681733 
L 193.383274 198.865045 
L 212.406001 198.865045 
L 231.428729 198.865045 
L 250.451456 194.040277 
L 269.474183 192.68695 
L 288.496911 188.229353 
L 307.519638 188.229353 
L 326.542365 181.173258 
L 345.565092 143.987496 
L 364.58782 143.147713 
L 383.610547 143.147713 
L 402.633274 138.375785 
L 421.656001 126.030088 
L 440.678729 127.979734 
L 459.701456 126.981945 
L 478.724183 123.926955 
L 497.746911 123.926955 
L 516.769638 123.926955 
L 535.792365 123.926955 
L 554.815092 119.83123 
L 573.83782 119.83123 
L 592.860547 116.927867 
L 611.883274 115.394661 
L 630.906001 110.363657 
L 649.928729 102.571232 
L 668.951456 95.313724 
L 687.974183 95.313724 
" clip-path="url(#pb247ded6d6)" style="fill: none; stroke: #1f77b4; stroke-opacity: 0.5; stroke-width: 0.5; stroke-linecap: round"/>
   </g>
   <g id="line2d_49">
    <path d="M 79.246911 283.593942 
L 98.269638 283.593942 
L 117.292365 283.593942 
L 136.315092 282.461045 
L 155.33782 282.60404 
L 174.360547 285.823712 
L 193.383274 284.345835 
L 212.406001 283.562017 
L 231.428729 285.147443 
L 250.451456 288.371036 
L 269.474183 278.832909 
L 288.496911 274.727443 
L 307.519638 274.727443 
L 326.542365 258.749242 
L 345.565092 245.656437 
L 364.58782 249.523712 
L 383.610547 247.208006 
L 402.633274 246.218325 
L 421.656001 227.415629 
L 440.678729 227.371947 
L 459.701456 224.5838 
L 478.724183 211.476084 
L 497.746911 192.789695 
L 516.769638 191.024846 
L 535.792365 191.024846 
L 554.815092 189.393511 
L 573.83782 184.580868 
L 592.860547 183.563236 
L 611.883274 182.113964 
L 630.906001 176.63344 
L 649.928729 174.349408 
L 668.951456 172.937086 
L 687.974183 170.359517 
" clip-path="url(#pb247ded6d6)" style="fill: none; stroke: #1f77b4; stroke-opacity: 0.5; stroke-width: 0.5; stroke-linecap: round"/>
   </g>
   <g id="line2d_50">
    <path d="M 79.246911 221.339663 
L 98.269638 212.670986 
L 117.292365 200.165067 
L 136.315092 200.165067 
L 155.33782 198.379747 
L 174.360547 193.502877 
L 193.383274 182.700692 
L 212.406001 182.700692 
L 231.428729 182.700692 
L 250.451456 180.196254 
L 269.474183 172.953746 
L 288.496911 172.909101 
L 307.519638 172.909101 
L 326.542365 158.217621 
L 345.565092 128.573445 
L 364.58782 129.485191 
L 383.610547 128.656972 
L 402.633274 126.62976 
L 421.656001 106.538198 
L 440.678729 108.487845 
L 459.701456 108.487845 
L 478.724183 106.504032 
L 497.746911 105.254307 
L 516.769638 103.335863 
L 535.792365 103.335863 
L 554.815092 97.501054 
L 573.83782 97.501054 
L 592.860547 97.002383 
L 611.883274 93.621091 
L 630.906001 88.084955 
L 649.928729 73.769661 
L 668.951456 68.958571 
L 687.974183 68.958571 
" clip-path="url(#pb247ded6d6)" style="fill: none; stroke: #1f77b4; stroke-opacity: 0.5; stroke-width: 0.5; stroke-linecap: round"/>
   </g>
   <g id="line2d_51">
    <path d="M 79.246911 233.014805 
L 98.269638 231.589071 
L 117.292365 227.911868 
L 136.315092 228.430783 
L 155.33782 225.0389 
L 174.360547 223.318373 
L 193.383274 223.318373 
L 212.406001 223.318373 
L 231.428729 222.925597 
L 250.451456 222.056576 
L 269.474183 217.695104 
L 288.496911 212.693033 
L 307.519638 210.548999 
L 326.542365 190.243457 
L 345.565092 185.882499 
L 364.58782 175.253907 
L 383.610547 172.52589 
L 402.633274 170.460846 
L 421.656001 169.026242 
L 440.678729 166.097636 
L 459.701456 166.097636 
L 478.724183 156.395477 
L 497.746911 157.475851 
L 516.769638 145.210827 
L 535.792365 147.02649 
L 554.815092 140.228974 
L 573.83782 140.228974 
L 592.860547 138.866069 
L 611.883274 138.866069 
L 630.906001 135.599164 
L 649.928729 129.967125 
L 668.951456 129.967125 
L 687.974183 128.738747 
" clip-path="url(#pb247ded6d6)" style="fill: none; stroke: #1f77b4; stroke-opacity: 0.5; stroke-width: 0.5; stroke-linecap: round"/>
   </g>
   <g id="line2d_52">
    <path d="M 79.246911 324.72 
L 98.269638 323.764904 
L 117.292365 311.545165 
L 136.315092 311.828222 
L 155.33782 311.525767 
L 174.360547 307.675411 
L 193.383274 297.645049 
L 212.406001 296.395458 
L 231.428729 286.33069 
L 250.451456 291.450875 
L 269.474183 291.402105 
L 288.496911 287.026471 
L 307.519638 286.247992 
L 326.542365 274.782363 
L 345.565092 249.465156 
L 364.58782 248.526728 
L 383.610547 248.197537 
L 402.633274 245.92702 
L 421.656001 243.125465 
L 440.678729 243.125465 
L 459.701456 240.297584 
L 478.724183 240.168762 
L 497.746911 236.016105 
L 516.769638 230.842268 
L 535.792365 223.345784 
L 554.815092 217.840044 
L 573.83782 201.296718 
L 592.860547 201.458535 
L 611.883274 194.784325 
L 630.906001 194.569146 
L 649.928729 193.147767 
L 668.951456 193.147767 
L 687.974183 193.333327 
" clip-path="url(#pb247ded6d6)" style="fill: none; stroke: #1f77b4; stroke-opacity: 0.5; stroke-width: 0.5; stroke-linecap: round"/>
   </g>
   <g id="line2d_53">
    <path d="M 79.246911 172.469299 
L 98.269638 161.971577 
L 117.292365 153.675809 
L 136.315092 152.777719 
L 155.33782 153.824888 
L 174.360547 156.14614 
L 193.383274 156.995046 
L 212.406001 156.995046 
L 231.428729 156.995046 
L 250.451456 159.251436 
L 269.474183 160.089877 
L 288.496911 158.455634 
L 307.519638 162.854779 
L 326.542365 155.156306 
L 345.565092 152.051359 
L 364.58782 152.113572 
L 383.610547 149.06405 
L 402.633274 152.56582 
L 421.656001 138.644769 
L 440.678729 133.189539 
L 459.701456 133.189539 
L 478.724183 125.156872 
L 497.746911 116.812055 
L 516.769638 107.628304 
L 535.792365 107.628304 
L 554.815092 106.500127 
L 573.83782 106.500127 
L 592.860547 100.865325 
L 611.883274 99.277769 
L 630.906001 90.375777 
L 649.928729 87.917252 
L 668.951456 86.174634 
L 687.974183 87.402332 
" clip-path="url(#pb247ded6d6)" style="fill: none; stroke: #1f77b4; stroke-opacity: 0.5; stroke-width: 0.5; stroke-linecap: round"/>
   </g>
   <g id="line2d_54">
    <path d="M 79.246911 169.350335 
L 98.269638 168.776356 
L 117.292365 157.950367 
L 136.315092 156.435522 
L 155.33782 153.913598 
L 174.360547 153.913598 
L 193.383274 131.365253 
L 212.406001 123.722057 
L 231.428729 122.369398 
L 250.451456 121.626202 
L 269.474183 121.535665 
L 288.496911 103.023544 
L 307.519638 103.023544 
L 326.542365 107.533992 
L 345.565092 109.36027 
L 364.58782 107.466865 
L 383.610547 102.24624 
L 402.633274 89.240348 
L 421.656001 79.460222 
L 440.678729 78.599376 
L 459.701456 78.599376 
L 478.724183 78.599376 
L 497.746911 80.63468 
L 516.769638 76.615285 
L 535.792365 73.19544 
L 554.815092 73.11697 
L 573.83782 61.617752 
L 592.860547 63.254313 
L 611.883274 57.239312 
L 630.906001 49.878073 
L 649.928729 48.977421 
L 668.951456 47.645724 
L 687.974183 47.645724 
" clip-path="url(#pb247ded6d6)" style="fill: none; stroke: #1f77b4; stroke-opacity: 0.5; stroke-width: 0.5; stroke-linecap: round"/>
   </g>
   <g id="line2d_55">
    <path d="M 79.246911 183.641293 
L 98.269638 183.641293 
L 117.292365 174.154655 
L 136.315092 175.329236 
L 155.33782 169.182794 
L 174.360547 168.190062 
L 193.383274 168.878544 
L 212.406001 169.720135 
L 231.428729 167.10307 
L 250.451456 168.360314 
L 269.474183 169.110103 
L 288.496911 166.147324 
L 307.519638 170.502502 
L 326.542365 152.22921 
L 345.565092 118.565093 
L 364.58782 112.093114 
L 383.610547 109.860126 
L 402.633274 91.647252 
L 421.656001 81.074075 
L 440.678729 78.390796 
L 459.701456 78.390796 
L 478.724183 78.390796 
L 497.746911 74.148577 
L 516.769638 70.391944 
L 535.792365 61.497621 
L 554.815092 62.536479 
L 573.83782 54.711953 
L 592.860547 51.476585 
L 611.883274 48.970148 
L 630.906001 44.141919 
L 649.928729 44.141919 
L 668.951456 44.141919 
L 687.974183 41.482289 
" clip-path="url(#pb247ded6d6)" style="fill: none; stroke: #1f77b4; stroke-opacity: 0.5; stroke-width: 0.5; stroke-linecap: round"/>
   </g>
   <g id="line2d_56">
    <path d="M 79.246911 273.186754 
L 98.269638 268.570824 
L 117.292365 263.968012 
L 136.315092 263.955292 
L 155.33782 263.237546 
L 174.360547 255.039507 
L 193.383274 259.306617 
L 212.406001 252.879315 
L 231.428729 250.820402 
L 250.451456 250.066276 
L 269.474183 248.340331 
L 288.496911 244.298287 
L 307.519638 239.83838 
L 326.542365 217.875537 
L 345.565092 177.293679 
L 364.58782 171.737596 
L 383.610547 171.860249 
L 402.633274 176.738372 
L 421.656001 166.285598 
L 440.678729 166.364228 
L 459.701456 164.643676 
L 478.724183 162.227671 
L 497.746911 165.506783 
L 516.769638 158.804923 
L 535.792365 157.722068 
L 554.815092 152.016572 
L 573.83782 147.845101 
L 592.860547 142.126063 
L 611.883274 142.126063 
L 630.906001 138.71035 
L 649.928729 137.603027 
L 668.951456 137.603027 
L 687.974183 137.603027 
" clip-path="url(#pb247ded6d6)" style="fill: none; stroke: #1f77b4; stroke-opacity: 0.5; stroke-width: 0.5; stroke-linecap: round"/>
   </g>
   <g id="line2d_57">
    <path d="M 79.246911 270.944204 
L 98.269638 270.944204 
L 117.292365 270.044819 
L 136.315092 268.260912 
L 155.33782 264.284935 
L 174.360547 263.379958 
L 193.383274 259.84652 
L 212.406001 255.943931 
L 231.428729 249.718257 
L 250.451456 249.43006 
L 269.474183 243.370712 
L 288.496911 240.963862 
L 307.519638 240.963862 
L 326.542365 227.968659 
L 345.565092 214.357945 
L 364.58782 217.506769 
L 383.610547 217.506769 
L 402.633274 217.048049 
L 421.656001 206.089367 
L 440.678729 200.94307 
L 459.701456 199.661065 
L 478.724183 185.010684 
L 497.746911 164.208287 
L 516.769638 159.951887 
L 535.792365 157.598979 
L 554.815092 156.557998 
L 573.83782 156.557998 
L 592.860547 151.001409 
L 611.883274 143.682018 
L 630.906001 137.255919 
L 649.928729 126.915963 
L 668.951456 124.662374 
L 687.974183 126.677905 
" clip-path="url(#pb247ded6d6)" style="fill: none; stroke: #1f77b4; stroke-opacity: 0.5; stroke-width: 0.5; stroke-linecap: round"/>
   </g>
   <g id="line2d_58">
    <path d="M 79.246911 235.545638 
L 98.269638 226.76597 
L 117.292365 211.203274 
L 136.315092 211.203274 
L 155.33782 208.827568 
L 174.360547 202.578773 
L 193.383274 202.167131 
L 212.406001 202.167131 
L 231.428729 202.167131 
L 250.451456 197.706706 
L 269.474183 195.23629 
L 288.496911 190.702937 
L 307.519638 190.702937 
L 326.542365 171.778064 
L 345.565092 139.511653 
L 364.58782 140.423399 
L 383.610547 140.423399 
L 402.633274 140.989483 
L 421.656001 130.099914 
L 440.678729 132.049561 
L 459.701456 131.051771 
L 478.724183 127.996781 
L 497.746911 126.747056 
L 516.769638 124.440026 
L 535.792365 124.440026 
L 554.815092 118.159121 
L 573.83782 118.159121 
L 592.860547 114.368579 
L 611.883274 115.965132 
L 630.906001 111.493492 
L 649.928729 93.128919 
L 668.951456 89.306317 
L 687.974183 89.306317 
" clip-path="url(#pb247ded6d6)" style="fill: none; stroke: #1f77b4; stroke-opacity: 0.5; stroke-width: 0.5; stroke-linecap: round"/>
   </g>
   <g id="line2d_59">
    <path d="M 79.246911 254.273665 
L 98.269638 254.273665 
L 117.292365 254.891716 
L 136.315092 252.41449 
L 155.33782 252.41449 
L 174.360547 252.41449 
L 193.383274 251.462984 
L 212.406001 249.785799 
L 231.428729 249.737231 
L 250.451456 250.176557 
L 269.474183 240.834285 
L 288.496911 240.787848 
L 307.519638 240.787848 
L 326.542365 228.46745 
L 345.565092 219.796175 
L 364.58782 219.00106 
L 383.610547 215.844224 
L 402.633274 215.487153 
L 421.656001 211.98767 
L 440.678729 209.901768 
L 459.701456 206.397508 
L 478.724183 208.989706 
L 497.746911 208.262164 
L 516.769638 210.941466 
L 535.792365 210.941466 
L 554.815092 204.774617 
L 573.83782 202.946299 
L 592.860547 201.984549 
L 611.883274 199.895123 
L 630.906001 189.365848 
L 649.928729 188.695428 
L 668.951456 189.737839 
L 687.974183 189.737839 
" clip-path="url(#pb247ded6d6)" style="fill: none; stroke: #1f77b4; stroke-opacity: 0.5; stroke-width: 0.5; stroke-linecap: round"/>
   </g>
   <g id="line2d_60">
    <path d="M 79.246911 195.209818 
L 98.269638 189.979296 
L 117.292365 191.785633 
L 136.315092 191.785633 
L 155.33782 185.710247 
L 174.360547 184.805271 
L 193.383274 165.522294 
L 212.406001 161.84315 
L 231.428729 158.2585 
L 250.451456 157.515304 
L 269.474183 157.515304 
L 288.496911 138.947625 
L 307.519638 141.650042 
L 326.542365 129.886034 
L 345.565092 105.625084 
L 364.58782 104.732553 
L 383.610547 103.649945 
L 402.633274 90.88382 
L 421.656001 85.349559 
L 440.678729 84.488712 
L 459.701456 84.488712 
L 478.724183 84.488712 
L 497.746911 85.319088 
L 516.769638 82.447551 
L 535.792365 82.360486 
L 554.815092 78.963085 
L 573.83782 68.458029 
L 592.860547 68.860681 
L 611.883274 65.214471 
L 630.906001 62.905939 
L 649.928729 62.005288 
L 668.951456 55.583054 
L 687.974183 55.583054 
" clip-path="url(#pb247ded6d6)" style="fill: none; stroke: #1f77b4; stroke-opacity: 0.5; stroke-width: 0.5; stroke-linecap: round"/>
   </g>
   <g id="line2d_61">
    <path d="M 79.246911 201.841565 
L 98.269638 200.731581 
L 117.292365 203.141219 
L 136.315092 199.315908 
L 155.33782 195.380563 
L 174.360547 196.890177 
L 193.383274 194.701674 
L 212.406001 191.080112 
L 231.428729 184.397124 
L 250.451456 183.38208 
L 269.474183 183.220661 
L 288.496911 183.172359 
L 307.519638 182.865482 
L 326.542365 180.561488 
L 345.565092 192.135991 
L 364.58782 192.900042 
L 383.610547 192.900042 
L 402.633274 193.593412 
L 421.656001 195.383593 
L 440.678729 193.07241 
L 459.701456 192.656892 
L 478.724183 189.71729 
L 497.746911 190.629183 
L 516.769638 182.140307 
L 535.792365 182.140307 
L 554.815092 171.649853 
L 573.83782 169.856142 
L 592.860547 168.367572 
L 611.883274 169.431445 
L 630.906001 162.865582 
L 649.928729 162.709357 
L 668.951456 163.751769 
L 687.974183 163.954511 
" clip-path="url(#pb247ded6d6)" style="fill: none; stroke: #1f77b4; stroke-opacity: 0.5; stroke-width: 0.5; stroke-linecap: round"/>
   </g>
   <g id="line2d_62">
    <path d="M 79.246911 219.812861 
L 98.269638 215.605535 
L 117.292365 203.494542 
L 136.315092 201.011927 
L 155.33782 201.544815 
L 174.360547 198.607172 
L 193.383274 190.204357 
L 212.406001 190.204357 
L 231.428729 189.799049 
L 250.451456 185.916045 
L 269.474183 180.127732 
L 288.496911 176.766567 
L 307.519638 176.766567 
L 326.542365 170.094174 
L 345.565092 148.740684 
L 364.58782 152.866827 
L 383.610547 152.866827 
L 402.633274 152.650766 
L 421.656001 148.700924 
L 440.678729 145.73623 
L 459.701456 145.73623 
L 478.724183 145.360244 
L 497.746911 137.189962 
L 516.769638 136.193211 
L 535.792365 134.063142 
L 554.815092 123.683118 
L 573.83782 123.683118 
L 592.860547 118.43483 
L 611.883274 113.915213 
L 630.906001 105.205312 
L 649.928729 90.538502 
L 668.951456 87.29742 
L 687.974183 87.29742 
" clip-path="url(#pb247ded6d6)" style="fill: none; stroke: #1f77b4; stroke-opacity: 0.5; stroke-width: 0.5; stroke-linecap: round"/>
   </g>
   <g id="line2d_63">
    <path d="M 79.246911 174.373487 
L 98.269638 173.580663 
L 117.292365 165.217267 
L 136.315092 163.702423 
L 155.33782 162.581613 
L 174.360547 162.581613 
L 193.383274 149.118726 
L 212.406001 149.017032 
L 231.428729 147.664373 
L 250.451456 145.998435 
L 269.474183 145.907899 
L 288.496911 141.418895 
L 307.519638 144.791597 
L 326.542365 133.863181 
L 345.565092 115.131727 
L 364.58782 114.239197 
L 383.610547 112.449633 
L 402.633274 96.937016 
L 421.656001 84.619681 
L 440.678729 84.911638 
L 459.701456 84.911638 
L 478.724183 84.911638 
L 497.746911 86.946942 
L 516.769638 83.260524 
L 535.792365 78.931901 
L 554.815092 78.44512 
L 573.83782 64.805532 
L 592.860547 63.458017 
L 611.883274 60.955063 
L 630.906001 52.245008 
L 649.928729 51.344357 
L 668.951456 51.380747 
L 687.974183 51.380747 
" clip-path="url(#pb247ded6d6)" style="fill: none; stroke: #1f77b4; stroke-opacity: 0.5; stroke-width: 0.5; stroke-linecap: round"/>
   </g>
   <g id="patch_3">
    <path d="M 48.810547 339.84 
L 48.810547 7.2 
" style="fill: none; stroke: #ffffff; stroke-width: 1.25; stroke-linejoin: miter; stroke-linecap: square"/>
   </g>
   <g id="patch_4">
    <path d="M 718.410547 339.84 
L 718.410547 7.2 
" style="fill: none; stroke: #ffffff; stroke-width: 1.25; stroke-linejoin: miter; stroke-linecap: square"/>
   </g>
   <g id="patch_5">
    <path d="M 48.810547 339.84 
L 718.410547 339.84 
" style="fill: none; stroke: #ffffff; stroke-width: 1.25; stroke-linejoin: miter; stroke-linecap: square"/>
   </g>
   <g id="patch_6">
    <path d="M 48.810547 7.2 
L 718.410547 7.2 
" style="fill: none; stroke: #ffffff; stroke-width: 1.25; stroke-linejoin: miter; stroke-linecap: square"/>
   </g>
  </g>
 </g>
 <defs>
  <clipPath id="pb247ded6d6">
   <rect x="48.810547" y="7.2" width="669.6" height="332.64"/>
  </clipPath>
 </defs>
</svg>
