<?xml version="1.0" encoding="utf-8" standalone="no"?>
<!DOCTYPE svg PUBLIC "-//W3C//DTD SVG 1.1//EN"
  "http://www.w3.org/Graphics/SVG/1.1/DTD/svg11.dtd">
<svg xmlns:xlink="http://www.w3.org/1999/xlink" width="399.371094pt" height="305.101766pt" viewBox="0 0 399.371094 305.101766" xmlns="http://www.w3.org/2000/svg" version="1.1">
 <metadata>
  <rdf:RDF xmlns:dc="http://purl.org/dc/elements/1.1/" xmlns:cc="http://creativecommons.org/ns#" xmlns:rdf="http://www.w3.org/1999/02/22-rdf-syntax-ns#">
   <cc:Work>
    <dc:type rdf:resource="http://purl.org/dc/dcmitype/StillImage"/>
    <dc:date>2024-03-19T20:57:36.968132</dc:date>
    <dc:format>image/svg+xml</dc:format>
    <dc:creator>
     <cc:Agent>
      <dc:title>Matplotlib v3.8.3, https://matplotlib.org/</dc:title>
     </cc:Agent>
    </dc:creator>
   </cc:Work>
  </rdf:RDF>
 </metadata>
 <defs>
  <style type="text/css">*{stroke-linejoin: round; stroke-linecap: butt}</style>
 </defs>
 <g id="figure_1">
  <g id="patch_1">
   <path d="M 0 305.101766 
L 399.371094 305.101766 
L 399.371094 0 
L 0 0 
z
" style="fill: #ffffff"/>
  </g>
  <g id="axes_1">
   <g id="patch_2">
    <path d="M 35.051094 273.312 
L 392.171094 273.312 
L 392.171094 7.2 
L 35.051094 7.2 
z
" style="fill: #eaeaf2"/>
   </g>
   <g id="matplotlib.axis_1">
    <g id="xtick_1">
     <g id="line2d_1">
      <path d="M 51.283821 273.312 
L 51.283821 7.2 
" clip-path="url(#pad5afabf09)" style="fill: none; stroke: #ffffff; stroke-linecap: round"/>
     </g>
     <g id="text_1">
      <!-- 0 -->
      <g style="fill: #262626" transform="translate(46.696048 294.622391) scale(0.165 -0.165)">
       <defs>
        <path id="ArialMT-30" d="M 266 2259 
Q 266 3072 433 3567 
Q 600 4063 929 4331 
Q 1259 4600 1759 4600 
Q 2128 4600 2406 4451 
Q 2684 4303 2865 4023 
Q 3047 3744 3150 3342 
Q 3253 2941 3253 2259 
Q 3253 1453 3087 958 
Q 2922 463 2592 192 
Q 2263 -78 1759 -78 
Q 1097 -78 719 397 
Q 266 969 266 2259 
z
M 844 2259 
Q 844 1131 1108 757 
Q 1372 384 1759 384 
Q 2147 384 2411 759 
Q 2675 1134 2675 2259 
Q 2675 3391 2411 3762 
Q 2147 4134 1753 4134 
Q 1366 4134 1134 3806 
Q 844 3388 844 2259 
z
" transform="scale(0.015625)"/>
       </defs>
       <use xlink:href="#ArialMT-30"/>
      </g>
     </g>
    </g>
    <g id="xtick_2">
     <g id="line2d_2">
      <path d="M 152.738366 273.312 
L 152.738366 7.2 
" clip-path="url(#pad5afabf09)" style="fill: none; stroke: #ffffff; stroke-linecap: round"/>
     </g>
     <g id="text_2">
      <!-- 10 -->
      <g style="fill: #262626" transform="translate(143.56282 294.622391) scale(0.165 -0.165)">
       <defs>
        <path id="ArialMT-31" d="M 2384 0 
L 1822 0 
L 1822 3584 
Q 1619 3391 1289 3197 
Q 959 3003 697 2906 
L 697 3450 
Q 1169 3672 1522 3987 
Q 1875 4303 2022 4600 
L 2384 4600 
L 2384 0 
z
" transform="scale(0.015625)"/>
       </defs>
       <use xlink:href="#ArialMT-31"/>
       <use xlink:href="#ArialMT-30" x="55.615234"/>
      </g>
     </g>
    </g>
    <g id="xtick_3">
     <g id="line2d_3">
      <path d="M 254.192912 273.312 
L 254.192912 7.2 
" clip-path="url(#pad5afabf09)" style="fill: none; stroke: #ffffff; stroke-linecap: round"/>
     </g>
     <g id="text_3">
      <!-- 20 -->
      <g style="fill: #262626" transform="translate(245.017365 294.622391) scale(0.165 -0.165)">
       <defs>
        <path id="ArialMT-32" d="M 3222 541 
L 3222 0 
L 194 0 
Q 188 203 259 391 
Q 375 700 629 1000 
Q 884 1300 1366 1694 
Q 2113 2306 2375 2664 
Q 2638 3022 2638 3341 
Q 2638 3675 2398 3904 
Q 2159 4134 1775 4134 
Q 1369 4134 1125 3890 
Q 881 3647 878 3216 
L 300 3275 
Q 359 3922 746 4261 
Q 1134 4600 1788 4600 
Q 2447 4600 2831 4234 
Q 3216 3869 3216 3328 
Q 3216 3053 3103 2787 
Q 2991 2522 2730 2228 
Q 2469 1934 1863 1422 
Q 1356 997 1212 845 
Q 1069 694 975 541 
L 3222 541 
z
" transform="scale(0.015625)"/>
       </defs>
       <use xlink:href="#ArialMT-32"/>
       <use xlink:href="#ArialMT-30" x="55.615234"/>
      </g>
     </g>
    </g>
    <g id="xtick_4">
     <g id="line2d_4">
      <path d="M 355.647457 273.312 
L 355.647457 7.2 
" clip-path="url(#pad5afabf09)" style="fill: none; stroke: #ffffff; stroke-linecap: round"/>
     </g>
     <g id="text_4">
      <!-- 30 -->
      <g style="fill: #262626" transform="translate(346.471911 294.622391) scale(0.165 -0.165)">
       <defs>
        <path id="ArialMT-33" d="M 269 1209 
L 831 1284 
Q 928 806 1161 595 
Q 1394 384 1728 384 
Q 2125 384 2398 659 
Q 2672 934 2672 1341 
Q 2672 1728 2419 1979 
Q 2166 2231 1775 2231 
Q 1616 2231 1378 2169 
L 1441 2663 
Q 1497 2656 1531 2656 
Q 1891 2656 2178 2843 
Q 2466 3031 2466 3422 
Q 2466 3731 2256 3934 
Q 2047 4138 1716 4138 
Q 1388 4138 1169 3931 
Q 950 3725 888 3313 
L 325 3413 
Q 428 3978 793 4289 
Q 1159 4600 1703 4600 
Q 2078 4600 2393 4439 
Q 2709 4278 2876 4000 
Q 3044 3722 3044 3409 
Q 3044 3113 2884 2869 
Q 2725 2625 2413 2481 
Q 2819 2388 3044 2092 
Q 3269 1797 3269 1353 
Q 3269 753 2831 336 
Q 2394 -81 1725 -81 
Q 1122 -81 723 278 
Q 325 638 269 1209 
z
" transform="scale(0.015625)"/>
       </defs>
       <use xlink:href="#ArialMT-33"/>
       <use xlink:href="#ArialMT-30" x="55.615234"/>
      </g>
     </g>
    </g>
   </g>
   <g id="matplotlib.axis_2">
    <g id="ytick_1">
     <g id="line2d_5">
      <path d="M 35.051094 251.061423 
L 392.171094 251.061423 
" clip-path="url(#pad5afabf09)" style="fill: none; stroke: #ffffff; stroke-linecap: round"/>
     </g>
     <g id="text_5">
      <!-- 5 -->
      <g style="fill: #262626" transform="translate(16.375547 256.966618) scale(0.165 -0.165)">
       <defs>
        <path id="ArialMT-35" d="M 266 1200 
L 856 1250 
Q 922 819 1161 601 
Q 1400 384 1738 384 
Q 2144 384 2425 690 
Q 2706 997 2706 1503 
Q 2706 1984 2436 2262 
Q 2166 2541 1728 2541 
Q 1456 2541 1237 2417 
Q 1019 2294 894 2097 
L 366 2166 
L 809 4519 
L 3088 4519 
L 3088 3981 
L 1259 3981 
L 1013 2750 
Q 1425 3038 1878 3038 
Q 2478 3038 2890 2622 
Q 3303 2206 3303 1553 
Q 3303 931 2941 478 
Q 2500 -78 1738 -78 
Q 1113 -78 717 272 
Q 322 622 266 1200 
z
" transform="scale(0.015625)"/>
       </defs>
       <use xlink:href="#ArialMT-35"/>
      </g>
     </g>
    </g>
    <g id="ytick_2">
     <g id="line2d_6">
      <path d="M 35.051094 190.063706 
L 392.171094 190.063706 
" clip-path="url(#pad5afabf09)" style="fill: none; stroke: #ffffff; stroke-linecap: round"/>
     </g>
     <g id="text_6">
      <!-- 10 -->
      <g style="fill: #262626" transform="translate(7.2 195.968901) scale(0.165 -0.165)">
       <use xlink:href="#ArialMT-31"/>
       <use xlink:href="#ArialMT-30" x="55.615234"/>
      </g>
     </g>
    </g>
    <g id="ytick_3">
     <g id="line2d_7">
      <path d="M 35.051094 129.065989 
L 392.171094 129.065989 
" clip-path="url(#pad5afabf09)" style="fill: none; stroke: #ffffff; stroke-linecap: round"/>
     </g>
     <g id="text_7">
      <!-- 15 -->
      <g style="fill: #262626" transform="translate(7.2 134.971185) scale(0.165 -0.165)">
       <use xlink:href="#ArialMT-31"/>
       <use xlink:href="#ArialMT-35" x="55.615234"/>
      </g>
     </g>
    </g>
    <g id="ytick_4">
     <g id="line2d_8">
      <path d="M 35.051094 68.068272 
L 392.171094 68.068272 
" clip-path="url(#pad5afabf09)" style="fill: none; stroke: #ffffff; stroke-linecap: round"/>
     </g>
     <g id="text_8">
      <!-- 20 -->
      <g style="fill: #262626" transform="translate(7.2 73.973468) scale(0.165 -0.165)">
       <use xlink:href="#ArialMT-32"/>
       <use xlink:href="#ArialMT-30" x="55.615234"/>
      </g>
     </g>
    </g>
   </g>
   <g id="line2d_9">
    <path d="M 51.283821 127.840924 
L 61.429276 128.462011 
L 71.57473 120.365475 
L 81.720185 119.153599 
L 91.865639 121.088386 
L 102.011094 121.088386 
L 112.156548 116.336861 
L 122.302003 113.134133 
L 132.447457 110.821231 
L 142.592912 111.354168 
L 152.738366 111.281739 
L 162.883821 97.212952 
L 173.029276 97.212952 
L 183.17473 95.723014 
L 193.320185 88.035045 
L 203.465639 87.050565 
L 213.611094 84.054502 
L 223.756548 77.438813 
L 233.902003 70.226141 
L 244.047457 69.537464 
L 254.192912 69.537464 
L 264.338366 69.537464 
L 274.483821 71.165707 
L 284.629276 66.983248 
L 294.77473 62.672634 
L 304.920185 61.118937 
L 315.065639 46.836338 
L 325.211094 45.758326 
L 335.356548 40.946325 
L 345.502003 34.752836 
L 355.647457 34.032315 
L 365.792912 32.966957 
L 375.938366 32.966957 
" clip-path="url(#pad5afabf09)" style="fill: none; stroke: #1f77b4; stroke-opacity: 0.33; stroke-width: 0.25; stroke-linecap: round"/>
   </g>
   <g id="line2d_10">
    <path d="M 51.283821 194.159335 
L 61.429276 193.018747 
L 71.57473 191.370017 
L 81.720185 185.521173 
L 91.865639 183.252053 
L 102.011094 184.279195 
L 112.156548 184.279195 
L 122.302003 182.42633 
L 132.447457 178.418264 
L 142.592912 175.753114 
L 152.738366 171.791542 
L 162.883821 169.495666 
L 173.029276 169.495666 
L 183.17473 150.550133 
L 193.320185 142.664994 
L 203.465639 133.632133 
L 213.611094 132.883488 
L 223.756548 132.964388 
L 233.902003 128.223972 
L 244.047457 128.597892 
L 254.192912 128.597892 
L 264.338366 115.93336 
L 274.483821 111.414739 
L 284.629276 97.174655 
L 294.77473 98.627186 
L 304.920185 97.539992 
L 315.065639 97.539992 
L 325.211094 92.519588 
L 335.356548 91.79252 
L 345.502003 87.960817 
L 355.647457 87.106372 
L 365.792912 86.646614 
L 375.938366 86.110535 
" clip-path="url(#pad5afabf09)" style="fill: none; stroke: #1f77b4; stroke-opacity: 0.33; stroke-width: 0.25; stroke-linecap: round"/>
   </g>
   <g id="line2d_11">
    <path d="M 51.283821 134.556734 
L 61.429276 131.60213 
L 71.57473 124.766605 
L 81.720185 122.639684 
L 91.865639 122.704936 
L 102.011094 122.704936 
L 112.156548 122.916681 
L 122.302003 122.916681 
L 132.447457 122.721947 
L 142.592912 123.978675 
L 152.738366 124.649428 
L 162.883821 124.649428 
L 173.029276 126.636039 
L 183.17473 112.038012 
L 193.320185 97.051927 
L 203.465639 97.078755 
L 213.611094 96.41618 
L 223.756548 90.6361 
L 233.902003 83.189849 
L 244.047457 82.296474 
L 254.192912 81.009717 
L 264.338366 80.047544 
L 274.483821 80.047544 
L 284.629276 79.250143 
L 294.77473 78.334142 
L 304.920185 75.904303 
L 315.065639 75.904303 
L 325.211094 74.526983 
L 335.356548 70.457676 
L 345.502003 69.030205 
L 355.647457 64.897219 
L 365.792912 58.563605 
L 375.938366 58.563605 
" clip-path="url(#pad5afabf09)" style="fill: none; stroke: #1f77b4; stroke-opacity: 0.33; stroke-width: 0.25; stroke-linecap: round"/>
   </g>
   <g id="line2d_12">
    <path d="M 51.283821 199.118771 
L 61.429276 198.521325 
L 71.57473 199.127346 
L 81.720185 196.64163 
L 91.865639 193.061008 
L 102.011094 192.880459 
L 112.156548 189.036731 
L 122.302003 189.579202 
L 132.447457 188.357642 
L 142.592912 187.33488 
L 152.738366 184.574657 
L 162.883821 182.064489 
L 173.029276 182.064489 
L 183.17473 168.484348 
L 193.320185 142.35988 
L 203.465639 143.323962 
L 213.611094 143.323962 
L 223.756548 132.00827 
L 233.902003 119.663078 
L 244.047457 114.098709 
L 254.192912 114.098709 
L 264.338366 111.689273 
L 274.483821 104.85397 
L 284.629276 100.551251 
L 294.77473 99.787435 
L 304.920185 98.459586 
L 315.065639 91.897657 
L 325.211094 87.161177 
L 335.356548 85.419202 
L 345.502003 85.97711 
L 355.647457 85.759584 
L 365.792912 84.661679 
L 375.938366 84.661679 
" clip-path="url(#pad5afabf09)" style="fill: none; stroke: #1f77b4; stroke-opacity: 0.33; stroke-width: 0.25; stroke-linecap: round"/>
   </g>
   <g id="line2d_13">
    <path d="M 51.283821 175.820619 
L 61.429276 174.680032 
L 71.57473 173.930025 
L 81.720185 172.264508 
L 91.865639 169.706592 
L 102.011094 169.526043 
L 112.156548 169.526043 
L 122.302003 169.415521 
L 132.447457 169.463201 
L 142.592912 167.968019 
L 152.738366 164.006446 
L 162.883821 160.636689 
L 173.029276 159.342924 
L 183.17473 144.707072 
L 193.320185 141.881761 
L 203.465639 129.910194 
L 213.611094 128.8824 
L 223.756548 128.968089 
L 233.902003 125.842609 
L 244.047457 124.446491 
L 254.192912 124.446491 
L 264.338366 118.360948 
L 274.483821 115.695022 
L 284.629276 103.586367 
L 294.77473 103.237905 
L 304.920185 100.754525 
L 315.065639 101.48502 
L 325.211094 101.169326 
L 335.356548 101.169326 
L 345.502003 100.444029 
L 355.647457 99.714612 
L 365.792912 99.714612 
L 375.938366 98.195831 
" clip-path="url(#pad5afabf09)" style="fill: none; stroke: #1f77b4; stroke-opacity: 0.33; stroke-width: 0.25; stroke-linecap: round"/>
   </g>
   <g id="line2d_14">
    <path d="M 51.283821 245.602925 
L 61.429276 244.838848 
L 71.57473 242.592054 
L 81.720185 242.818499 
L 91.865639 241.601851 
L 102.011094 239.6462 
L 112.156548 237.939537 
L 122.302003 231.971506 
L 132.447457 226.528671 
L 142.592912 226.469148 
L 152.738366 226.234096 
L 162.883821 223.827816 
L 173.029276 223.827816 
L 183.17473 223.252415 
L 193.320185 209.985468 
L 203.465639 209.567086 
L 213.611094 208.590103 
L 223.756548 207.856559 
L 233.902003 204.68937 
L 244.047457 202.947795 
L 254.192912 200.498474 
L 264.338366 198.852102 
L 274.483821 186.770256 
L 284.629276 179.375262 
L 294.77473 169.800204 
L 304.920185 152.139835 
L 315.065639 140.219275 
L 325.211094 140.219275 
L 335.356548 136.830557 
L 345.502003 136.830557 
L 355.647457 136.630559 
L 365.792912 136.630559 
L 375.938366 138.14373 
" clip-path="url(#pad5afabf09)" style="fill: none; stroke: #1f77b4; stroke-opacity: 0.33; stroke-width: 0.25; stroke-linecap: round"/>
   </g>
   <g id="line2d_15">
    <path d="M 51.283821 146.017771 
L 61.429276 145.819466 
L 71.57473 140.353842 
L 81.720185 140.353842 
L 91.865639 139.491061 
L 102.011094 139.491061 
L 112.156548 133.387803 
L 122.302003 133.306448 
L 132.447457 132.13307 
L 142.592912 126.390242 
L 152.738366 124.201522 
L 162.883821 121.33154 
L 173.029276 120.30132 
L 183.17473 115.001589 
L 193.320185 103.210068 
L 203.465639 102.109281 
L 213.611094 100.966925 
L 223.756548 90.636698 
L 233.902003 81.017799 
L 244.047457 78.379205 
L 254.192912 78.379205 
L 264.338366 78.379205 
L 274.483821 78.098992 
L 284.629276 72.205625 
L 294.77473 63.818689 
L 304.920185 63.149912 
L 315.065639 53.8225 
L 325.211094 54.360746 
L 335.356548 52.359281 
L 345.502003 46.712735 
L 355.647457 45.992213 
L 365.792912 45.992213 
L 375.938366 45.992213 
" clip-path="url(#pad5afabf09)" style="fill: none; stroke: #1f77b4; stroke-opacity: 0.33; stroke-width: 0.25; stroke-linecap: round"/>
   </g>
   <g id="line2d_16">
    <path d="M 51.283821 258.19751 
L 61.429276 256.170813 
L 71.57473 242.722762 
L 81.720185 240.544757 
L 91.865639 237.604408 
L 102.011094 233.897607 
L 112.156548 223.948874 
L 122.302003 218.028676 
L 132.447457 213.603352 
L 142.592912 210.904079 
L 152.738366 209.958116 
L 162.883821 207.740569 
L 173.029276 200.080785 
L 183.17473 197.431522 
L 193.320185 205.984717 
L 203.465639 204.89753 
L 213.611094 204.139649 
L 223.756548 202.189969 
L 233.902003 197.153332 
L 244.047457 197.398085 
L 254.192912 195.573365 
L 264.338366 195.472809 
L 274.483821 181.801934 
L 284.629276 180.890509 
L 294.77473 175.347141 
L 304.920185 162.087157 
L 315.065639 144.591083 
L 325.211094 145.693804 
L 335.356548 142.962076 
L 345.502003 137.841227 
L 355.647457 135.258273 
L 365.792912 136.540226 
L 375.938366 136.688674 
" clip-path="url(#pad5afabf09)" style="fill: none; stroke: #1f77b4; stroke-opacity: 0.33; stroke-width: 0.25; stroke-linecap: round"/>
   </g>
   <g id="line2d_17">
    <path d="M 51.283821 155.872353 
L 61.429276 154.059042 
L 71.57473 151.893818 
L 81.720185 152.747437 
L 91.865639 153.471096 
L 102.011094 152.419287 
L 112.156548 150.43548 
L 122.302003 150.398384 
L 132.447457 149.262937 
L 142.592912 147.79235 
L 152.738366 148.887532 
L 162.883821 147.693135 
L 173.029276 147.693135 
L 183.17473 140.702268 
L 193.320185 120.769767 
L 203.465639 116.734004 
L 213.611094 116.734004 
L 223.756548 116.199737 
L 233.902003 110.913077 
L 244.047457 108.471964 
L 254.192912 107.44636 
L 264.338366 100.111594 
L 274.483821 95.68857 
L 284.629276 96.900582 
L 294.77473 96.900582 
L 304.920185 94.288042 
L 315.065639 95.11588 
L 325.211094 94.301775 
L 335.356548 94.26069 
L 345.502003 91.071016 
L 355.647457 88.900333 
L 365.792912 90.889003 
L 375.938366 90.889003 
" clip-path="url(#pad5afabf09)" style="fill: none; stroke: #1f77b4; stroke-opacity: 0.33; stroke-width: 0.25; stroke-linecap: round"/>
   </g>
   <g id="line2d_18">
    <path d="M 51.283821 183.949254 
L 61.429276 175.931951 
L 71.57473 161.718923 
L 81.720185 162.572542 
L 91.865639 158.77229 
L 102.011094 154.8728 
L 112.156548 153.383915 
L 122.302003 153.383915 
L 132.447457 152.248467 
L 142.592912 151.008887 
L 152.738366 146.550078 
L 162.883821 140.038122 
L 173.029276 140.038122 
L 183.17473 130.357002 
L 193.320185 110.117682 
L 203.465639 112.203274 
L 213.611094 112.203274 
L 223.756548 112.656141 
L 233.902003 102.876887 
L 244.047457 104.436604 
L 254.192912 103.638373 
L 264.338366 101.194381 
L 274.483821 100.194601 
L 284.629276 98.348977 
L 294.77473 98.348977 
L 304.920185 93.324253 
L 315.065639 93.324253 
L 325.211094 90.291819 
L 335.356548 89.940662 
L 345.502003 85.540128 
L 355.647457 71.6169 
L 365.792912 68.558817 
L 375.938366 68.558817 
" clip-path="url(#pad5afabf09)" style="fill: none; stroke: #1f77b4; stroke-opacity: 0.33; stroke-width: 0.25; stroke-linecap: round"/>
   </g>
   <g id="line2d_19">
    <path d="M 51.283821 101.46927 
L 61.429276 99.593502 
L 71.57473 95.818672 
L 81.720185 95.818672 
L 91.865639 90.428806 
L 102.011094 90.562246 
L 112.156548 90.888209 
L 122.302003 85.642207 
L 132.447457 86.068521 
L 142.592912 87.350542 
L 152.738366 97.467408 
L 162.883821 94.730026 
L 173.029276 94.730026 
L 183.17473 88.292935 
L 193.320185 76.989064 
L 203.465639 78.691342 
L 213.611094 75.695279 
L 223.756548 67.004832 
L 233.902003 53.686359 
L 244.047457 52.006277 
L 254.192912 52.006277 
L 264.338366 52.006277 
L 274.483821 52.006277 
L 284.629276 52.006277 
L 294.77473 48.241656 
L 304.920185 45.708786 
L 315.065639 33.101395 
L 325.211094 34.172101 
L 335.356548 27.282761 
L 345.502003 19.296 
L 355.647457 19.296 
L 365.792912 20.682861 
L 375.938366 20.682861 
" clip-path="url(#pad5afabf09)" style="fill: none; stroke: #1f77b4; stroke-opacity: 0.33; stroke-width: 0.25; stroke-linecap: round"/>
   </g>
   <g id="line2d_20">
    <path d="M 51.283821 166.550384 
L 61.429276 161.516971 
L 71.57473 153.707132 
L 81.720185 153.707132 
L 91.865639 152.844351 
L 102.011094 152.844351 
L 112.156548 146.416386 
L 122.302003 146.416386 
L 132.447457 145.959829 
L 142.592912 144.723828 
L 152.738366 141.595727 
L 162.883821 138.836969 
L 173.029276 138.836969 
L 183.17473 132.763494 
L 193.320185 117.800619 
L 203.465639 118.322557 
L 213.611094 117.180201 
L 223.756548 113.432769 
L 233.902003 110.976781 
L 244.047457 107.4218 
L 254.192912 106.282589 
L 264.338366 105.749735 
L 274.483821 104.193484 
L 284.629276 104.193484 
L 294.77473 103.57721 
L 304.920185 100.099754 
L 315.065639 100.099754 
L 325.211094 98.969659 
L 335.356548 96.87319 
L 345.502003 90.706682 
L 355.647457 78.671667 
L 365.792912 77.747839 
L 375.938366 77.747839 
" clip-path="url(#pad5afabf09)" style="fill: none; stroke: #1f77b4; stroke-opacity: 0.33; stroke-width: 0.25; stroke-linecap: round"/>
   </g>
   <g id="line2d_21">
    <path d="M 51.283821 193.291357 
L 61.429276 192.150769 
L 71.57473 190.502039 
L 81.720185 189.490045 
L 91.865639 186.776538 
L 102.011094 186.595989 
L 112.156548 186.595989 
L 122.302003 186.595989 
L 132.447457 185.436148 
L 142.592912 185.550819 
L 152.738366 181.849364 
L 162.883821 178.921588 
L 173.029276 178.921588 
L 183.17473 159.252028 
L 193.320185 150.840295 
L 203.465639 147.028995 
L 213.611094 146.243342 
L 223.756548 142.583102 
L 233.902003 133.427696 
L 244.047457 133.138918 
L 254.192912 132.612193 
L 264.338366 123.391546 
L 274.483821 118.071665 
L 284.629276 113.181989 
L 294.77473 112.313445 
L 304.920185 110.708299 
L 315.065639 112.779985 
L 325.211094 111.217235 
L 335.356548 110.194083 
L 345.502003 109.464274 
L 355.647457 109.464274 
L 365.792912 108.366369 
L 375.938366 108.366369 
" clip-path="url(#pad5afabf09)" style="fill: none; stroke: #1f77b4; stroke-opacity: 0.33; stroke-width: 0.25; stroke-linecap: round"/>
   </g>
   <g id="line2d_22">
    <path d="M 51.283821 135.238406 
L 61.429276 129.434713 
L 71.57473 124.990932 
L 81.720185 123.779056 
L 91.865639 115.254224 
L 102.011094 114.530243 
L 112.156548 103.315938 
L 122.302003 100.640421 
L 132.447457 100.408815 
L 142.592912 99.713931 
L 152.738366 99.713931 
L 162.883821 82.515023 
L 173.029276 83.880201 
L 183.17473 77.339519 
L 193.320185 68.501854 
L 203.465639 70.354568 
L 213.611094 71.537195 
L 223.756548 49.658562 
L 233.902003 45.685684 
L 244.047457 45.685684 
L 254.192912 45.685684 
L 264.338366 44.884871 
L 274.483821 44.086015 
L 284.629276 44.086015 
L 294.77473 46.643184 
L 304.920185 46.538227 
L 315.065639 47.939478 
L 325.211094 46.456948 
L 335.356548 49.184397 
L 345.502003 41.708251 
L 355.647457 40.361678 
L 365.792912 36.938959 
L 375.938366 36.938959 
" clip-path="url(#pad5afabf09)" style="fill: none; stroke: #1f77b4; stroke-opacity: 0.33; stroke-width: 0.25; stroke-linecap: round"/>
   </g>
   <g id="line2d_23">
    <path d="M 51.283821 137.882378 
L 61.429276 136.74179 
L 71.57473 134.393806 
L 81.720185 130.755342 
L 91.865639 119.741054 
L 102.011094 119.741054 
L 112.156548 119.741054 
L 122.302003 119.769084 
L 132.447457 119.67721 
L 142.592912 120.959231 
L 152.738366 121.815104 
L 162.883821 120.409476 
L 173.029276 119.115711 
L 183.17473 98.28463 
L 193.320185 63.656516 
L 203.465639 65.177481 
L 213.611094 65.83704 
L 223.756548 56.803051 
L 233.902003 45.992346 
L 244.047457 42.403536 
L 254.192912 42.403536 
L 264.338366 39.793601 
L 274.483821 44.392888 
L 284.629276 40.660127 
L 294.77473 41.145738 
L 304.920185 41.862454 
L 315.065639 34.271012 
L 325.211094 34.702128 
L 335.356548 34.280202 
L 345.502003 34.463769 
L 355.647457 34.463769 
L 365.792912 36.012997 
L 375.938366 36.012997 
" clip-path="url(#pad5afabf09)" style="fill: none; stroke: #1f77b4; stroke-opacity: 0.33; stroke-width: 0.25; stroke-linecap: round"/>
   </g>
   <g id="line2d_24">
    <path d="M 51.283821 184.110202 
L 61.429276 178.171241 
L 71.57473 168.579807 
L 81.720185 168.579807 
L 91.865639 169.007669 
L 102.011094 166.000059 
L 112.156548 163.300665 
L 122.302003 163.300665 
L 132.447457 163.300665 
L 142.592912 160.773979 
L 152.738366 158.797646 
L 162.883821 157.315128 
L 173.029276 157.315128 
L 183.17473 143.420697 
L 193.320185 111.76007 
L 203.465639 112.489467 
L 213.611094 112.489467 
L 223.756548 108.886218 
L 233.902003 99.797425 
L 244.047457 102.436728 
L 254.192912 101.638496 
L 264.338366 100.267374 
L 274.483821 100.267374 
L 284.629276 100.267374 
L 294.77473 100.267374 
L 304.920185 96.242681 
L 315.065639 96.242681 
L 325.211094 93.91999 
L 335.356548 92.705339 
L 345.502003 90.650806 
L 355.647457 75.427132 
L 365.792912 68.748495 
L 375.938366 68.748495 
" clip-path="url(#pad5afabf09)" style="fill: none; stroke: #1f77b4; stroke-opacity: 0.33; stroke-width: 0.25; stroke-linecap: round"/>
   </g>
   <g id="line2d_25">
    <path d="M 51.283821 156.286779 
L 61.429276 150.736486 
L 71.57473 148.28714 
L 81.720185 148.28714 
L 91.865639 144.374726 
L 102.011094 144.374726 
L 112.156548 137.876141 
L 122.302003 137.719072 
L 132.447457 137.585279 
L 142.592912 137.719997 
L 152.738366 137.830812 
L 162.883821 137.582637 
L 173.029276 137.582637 
L 183.17473 125.067519 
L 193.320185 112.216487 
L 203.465639 111.938804 
L 213.611094 113.496891 
L 223.756548 95.64201 
L 233.902003 76.580283 
L 244.047457 70.883118 
L 254.192912 69.596362 
L 264.338366 65.679695 
L 274.483821 67.871469 
L 284.629276 65.176834 
L 294.77473 64.413019 
L 304.920185 60.649474 
L 315.065639 63.043365 
L 325.211094 56.793292 
L 335.356548 58.687374 
L 345.502003 56.652043 
L 355.647457 56.652043 
L 365.792912 54.450651 
L 375.938366 54.450651 
" clip-path="url(#pad5afabf09)" style="fill: none; stroke: #1f77b4; stroke-opacity: 0.33; stroke-width: 0.25; stroke-linecap: round"/>
   </g>
   <g id="line2d_26">
    <path d="M 51.283821 139.465515 
L 61.429276 138.33539 
L 71.57473 130.510506 
L 81.720185 130.510506 
L 91.865639 130.036938 
L 102.011094 130.036938 
L 112.156548 125.27063 
L 122.302003 124.508188 
L 132.447457 123.33481 
L 142.592912 121.512433 
L 152.738366 121.440004 
L 162.883821 114.32777 
L 173.029276 116.248784 
L 183.17473 117.478383 
L 193.320185 110.212441 
L 203.465639 108.380244 
L 213.611094 104.754547 
L 223.756548 91.397811 
L 233.902003 79.877353 
L 244.047457 79.515146 
L 254.192912 79.515146 
L 264.338366 79.515146 
L 274.483821 78.13768 
L 284.629276 73.472674 
L 294.77473 70.293946 
L 304.920185 69.62517 
L 315.065639 62.802919 
L 325.211094 59.445972 
L 335.356548 57.444506 
L 345.502003 56.295294 
L 355.647457 55.574773 
L 365.792912 55.574773 
L 375.938366 55.574773 
" clip-path="url(#pad5afabf09)" style="fill: none; stroke: #1f77b4; stroke-opacity: 0.33; stroke-width: 0.25; stroke-linecap: round"/>
   </g>
   <g id="line2d_27">
    <path d="M 51.283821 240.153689 
L 61.429276 239.389612 
L 71.57473 228.900402 
L 81.720185 230.375999 
L 91.865639 230.378438 
L 102.011094 225.702405 
L 112.156548 216.415436 
L 122.302003 215.855669 
L 132.447457 212.689331 
L 142.592912 213.972026 
L 152.738366 213.453428 
L 162.883821 209.922475 
L 173.029276 206.083705 
L 183.17473 195.40491 
L 193.320185 176.528654 
L 203.465639 175.164022 
L 213.611094 173.619739 
L 223.756548 170.174206 
L 233.902003 164.095423 
L 244.047457 162.77007 
L 254.192912 160.178502 
L 264.338366 157.037443 
L 274.483821 147.731951 
L 284.629276 143.758221 
L 294.77473 140.641558 
L 304.920185 137.215311 
L 315.065639 137.215311 
L 325.211094 135.593469 
L 335.356548 131.443775 
L 345.502003 131.443775 
L 355.647457 127.922498 
L 365.792912 127.922498 
L 375.938366 127.922498 
" clip-path="url(#pad5afabf09)" style="fill: none; stroke: #1f77b4; stroke-opacity: 0.33; stroke-width: 0.25; stroke-linecap: round"/>
   </g>
   <g id="line2d_28">
    <path d="M 51.283821 249.12589 
L 61.429276 249.520424 
L 71.57473 237.141491 
L 81.720185 236.837365 
L 91.865639 236.810361 
L 102.011094 231.886512 
L 112.156548 221.329003 
L 122.302003 218.378229 
L 132.447457 215.711669 
L 142.592912 216.153488 
L 152.738366 217.638335 
L 162.883821 213.912443 
L 173.029276 211.342323 
L 183.17473 204.417145 
L 193.320185 191.050537 
L 203.465639 186.353715 
L 213.611094 185.595834 
L 223.756548 182.844638 
L 233.902003 176.125641 
L 244.047457 176.125641 
L 254.192912 175.003614 
L 264.338366 175.475222 
L 274.483821 167.438211 
L 284.629276 165.914314 
L 294.77473 161.581535 
L 304.920185 159.999351 
L 315.065639 152.099632 
L 325.211094 152.229085 
L 335.356548 149.065817 
L 345.502003 149.065817 
L 355.647457 148.154752 
L 365.792912 148.988681 
L 375.938366 149.137129 
" clip-path="url(#pad5afabf09)" style="fill: none; stroke: #1f77b4; stroke-opacity: 0.33; stroke-width: 0.25; stroke-linecap: round"/>
   </g>
   <g id="line2d_29">
    <path d="M 51.283821 240.3232 
L 61.429276 239.559123 
L 71.57473 235.422563 
L 81.720185 232.157162 
L 91.865639 231.068264 
L 102.011094 229.101493 
L 112.156548 219.782387 
L 122.302003 216.609274 
L 132.447457 211.409362 
L 142.592912 214.542447 
L 152.738366 212.390488 
L 162.883821 212.443857 
L 173.029276 213.194074 
L 183.17473 212.993884 
L 193.320185 201.608168 
L 203.465639 200.892124 
L 213.611094 199.402351 
L 223.756548 197.585938 
L 233.902003 190.383757 
L 244.047457 189.106239 
L 254.192912 187.710348 
L 264.338366 187.710348 
L 274.483821 181.709146 
L 284.629276 180.8969 
L 294.77473 175.876593 
L 304.920185 172.54559 
L 315.065639 161.633558 
L 325.211094 161.633558 
L 335.356548 161.04748 
L 345.502003 161.572928 
L 355.647457 156.794792 
L 365.792912 156.794792 
L 375.938366 156.94324 
" clip-path="url(#pad5afabf09)" style="fill: none; stroke: #1f77b4; stroke-opacity: 0.33; stroke-width: 0.25; stroke-linecap: round"/>
   </g>
   <g id="line2d_30">
    <path d="M 51.283821 108.148803 
L 61.429276 106.273035 
L 71.57473 104.080704 
L 81.720185 104.080704 
L 91.865639 94.976018 
L 102.011094 95.109458 
L 112.156548 96.719832 
L 122.302003 94.581823 
L 132.447457 96.129694 
L 142.592912 99.002282 
L 152.738366 106.576969 
L 162.883821 104.361762 
L 173.029276 104.287686 
L 183.17473 98.249521 
L 193.320185 82.904172 
L 203.465639 84.606449 
L 213.611094 80.034907 
L 223.756548 73.667106 
L 233.902003 58.246338 
L 244.047457 62.759638 
L 254.192912 62.759638 
L 264.338366 62.759638 
L 274.483821 62.759638 
L 284.629276 62.759638 
L 294.77473 65.998399 
L 304.920185 62.301305 
L 315.065639 53.947132 
L 325.211094 54.176296 
L 335.356548 52.974438 
L 345.502003 48.474464 
L 355.647457 48.474464 
L 365.792912 47.582727 
L 375.938366 47.582727 
" clip-path="url(#pad5afabf09)" style="fill: none; stroke: #1f77b4; stroke-opacity: 0.33; stroke-width: 0.25; stroke-linecap: round"/>
   </g>
   <g id="line2d_31">
    <path d="M 51.283821 193.695312 
L 61.429276 189.262281 
L 71.57473 187.595205 
L 81.720185 189.085292 
L 91.865639 189.693279 
L 102.011094 189.614572 
L 112.156548 193.760101 
L 122.302003 192.064604 
L 132.447457 189.302091 
L 142.592912 189.562052 
L 152.738366 189.562052 
L 162.883821 185.970855 
L 173.029276 185.970855 
L 183.17473 164.920109 
L 193.320185 128.872063 
L 203.465639 124.512617 
L 213.611094 125.053503 
L 223.756548 126.17744 
L 233.902003 127.756287 
L 244.047457 128.244954 
L 254.192912 128.862736 
L 264.338366 129.476126 
L 274.483821 124.993272 
L 284.629276 124.921656 
L 294.77473 122.203312 
L 304.920185 119.607764 
L 315.065639 113.823111 
L 325.211094 109.877062 
L 335.356548 108.808502 
L 345.502003 104.532792 
L 355.647457 99.091899 
L 365.792912 99.091899 
L 375.938366 98.441506 
" clip-path="url(#pad5afabf09)" style="fill: none; stroke: #1f77b4; stroke-opacity: 0.33; stroke-width: 0.25; stroke-linecap: round"/>
   </g>
   <g id="line2d_32">
    <path d="M 51.283821 133.822811 
L 61.429276 136.131817 
L 71.57473 127.989273 
L 81.720185 127.210974 
L 91.865639 129.44654 
L 102.011094 130.169213 
L 112.156548 131.599936 
L 122.302003 131.599936 
L 132.447457 132.599104 
L 142.592912 129.541119 
L 152.738366 126.231374 
L 162.883821 124.818148 
L 173.029276 126.350854 
L 183.17473 110.446534 
L 193.320185 92.266967 
L 203.465639 92.996364 
L 213.611094 91.191432 
L 223.756548 88.612246 
L 233.902003 77.376032 
L 244.047457 78.935749 
L 254.192912 78.935749 
L 264.338366 77.348699 
L 274.483821 76.348918 
L 284.629276 74.814163 
L 294.77473 73.916759 
L 304.920185 71.236307 
L 315.065639 71.236307 
L 325.211094 70.530841 
L 335.356548 68.635189 
L 345.502003 65.00183 
L 355.647457 57.451429 
L 365.792912 55.104883 
L 375.938366 55.104883 
" clip-path="url(#pad5afabf09)" style="fill: none; stroke: #1f77b4; stroke-opacity: 0.33; stroke-width: 0.25; stroke-linecap: round"/>
   </g>
   <g id="line2d_33">
    <path d="M 51.283821 118.318979 
L 61.429276 118.09689 
L 71.57473 108.240486 
L 81.720185 104.27034 
L 91.865639 106.763826 
L 102.011094 106.763826 
L 112.156548 110.797649 
L 122.302003 110.797649 
L 132.447457 110.602915 
L 142.592912 110.875721 
L 152.738366 110.236721 
L 162.883821 110.236721 
L 173.029276 111.769426 
L 183.17473 100.703474 
L 193.320185 87.336981 
L 203.465639 88.245651 
L 213.611094 87.583076 
L 223.756548 84.361141 
L 233.902003 68.611232 
L 244.047457 70.170949 
L 254.192912 70.170949 
L 264.338366 71.092002 
L 274.483821 70.092222 
L 284.629276 68.557467 
L 294.77473 64.892996 
L 304.920185 61.207329 
L 315.065639 59.409873 
L 325.211094 55.192096 
L 335.356548 48.743791 
L 345.502003 41.565939 
L 355.647457 29.848 
L 365.792912 23.245257 
L 375.938366 23.245257 
" clip-path="url(#pad5afabf09)" style="fill: none; stroke: #1f77b4; stroke-opacity: 0.33; stroke-width: 0.25; stroke-linecap: round"/>
   </g>
   <g id="line2d_34">
    <path d="M 51.283821 181.090394 
L 61.429276 172.076119 
L 71.57473 161.658002 
L 81.720185 160.159279 
L 91.865639 155.020562 
L 102.011094 151.271888 
L 112.156548 146.276436 
L 122.302003 145.977626 
L 132.447457 145.977626 
L 142.592912 144.641757 
L 152.738366 144.268432 
L 162.883821 143.815108 
L 173.029276 143.815108 
L 183.17473 140.731237 
L 193.320185 128.213357 
L 203.465639 126.148841 
L 213.611094 126.148841 
L 223.756548 125.614573 
L 233.902003 122.396947 
L 244.047457 123.430952 
L 254.192912 122.405349 
L 264.338366 113.716357 
L 274.483821 109.71242 
L 284.629276 108.99324 
L 294.77473 108.99324 
L 304.920185 107.932464 
L 315.065639 107.932464 
L 325.211094 104.770191 
L 335.356548 102.527095 
L 345.502003 101.104606 
L 355.647457 99.473797 
L 365.792912 98.905318 
L 375.938366 98.905318 
" clip-path="url(#pad5afabf09)" style="fill: none; stroke: #1f77b4; stroke-opacity: 0.33; stroke-width: 0.25; stroke-linecap: round"/>
   </g>
   <g id="line2d_35">
    <path d="M 51.283821 252.411005 
L 61.429276 252.189683 
L 71.57473 244.916585 
L 81.720185 243.784484 
L 91.865639 243.63665 
L 102.011094 243.265524 
L 112.156548 239.071124 
L 122.302003 231.926977 
L 132.447457 224.381471 
L 142.592912 224.280901 
L 152.738366 222.919006 
L 162.883821 219.804468 
L 173.029276 220.400527 
L 183.17473 219.733948 
L 193.320185 205.468236 
L 203.465639 205.027525 
L 213.611094 205.445849 
L 223.756548 204.805916 
L 233.902003 201.364286 
L 244.047457 200.343822 
L 254.192912 198.688706 
L 264.338366 198.051091 
L 274.483821 194.428628 
L 284.629276 191.754482 
L 294.77473 185.749891 
L 304.920185 176.494745 
L 315.065639 159.100373 
L 325.211094 162.855612 
L 335.356548 160.759465 
L 345.502003 159.860972 
L 355.647457 155.782607 
L 365.792912 155.782607 
L 375.938366 156.40065 
" clip-path="url(#pad5afabf09)" style="fill: none; stroke: #1f77b4; stroke-opacity: 0.33; stroke-width: 0.25; stroke-linecap: round"/>
   </g>
   <g id="line2d_36">
    <path d="M 51.283821 167.849746 
L 61.429276 166.709158 
L 71.57473 165.679941 
L 81.720185 158.603592 
L 91.865639 149.624576 
L 102.011094 150.832267 
L 112.156548 150.832267 
L 122.302003 147.862201 
L 132.447457 142.800802 
L 142.592912 141.30562 
L 152.738366 139.503056 
L 162.883821 138.097428 
L 173.029276 135.960737 
L 183.17473 117.966891 
L 193.320185 109.141631 
L 203.465639 103.622493 
L 213.611094 103.537538 
L 223.756548 101.547271 
L 233.902003 96.688719 
L 244.047457 95.85735 
L 254.192912 95.85735 
L 264.338366 89.723793 
L 274.483821 91.298699 
L 284.629276 82.190519 
L 294.77473 83.747778 
L 304.920185 84.743803 
L 315.065639 84.743803 
L 325.211094 85.317913 
L 335.356548 84.574148 
L 345.502003 82.445651 
L 355.647457 83.226799 
L 365.792912 81.735422 
L 375.938366 80.75272 
" clip-path="url(#pad5afabf09)" style="fill: none; stroke: #1f77b4; stroke-opacity: 0.33; stroke-width: 0.25; stroke-linecap: round"/>
   </g>
   <g id="line2d_37">
    <path d="M 51.283821 143.902195 
L 61.429276 143.70389 
L 71.57473 139.232871 
L 81.720185 139.232871 
L 91.865639 139.852583 
L 102.011094 139.852583 
L 112.156548 133.139611 
L 122.302003 130.969736 
L 132.447457 129.887608 
L 142.592912 123.213173 
L 152.738366 120.085073 
L 162.883821 116.27494 
L 173.029276 117.607924 
L 183.17473 111.267959 
L 193.320185 97.936437 
L 203.465639 98.665834 
L 213.611094 96.860902 
L 223.756548 93.012592 
L 233.902003 81.435873 
L 244.047457 82.995591 
L 254.192912 82.197359 
L 264.338366 80.610309 
L 274.483821 79.610529 
L 284.629276 78.813128 
L 294.77473 78.196854 
L 304.920185 79.022413 
L 315.065639 77.755848 
L 325.211094 77.755848 
L 335.356548 74.970548 
L 345.502003 68.003682 
L 355.647457 58.021723 
L 365.792912 56.823168 
L 375.938366 56.823168 
" clip-path="url(#pad5afabf09)" style="fill: none; stroke: #1f77b4; stroke-opacity: 0.33; stroke-width: 0.25; stroke-linecap: round"/>
   </g>
   <g id="line2d_38">
    <path d="M 51.283821 145.630335 
L 61.429276 145.06428 
L 71.57473 145.613046 
L 81.720185 145.613046 
L 91.865639 145.775307 
L 102.011094 145.775307 
L 112.156548 147.421753 
L 122.302003 147.07969 
L 132.447457 147.07969 
L 142.592912 146.418406 
L 152.738366 145.945292 
L 162.883821 146.303523 
L 173.029276 146.303523 
L 183.17473 147.616635 
L 193.320185 141.682497 
L 203.465639 141.829129 
L 213.611094 142.759547 
L 223.756548 140.607428 
L 233.902003 139.065753 
L 244.047457 138.483693 
L 254.192912 139.233242 
L 264.338366 139.233242 
L 274.483821 135.067918 
L 284.629276 131.196753 
L 294.77473 127.880704 
L 304.920185 114.028277 
L 315.065639 100.762301 
L 325.211094 97.751866 
L 335.356548 96.057245 
L 345.502003 88.150961 
L 355.647457 85.508575 
L 365.792912 85.508575 
L 375.938366 85.508575 
" clip-path="url(#pad5afabf09)" style="fill: none; stroke: #1f77b4; stroke-opacity: 0.33; stroke-width: 0.25; stroke-linecap: round"/>
   </g>
   <g id="line2d_39">
    <path d="M 51.283821 167.743448 
L 61.429276 163.909603 
L 71.57473 150.422131 
L 81.720185 150.422131 
L 91.865639 150.442958 
L 102.011094 150.442958 
L 112.156548 140.766595 
L 122.302003 140.766595 
L 132.447457 139.684467 
L 142.592912 133.849695 
L 152.738366 132.554646 
L 162.883821 130.267233 
L 173.029276 130.267233 
L 183.17473 123.476179 
L 193.320185 106.077629 
L 203.465639 106.807026 
L 213.611094 106.807026 
L 223.756548 104.223149 
L 233.902003 93.960877 
L 244.047457 95.520594 
L 254.192912 94.722362 
L 264.338366 92.27837 
L 274.483821 91.27859 
L 284.629276 91.244747 
L 294.77473 91.244747 
L 304.920185 90.872191 
L 315.065639 87.418908 
L 325.211094 86.01528 
L 335.356548 83.310247 
L 345.502003 76.322612 
L 355.647457 66.72241 
L 365.792912 63.931904 
L 375.938366 63.931904 
" clip-path="url(#pad5afabf09)" style="fill: none; stroke: #1f77b4; stroke-opacity: 0.33; stroke-width: 0.25; stroke-linecap: round"/>
   </g>
   <g id="line2d_40">
    <path d="M 51.283821 118.874834 
L 61.429276 121.016922 
L 71.57473 117.679139 
L 81.720185 116.467263 
L 91.865639 119.380237 
L 102.011094 119.380237 
L 112.156548 114.398085 
L 122.302003 111.195357 
L 132.447457 108.882456 
L 142.592912 107.060078 
L 152.738366 106.987649 
L 162.883821 94.370557 
L 173.029276 95.735735 
L 183.17473 92.007839 
L 193.320185 88.096823 
L 203.465639 87.112343 
L 213.611094 84.930619 
L 223.756548 76.277816 
L 233.902003 69.065144 
L 244.047457 68.376466 
L 254.192912 68.376466 
L 264.338366 68.376466 
L 274.483821 70.00471 
L 284.629276 63.819031 
L 294.77473 59.508416 
L 304.920185 57.95472 
L 315.065639 43.67212 
L 325.211094 44.283122 
L 335.356548 39.471121 
L 345.502003 33.277633 
L 355.647457 32.557111 
L 365.792912 32.586224 
L 375.938366 32.586224 
" clip-path="url(#pad5afabf09)" style="fill: none; stroke: #1f77b4; stroke-opacity: 0.33; stroke-width: 0.25; stroke-linecap: round"/>
   </g>
   <g id="line2d_41">
    <path d="M 51.283821 229.066824 
L 61.429276 226.550054 
L 71.57473 215.232615 
L 81.720185 215.232615 
L 91.865639 216.481877 
L 102.011094 216.311322 
L 112.156548 214.318135 
L 122.302003 213.89494 
L 132.447457 212.009858 
L 142.592912 210.407147 
L 152.738366 207.263355 
L 162.883821 205.645488 
L 173.029276 206.670458 
L 183.17473 194.969173 
L 193.320185 172.090281 
L 203.465639 172.797703 
L 213.611094 172.797703 
L 223.756548 173.160488 
L 233.902003 171.398648 
L 244.047457 171.398648 
L 254.192912 171.325655 
L 264.338366 172.677492 
L 274.483821 173.336813 
L 284.629276 171.206376 
L 294.77473 167.147339 
L 304.920185 161.613137 
L 315.065639 163.080277 
L 325.211094 163.080277 
L 335.356548 163.080277 
L 345.502003 161.614656 
L 355.647457 162.098689 
L 365.792912 162.098689 
L 375.938366 162.098689 
" clip-path="url(#pad5afabf09)" style="fill: none; stroke: #1f77b4; stroke-opacity: 0.33; stroke-width: 0.25; stroke-linecap: round"/>
   </g>
   <g id="line2d_42">
    <path d="M 51.283821 171.837094 
L 61.429276 170.805653 
L 71.57473 168.038044 
L 81.720185 165.755811 
L 91.865639 166.029433 
L 102.011094 167.820787 
L 112.156548 166.475748 
L 122.302003 165.130709 
L 132.447457 161.855334 
L 142.592912 165.009669 
L 152.738366 169.022161 
L 162.883821 164.767329 
L 173.029276 164.767329 
L 183.17473 162.515822 
L 193.320185 148.289607 
L 203.465639 145.782699 
L 213.611094 144.17357 
L 223.756548 142.125861 
L 233.902003 134.924741 
L 244.047457 132.694226 
L 254.192912 130.381866 
L 264.338366 121.941601 
L 274.483821 112.277407 
L 284.629276 108.076124 
L 294.77473 108.076124 
L 304.920185 105.101123 
L 315.065639 105.101123 
L 325.211094 105.732489 
L 335.356548 101.429871 
L 345.502003 94.260316 
L 355.647457 94.549271 
L 365.792912 93.155176 
L 375.938366 93.155176 
" clip-path="url(#pad5afabf09)" style="fill: none; stroke: #1f77b4; stroke-opacity: 0.33; stroke-width: 0.25; stroke-linecap: round"/>
   </g>
   <g id="line2d_43">
    <path d="M 51.283821 201.384643 
L 61.429276 195.041701 
L 71.57473 183.19134 
L 81.720185 183.19134 
L 91.865639 180.999997 
L 102.011094 174.785386 
L 112.156548 160.532036 
L 122.302003 160.532036 
L 132.447457 160.532036 
L 142.592912 156.672222 
L 152.738366 155.58956 
L 162.883821 152.023483 
L 173.029276 152.023483 
L 183.17473 146.378606 
L 193.320185 116.629997 
L 203.465639 115.958171 
L 213.611094 115.958171 
L 223.756548 112.140628 
L 233.902003 102.264071 
L 244.047457 103.823788 
L 254.192912 103.025556 
L 264.338366 100.581564 
L 274.483821 100.581564 
L 284.629276 100.581564 
L 294.77473 100.581564 
L 304.920185 97.304984 
L 315.065639 97.304984 
L 325.211094 94.982293 
L 335.356548 93.755729 
L 345.502003 89.730925 
L 355.647457 83.496986 
L 365.792912 77.69098 
L 375.938366 77.69098 
" clip-path="url(#pad5afabf09)" style="fill: none; stroke: #1f77b4; stroke-opacity: 0.33; stroke-width: 0.25; stroke-linecap: round"/>
   </g>
   <g id="line2d_44">
    <path d="M 51.283821 228.315154 
L 61.429276 228.315154 
L 71.57473 228.315154 
L 81.720185 227.408836 
L 91.865639 227.523232 
L 102.011094 230.098969 
L 112.156548 228.916668 
L 122.302003 228.289613 
L 132.447457 229.557955 
L 142.592912 232.136829 
L 152.738366 224.506327 
L 162.883821 221.221955 
L 173.029276 221.221955 
L 183.17473 208.439394 
L 193.320185 197.96515 
L 203.465639 201.05897 
L 213.611094 199.206405 
L 223.756548 198.41466 
L 233.902003 183.372503 
L 244.047457 183.337557 
L 254.192912 181.10704 
L 264.338366 170.620867 
L 274.483821 155.671756 
L 284.629276 154.259877 
L 294.77473 154.259877 
L 304.920185 152.954809 
L 315.065639 149.104694 
L 325.211094 148.290589 
L 335.356548 147.131171 
L 345.502003 142.746752 
L 355.647457 140.919526 
L 365.792912 139.789669 
L 375.938366 137.727614 
" clip-path="url(#pad5afabf09)" style="fill: none; stroke: #1f77b4; stroke-opacity: 0.33; stroke-width: 0.25; stroke-linecap: round"/>
   </g>
   <g id="line2d_45">
    <path d="M 51.283821 178.51173 
L 61.429276 171.576789 
L 71.57473 161.572054 
L 81.720185 161.572054 
L 91.865639 160.143798 
L 102.011094 156.242302 
L 112.156548 147.600554 
L 122.302003 147.600554 
L 132.447457 147.600554 
L 142.592912 145.597003 
L 152.738366 139.802997 
L 162.883821 139.76728 
L 173.029276 139.76728 
L 183.17473 128.014097 
L 193.320185 104.298756 
L 203.465639 105.028153 
L 213.611094 104.365577 
L 223.756548 102.743808 
L 233.902003 86.670559 
L 244.047457 88.230276 
L 254.192912 88.230276 
L 264.338366 86.643226 
L 274.483821 85.643446 
L 284.629276 84.10869 
L 294.77473 84.10869 
L 304.920185 79.440843 
L 315.065639 79.440843 
L 325.211094 79.041907 
L 335.356548 76.336873 
L 345.502003 71.907964 
L 355.647457 60.455729 
L 365.792912 56.606857 
L 375.938366 56.606857 
" clip-path="url(#pad5afabf09)" style="fill: none; stroke: #1f77b4; stroke-opacity: 0.33; stroke-width: 0.25; stroke-linecap: round"/>
   </g>
   <g id="line2d_46">
    <path d="M 51.283821 187.851844 
L 61.429276 186.711257 
L 71.57473 183.769494 
L 81.720185 184.184627 
L 91.865639 181.47112 
L 102.011094 180.094698 
L 112.156548 180.094698 
L 122.302003 180.094698 
L 132.447457 179.780478 
L 142.592912 179.085261 
L 152.738366 175.596083 
L 162.883821 171.594427 
L 173.029276 169.879199 
L 183.17473 153.634765 
L 193.320185 150.146 
L 203.465639 141.643125 
L 213.611094 139.460712 
L 223.756548 137.808676 
L 233.902003 136.660994 
L 244.047457 134.318109 
L 254.192912 134.318109 
L 264.338366 126.556381 
L 274.483821 127.420681 
L 284.629276 117.608661 
L 294.77473 119.061192 
L 304.920185 113.623179 
L 315.065639 113.623179 
L 325.211094 112.532855 
L 335.356548 112.532855 
L 345.502003 109.919331 
L 355.647457 105.4137 
L 365.792912 105.4137 
L 375.938366 104.430997 
" clip-path="url(#pad5afabf09)" style="fill: none; stroke: #1f77b4; stroke-opacity: 0.33; stroke-width: 0.25; stroke-linecap: round"/>
   </g>
   <g id="line2d_47">
    <path d="M 51.283821 261.216 
L 61.429276 260.451923 
L 71.57473 250.676132 
L 81.720185 250.902577 
L 91.865639 250.660613 
L 102.011094 247.580329 
L 112.156548 239.556039 
L 122.302003 238.556366 
L 132.447457 230.504552 
L 142.592912 234.6007 
L 152.738366 234.561684 
L 162.883821 231.061177 
L 173.029276 230.438394 
L 183.17473 221.26589 
L 193.320185 201.012125 
L 203.465639 200.261383 
L 213.611094 199.998029 
L 223.756548 198.181616 
L 233.902003 195.940372 
L 244.047457 195.940372 
L 254.192912 193.678067 
L 264.338366 193.57501 
L 274.483821 190.252884 
L 284.629276 186.113814 
L 294.77473 180.116627 
L 304.920185 175.712035 
L 315.065639 162.477375 
L 325.211094 162.606828 
L 335.356548 157.26746 
L 345.502003 157.095317 
L 355.647457 155.958214 
L 365.792912 155.958214 
L 375.938366 156.106661 
" clip-path="url(#pad5afabf09)" style="fill: none; stroke: #1f77b4; stroke-opacity: 0.33; stroke-width: 0.25; stroke-linecap: round"/>
   </g>
   <g id="line2d_48">
    <path d="M 51.283821 139.415439 
L 61.429276 131.017261 
L 71.57473 124.380647 
L 81.720185 123.662175 
L 91.865639 124.499911 
L 102.011094 126.356912 
L 112.156548 127.036037 
L 122.302003 127.036037 
L 132.447457 127.036037 
L 142.592912 128.841149 
L 152.738366 129.511902 
L 162.883821 128.204507 
L 173.029276 131.723823 
L 183.17473 125.565045 
L 193.320185 123.081087 
L 203.465639 123.130858 
L 213.611094 120.69124 
L 223.756548 123.492656 
L 233.902003 112.355815 
L 244.047457 107.991631 
L 254.192912 107.991631 
L 264.338366 101.565498 
L 274.483821 94.889644 
L 284.629276 87.542643 
L 294.77473 87.542643 
L 304.920185 86.640102 
L 315.065639 86.640102 
L 325.211094 82.13226 
L 335.356548 80.862215 
L 345.502003 73.740622 
L 355.647457 71.773802 
L 365.792912 70.379708 
L 375.938366 71.361865 
" clip-path="url(#pad5afabf09)" style="fill: none; stroke: #1f77b4; stroke-opacity: 0.33; stroke-width: 0.25; stroke-linecap: round"/>
   </g>
   <g id="line2d_49">
    <path d="M 51.283821 136.920268 
L 61.429276 136.461085 
L 71.57473 127.800293 
L 81.720185 126.588417 
L 91.865639 124.570879 
L 102.011094 124.570879 
L 112.156548 106.532202 
L 122.302003 100.417646 
L 132.447457 99.335518 
L 142.592912 98.740961 
L 152.738366 98.668532 
L 162.883821 83.858835 
L 173.029276 83.858835 
L 183.17473 87.467194 
L 193.320185 88.928216 
L 203.465639 87.413492 
L 213.611094 83.236992 
L 223.756548 72.832278 
L 233.902003 65.008178 
L 244.047457 64.319501 
L 254.192912 64.319501 
L 264.338366 64.319501 
L 274.483821 65.947744 
L 284.629276 62.732228 
L 294.77473 59.996352 
L 304.920185 59.933576 
L 315.065639 50.734202 
L 325.211094 52.04345 
L 335.356548 47.231449 
L 345.502003 41.342458 
L 355.647457 40.621937 
L 365.792912 39.556579 
L 375.938366 39.556579 
" clip-path="url(#pad5afabf09)" style="fill: none; stroke: #1f77b4; stroke-opacity: 0.33; stroke-width: 0.25; stroke-linecap: round"/>
   </g>
   <g id="line2d_50">
    <path d="M 51.283821 148.353035 
L 61.429276 148.353035 
L 71.57473 140.763724 
L 81.720185 141.703389 
L 91.865639 136.786235 
L 102.011094 135.99205 
L 112.156548 136.542836 
L 122.302003 137.216108 
L 132.447457 135.122456 
L 142.592912 136.128251 
L 152.738366 136.728083 
L 162.883821 134.357859 
L 173.029276 137.842002 
L 183.17473 123.223368 
L 193.320185 96.292074 
L 203.465639 91.114492 
L 213.611094 89.328101 
L 223.756548 74.757802 
L 233.902003 66.29926 
L 244.047457 64.152637 
L 254.192912 64.152637 
L 264.338366 64.152637 
L 274.483821 60.758861 
L 284.629276 57.753555 
L 294.77473 50.638097 
L 304.920185 51.469183 
L 315.065639 45.209563 
L 325.211094 42.621268 
L 335.356548 40.616118 
L 345.502003 36.753535 
L 355.647457 36.753535 
L 365.792912 36.753535 
L 375.938366 34.625831 
" clip-path="url(#pad5afabf09)" style="fill: none; stroke: #1f77b4; stroke-opacity: 0.33; stroke-width: 0.25; stroke-linecap: round"/>
   </g>
   <g id="line2d_51">
    <path d="M 51.283821 219.989403 
L 61.429276 216.296659 
L 71.57473 212.614409 
L 81.720185 212.604233 
L 91.865639 212.030037 
L 102.011094 205.471605 
L 112.156548 208.885293 
L 122.302003 203.743452 
L 132.447457 202.096321 
L 142.592912 201.493021 
L 152.738366 200.112265 
L 162.883821 196.878629 
L 173.029276 193.310704 
L 183.17473 175.740429 
L 193.320185 143.274943 
L 203.465639 138.830077 
L 213.611094 138.928199 
L 223.756548 142.830698 
L 233.902003 134.468478 
L 244.047457 134.531382 
L 254.192912 133.154941 
L 264.338366 131.222137 
L 274.483821 133.845427 
L 284.629276 128.483939 
L 294.77473 127.617655 
L 304.920185 123.053257 
L 315.065639 119.71608 
L 325.211094 115.14085 
L 335.356548 115.14085 
L 345.502003 112.40828 
L 355.647457 111.522422 
L 365.792912 111.522422 
L 375.938366 111.522422 
" clip-path="url(#pad5afabf09)" style="fill: none; stroke: #1f77b4; stroke-opacity: 0.33; stroke-width: 0.25; stroke-linecap: round"/>
   </g>
   <g id="line2d_52">
    <path d="M 51.283821 218.195363 
L 61.429276 218.195363 
L 71.57473 217.475855 
L 81.720185 216.048729 
L 91.865639 212.867948 
L 102.011094 212.143967 
L 112.156548 209.317216 
L 122.302003 206.195145 
L 132.447457 201.214606 
L 142.592912 200.984048 
L 152.738366 196.136569 
L 162.883821 194.211089 
L 173.029276 194.211089 
L 183.17473 183.814927 
L 193.320185 172.926356 
L 203.465639 175.445416 
L 213.611094 175.445416 
L 223.756548 175.078439 
L 233.902003 166.311494 
L 244.047457 162.194456 
L 254.192912 161.168852 
L 264.338366 149.448547 
L 274.483821 132.806629 
L 284.629276 129.40151 
L 294.77473 127.519183 
L 304.920185 126.686398 
L 315.065639 126.686398 
L 325.211094 122.241127 
L 335.356548 116.385615 
L 345.502003 111.244735 
L 355.647457 102.97277 
L 365.792912 101.1699 
L 375.938366 102.782324 
" clip-path="url(#pad5afabf09)" style="fill: none; stroke: #1f77b4; stroke-opacity: 0.33; stroke-width: 0.25; stroke-linecap: round"/>
   </g>
   <g id="line2d_53">
    <path d="M 51.283821 189.87651 
L 61.429276 182.852776 
L 71.57473 170.402619 
L 81.720185 170.402619 
L 91.865639 168.502055 
L 102.011094 163.503018 
L 112.156548 163.173705 
L 122.302003 163.173705 
L 132.447457 163.173705 
L 142.592912 159.605365 
L 152.738366 157.629032 
L 162.883821 154.002349 
L 173.029276 154.002349 
L 183.17473 138.862451 
L 193.320185 113.049323 
L 203.465639 113.778719 
L 213.611094 113.778719 
L 223.756548 114.231586 
L 233.902003 105.519931 
L 244.047457 107.079648 
L 254.192912 106.281417 
L 264.338366 103.837425 
L 274.483821 102.837645 
L 284.629276 100.992021 
L 294.77473 100.992021 
L 304.920185 95.967297 
L 315.065639 95.967297 
L 325.211094 92.934863 
L 335.356548 94.212105 
L 345.502003 90.634794 
L 355.647457 75.943135 
L 365.792912 72.885053 
L 375.938366 72.885053 
" clip-path="url(#pad5afabf09)" style="fill: none; stroke: #1f77b4; stroke-opacity: 0.33; stroke-width: 0.25; stroke-linecap: round"/>
   </g>
   <g id="line2d_54">
    <path d="M 51.283821 204.858932 
L 61.429276 204.858932 
L 71.57473 205.353373 
L 81.720185 203.371592 
L 91.865639 203.371592 
L 102.011094 203.371592 
L 112.156548 202.610387 
L 122.302003 201.268639 
L 132.447457 201.229784 
L 142.592912 201.581246 
L 152.738366 194.107428 
L 162.883821 194.070278 
L 173.029276 194.070278 
L 183.17473 184.21396 
L 193.320185 177.27694 
L 203.465639 176.640848 
L 213.611094 174.11538 
L 223.756548 173.829722 
L 233.902003 171.030136 
L 244.047457 169.361414 
L 254.192912 166.558006 
L 264.338366 168.631764 
L 274.483821 168.049732 
L 284.629276 170.193173 
L 294.77473 170.193173 
L 304.920185 165.259694 
L 315.065639 163.797039 
L 325.211094 163.027639 
L 335.356548 161.356098 
L 345.502003 152.932678 
L 355.647457 152.396342 
L 365.792912 153.230271 
L 375.938366 153.230271 
" clip-path="url(#pad5afabf09)" style="fill: none; stroke: #1f77b4; stroke-opacity: 0.33; stroke-width: 0.25; stroke-linecap: round"/>
   </g>
   <g id="line2d_55">
    <path d="M 51.283821 157.607854 
L 61.429276 153.423437 
L 71.57473 154.868506 
L 81.720185 154.868506 
L 91.865639 150.008198 
L 102.011094 149.284216 
L 112.156548 133.857835 
L 122.302003 130.91452 
L 132.447457 128.0468 
L 142.592912 127.452243 
L 152.738366 127.452243 
L 162.883821 112.5981 
L 173.029276 114.760033 
L 183.17473 105.348827 
L 193.320185 85.940067 
L 203.465639 85.226042 
L 213.611094 84.359956 
L 223.756548 74.147056 
L 233.902003 69.719647 
L 244.047457 69.03097 
L 254.192912 69.03097 
L 264.338366 69.03097 
L 274.483821 69.69527 
L 284.629276 67.39804 
L 294.77473 67.328389 
L 304.920185 64.610468 
L 315.065639 56.206423 
L 325.211094 56.528545 
L 335.356548 53.611577 
L 345.502003 51.764751 
L 355.647457 51.04423 
L 365.792912 45.906443 
L 375.938366 45.906443 
" clip-path="url(#pad5afabf09)" style="fill: none; stroke: #1f77b4; stroke-opacity: 0.33; stroke-width: 0.25; stroke-linecap: round"/>
   </g>
   <g id="line2d_56">
    <path d="M 51.283821 162.913252 
L 61.429276 162.025265 
L 71.57473 163.952975 
L 81.720185 160.892726 
L 91.865639 157.74445 
L 102.011094 158.952142 
L 112.156548 157.201339 
L 122.302003 154.30409 
L 132.447457 148.9577 
L 142.592912 148.145664 
L 152.738366 148.016529 
L 162.883821 147.977887 
L 173.029276 147.732386 
L 183.17473 145.88919 
L 193.320185 155.148793 
L 203.465639 155.760033 
L 213.611094 155.760033 
L 223.756548 156.314729 
L 233.902003 157.746875 
L 244.047457 155.897928 
L 254.192912 155.565514 
L 264.338366 153.213832 
L 274.483821 153.943346 
L 284.629276 147.152245 
L 294.77473 147.152245 
L 304.920185 138.759882 
L 315.065639 137.324914 
L 325.211094 136.134058 
L 335.356548 136.985156 
L 345.502003 131.732465 
L 355.647457 131.607486 
L 365.792912 132.441415 
L 375.938366 132.603609 
" clip-path="url(#pad5afabf09)" style="fill: none; stroke: #1f77b4; stroke-opacity: 0.33; stroke-width: 0.25; stroke-linecap: round"/>
   </g>
   <g id="line2d_57">
    <path d="M 51.283821 177.290289 
L 61.429276 173.924428 
L 71.57473 164.235633 
L 81.720185 162.249541 
L 91.865639 162.675852 
L 102.011094 160.325737 
L 112.156548 153.603485 
L 122.302003 153.603485 
L 132.447457 153.279239 
L 142.592912 150.172836 
L 152.738366 145.542186 
L 162.883821 142.853253 
L 173.029276 142.853253 
L 183.17473 137.515339 
L 193.320185 120.432547 
L 203.465639 123.733462 
L 213.611094 123.733462 
L 223.756548 123.560613 
L 233.902003 120.400739 
L 244.047457 118.028984 
L 254.192912 118.028984 
L 264.338366 117.728196 
L 274.483821 111.191969 
L 284.629276 110.394569 
L 294.77473 108.690513 
L 304.920185 100.386494 
L 315.065639 100.386494 
L 325.211094 96.187864 
L 335.356548 92.57217 
L 345.502003 85.60425 
L 355.647457 73.870802 
L 365.792912 71.277936 
L 375.938366 71.277936 
" clip-path="url(#pad5afabf09)" style="fill: none; stroke: #1f77b4; stroke-opacity: 0.33; stroke-width: 0.25; stroke-linecap: round"/>
   </g>
   <g id="line2d_58">
    <path d="M 51.283821 140.93879 
L 61.429276 140.30453 
L 71.57473 133.613814 
L 81.720185 132.401938 
L 91.865639 131.50529 
L 102.011094 131.50529 
L 112.156548 120.734981 
L 122.302003 120.653626 
L 132.447457 119.571499 
L 142.592912 118.238748 
L 152.738366 118.166319 
L 162.883821 114.575116 
L 173.029276 117.273278 
L 183.17473 108.530545 
L 193.320185 93.545382 
L 203.465639 92.831357 
L 213.611094 91.399706 
L 223.756548 78.989613 
L 233.902003 69.135745 
L 244.047457 69.36931 
L 254.192912 69.36931 
L 264.338366 69.36931 
L 274.483821 70.997553 
L 284.629276 68.048419 
L 294.77473 64.585521 
L 304.920185 64.196096 
L 315.065639 53.284425 
L 325.211094 52.206414 
L 335.356548 50.204051 
L 345.502003 43.236007 
L 355.647457 42.515486 
L 365.792912 42.544598 
L 375.938366 42.544598 
" clip-path="url(#pad5afabf09)" style="fill: none; stroke: #1f77b4; stroke-opacity: 0.33; stroke-width: 0.25; stroke-linecap: round"/>
   </g>
   <g id="line2d_59">
    <path d="M 51.283821 177.021271 
L 61.429276 174.797067 
L 71.57473 169.129188 
L 81.720185 168.150552 
L 91.865639 166.399202 
L 102.011094 165.38142 
L 112.156548 161.477911 
L 122.302003 159.948871 
L 132.447457 158.267456 
L 142.592912 157.531389 
L 152.738366 156.388219 
L 162.883821 152.791952 
L 173.029276 152.776403 
L 183.17473 143.829437 
L 193.320185 129.431009 
L 203.465639 128.346187 
L 213.611094 127.42274 
L 223.756548 123.22231 
L 233.902003 115.712411 
L 244.047457 114.978489 
L 254.192912 114.315141 
L 264.338366 111.77744 
L 274.483821 108.947628 
L 284.629276 105.799862 
L 294.77473 103.996209 
L 304.920185 100.56151 
L 315.065639 96.157061 
L 325.211094 94.742559 
L 335.356548 92.717813 
L 345.502003 88.897826 
L 355.647457 85.255293 
L 365.792912 84.041447 
L 375.938366 83.973874 
" clip-path="url(#pad5afabf09)" style="fill: none; stroke-dasharray: 5.55,2.4; stroke-dashoffset: 0; stroke: #ff7f0e; stroke-width: 1.5"/>
   </g>
   <g id="patch_3">
    <path d="M 35.051094 273.312 
L 35.051094 7.2 
" style="fill: none; stroke: #ffffff; stroke-width: 1.25; stroke-linejoin: miter; stroke-linecap: square"/>
   </g>
   <g id="patch_4">
    <path d="M 392.171094 273.312 
L 392.171094 7.2 
" style="fill: none; stroke: #ffffff; stroke-width: 1.25; stroke-linejoin: miter; stroke-linecap: square"/>
   </g>
   <g id="patch_5">
    <path d="M 35.051094 273.312 
L 392.171094 273.312 
" style="fill: none; stroke: #ffffff; stroke-width: 1.25; stroke-linejoin: miter; stroke-linecap: square"/>
   </g>
   <g id="patch_6">
    <path d="M 35.051094 7.2 
L 392.171094 7.2 
" style="fill: none; stroke: #ffffff; stroke-width: 1.25; stroke-linejoin: miter; stroke-linecap: square"/>
   </g>
  </g>
 </g>
 <defs>
  <clipPath id="pad5afabf09">
   <rect x="35.051094" y="7.2" width="357.12" height="266.112"/>
  </clipPath>
 </defs>
</svg>
