<?xml version="1.0" encoding="utf-8" standalone="no"?>
<!DOCTYPE svg PUBLIC "-//W3C//DTD SVG 1.1//EN"
  "http://www.w3.org/Graphics/SVG/1.1/DTD/svg11.dtd">
<svg xmlns:xlink="http://www.w3.org/1999/xlink" width="839.358132pt" height="1128.164766pt" viewBox="0 0 839.358132 1128.164766" xmlns="http://www.w3.org/2000/svg" version="1.1">
 <metadata>
  <rdf:RDF xmlns:dc="http://purl.org/dc/elements/1.1/" xmlns:cc="http://creativecommons.org/ns#" xmlns:rdf="http://www.w3.org/1999/02/22-rdf-syntax-ns#">
   <cc:Work>
    <dc:type rdf:resource="http://purl.org/dc/dcmitype/StillImage"/>
    <dc:date>2024-03-19T20:57:36.020719</dc:date>
    <dc:format>image/svg+xml</dc:format>
    <dc:creator>
     <cc:Agent>
      <dc:title>Matplotlib v3.8.3, https://matplotlib.org/</dc:title>
     </cc:Agent>
    </dc:creator>
   </cc:Work>
  </rdf:RDF>
 </metadata>
 <defs>
  <style type="text/css">*{stroke-linejoin: round; stroke-linecap: butt}</style>
 </defs>
 <g id="figure_1">
  <g id="patch_1">
   <path d="M 0 1128.164766 
L 839.358132 1128.164766 
L 839.358132 0 
L 0 0 
z
" style="fill: #ffffff"/>
  </g>
  <g id="axes_1"/>
  <g id="axes_2">
   <g id="patch_2">
    <path d="M 55.512656 321.511765 
L 280.675349 321.511765 
L 280.675349 7.2 
L 55.512656 7.2 
z
" style="fill: #eaeaf2"/>
   </g>
   <g id="matplotlib.axis_1">
    <g id="xtick_1">
     <g id="line2d_1">
      <path d="M 110.788175 321.511765 
L 110.788175 7.2 
" clip-path="url(#pef50eaa1a0)" style="fill: none; stroke: #ffffff; stroke-linecap: round"/>
     </g>
     <g id="text_1">
      <!-- 0.25 -->
      <g style="fill: #262626" transform="translate(94.732902 342.822155) scale(0.165 -0.165)">
       <defs>
        <path id="ArialMT-30" d="M 266 2259 
Q 266 3072 433 3567 
Q 600 4063 929 4331 
Q 1259 4600 1759 4600 
Q 2128 4600 2406 4451 
Q 2684 4303 2865 4023 
Q 3047 3744 3150 3342 
Q 3253 2941 3253 2259 
Q 3253 1453 3087 958 
Q 2922 463 2592 192 
Q 2263 -78 1759 -78 
Q 1097 -78 719 397 
Q 266 969 266 2259 
z
M 844 2259 
Q 844 1131 1108 757 
Q 1372 384 1759 384 
Q 2147 384 2411 759 
Q 2675 1134 2675 2259 
Q 2675 3391 2411 3762 
Q 2147 4134 1753 4134 
Q 1366 4134 1134 3806 
Q 844 3388 844 2259 
z
" transform="scale(0.015625)"/>
        <path id="ArialMT-2e" d="M 581 0 
L 581 641 
L 1222 641 
L 1222 0 
L 581 0 
z
" transform="scale(0.015625)"/>
        <path id="ArialMT-32" d="M 3222 541 
L 3222 0 
L 194 0 
Q 188 203 259 391 
Q 375 700 629 1000 
Q 884 1300 1366 1694 
Q 2113 2306 2375 2664 
Q 2638 3022 2638 3341 
Q 2638 3675 2398 3904 
Q 2159 4134 1775 4134 
Q 1369 4134 1125 3890 
Q 881 3647 878 3216 
L 300 3275 
Q 359 3922 746 4261 
Q 1134 4600 1788 4600 
Q 2447 4600 2831 4234 
Q 3216 3869 3216 3328 
Q 3216 3053 3103 2787 
Q 2991 2522 2730 2228 
Q 2469 1934 1863 1422 
Q 1356 997 1212 845 
Q 1069 694 975 541 
L 3222 541 
z
" transform="scale(0.015625)"/>
        <path id="ArialMT-35" d="M 266 1200 
L 856 1250 
Q 922 819 1161 601 
Q 1400 384 1738 384 
Q 2144 384 2425 690 
Q 2706 997 2706 1503 
Q 2706 1984 2436 2262 
Q 2166 2541 1728 2541 
Q 1456 2541 1237 2417 
Q 1019 2294 894 2097 
L 366 2166 
L 809 4519 
L 3088 4519 
L 3088 3981 
L 1259 3981 
L 1013 2750 
Q 1425 3038 1878 3038 
Q 2478 3038 2890 2622 
Q 3303 2206 3303 1553 
Q 3303 931 2941 478 
Q 2500 -78 1738 -78 
Q 1113 -78 717 272 
Q 322 622 266 1200 
z
" transform="scale(0.015625)"/>
       </defs>
       <use xlink:href="#ArialMT-30"/>
       <use xlink:href="#ArialMT-2e" x="55.615234"/>
       <use xlink:href="#ArialMT-32" x="83.398438"/>
       <use xlink:href="#ArialMT-35" x="139.013672"/>
      </g>
     </g>
    </g>
    <g id="xtick_2">
     <g id="line2d_2">
      <path d="M 167.644341 321.511765 
L 167.644341 7.2 
" clip-path="url(#pef50eaa1a0)" style="fill: none; stroke: #ffffff; stroke-linecap: round"/>
     </g>
     <g id="text_2">
      <!-- 0.50 -->
      <g style="fill: #262626" transform="translate(151.589067 342.822155) scale(0.165 -0.165)">
       <use xlink:href="#ArialMT-30"/>
       <use xlink:href="#ArialMT-2e" x="55.615234"/>
       <use xlink:href="#ArialMT-35" x="83.398438"/>
       <use xlink:href="#ArialMT-30" x="139.013672"/>
      </g>
     </g>
    </g>
    <g id="xtick_3">
     <g id="line2d_3">
      <path d="M 224.500506 321.511765 
L 224.500506 7.2 
" clip-path="url(#pef50eaa1a0)" style="fill: none; stroke: #ffffff; stroke-linecap: round"/>
     </g>
     <g id="text_3">
      <!-- 0.75 -->
      <g style="fill: #262626" transform="translate(208.445232 342.822155) scale(0.165 -0.165)">
       <defs>
        <path id="ArialMT-37" d="M 303 3981 
L 303 4522 
L 3269 4522 
L 3269 4084 
Q 2831 3619 2401 2847 
Q 1972 2075 1738 1259 
Q 1569 684 1522 0 
L 944 0 
Q 953 541 1156 1306 
Q 1359 2072 1739 2783 
Q 2119 3494 2547 3981 
L 303 3981 
z
" transform="scale(0.015625)"/>
       </defs>
       <use xlink:href="#ArialMT-30"/>
       <use xlink:href="#ArialMT-2e" x="55.615234"/>
       <use xlink:href="#ArialMT-37" x="83.398438"/>
       <use xlink:href="#ArialMT-35" x="139.013672"/>
      </g>
     </g>
    </g>
    <g id="text_4">
     <!-- x_0 -->
     <g style="fill: #262626" transform="translate(153.584315 363.03903) scale(0.18 -0.18)">
      <defs>
       <path id="ArialMT-78" d="M 47 0 
L 1259 1725 
L 138 3319 
L 841 3319 
L 1350 2541 
Q 1494 2319 1581 2169 
Q 1719 2375 1834 2534 
L 2394 3319 
L 3066 3319 
L 1919 1756 
L 3153 0 
L 2463 0 
L 1781 1031 
L 1600 1309 
L 728 0 
L 47 0 
z
" transform="scale(0.015625)"/>
       <path id="ArialMT-5f" d="M -97 -1272 
L -97 -866 
L 3631 -866 
L 3631 -1272 
L -97 -1272 
z
" transform="scale(0.015625)"/>
      </defs>
      <use xlink:href="#ArialMT-78"/>
      <use xlink:href="#ArialMT-5f" x="50"/>
      <use xlink:href="#ArialMT-30" x="105.615234"/>
     </g>
    </g>
   </g>
   <g id="matplotlib.axis_2">
    <g id="ytick_1">
     <g id="line2d_4">
      <path d="M 55.512656 316.744667 
L 280.675349 316.744667 
" clip-path="url(#pef50eaa1a0)" style="fill: none; stroke: #ffffff; stroke-linecap: round"/>
     </g>
     <g id="text_5">
      <!-- 10 -->
      <g style="fill: #262626" transform="translate(27.661563 322.649863) scale(0.165 -0.165)">
       <defs>
        <path id="ArialMT-31" d="M 2384 0 
L 1822 0 
L 1822 3584 
Q 1619 3391 1289 3197 
Q 959 3003 697 2906 
L 697 3450 
Q 1169 3672 1522 3987 
Q 1875 4303 2022 4600 
L 2384 4600 
L 2384 0 
z
" transform="scale(0.015625)"/>
       </defs>
       <use xlink:href="#ArialMT-31"/>
       <use xlink:href="#ArialMT-30" x="55.615234"/>
      </g>
     </g>
    </g>
    <g id="ytick_2">
     <g id="line2d_5">
      <path d="M 55.512656 280.95758 
L 280.675349 280.95758 
" clip-path="url(#pef50eaa1a0)" style="fill: none; stroke: #ffffff; stroke-linecap: round"/>
     </g>
     <g id="text_6">
      <!-- 11 -->
      <g style="fill: #262626" transform="translate(28.878438 286.862775) scale(0.165 -0.165)">
       <use xlink:href="#ArialMT-31"/>
       <use xlink:href="#ArialMT-31" x="48.240234"/>
      </g>
     </g>
    </g>
    <g id="ytick_3">
     <g id="line2d_6">
      <path d="M 55.512656 245.170493 
L 280.675349 245.170493 
" clip-path="url(#pef50eaa1a0)" style="fill: none; stroke: #ffffff; stroke-linecap: round"/>
     </g>
     <g id="text_7">
      <!-- 12 -->
      <g style="fill: #262626" transform="translate(27.661563 251.075688) scale(0.165 -0.165)">
       <use xlink:href="#ArialMT-31"/>
       <use xlink:href="#ArialMT-32" x="55.615234"/>
      </g>
     </g>
    </g>
    <g id="ytick_4">
     <g id="line2d_7">
      <path d="M 55.512656 209.383405 
L 280.675349 209.383405 
" clip-path="url(#pef50eaa1a0)" style="fill: none; stroke: #ffffff; stroke-linecap: round"/>
     </g>
     <g id="text_8">
      <!-- 13 -->
      <g style="fill: #262626" transform="translate(27.661563 215.288601) scale(0.165 -0.165)">
       <defs>
        <path id="ArialMT-33" d="M 269 1209 
L 831 1284 
Q 928 806 1161 595 
Q 1394 384 1728 384 
Q 2125 384 2398 659 
Q 2672 934 2672 1341 
Q 2672 1728 2419 1979 
Q 2166 2231 1775 2231 
Q 1616 2231 1378 2169 
L 1441 2663 
Q 1497 2656 1531 2656 
Q 1891 2656 2178 2843 
Q 2466 3031 2466 3422 
Q 2466 3731 2256 3934 
Q 2047 4138 1716 4138 
Q 1388 4138 1169 3931 
Q 950 3725 888 3313 
L 325 3413 
Q 428 3978 793 4289 
Q 1159 4600 1703 4600 
Q 2078 4600 2393 4439 
Q 2709 4278 2876 4000 
Q 3044 3722 3044 3409 
Q 3044 3113 2884 2869 
Q 2725 2625 2413 2481 
Q 2819 2388 3044 2092 
Q 3269 1797 3269 1353 
Q 3269 753 2831 336 
Q 2394 -81 1725 -81 
Q 1122 -81 723 278 
Q 325 638 269 1209 
z
" transform="scale(0.015625)"/>
       </defs>
       <use xlink:href="#ArialMT-31"/>
       <use xlink:href="#ArialMT-33" x="55.615234"/>
      </g>
     </g>
    </g>
    <g id="ytick_5">
     <g id="line2d_8">
      <path d="M 55.512656 173.596318 
L 280.675349 173.596318 
" clip-path="url(#pef50eaa1a0)" style="fill: none; stroke: #ffffff; stroke-linecap: round"/>
     </g>
     <g id="text_9">
      <!-- 14 -->
      <g style="fill: #262626" transform="translate(27.661563 179.501513) scale(0.165 -0.165)">
       <defs>
        <path id="ArialMT-34" d="M 2069 0 
L 2069 1097 
L 81 1097 
L 81 1613 
L 2172 4581 
L 2631 4581 
L 2631 1613 
L 3250 1613 
L 3250 1097 
L 2631 1097 
L 2631 0 
L 2069 0 
z
M 2069 1613 
L 2069 3678 
L 634 1613 
L 2069 1613 
z
" transform="scale(0.015625)"/>
       </defs>
       <use xlink:href="#ArialMT-31"/>
       <use xlink:href="#ArialMT-34" x="55.615234"/>
      </g>
     </g>
    </g>
    <g id="ytick_6">
     <g id="line2d_9">
      <path d="M 55.512656 137.809231 
L 280.675349 137.809231 
" clip-path="url(#pef50eaa1a0)" style="fill: none; stroke: #ffffff; stroke-linecap: round"/>
     </g>
     <g id="text_10">
      <!-- 15 -->
      <g style="fill: #262626" transform="translate(27.661563 143.714426) scale(0.165 -0.165)">
       <use xlink:href="#ArialMT-31"/>
       <use xlink:href="#ArialMT-35" x="55.615234"/>
      </g>
     </g>
    </g>
    <g id="ytick_7">
     <g id="line2d_10">
      <path d="M 55.512656 102.022143 
L 280.675349 102.022143 
" clip-path="url(#pef50eaa1a0)" style="fill: none; stroke: #ffffff; stroke-linecap: round"/>
     </g>
     <g id="text_11">
      <!-- 16 -->
      <g style="fill: #262626" transform="translate(27.661563 107.927339) scale(0.165 -0.165)">
       <defs>
        <path id="ArialMT-36" d="M 3184 3459 
L 2625 3416 
Q 2550 3747 2413 3897 
Q 2184 4138 1850 4138 
Q 1581 4138 1378 3988 
Q 1113 3794 959 3422 
Q 806 3050 800 2363 
Q 1003 2672 1297 2822 
Q 1591 2972 1913 2972 
Q 2475 2972 2870 2558 
Q 3266 2144 3266 1488 
Q 3266 1056 3080 686 
Q 2894 316 2569 119 
Q 2244 -78 1831 -78 
Q 1128 -78 684 439 
Q 241 956 241 2144 
Q 241 3472 731 4075 
Q 1159 4600 1884 4600 
Q 2425 4600 2770 4297 
Q 3116 3994 3184 3459 
z
M 888 1484 
Q 888 1194 1011 928 
Q 1134 663 1356 523 
Q 1578 384 1822 384 
Q 2178 384 2434 671 
Q 2691 959 2691 1453 
Q 2691 1928 2437 2201 
Q 2184 2475 1800 2475 
Q 1419 2475 1153 2201 
Q 888 1928 888 1484 
z
" transform="scale(0.015625)"/>
       </defs>
       <use xlink:href="#ArialMT-31"/>
       <use xlink:href="#ArialMT-36" x="55.615234"/>
      </g>
     </g>
    </g>
    <g id="ytick_8">
     <g id="line2d_11">
      <path d="M 55.512656 66.235056 
L 280.675349 66.235056 
" clip-path="url(#pef50eaa1a0)" style="fill: none; stroke: #ffffff; stroke-linecap: round"/>
     </g>
     <g id="text_12">
      <!-- 17 -->
      <g style="fill: #262626" transform="translate(27.661563 72.140251) scale(0.165 -0.165)">
       <use xlink:href="#ArialMT-31"/>
       <use xlink:href="#ArialMT-37" x="55.615234"/>
      </g>
     </g>
    </g>
    <g id="ytick_9">
     <g id="line2d_12">
      <path d="M 55.512656 30.447969 
L 280.675349 30.447969 
" clip-path="url(#pef50eaa1a0)" style="fill: none; stroke: #ffffff; stroke-linecap: round"/>
     </g>
     <g id="text_13">
      <!-- 18 -->
      <g style="fill: #262626" transform="translate(27.661563 36.353164) scale(0.165 -0.165)">
       <defs>
        <path id="ArialMT-38" d="M 1131 2484 
Q 781 2613 612 2850 
Q 444 3088 444 3419 
Q 444 3919 803 4259 
Q 1163 4600 1759 4600 
Q 2359 4600 2725 4251 
Q 3091 3903 3091 3403 
Q 3091 3084 2923 2848 
Q 2756 2613 2416 2484 
Q 2838 2347 3058 2040 
Q 3278 1734 3278 1309 
Q 3278 722 2862 322 
Q 2447 -78 1769 -78 
Q 1091 -78 675 323 
Q 259 725 259 1325 
Q 259 1772 486 2073 
Q 713 2375 1131 2484 
z
M 1019 3438 
Q 1019 3113 1228 2906 
Q 1438 2700 1772 2700 
Q 2097 2700 2305 2904 
Q 2513 3109 2513 3406 
Q 2513 3716 2298 3927 
Q 2084 4138 1766 4138 
Q 1444 4138 1231 3931 
Q 1019 3725 1019 3438 
z
M 838 1322 
Q 838 1081 952 856 
Q 1066 631 1291 507 
Q 1516 384 1775 384 
Q 2178 384 2440 643 
Q 2703 903 2703 1303 
Q 2703 1709 2433 1975 
Q 2163 2241 1756 2241 
Q 1359 2241 1098 1978 
Q 838 1716 838 1322 
z
" transform="scale(0.015625)"/>
       </defs>
       <use xlink:href="#ArialMT-31"/>
       <use xlink:href="#ArialMT-38" x="55.615234"/>
      </g>
     </g>
    </g>
    <g id="text_14">
     <!-- Partial dependence -->
     <g style="fill: #262626" transform="translate(20.084063 241.909164) rotate(-90) scale(0.18 -0.18)">
      <defs>
       <path id="ArialMT-50" d="M 494 0 
L 494 4581 
L 2222 4581 
Q 2678 4581 2919 4538 
Q 3256 4481 3484 4323 
Q 3713 4166 3852 3881 
Q 3991 3597 3991 3256 
Q 3991 2672 3619 2267 
Q 3247 1863 2275 1863 
L 1100 1863 
L 1100 0 
L 494 0 
z
M 1100 2403 
L 2284 2403 
Q 2872 2403 3119 2622 
Q 3366 2841 3366 3238 
Q 3366 3525 3220 3729 
Q 3075 3934 2838 4000 
Q 2684 4041 2272 4041 
L 1100 4041 
L 1100 2403 
z
" transform="scale(0.015625)"/>
       <path id="ArialMT-61" d="M 2588 409 
Q 2275 144 1986 34 
Q 1697 -75 1366 -75 
Q 819 -75 525 192 
Q 231 459 231 875 
Q 231 1119 342 1320 
Q 453 1522 633 1644 
Q 813 1766 1038 1828 
Q 1203 1872 1538 1913 
Q 2219 1994 2541 2106 
Q 2544 2222 2544 2253 
Q 2544 2597 2384 2738 
Q 2169 2928 1744 2928 
Q 1347 2928 1158 2789 
Q 969 2650 878 2297 
L 328 2372 
Q 403 2725 575 2942 
Q 747 3159 1072 3276 
Q 1397 3394 1825 3394 
Q 2250 3394 2515 3294 
Q 2781 3194 2906 3042 
Q 3031 2891 3081 2659 
Q 3109 2516 3109 2141 
L 3109 1391 
Q 3109 606 3145 398 
Q 3181 191 3288 0 
L 2700 0 
Q 2613 175 2588 409 
z
M 2541 1666 
Q 2234 1541 1622 1453 
Q 1275 1403 1131 1340 
Q 988 1278 909 1158 
Q 831 1038 831 891 
Q 831 666 1001 516 
Q 1172 366 1500 366 
Q 1825 366 2078 508 
Q 2331 650 2450 897 
Q 2541 1088 2541 1459 
L 2541 1666 
z
" transform="scale(0.015625)"/>
       <path id="ArialMT-72" d="M 416 0 
L 416 3319 
L 922 3319 
L 922 2816 
Q 1116 3169 1280 3281 
Q 1444 3394 1641 3394 
Q 1925 3394 2219 3213 
L 2025 2691 
Q 1819 2813 1613 2813 
Q 1428 2813 1281 2702 
Q 1134 2591 1072 2394 
Q 978 2094 978 1738 
L 978 0 
L 416 0 
z
" transform="scale(0.015625)"/>
       <path id="ArialMT-74" d="M 1650 503 
L 1731 6 
Q 1494 -44 1306 -44 
Q 1000 -44 831 53 
Q 663 150 594 308 
Q 525 466 525 972 
L 525 2881 
L 113 2881 
L 113 3319 
L 525 3319 
L 525 4141 
L 1084 4478 
L 1084 3319 
L 1650 3319 
L 1650 2881 
L 1084 2881 
L 1084 941 
Q 1084 700 1114 631 
Q 1144 563 1211 522 
Q 1278 481 1403 481 
Q 1497 481 1650 503 
z
" transform="scale(0.015625)"/>
       <path id="ArialMT-69" d="M 425 3934 
L 425 4581 
L 988 4581 
L 988 3934 
L 425 3934 
z
M 425 0 
L 425 3319 
L 988 3319 
L 988 0 
L 425 0 
z
" transform="scale(0.015625)"/>
       <path id="ArialMT-6c" d="M 409 0 
L 409 4581 
L 972 4581 
L 972 0 
L 409 0 
z
" transform="scale(0.015625)"/>
       <path id="ArialMT-20" transform="scale(0.015625)"/>
       <path id="ArialMT-64" d="M 2575 0 
L 2575 419 
Q 2259 -75 1647 -75 
Q 1250 -75 917 144 
Q 584 363 401 755 
Q 219 1147 219 1656 
Q 219 2153 384 2558 
Q 550 2963 881 3178 
Q 1213 3394 1622 3394 
Q 1922 3394 2156 3267 
Q 2391 3141 2538 2938 
L 2538 4581 
L 3097 4581 
L 3097 0 
L 2575 0 
z
M 797 1656 
Q 797 1019 1065 703 
Q 1334 388 1700 388 
Q 2069 388 2326 689 
Q 2584 991 2584 1609 
Q 2584 2291 2321 2609 
Q 2059 2928 1675 2928 
Q 1300 2928 1048 2622 
Q 797 2316 797 1656 
z
" transform="scale(0.015625)"/>
       <path id="ArialMT-65" d="M 2694 1069 
L 3275 997 
Q 3138 488 2766 206 
Q 2394 -75 1816 -75 
Q 1088 -75 661 373 
Q 234 822 234 1631 
Q 234 2469 665 2931 
Q 1097 3394 1784 3394 
Q 2450 3394 2872 2941 
Q 3294 2488 3294 1666 
Q 3294 1616 3291 1516 
L 816 1516 
Q 847 969 1125 678 
Q 1403 388 1819 388 
Q 2128 388 2347 550 
Q 2566 713 2694 1069 
z
M 847 1978 
L 2700 1978 
Q 2663 2397 2488 2606 
Q 2219 2931 1791 2931 
Q 1403 2931 1139 2672 
Q 875 2413 847 1978 
z
" transform="scale(0.015625)"/>
       <path id="ArialMT-70" d="M 422 -1272 
L 422 3319 
L 934 3319 
L 934 2888 
Q 1116 3141 1344 3267 
Q 1572 3394 1897 3394 
Q 2322 3394 2647 3175 
Q 2972 2956 3137 2557 
Q 3303 2159 3303 1684 
Q 3303 1175 3120 767 
Q 2938 359 2589 142 
Q 2241 -75 1856 -75 
Q 1575 -75 1351 44 
Q 1128 163 984 344 
L 984 -1272 
L 422 -1272 
z
M 931 1641 
Q 931 1000 1190 694 
Q 1450 388 1819 388 
Q 2194 388 2461 705 
Q 2728 1022 2728 1688 
Q 2728 2322 2467 2637 
Q 2206 2953 1844 2953 
Q 1484 2953 1207 2617 
Q 931 2281 931 1641 
z
" transform="scale(0.015625)"/>
       <path id="ArialMT-6e" d="M 422 0 
L 422 3319 
L 928 3319 
L 928 2847 
Q 1294 3394 1984 3394 
Q 2284 3394 2536 3286 
Q 2788 3178 2913 3003 
Q 3038 2828 3088 2588 
Q 3119 2431 3119 2041 
L 3119 0 
L 2556 0 
L 2556 2019 
Q 2556 2363 2490 2533 
Q 2425 2703 2258 2804 
Q 2091 2906 1866 2906 
Q 1506 2906 1245 2678 
Q 984 2450 984 1813 
L 984 0 
L 422 0 
z
" transform="scale(0.015625)"/>
       <path id="ArialMT-63" d="M 2588 1216 
L 3141 1144 
Q 3050 572 2676 248 
Q 2303 -75 1759 -75 
Q 1078 -75 664 370 
Q 250 816 250 1647 
Q 250 2184 428 2587 
Q 606 2991 970 3192 
Q 1334 3394 1763 3394 
Q 2303 3394 2647 3120 
Q 2991 2847 3088 2344 
L 2541 2259 
Q 2463 2594 2264 2762 
Q 2066 2931 1784 2931 
Q 1359 2931 1093 2626 
Q 828 2322 828 1663 
Q 828 994 1084 691 
Q 1341 388 1753 388 
Q 2084 388 2306 591 
Q 2528 794 2588 1216 
z
" transform="scale(0.015625)"/>
      </defs>
      <use xlink:href="#ArialMT-50"/>
      <use xlink:href="#ArialMT-61" x="66.699219"/>
      <use xlink:href="#ArialMT-72" x="122.314453"/>
      <use xlink:href="#ArialMT-74" x="155.615234"/>
      <use xlink:href="#ArialMT-69" x="183.398438"/>
      <use xlink:href="#ArialMT-61" x="205.615234"/>
      <use xlink:href="#ArialMT-6c" x="261.230469"/>
      <use xlink:href="#ArialMT-20" x="283.447266"/>
      <use xlink:href="#ArialMT-64" x="311.230469"/>
      <use xlink:href="#ArialMT-65" x="366.845703"/>
      <use xlink:href="#ArialMT-70" x="422.460938"/>
      <use xlink:href="#ArialMT-65" x="478.076172"/>
      <use xlink:href="#ArialMT-6e" x="533.691406"/>
      <use xlink:href="#ArialMT-64" x="589.306641"/>
      <use xlink:href="#ArialMT-65" x="644.921875"/>
      <use xlink:href="#ArialMT-6e" x="700.537109"/>
      <use xlink:href="#ArialMT-63" x="756.152344"/>
      <use xlink:href="#ArialMT-65" x="806.152344"/>
     </g>
    </g>
   </g>
   <g id="line2d_13">
    <path d="M 65.747324 310.186294 
L 67.359083 307.608013 
L 68.970842 302.641434 
L 70.5826 292.154273 
L 72.194359 288.307613 
L 73.806118 288.383808 
L 75.417876 274.239347 
L 77.029635 272.775764 
L 78.641394 272.247572 
L 80.253153 270.516412 
L 81.864911 262.11339 
L 83.47667 259.682062 
L 85.088429 240.190768 
L 86.700187 239.931287 
L 88.311946 237.037273 
L 89.923705 235.354541 
L 91.535464 236.409335 
L 93.147222 236.585362 
L 94.758981 234.601495 
L 96.37074 231.144116 
L 97.982498 229.707733 
L 99.594257 229.309564 
L 101.206016 228.776675 
L 102.817775 215.49997 
L 104.429533 214.248248 
L 106.041292 212.836327 
L 107.653051 204.982181 
L 110.876568 199.830447 
L 112.488327 196.77485 
L 114.100086 191.88917 
L 115.711844 191.610538 
L 117.323603 188.078238 
L 118.935362 184.932233 
L 120.547121 182.167821 
L 122.158879 178.084327 
L 123.770638 177.044331 
L 125.382397 175.708887 
L 126.994155 174.588491 
L 128.605914 170.329145 
L 130.217673 166.56461 
L 131.829432 163.741711 
L 133.44119 161.682131 
L 135.052949 161.420031 
L 136.664708 157.923897 
L 138.276466 149.025868 
L 139.888225 147.188526 
L 141.499984 143.771409 
L 143.111743 143.309242 
L 144.723501 139.438839 
L 146.33526 138.618857 
L 147.947019 136.869937 
L 149.558777 128.393019 
L 151.170536 127.488251 
L 152.782295 127.526876 
L 154.394054 127.26448 
L 156.005812 126.82124 
L 157.617571 123.521776 
L 159.22933 121.180162 
L 160.841088 119.205643 
L 162.452847 117.620809 
L 164.064606 117.375013 
L 165.676365 116.891578 
L 167.288123 116.041212 
L 168.899882 115.899735 
L 170.511641 114.553093 
L 172.123399 113.579638 
L 173.735158 113.485445 
L 175.346917 112.675303 
L 176.958676 111.537565 
L 178.570434 111.049606 
L 180.182193 110.380146 
L 181.793952 109.54616 
L 183.405711 109.385622 
L 185.017469 108.880676 
L 186.629228 108.181116 
L 189.852745 107.225152 
L 193.076263 105.957425 
L 197.911539 105.841634 
L 199.523298 105.996173 
L 201.135056 105.230954 
L 202.746815 104.984094 
L 204.358574 104.870809 
L 205.970333 104.3009 
L 207.582091 104.180518 
L 209.19385 103.352246 
L 210.805609 103.081989 
L 212.417367 103.065634 
L 214.029126 102.798459 
L 218.864402 102.93985 
L 222.08792 102.945703 
L 223.699678 102.203412 
L 225.311437 101.710288 
L 226.923196 101.369781 
L 228.534955 101.245896 
L 230.146713 101.635378 
L 231.758472 101.580668 
L 233.370231 101.015031 
L 234.981989 101.071213 
L 236.593748 100.161227 
L 238.205507 100.16247 
L 243.040783 99.62206 
L 244.652542 99.225899 
L 246.264301 99.494832 
L 247.876059 99.079478 
L 249.487818 98.87972 
L 251.099577 99.09961 
L 252.711335 100.197756 
L 254.323094 100.425568 
L 255.934853 103.432698 
L 257.546612 104.109354 
L 260.770129 104.945359 
L 262.381888 104.901511 
L 263.993646 102.970226 
L 265.605405 102.193044 
L 267.217164 102.3008 
L 268.828923 101.746068 
L 270.440681 101.501185 
L 270.440681 101.501185 
" clip-path="url(#pef50eaa1a0)" style="fill: none; stroke: #1f77b4; stroke-width: 1.5; stroke-linecap: round"/>
   </g>
   <g id="LineCollection_1">
    <path d="M 77.337554 321.511765 
L 77.337554 305.796176 
" clip-path="url(#pef50eaa1a0)" style="fill: none; stroke: #000000; stroke-width: 1.5"/>
    <path d="M 100.353084 321.511765 
L 100.353084 305.796176 
" clip-path="url(#pef50eaa1a0)" style="fill: none; stroke: #000000; stroke-width: 1.5"/>
    <path d="M 121.322544 321.511765 
L 121.322544 305.796176 
" clip-path="url(#pef50eaa1a0)" style="fill: none; stroke: #000000; stroke-width: 1.5"/>
    <path d="M 140.591197 321.511765 
L 140.591197 305.796176 
" clip-path="url(#pef50eaa1a0)" style="fill: none; stroke: #000000; stroke-width: 1.5"/>
    <path d="M 164.324107 321.511765 
L 164.324107 305.796176 
" clip-path="url(#pef50eaa1a0)" style="fill: none; stroke: #000000; stroke-width: 1.5"/>
    <path d="M 188.178161 321.511765 
L 188.178161 305.796176 
" clip-path="url(#pef50eaa1a0)" style="fill: none; stroke: #000000; stroke-width: 1.5"/>
    <path d="M 210.969575 321.511765 
L 210.969575 305.796176 
" clip-path="url(#pef50eaa1a0)" style="fill: none; stroke: #000000; stroke-width: 1.5"/>
    <path d="M 233.547098 321.511765 
L 233.547098 305.796176 
" clip-path="url(#pef50eaa1a0)" style="fill: none; stroke: #000000; stroke-width: 1.5"/>
    <path d="M 256.890976 321.511765 
L 256.890976 305.796176 
" clip-path="url(#pef50eaa1a0)" style="fill: none; stroke: #000000; stroke-width: 1.5"/>
   </g>
   <g id="patch_3">
    <path d="M 55.512656 321.511765 
L 55.512656 7.2 
" style="fill: none; stroke: #ffffff; stroke-width: 1.25; stroke-linejoin: miter; stroke-linecap: square"/>
   </g>
   <g id="patch_4">
    <path d="M 280.675349 321.511765 
L 280.675349 7.2 
" style="fill: none; stroke: #ffffff; stroke-width: 1.25; stroke-linejoin: miter; stroke-linecap: square"/>
   </g>
   <g id="patch_5">
    <path d="M 55.512656 321.511765 
L 280.675349 321.511765 
" style="fill: none; stroke: #ffffff; stroke-width: 1.25; stroke-linejoin: miter; stroke-linecap: square"/>
   </g>
   <g id="patch_6">
    <path d="M 55.512656 7.2 
L 280.675349 7.2 
" style="fill: none; stroke: #ffffff; stroke-width: 1.25; stroke-linejoin: miter; stroke-linecap: square"/>
   </g>
  </g>
  <g id="axes_3">
   <g id="patch_7">
    <path d="M 325.707888 321.511765 
L 550.870581 321.511765 
L 550.870581 7.2 
L 325.707888 7.2 
z
" style="fill: #eaeaf2"/>
   </g>
   <g id="matplotlib.axis_3">
    <g id="xtick_4">
     <g id="line2d_14">
      <path d="M 380.296452 321.511765 
L 380.296452 7.2 
" clip-path="url(#p64ab2ba794)" style="fill: none; stroke: #ffffff; stroke-linecap: round"/>
     </g>
     <g id="text_15">
      <!-- 0.25 -->
      <g style="fill: #262626" transform="translate(364.241179 342.822155) scale(0.165 -0.165)">
       <use xlink:href="#ArialMT-30"/>
       <use xlink:href="#ArialMT-2e" x="55.615234"/>
       <use xlink:href="#ArialMT-32" x="83.398438"/>
       <use xlink:href="#ArialMT-35" x="139.013672"/>
      </g>
     </g>
    </g>
    <g id="xtick_5">
     <g id="line2d_15">
      <path d="M 436.684729 321.511765 
L 436.684729 7.2 
" clip-path="url(#p64ab2ba794)" style="fill: none; stroke: #ffffff; stroke-linecap: round"/>
     </g>
     <g id="text_16">
      <!-- 0.50 -->
      <g style="fill: #262626" transform="translate(420.629455 342.822155) scale(0.165 -0.165)">
       <use xlink:href="#ArialMT-30"/>
       <use xlink:href="#ArialMT-2e" x="55.615234"/>
       <use xlink:href="#ArialMT-35" x="83.398438"/>
       <use xlink:href="#ArialMT-30" x="139.013672"/>
      </g>
     </g>
    </g>
    <g id="xtick_6">
     <g id="line2d_16">
      <path d="M 493.073005 321.511765 
L 493.073005 7.2 
" clip-path="url(#p64ab2ba794)" style="fill: none; stroke: #ffffff; stroke-linecap: round"/>
     </g>
     <g id="text_17">
      <!-- 0.75 -->
      <g style="fill: #262626" transform="translate(477.017732 342.822155) scale(0.165 -0.165)">
       <use xlink:href="#ArialMT-30"/>
       <use xlink:href="#ArialMT-2e" x="55.615234"/>
       <use xlink:href="#ArialMT-37" x="83.398438"/>
       <use xlink:href="#ArialMT-35" x="139.013672"/>
      </g>
     </g>
    </g>
    <g id="xtick_7">
     <g id="line2d_17">
      <path d="M 549.461282 321.511765 
L 549.461282 7.2 
" clip-path="url(#p64ab2ba794)" style="fill: none; stroke: #ffffff; stroke-linecap: round"/>
     </g>
     <g id="text_18">
      <!-- 1.00 -->
      <g style="fill: #262626" transform="translate(533.406009 342.822155) scale(0.165 -0.165)">
       <use xlink:href="#ArialMT-31"/>
       <use xlink:href="#ArialMT-2e" x="55.615234"/>
       <use xlink:href="#ArialMT-30" x="83.398438"/>
       <use xlink:href="#ArialMT-30" x="139.013672"/>
      </g>
     </g>
    </g>
    <g id="text_19">
     <!-- x_1 -->
     <g style="fill: #262626" transform="translate(423.779547 363.03903) scale(0.18 -0.18)">
      <use xlink:href="#ArialMT-78"/>
      <use xlink:href="#ArialMT-5f" x="50"/>
      <use xlink:href="#ArialMT-31" x="105.615234"/>
     </g>
    </g>
   </g>
   <g id="matplotlib.axis_4">
    <g id="ytick_10">
     <g id="line2d_18">
      <path d="M 325.707888 316.744667 
L 550.870581 316.744667 
" clip-path="url(#p64ab2ba794)" style="fill: none; stroke: #ffffff; stroke-linecap: round"/>
     </g>
    </g>
    <g id="ytick_11">
     <g id="line2d_19">
      <path d="M 325.707888 280.95758 
L 550.870581 280.95758 
" clip-path="url(#p64ab2ba794)" style="fill: none; stroke: #ffffff; stroke-linecap: round"/>
     </g>
    </g>
    <g id="ytick_12">
     <g id="line2d_20">
      <path d="M 325.707888 245.170493 
L 550.870581 245.170493 
" clip-path="url(#p64ab2ba794)" style="fill: none; stroke: #ffffff; stroke-linecap: round"/>
     </g>
    </g>
    <g id="ytick_13">
     <g id="line2d_21">
      <path d="M 325.707888 209.383405 
L 550.870581 209.383405 
" clip-path="url(#p64ab2ba794)" style="fill: none; stroke: #ffffff; stroke-linecap: round"/>
     </g>
    </g>
    <g id="ytick_14">
     <g id="line2d_22">
      <path d="M 325.707888 173.596318 
L 550.870581 173.596318 
" clip-path="url(#p64ab2ba794)" style="fill: none; stroke: #ffffff; stroke-linecap: round"/>
     </g>
    </g>
    <g id="ytick_15">
     <g id="line2d_23">
      <path d="M 325.707888 137.809231 
L 550.870581 137.809231 
" clip-path="url(#p64ab2ba794)" style="fill: none; stroke: #ffffff; stroke-linecap: round"/>
     </g>
    </g>
    <g id="ytick_16">
     <g id="line2d_24">
      <path d="M 325.707888 102.022143 
L 550.870581 102.022143 
" clip-path="url(#p64ab2ba794)" style="fill: none; stroke: #ffffff; stroke-linecap: round"/>
     </g>
    </g>
    <g id="ytick_17">
     <g id="line2d_25">
      <path d="M 325.707888 66.235056 
L 550.870581 66.235056 
" clip-path="url(#p64ab2ba794)" style="fill: none; stroke: #ffffff; stroke-linecap: round"/>
     </g>
    </g>
    <g id="ytick_18">
     <g id="line2d_26">
      <path d="M 325.707888 30.447969 
L 550.870581 30.447969 
" clip-path="url(#p64ab2ba794)" style="fill: none; stroke: #ffffff; stroke-linecap: round"/>
     </g>
    </g>
   </g>
   <g id="line2d_27">
    <path d="M 335.942556 310.833605 
L 337.554314 308.769674 
L 339.166073 306.213511 
L 340.777832 302.72896 
L 342.38959 300.417809 
L 344.001349 299.909936 
L 345.613108 289.959061 
L 347.224867 288.416274 
L 348.836625 281.698956 
L 350.448384 278.186063 
L 352.060143 272.160147 
L 353.671901 271.869503 
L 355.28366 270.212035 
L 356.895419 269.110751 
L 358.507178 267.872975 
L 360.118936 265.904475 
L 361.730695 263.136431 
L 363.342454 260.015944 
L 364.954213 258.175855 
L 366.565971 253.101921 
L 368.17773 251.752629 
L 369.789489 248.502805 
L 373.013006 245.733228 
L 374.624765 239.748666 
L 376.236524 236.224678 
L 377.848282 231.233076 
L 379.460041 220.366012 
L 381.0718 218.640016 
L 382.683558 217.970013 
L 384.295317 218.4073 
L 385.907076 209.518155 
L 387.518835 204.625938 
L 389.130593 196.87406 
L 390.742352 188.533573 
L 392.354111 186.0508 
L 393.965869 176.062365 
L 395.577628 169.794719 
L 397.189387 163.979208 
L 398.801146 153.337233 
L 400.412904 144.38925 
L 402.024663 142.880606 
L 403.636422 141.013292 
L 405.24818 140.481106 
L 406.859939 139.365271 
L 408.471698 138.912031 
L 410.083457 137.918813 
L 411.695215 135.974699 
L 413.306974 133.799238 
L 414.918733 133.354144 
L 418.14225 129.238019 
L 419.754009 128.743191 
L 421.365768 127.017733 
L 422.977526 123.939191 
L 424.589285 121.617278 
L 426.201044 120.201852 
L 427.812803 116.542544 
L 429.424561 114.162308 
L 432.648079 111.083549 
L 434.259837 110.590526 
L 437.483355 110.106954 
L 439.095114 109.639002 
L 440.706872 108.447824 
L 442.318631 108.351594 
L 443.93039 107.707922 
L 445.542148 107.350216 
L 450.377425 106.719225 
L 451.989183 106.1985 
L 453.600942 106.129487 
L 455.212701 105.851926 
L 456.824459 105.732844 
L 458.436218 104.823588 
L 460.047977 104.266059 
L 461.659736 103.486301 
L 463.271494 103.028291 
L 464.883253 102.881178 
L 466.495012 102.537028 
L 468.10677 102.509166 
L 469.718529 102.597664 
L 471.330288 102.233165 
L 472.942047 102.313418 
L 476.165564 102.244454 
L 479.389081 101.433236 
L 481.00084 101.496901 
L 482.612599 101.072996 
L 484.224358 99.719097 
L 485.836116 99.726741 
L 487.447875 99.247349 
L 489.059634 99.348076 
L 490.671393 99.183276 
L 498.730186 98.997797 
L 500.341945 98.470244 
L 503.565462 97.906418 
L 505.177221 97.851131 
L 506.78898 97.541892 
L 508.400738 97.828402 
L 510.012497 98.559327 
L 511.624256 99.046317 
L 513.236015 98.612792 
L 516.459532 99.814056 
L 518.071291 99.878064 
L 519.683049 98.913448 
L 521.294808 98.822047 
L 522.906567 99.166282 
L 524.518326 98.969948 
L 526.130084 99.113558 
L 527.741843 98.884241 
L 529.353602 99.199755 
L 530.96536 99.697854 
L 532.577119 99.07351 
L 534.188878 99.77702 
L 535.800637 97.903896 
L 537.412395 97.66364 
L 539.024154 97.270421 
L 540.635913 98.560125 
L 540.635913 98.560125 
" clip-path="url(#p64ab2ba794)" style="fill: none; stroke: #1f77b4; stroke-width: 1.5; stroke-linecap: round"/>
   </g>
   <g id="LineCollection_2">
    <path d="M 346.008878 321.511765 
L 346.008878 305.796176 
" clip-path="url(#p64ab2ba794)" style="fill: none; stroke: #000000; stroke-width: 1.5"/>
    <path d="M 367.111297 321.511765 
L 367.111297 305.796176 
" clip-path="url(#p64ab2ba794)" style="fill: none; stroke: #000000; stroke-width: 1.5"/>
    <path d="M 392.058429 321.511765 
L 392.058429 305.796176 
" clip-path="url(#p64ab2ba794)" style="fill: none; stroke: #000000; stroke-width: 1.5"/>
    <path d="M 415.369674 321.511765 
L 415.369674 305.796176 
" clip-path="url(#p64ab2ba794)" style="fill: none; stroke: #000000; stroke-width: 1.5"/>
    <path d="M 438.448052 321.511765 
L 438.448052 305.796176 
" clip-path="url(#p64ab2ba794)" style="fill: none; stroke: #000000; stroke-width: 1.5"/>
    <path d="M 462.070416 321.511765 
L 462.070416 305.796176 
" clip-path="url(#p64ab2ba794)" style="fill: none; stroke: #000000; stroke-width: 1.5"/>
    <path d="M 483.85685 321.511765 
L 483.85685 305.796176 
" clip-path="url(#p64ab2ba794)" style="fill: none; stroke: #000000; stroke-width: 1.5"/>
    <path d="M 505.463753 321.511765 
L 505.463753 305.796176 
" clip-path="url(#p64ab2ba794)" style="fill: none; stroke: #000000; stroke-width: 1.5"/>
    <path d="M 528.225671 321.511765 
L 528.225671 305.796176 
" clip-path="url(#p64ab2ba794)" style="fill: none; stroke: #000000; stroke-width: 1.5"/>
   </g>
   <g id="patch_8">
    <path d="M 325.707888 321.511765 
L 325.707888 7.2 
" style="fill: none; stroke: #ffffff; stroke-width: 1.25; stroke-linejoin: miter; stroke-linecap: square"/>
   </g>
   <g id="patch_9">
    <path d="M 550.870581 321.511765 
L 550.870581 7.2 
" style="fill: none; stroke: #ffffff; stroke-width: 1.25; stroke-linejoin: miter; stroke-linecap: square"/>
   </g>
   <g id="patch_10">
    <path d="M 325.707888 321.511765 
L 550.870581 321.511765 
" style="fill: none; stroke: #ffffff; stroke-width: 1.25; stroke-linejoin: miter; stroke-linecap: square"/>
   </g>
   <g id="patch_11">
    <path d="M 325.707888 7.2 
L 550.870581 7.2 
" style="fill: none; stroke: #ffffff; stroke-width: 1.25; stroke-linejoin: miter; stroke-linecap: square"/>
   </g>
  </g>
  <g id="axes_4">
   <g id="patch_12">
    <path d="M 595.903119 321.511765 
L 821.065812 321.511765 
L 821.065812 7.2 
L 595.903119 7.2 
z
" style="fill: #eaeaf2"/>
   </g>
   <g id="matplotlib.axis_5">
    <g id="xtick_8">
     <g id="line2d_28">
      <path d="M 597.212712 321.511765 
L 597.212712 7.2 
" clip-path="url(#pa6d29bf646)" style="fill: none; stroke: #ffffff; stroke-linecap: round"/>
     </g>
     <g id="text_20">
      <!-- 0.0 -->
      <g style="fill: #262626" transform="translate(585.745212 342.822155) scale(0.165 -0.165)">
       <use xlink:href="#ArialMT-30"/>
       <use xlink:href="#ArialMT-2e" x="55.615234"/>
       <use xlink:href="#ArialMT-30" x="83.398438"/>
      </g>
     </g>
    </g>
    <g id="xtick_9">
     <g id="line2d_29">
      <path d="M 708.951672 321.511765 
L 708.951672 7.2 
" clip-path="url(#pa6d29bf646)" style="fill: none; stroke: #ffffff; stroke-linecap: round"/>
     </g>
     <g id="text_21">
      <!-- 0.5 -->
      <g style="fill: #262626" transform="translate(697.484172 342.822155) scale(0.165 -0.165)">
       <use xlink:href="#ArialMT-30"/>
       <use xlink:href="#ArialMT-2e" x="55.615234"/>
       <use xlink:href="#ArialMT-35" x="83.398438"/>
      </g>
     </g>
    </g>
    <g id="xtick_10">
     <g id="line2d_30">
      <path d="M 820.690632 321.511765 
L 820.690632 7.2 
" clip-path="url(#pa6d29bf646)" style="fill: none; stroke: #ffffff; stroke-linecap: round"/>
     </g>
     <g id="text_22">
      <!-- 1.0 -->
      <g style="fill: #262626" transform="translate(809.223132 342.822155) scale(0.165 -0.165)">
       <use xlink:href="#ArialMT-31"/>
       <use xlink:href="#ArialMT-2e" x="55.615234"/>
       <use xlink:href="#ArialMT-30" x="83.398438"/>
      </g>
     </g>
    </g>
    <g id="text_23">
     <!-- x_2 -->
     <g style="fill: #262626" transform="translate(693.974778 363.03903) scale(0.18 -0.18)">
      <use xlink:href="#ArialMT-78"/>
      <use xlink:href="#ArialMT-5f" x="50"/>
      <use xlink:href="#ArialMT-32" x="105.615234"/>
     </g>
    </g>
   </g>
   <g id="matplotlib.axis_6">
    <g id="ytick_19">
     <g id="line2d_31">
      <path d="M 595.903119 316.744667 
L 821.065812 316.744667 
" clip-path="url(#pa6d29bf646)" style="fill: none; stroke: #ffffff; stroke-linecap: round"/>
     </g>
    </g>
    <g id="ytick_20">
     <g id="line2d_32">
      <path d="M 595.903119 280.95758 
L 821.065812 280.95758 
" clip-path="url(#pa6d29bf646)" style="fill: none; stroke: #ffffff; stroke-linecap: round"/>
     </g>
    </g>
    <g id="ytick_21">
     <g id="line2d_33">
      <path d="M 595.903119 245.170493 
L 821.065812 245.170493 
" clip-path="url(#pa6d29bf646)" style="fill: none; stroke: #ffffff; stroke-linecap: round"/>
     </g>
    </g>
    <g id="ytick_22">
     <g id="line2d_34">
      <path d="M 595.903119 209.383405 
L 821.065812 209.383405 
" clip-path="url(#pa6d29bf646)" style="fill: none; stroke: #ffffff; stroke-linecap: round"/>
     </g>
    </g>
    <g id="ytick_23">
     <g id="line2d_35">
      <path d="M 595.903119 173.596318 
L 821.065812 173.596318 
" clip-path="url(#pa6d29bf646)" style="fill: none; stroke: #ffffff; stroke-linecap: round"/>
     </g>
    </g>
    <g id="ytick_24">
     <g id="line2d_36">
      <path d="M 595.903119 137.809231 
L 821.065812 137.809231 
" clip-path="url(#pa6d29bf646)" style="fill: none; stroke: #ffffff; stroke-linecap: round"/>
     </g>
    </g>
    <g id="ytick_25">
     <g id="line2d_37">
      <path d="M 595.903119 102.022143 
L 821.065812 102.022143 
" clip-path="url(#pa6d29bf646)" style="fill: none; stroke: #ffffff; stroke-linecap: round"/>
     </g>
    </g>
    <g id="ytick_26">
     <g id="line2d_38">
      <path d="M 595.903119 66.235056 
L 821.065812 66.235056 
" clip-path="url(#pa6d29bf646)" style="fill: none; stroke: #ffffff; stroke-linecap: round"/>
     </g>
    </g>
    <g id="ytick_27">
     <g id="line2d_39">
      <path d="M 595.903119 30.447969 
L 821.065812 30.447969 
" clip-path="url(#pa6d29bf646)" style="fill: none; stroke: #ffffff; stroke-linecap: round"/>
     </g>
    </g>
   </g>
   <g id="line2d_40">
    <path d="M 606.137787 97.362962 
L 607.749546 102.53909 
L 609.361304 106.332582 
L 610.973063 108.006384 
L 612.584822 109.945593 
L 614.196581 110.578733 
L 615.808339 111.537792 
L 617.420098 115.969651 
L 619.031857 121.384244 
L 620.643616 124.801572 
L 622.255374 128.798394 
L 623.867133 133.157109 
L 627.09065 136.223273 
L 628.702409 140.340931 
L 630.314168 143.897927 
L 631.925927 148.803232 
L 633.537685 151.07501 
L 635.149444 152.449326 
L 636.761203 156.316022 
L 638.372961 157.558468 
L 639.98472 160.891781 
L 641.596479 163.158567 
L 643.208238 166.974669 
L 644.819996 167.890197 
L 646.431755 169.717419 
L 648.043514 173.264737 
L 649.655272 173.357904 
L 651.267031 176.712548 
L 652.87879 178.116558 
L 654.490549 178.719208 
L 656.102307 179.508401 
L 662.549342 180.093489 
L 664.161101 180.50526 
L 665.77286 180.633133 
L 667.384618 181.193352 
L 668.996377 181.456219 
L 670.608136 181.577391 
L 672.219894 182.494115 
L 673.831653 183.021281 
L 675.443412 183.422798 
L 677.055171 183.605482 
L 678.666929 183.605196 
L 680.278688 183.784497 
L 685.113964 183.659192 
L 686.725723 183.690489 
L 688.337482 183.943477 
L 689.94924 184.077469 
L 691.560999 184.549955 
L 694.784517 184.807083 
L 696.396275 184.643764 
L 701.231551 184.58863 
L 702.84331 184.755679 
L 706.066828 184.731781 
L 709.290345 185.091394 
L 710.902104 185.261475 
L 714.125621 185.325106 
L 722.184415 185.856031 
L 725.407932 185.856802 
L 727.019691 185.432599 
L 730.243208 185.47284 
L 733.466726 185.063992 
L 738.302002 184.918106 
L 743.137278 184.7269 
L 744.749037 184.40616 
L 746.360796 184.253608 
L 751.196072 183.059962 
L 752.80783 182.269383 
L 754.419589 181.743412 
L 759.254865 181.332841 
L 762.478383 180.433393 
L 764.090141 178.626849 
L 765.7019 177.910449 
L 767.313659 176.516606 
L 768.925418 176.078064 
L 772.148935 173.510873 
L 773.760694 171.416468 
L 775.372452 165.814961 
L 776.984211 162.211139 
L 778.59597 161.348298 
L 780.207729 159.680641 
L 781.819487 157.368538 
L 783.431246 154.430811 
L 785.043005 151.207349 
L 786.654763 149.724733 
L 788.266522 147.195297 
L 789.878281 143.846059 
L 791.49004 136.430342 
L 793.101798 134.634736 
L 794.713557 130.803469 
L 796.325316 128.021507 
L 797.937074 126.351413 
L 799.548833 123.638479 
L 801.160592 120.438288 
L 802.772351 116.349654 
L 804.384109 109.526696 
L 807.607627 104.156583 
L 809.219386 100.657386 
L 810.831144 96.712139 
L 810.831144 96.712139 
" clip-path="url(#pa6d29bf646)" style="fill: none; stroke: #1f77b4; stroke-width: 1.5; stroke-linecap: round"/>
   </g>
   <g id="LineCollection_3">
    <path d="M 618.09336 321.511765 
L 618.09336 305.796176 
" clip-path="url(#pa6d29bf646)" style="fill: none; stroke: #000000; stroke-width: 1.5"/>
    <path d="M 640.79315 321.511765 
L 640.79315 305.796176 
" clip-path="url(#pa6d29bf646)" style="fill: none; stroke: #000000; stroke-width: 1.5"/>
    <path d="M 665.072009 321.511765 
L 665.072009 305.796176 
" clip-path="url(#pa6d29bf646)" style="fill: none; stroke: #000000; stroke-width: 1.5"/>
    <path d="M 688.815162 321.511765 
L 688.815162 305.796176 
" clip-path="url(#pa6d29bf646)" style="fill: none; stroke: #000000; stroke-width: 1.5"/>
    <path d="M 713.771794 321.511765 
L 713.771794 305.796176 
" clip-path="url(#pa6d29bf646)" style="fill: none; stroke: #000000; stroke-width: 1.5"/>
    <path d="M 735.259374 321.511765 
L 735.259374 305.796176 
" clip-path="url(#pa6d29bf646)" style="fill: none; stroke: #000000; stroke-width: 1.5"/>
    <path d="M 753.858205 321.511765 
L 753.858205 305.796176 
" clip-path="url(#pa6d29bf646)" style="fill: none; stroke: #000000; stroke-width: 1.5"/>
    <path d="M 775.397923 321.511765 
L 775.397923 305.796176 
" clip-path="url(#pa6d29bf646)" style="fill: none; stroke: #000000; stroke-width: 1.5"/>
    <path d="M 799.122121 321.511765 
L 799.122121 305.796176 
" clip-path="url(#pa6d29bf646)" style="fill: none; stroke: #000000; stroke-width: 1.5"/>
   </g>
   <g id="patch_13">
    <path d="M 595.903119 321.511765 
L 595.903119 7.2 
" style="fill: none; stroke: #ffffff; stroke-width: 1.25; stroke-linejoin: miter; stroke-linecap: square"/>
   </g>
   <g id="patch_14">
    <path d="M 821.065812 321.511765 
L 821.065812 7.2 
" style="fill: none; stroke: #ffffff; stroke-width: 1.25; stroke-linejoin: miter; stroke-linecap: square"/>
   </g>
   <g id="patch_15">
    <path d="M 595.903119 321.511765 
L 821.065812 321.511765 
" style="fill: none; stroke: #ffffff; stroke-width: 1.25; stroke-linejoin: miter; stroke-linecap: square"/>
   </g>
   <g id="patch_16">
    <path d="M 595.903119 7.2 
L 821.065812 7.2 
" style="fill: none; stroke: #ffffff; stroke-width: 1.25; stroke-linejoin: miter; stroke-linecap: square"/>
   </g>
  </g>
  <g id="axes_5">
   <g id="patch_17">
    <path d="M 55.512656 698.685882 
L 280.675349 698.685882 
L 280.675349 384.374118 
L 55.512656 384.374118 
z
" style="fill: #eaeaf2"/>
   </g>
   <g id="matplotlib.axis_7">
    <g id="xtick_11">
     <g id="line2d_41">
      <path d="M 112.225983 698.685882 
L 112.225983 384.374118 
" clip-path="url(#pe8919665b0)" style="fill: none; stroke: #ffffff; stroke-linecap: round"/>
     </g>
     <g id="text_24">
      <!-- 0.25 -->
      <g style="fill: #262626" transform="translate(96.17071 719.996273) scale(0.165 -0.165)">
       <use xlink:href="#ArialMT-30"/>
       <use xlink:href="#ArialMT-2e" x="55.615234"/>
       <use xlink:href="#ArialMT-32" x="83.398438"/>
       <use xlink:href="#ArialMT-35" x="139.013672"/>
      </g>
     </g>
    </g>
    <g id="xtick_12">
     <g id="line2d_42">
      <path d="M 169.173245 698.685882 
L 169.173245 384.374118 
" clip-path="url(#pe8919665b0)" style="fill: none; stroke: #ffffff; stroke-linecap: round"/>
     </g>
     <g id="text_25">
      <!-- 0.50 -->
      <g style="fill: #262626" transform="translate(153.117971 719.996273) scale(0.165 -0.165)">
       <use xlink:href="#ArialMT-30"/>
       <use xlink:href="#ArialMT-2e" x="55.615234"/>
       <use xlink:href="#ArialMT-35" x="83.398438"/>
       <use xlink:href="#ArialMT-30" x="139.013672"/>
      </g>
     </g>
    </g>
    <g id="xtick_13">
     <g id="line2d_43">
      <path d="M 226.120506 698.685882 
L 226.120506 384.374118 
" clip-path="url(#pe8919665b0)" style="fill: none; stroke: #ffffff; stroke-linecap: round"/>
     </g>
     <g id="text_26">
      <!-- 0.75 -->
      <g style="fill: #262626" transform="translate(210.065233 719.996273) scale(0.165 -0.165)">
       <use xlink:href="#ArialMT-30"/>
       <use xlink:href="#ArialMT-2e" x="55.615234"/>
       <use xlink:href="#ArialMT-37" x="83.398438"/>
       <use xlink:href="#ArialMT-35" x="139.013672"/>
      </g>
     </g>
    </g>
    <g id="text_27">
     <!-- x_3 -->
     <g style="fill: #262626" transform="translate(153.584315 740.213148) scale(0.18 -0.18)">
      <use xlink:href="#ArialMT-78"/>
      <use xlink:href="#ArialMT-5f" x="50"/>
      <use xlink:href="#ArialMT-33" x="105.615234"/>
     </g>
    </g>
   </g>
   <g id="matplotlib.axis_8">
    <g id="ytick_28">
     <g id="line2d_44">
      <path d="M 55.512656 693.918785 
L 280.675349 693.918785 
" clip-path="url(#pe8919665b0)" style="fill: none; stroke: #ffffff; stroke-linecap: round"/>
     </g>
     <g id="text_28">
      <!-- 10 -->
      <g style="fill: #262626" transform="translate(27.661563 699.82398) scale(0.165 -0.165)">
       <use xlink:href="#ArialMT-31"/>
       <use xlink:href="#ArialMT-30" x="55.615234"/>
      </g>
     </g>
    </g>
    <g id="ytick_29">
     <g id="line2d_45">
      <path d="M 55.512656 658.131698 
L 280.675349 658.131698 
" clip-path="url(#pe8919665b0)" style="fill: none; stroke: #ffffff; stroke-linecap: round"/>
     </g>
     <g id="text_29">
      <!-- 11 -->
      <g style="fill: #262626" transform="translate(28.878438 664.036893) scale(0.165 -0.165)">
       <use xlink:href="#ArialMT-31"/>
       <use xlink:href="#ArialMT-31" x="48.240234"/>
      </g>
     </g>
    </g>
    <g id="ytick_30">
     <g id="line2d_46">
      <path d="M 55.512656 622.34461 
L 280.675349 622.34461 
" clip-path="url(#pe8919665b0)" style="fill: none; stroke: #ffffff; stroke-linecap: round"/>
     </g>
     <g id="text_30">
      <!-- 12 -->
      <g style="fill: #262626" transform="translate(27.661563 628.249806) scale(0.165 -0.165)">
       <use xlink:href="#ArialMT-31"/>
       <use xlink:href="#ArialMT-32" x="55.615234"/>
      </g>
     </g>
    </g>
    <g id="ytick_31">
     <g id="line2d_47">
      <path d="M 55.512656 586.557523 
L 280.675349 586.557523 
" clip-path="url(#pe8919665b0)" style="fill: none; stroke: #ffffff; stroke-linecap: round"/>
     </g>
     <g id="text_31">
      <!-- 13 -->
      <g style="fill: #262626" transform="translate(27.661563 592.462718) scale(0.165 -0.165)">
       <use xlink:href="#ArialMT-31"/>
       <use xlink:href="#ArialMT-33" x="55.615234"/>
      </g>
     </g>
    </g>
    <g id="ytick_32">
     <g id="line2d_48">
      <path d="M 55.512656 550.770436 
L 280.675349 550.770436 
" clip-path="url(#pe8919665b0)" style="fill: none; stroke: #ffffff; stroke-linecap: round"/>
     </g>
     <g id="text_32">
      <!-- 14 -->
      <g style="fill: #262626" transform="translate(27.661563 556.675631) scale(0.165 -0.165)">
       <use xlink:href="#ArialMT-31"/>
       <use xlink:href="#ArialMT-34" x="55.615234"/>
      </g>
     </g>
    </g>
    <g id="ytick_33">
     <g id="line2d_49">
      <path d="M 55.512656 514.983348 
L 280.675349 514.983348 
" clip-path="url(#pe8919665b0)" style="fill: none; stroke: #ffffff; stroke-linecap: round"/>
     </g>
     <g id="text_33">
      <!-- 15 -->
      <g style="fill: #262626" transform="translate(27.661563 520.888544) scale(0.165 -0.165)">
       <use xlink:href="#ArialMT-31"/>
       <use xlink:href="#ArialMT-35" x="55.615234"/>
      </g>
     </g>
    </g>
    <g id="ytick_34">
     <g id="line2d_50">
      <path d="M 55.512656 479.196261 
L 280.675349 479.196261 
" clip-path="url(#pe8919665b0)" style="fill: none; stroke: #ffffff; stroke-linecap: round"/>
     </g>
     <g id="text_34">
      <!-- 16 -->
      <g style="fill: #262626" transform="translate(27.661563 485.101456) scale(0.165 -0.165)">
       <use xlink:href="#ArialMT-31"/>
       <use xlink:href="#ArialMT-36" x="55.615234"/>
      </g>
     </g>
    </g>
    <g id="ytick_35">
     <g id="line2d_51">
      <path d="M 55.512656 443.409174 
L 280.675349 443.409174 
" clip-path="url(#pe8919665b0)" style="fill: none; stroke: #ffffff; stroke-linecap: round"/>
     </g>
     <g id="text_35">
      <!-- 17 -->
      <g style="fill: #262626" transform="translate(27.661563 449.314369) scale(0.165 -0.165)">
       <use xlink:href="#ArialMT-31"/>
       <use xlink:href="#ArialMT-37" x="55.615234"/>
      </g>
     </g>
    </g>
    <g id="ytick_36">
     <g id="line2d_52">
      <path d="M 55.512656 407.622086 
L 280.675349 407.622086 
" clip-path="url(#pe8919665b0)" style="fill: none; stroke: #ffffff; stroke-linecap: round"/>
     </g>
     <g id="text_36">
      <!-- 18 -->
      <g style="fill: #262626" transform="translate(27.661563 413.527282) scale(0.165 -0.165)">
       <use xlink:href="#ArialMT-31"/>
       <use xlink:href="#ArialMT-38" x="55.615234"/>
      </g>
     </g>
    </g>
    <g id="text_37">
     <!-- Partial dependence -->
     <g style="fill: #262626" transform="translate(20.084063 619.083281) rotate(-90) scale(0.18 -0.18)">
      <use xlink:href="#ArialMT-50"/>
      <use xlink:href="#ArialMT-61" x="66.699219"/>
      <use xlink:href="#ArialMT-72" x="122.314453"/>
      <use xlink:href="#ArialMT-74" x="155.615234"/>
      <use xlink:href="#ArialMT-69" x="183.398438"/>
      <use xlink:href="#ArialMT-61" x="205.615234"/>
      <use xlink:href="#ArialMT-6c" x="261.230469"/>
      <use xlink:href="#ArialMT-20" x="283.447266"/>
      <use xlink:href="#ArialMT-64" x="311.230469"/>
      <use xlink:href="#ArialMT-65" x="366.845703"/>
      <use xlink:href="#ArialMT-70" x="422.460938"/>
      <use xlink:href="#ArialMT-65" x="478.076172"/>
      <use xlink:href="#ArialMT-6e" x="533.691406"/>
      <use xlink:href="#ArialMT-64" x="589.306641"/>
      <use xlink:href="#ArialMT-65" x="644.921875"/>
      <use xlink:href="#ArialMT-6e" x="700.537109"/>
      <use xlink:href="#ArialMT-63" x="756.152344"/>
      <use xlink:href="#ArialMT-65" x="806.152344"/>
     </g>
    </g>
   </g>
   <g id="line2d_53">
    <path d="M 65.747324 682.916805 
L 67.359083 681.544502 
L 68.970842 681.409992 
L 70.5826 679.980166 
L 73.806118 679.494652 
L 75.417876 678.792098 
L 77.029635 674.438414 
L 78.641394 673.495522 
L 80.253153 669.62679 
L 81.864911 664.341351 
L 83.47667 655.146234 
L 86.700187 653.103034 
L 88.311946 653.210659 
L 89.923705 652.073207 
L 91.535464 652.755089 
L 93.147222 651.74683 
L 94.758981 646.617605 
L 96.37074 645.211795 
L 97.982498 645.50537 
L 99.594257 644.672165 
L 101.206016 644.737822 
L 102.817775 642.573923 
L 104.429533 640.944954 
L 106.041292 635.156401 
L 107.653051 631.072546 
L 109.264809 630.61265 
L 110.876568 629.022818 
L 114.100086 625.317484 
L 115.711844 621.077982 
L 117.323603 620.294455 
L 120.547121 616.444816 
L 122.158879 616.757326 
L 123.770638 616.342786 
L 125.382397 612.272537 
L 126.994155 610.820034 
L 128.605914 609.958775 
L 130.217673 607.392319 
L 131.829432 606.611554 
L 133.44119 606.075958 
L 135.052949 605.13469 
L 136.664708 603.038638 
L 138.276466 601.246263 
L 139.888225 597.559625 
L 141.499984 595.830637 
L 143.111743 596.643751 
L 144.723501 596.515917 
L 146.33526 595.880088 
L 147.947019 590.390935 
L 149.558777 588.696793 
L 151.170536 571.651812 
L 152.782295 570.130936 
L 154.394054 538.18504 
L 156.005812 525.541852 
L 157.617571 524.866036 
L 159.22933 523.412736 
L 160.841088 523.887879 
L 162.452847 521.999033 
L 164.064606 522.320614 
L 165.676365 521.226901 
L 167.288123 521.12632 
L 168.899882 519.241841 
L 172.123399 519.276903 
L 173.735158 518.329966 
L 175.346917 515.683873 
L 176.958676 509.991255 
L 178.570434 507.751679 
L 180.182193 497.850084 
L 181.793952 497.100983 
L 183.405711 491.752091 
L 185.017469 492.541948 
L 186.629228 491.259617 
L 188.240987 490.290155 
L 189.852745 489.04565 
L 191.464504 488.676147 
L 193.076263 487.841648 
L 194.688022 487.396519 
L 196.29978 486.593707 
L 197.911539 485.444761 
L 199.523298 483.433065 
L 201.135056 480.447019 
L 202.746815 480.254955 
L 204.358574 479.506189 
L 205.970333 477.732134 
L 207.582091 475.782326 
L 209.19385 470.28443 
L 210.805609 469.430311 
L 212.417367 468.303692 
L 214.029126 463.596651 
L 217.252644 461.947603 
L 218.864402 459.186369 
L 220.476161 455.686069 
L 222.08792 454.656366 
L 223.699678 450.99193 
L 226.923196 445.48604 
L 228.534955 440.898991 
L 230.146713 438.867962 
L 231.758472 436.365679 
L 233.370231 435.418836 
L 234.981989 434.955281 
L 236.593748 432.70763 
L 238.205507 432.388334 
L 239.817266 431.382898 
L 241.429024 431.601206 
L 243.040783 427.197151 
L 244.652542 424.957186 
L 246.264301 423.22402 
L 247.876059 420.385639 
L 249.487818 414.067895 
L 251.099577 412.178895 
L 252.711335 410.93076 
L 254.323094 404.785973 
L 255.934853 402.703686 
L 257.546612 401.957634 
L 259.15837 401.060431 
L 260.770129 399.532543 
L 262.381888 398.730382 
L 263.993646 398.7278 
L 265.605405 398.590436 
L 267.217164 398.827573 
L 270.440681 398.849059 
L 270.440681 398.849059 
" clip-path="url(#pe8919665b0)" style="fill: none; stroke: #1f77b4; stroke-width: 1.5; stroke-linecap: round"/>
   </g>
   <g id="LineCollection_4">
    <path d="M 80.381306 698.685882 
L 80.381306 682.970294 
" clip-path="url(#pe8919665b0)" style="fill: none; stroke: #000000; stroke-width: 1.5"/>
    <path d="M 104.305402 698.685882 
L 104.305402 682.970294 
" clip-path="url(#pe8919665b0)" style="fill: none; stroke: #000000; stroke-width: 1.5"/>
    <path d="M 126.143983 698.685882 
L 126.143983 682.970294 
" clip-path="url(#pe8919665b0)" style="fill: none; stroke: #000000; stroke-width: 1.5"/>
    <path d="M 147.806575 698.685882 
L 147.806575 682.970294 
" clip-path="url(#pe8919665b0)" style="fill: none; stroke: #000000; stroke-width: 1.5"/>
    <path d="M 170.888896 698.685882 
L 170.888896 682.970294 
" clip-path="url(#pe8919665b0)" style="fill: none; stroke: #000000; stroke-width: 1.5"/>
    <path d="M 191.773532 698.685882 
L 191.773532 682.970294 
" clip-path="url(#pe8919665b0)" style="fill: none; stroke: #000000; stroke-width: 1.5"/>
    <path d="M 214.359555 698.685882 
L 214.359555 682.970294 
" clip-path="url(#pe8919665b0)" style="fill: none; stroke: #000000; stroke-width: 1.5"/>
    <path d="M 236.575604 698.685882 
L 236.575604 682.970294 
" clip-path="url(#pe8919665b0)" style="fill: none; stroke: #000000; stroke-width: 1.5"/>
    <path d="M 258.843611 698.685882 
L 258.843611 682.970294 
" clip-path="url(#pe8919665b0)" style="fill: none; stroke: #000000; stroke-width: 1.5"/>
   </g>
   <g id="patch_18">
    <path d="M 55.512656 698.685882 
L 55.512656 384.374118 
" style="fill: none; stroke: #ffffff; stroke-width: 1.25; stroke-linejoin: miter; stroke-linecap: square"/>
   </g>
   <g id="patch_19">
    <path d="M 280.675349 698.685882 
L 280.675349 384.374118 
" style="fill: none; stroke: #ffffff; stroke-width: 1.25; stroke-linejoin: miter; stroke-linecap: square"/>
   </g>
   <g id="patch_20">
    <path d="M 55.512656 698.685882 
L 280.675349 698.685882 
" style="fill: none; stroke: #ffffff; stroke-width: 1.25; stroke-linejoin: miter; stroke-linecap: square"/>
   </g>
   <g id="patch_21">
    <path d="M 55.512656 384.374118 
L 280.675349 384.374118 
" style="fill: none; stroke: #ffffff; stroke-width: 1.25; stroke-linejoin: miter; stroke-linecap: square"/>
   </g>
  </g>
  <g id="axes_6">
   <g id="patch_22">
    <path d="M 325.707888 698.685882 
L 550.870581 698.685882 
L 550.870581 384.374118 
L 325.707888 384.374118 
z
" style="fill: #eaeaf2"/>
   </g>
   <g id="matplotlib.axis_9">
    <g id="xtick_14">
     <g id="line2d_54">
      <path d="M 381.997424 698.685882 
L 381.997424 384.374118 
" clip-path="url(#pf818b403e0)" style="fill: none; stroke: #ffffff; stroke-linecap: round"/>
     </g>
     <g id="text_38">
      <!-- 0.25 -->
      <g style="fill: #262626" transform="translate(365.942151 719.996273) scale(0.165 -0.165)">
       <use xlink:href="#ArialMT-30"/>
       <use xlink:href="#ArialMT-2e" x="55.615234"/>
       <use xlink:href="#ArialMT-32" x="83.398438"/>
       <use xlink:href="#ArialMT-35" x="139.013672"/>
      </g>
     </g>
    </g>
    <g id="xtick_15">
     <g id="line2d_55">
      <path d="M 438.417009 698.685882 
L 438.417009 384.374118 
" clip-path="url(#pf818b403e0)" style="fill: none; stroke: #ffffff; stroke-linecap: round"/>
     </g>
     <g id="text_39">
      <!-- 0.50 -->
      <g style="fill: #262626" transform="translate(422.361735 719.996273) scale(0.165 -0.165)">
       <use xlink:href="#ArialMT-30"/>
       <use xlink:href="#ArialMT-2e" x="55.615234"/>
       <use xlink:href="#ArialMT-35" x="83.398438"/>
       <use xlink:href="#ArialMT-30" x="139.013672"/>
      </g>
     </g>
    </g>
    <g id="xtick_16">
     <g id="line2d_56">
      <path d="M 494.836593 698.685882 
L 494.836593 384.374118 
" clip-path="url(#pf818b403e0)" style="fill: none; stroke: #ffffff; stroke-linecap: round"/>
     </g>
     <g id="text_40">
      <!-- 0.75 -->
      <g style="fill: #262626" transform="translate(478.781319 719.996273) scale(0.165 -0.165)">
       <use xlink:href="#ArialMT-30"/>
       <use xlink:href="#ArialMT-2e" x="55.615234"/>
       <use xlink:href="#ArialMT-37" x="83.398438"/>
       <use xlink:href="#ArialMT-35" x="139.013672"/>
      </g>
     </g>
    </g>
    <g id="text_41">
     <!-- x_4 -->
     <g style="fill: #262626" transform="translate(423.779547 740.15971) scale(0.18 -0.18)">
      <use xlink:href="#ArialMT-78"/>
      <use xlink:href="#ArialMT-5f" x="50"/>
      <use xlink:href="#ArialMT-34" x="105.615234"/>
     </g>
    </g>
   </g>
   <g id="matplotlib.axis_10">
    <g id="ytick_37">
     <g id="line2d_57">
      <path d="M 325.707888 693.918785 
L 550.870581 693.918785 
" clip-path="url(#pf818b403e0)" style="fill: none; stroke: #ffffff; stroke-linecap: round"/>
     </g>
    </g>
    <g id="ytick_38">
     <g id="line2d_58">
      <path d="M 325.707888 658.131698 
L 550.870581 658.131698 
" clip-path="url(#pf818b403e0)" style="fill: none; stroke: #ffffff; stroke-linecap: round"/>
     </g>
    </g>
    <g id="ytick_39">
     <g id="line2d_59">
      <path d="M 325.707888 622.34461 
L 550.870581 622.34461 
" clip-path="url(#pf818b403e0)" style="fill: none; stroke: #ffffff; stroke-linecap: round"/>
     </g>
    </g>
    <g id="ytick_40">
     <g id="line2d_60">
      <path d="M 325.707888 586.557523 
L 550.870581 586.557523 
" clip-path="url(#pf818b403e0)" style="fill: none; stroke: #ffffff; stroke-linecap: round"/>
     </g>
    </g>
    <g id="ytick_41">
     <g id="line2d_61">
      <path d="M 325.707888 550.770436 
L 550.870581 550.770436 
" clip-path="url(#pf818b403e0)" style="fill: none; stroke: #ffffff; stroke-linecap: round"/>
     </g>
    </g>
    <g id="ytick_42">
     <g id="line2d_62">
      <path d="M 325.707888 514.983348 
L 550.870581 514.983348 
" clip-path="url(#pf818b403e0)" style="fill: none; stroke: #ffffff; stroke-linecap: round"/>
     </g>
    </g>
    <g id="ytick_43">
     <g id="line2d_63">
      <path d="M 325.707888 479.196261 
L 550.870581 479.196261 
" clip-path="url(#pf818b403e0)" style="fill: none; stroke: #ffffff; stroke-linecap: round"/>
     </g>
    </g>
    <g id="ytick_44">
     <g id="line2d_64">
      <path d="M 325.707888 443.409174 
L 550.870581 443.409174 
" clip-path="url(#pf818b403e0)" style="fill: none; stroke: #ffffff; stroke-linecap: round"/>
     </g>
    </g>
    <g id="ytick_45">
     <g id="line2d_65">
      <path d="M 325.707888 407.622086 
L 550.870581 407.622086 
" clip-path="url(#pf818b403e0)" style="fill: none; stroke: #ffffff; stroke-linecap: round"/>
     </g>
    </g>
   </g>
   <g id="line2d_66">
    <path d="M 335.942556 594.495476 
L 337.554314 592.948839 
L 339.166073 591.773868 
L 340.777832 590.939523 
L 342.38959 590.34597 
L 345.613108 589.479487 
L 347.224867 589.735193 
L 350.448384 588.960041 
L 352.060143 588.710137 
L 353.671901 588.664526 
L 355.28366 587.458203 
L 356.895419 584.396743 
L 358.507178 584.453455 
L 360.118936 583.376425 
L 361.730695 582.672778 
L 363.342454 581.783352 
L 364.954213 580.553006 
L 366.565971 580.06582 
L 368.17773 579.768278 
L 371.401247 579.880468 
L 373.013006 579.995908 
L 374.624765 579.287511 
L 376.236524 579.443639 
L 379.460041 577.261952 
L 381.0718 576.767666 
L 382.683558 575.351619 
L 384.295317 574.22882 
L 385.907076 573.28197 
L 389.130593 572.910376 
L 390.742352 571.91734 
L 393.965869 571.847153 
L 395.577628 570.528469 
L 398.801146 569.298152 
L 400.412904 567.758966 
L 402.024663 567.08629 
L 403.636422 566.102583 
L 405.24818 565.659871 
L 406.859939 563.968707 
L 408.471698 561.987969 
L 410.083457 561.878298 
L 413.306974 560.660775 
L 414.918733 560.529511 
L 418.14225 559.116438 
L 419.754009 557.330733 
L 424.589285 556.73964 
L 426.201044 553.424885 
L 429.424561 551.101188 
L 431.03632 549.529621 
L 432.648079 545.48696 
L 434.259837 544.398258 
L 437.483355 543.576456 
L 439.095114 543.041417 
L 440.706872 542.740099 
L 442.318631 542.780653 
L 443.93039 537.400861 
L 445.542148 535.749906 
L 447.153907 534.788007 
L 448.765666 533.641526 
L 450.377425 533.479868 
L 451.989183 533.470329 
L 453.600942 532.856047 
L 455.212701 509.99302 
L 458.436218 507.161757 
L 460.047977 505.158395 
L 461.659736 504.638047 
L 464.883253 503.803556 
L 466.495012 503.220845 
L 468.10677 502.454993 
L 469.718529 501.234205 
L 472.942047 500.727479 
L 477.777323 498.088032 
L 479.389081 496.221444 
L 481.00084 495.871915 
L 482.612599 495.821983 
L 484.224358 494.527312 
L 485.836116 494.328026 
L 487.447875 493.866424 
L 489.059634 493.047233 
L 492.283151 492.156125 
L 493.89491 491.329833 
L 495.506669 491.62994 
L 498.730186 487.502508 
L 500.341945 486.502304 
L 501.953704 486.336245 
L 503.565462 485.665741 
L 505.177221 485.842779 
L 506.78898 484.559722 
L 508.400738 484.962453 
L 510.012497 484.259293 
L 511.624256 482.568755 
L 513.236015 483.858777 
L 514.847773 480.989936 
L 516.459532 479.727804 
L 518.071291 479.52211 
L 519.683049 478.6918 
L 521.294808 478.497177 
L 522.906567 478.142282 
L 524.518326 477.330113 
L 526.130084 476.978628 
L 527.741843 476.337234 
L 529.353602 476.298716 
L 530.96536 475.920262 
L 532.577119 475.198385 
L 534.188878 475.097358 
L 535.800637 474.632021 
L 537.412395 473.839817 
L 539.024154 472.413413 
L 540.635913 469.694376 
L 540.635913 469.694376 
" clip-path="url(#pf818b403e0)" style="fill: none; stroke: #1f77b4; stroke-width: 1.5; stroke-linecap: round"/>
   </g>
   <g id="LineCollection_5">
    <path d="M 348.473056 698.685882 
L 348.473056 682.970294 
" clip-path="url(#pf818b403e0)" style="fill: none; stroke: #000000; stroke-width: 1.5"/>
    <path d="M 373.08575 698.685882 
L 373.08575 682.970294 
" clip-path="url(#pf818b403e0)" style="fill: none; stroke: #000000; stroke-width: 1.5"/>
    <path d="M 393.49939 698.685882 
L 393.49939 682.970294 
" clip-path="url(#pf818b403e0)" style="fill: none; stroke: #000000; stroke-width: 1.5"/>
    <path d="M 414.396666 698.685882 
L 414.396666 682.970294 
" clip-path="url(#pf818b403e0)" style="fill: none; stroke: #000000; stroke-width: 1.5"/>
    <path d="M 437.468432 698.685882 
L 437.468432 682.970294 
" clip-path="url(#pf818b403e0)" style="fill: none; stroke: #000000; stroke-width: 1.5"/>
    <path d="M 459.733279 698.685882 
L 459.733279 682.970294 
" clip-path="url(#pf818b403e0)" style="fill: none; stroke: #000000; stroke-width: 1.5"/>
    <path d="M 482.688693 698.685882 
L 482.688693 682.970294 
" clip-path="url(#pf818b403e0)" style="fill: none; stroke: #000000; stroke-width: 1.5"/>
    <path d="M 504.994091 698.685882 
L 504.994091 682.970294 
" clip-path="url(#pf818b403e0)" style="fill: none; stroke: #000000; stroke-width: 1.5"/>
    <path d="M 528.340376 698.685882 
L 528.340376 682.970294 
" clip-path="url(#pf818b403e0)" style="fill: none; stroke: #000000; stroke-width: 1.5"/>
   </g>
   <g id="patch_23">
    <path d="M 325.707888 698.685882 
L 325.707888 384.374118 
" style="fill: none; stroke: #ffffff; stroke-width: 1.25; stroke-linejoin: miter; stroke-linecap: square"/>
   </g>
   <g id="patch_24">
    <path d="M 550.870581 698.685882 
L 550.870581 384.374118 
" style="fill: none; stroke: #ffffff; stroke-width: 1.25; stroke-linejoin: miter; stroke-linecap: square"/>
   </g>
   <g id="patch_25">
    <path d="M 325.707888 698.685882 
L 550.870581 698.685882 
" style="fill: none; stroke: #ffffff; stroke-width: 1.25; stroke-linejoin: miter; stroke-linecap: square"/>
   </g>
   <g id="patch_26">
    <path d="M 325.707888 384.374118 
L 550.870581 384.374118 
" style="fill: none; stroke: #ffffff; stroke-width: 1.25; stroke-linejoin: miter; stroke-linecap: square"/>
   </g>
  </g>
  <g id="axes_7">
   <g id="patch_27">
    <path d="M 595.903119 698.685882 
L 821.065812 698.685882 
L 821.065812 384.374118 
L 595.903119 384.374118 
z
" style="fill: #eaeaf2"/>
   </g>
   <g id="matplotlib.axis_11">
    <g id="xtick_17">
     <g id="line2d_67">
      <path d="M 651.63005 698.685882 
L 651.63005 384.374118 
" clip-path="url(#p84fc7418c0)" style="fill: none; stroke: #ffffff; stroke-linecap: round"/>
     </g>
     <g id="text_42">
      <!-- 0.25 -->
      <g style="fill: #262626" transform="translate(635.574777 719.996273) scale(0.165 -0.165)">
       <use xlink:href="#ArialMT-30"/>
       <use xlink:href="#ArialMT-2e" x="55.615234"/>
       <use xlink:href="#ArialMT-32" x="83.398438"/>
       <use xlink:href="#ArialMT-35" x="139.013672"/>
      </g>
     </g>
    </g>
    <g id="xtick_18">
     <g id="line2d_68">
      <path d="M 708.132477 698.685882 
L 708.132477 384.374118 
" clip-path="url(#p84fc7418c0)" style="fill: none; stroke: #ffffff; stroke-linecap: round"/>
     </g>
     <g id="text_43">
      <!-- 0.50 -->
      <g style="fill: #262626" transform="translate(692.077203 719.996273) scale(0.165 -0.165)">
       <use xlink:href="#ArialMT-30"/>
       <use xlink:href="#ArialMT-2e" x="55.615234"/>
       <use xlink:href="#ArialMT-35" x="83.398438"/>
       <use xlink:href="#ArialMT-30" x="139.013672"/>
      </g>
     </g>
    </g>
    <g id="xtick_19">
     <g id="line2d_69">
      <path d="M 764.634903 698.685882 
L 764.634903 384.374118 
" clip-path="url(#p84fc7418c0)" style="fill: none; stroke: #ffffff; stroke-linecap: round"/>
     </g>
     <g id="text_44">
      <!-- 0.75 -->
      <g style="fill: #262626" transform="translate(748.579629 719.996273) scale(0.165 -0.165)">
       <use xlink:href="#ArialMT-30"/>
       <use xlink:href="#ArialMT-2e" x="55.615234"/>
       <use xlink:href="#ArialMT-37" x="83.398438"/>
       <use xlink:href="#ArialMT-35" x="139.013672"/>
      </g>
     </g>
    </g>
    <g id="text_45">
     <!-- x_5 -->
     <g style="fill: #262626" transform="translate(693.974778 740.15971) scale(0.18 -0.18)">
      <use xlink:href="#ArialMT-78"/>
      <use xlink:href="#ArialMT-5f" x="50"/>
      <use xlink:href="#ArialMT-35" x="105.615234"/>
     </g>
    </g>
   </g>
   <g id="matplotlib.axis_12">
    <g id="ytick_46">
     <g id="line2d_70">
      <path d="M 595.903119 693.918785 
L 821.065812 693.918785 
" clip-path="url(#p84fc7418c0)" style="fill: none; stroke: #ffffff; stroke-linecap: round"/>
     </g>
    </g>
    <g id="ytick_47">
     <g id="line2d_71">
      <path d="M 595.903119 658.131698 
L 821.065812 658.131698 
" clip-path="url(#p84fc7418c0)" style="fill: none; stroke: #ffffff; stroke-linecap: round"/>
     </g>
    </g>
    <g id="ytick_48">
     <g id="line2d_72">
      <path d="M 595.903119 622.34461 
L 821.065812 622.34461 
" clip-path="url(#p84fc7418c0)" style="fill: none; stroke: #ffffff; stroke-linecap: round"/>
     </g>
    </g>
    <g id="ytick_49">
     <g id="line2d_73">
      <path d="M 595.903119 586.557523 
L 821.065812 586.557523 
" clip-path="url(#p84fc7418c0)" style="fill: none; stroke: #ffffff; stroke-linecap: round"/>
     </g>
    </g>
    <g id="ytick_50">
     <g id="line2d_74">
      <path d="M 595.903119 550.770436 
L 821.065812 550.770436 
" clip-path="url(#p84fc7418c0)" style="fill: none; stroke: #ffffff; stroke-linecap: round"/>
     </g>
    </g>
    <g id="ytick_51">
     <g id="line2d_75">
      <path d="M 595.903119 514.983348 
L 821.065812 514.983348 
" clip-path="url(#p84fc7418c0)" style="fill: none; stroke: #ffffff; stroke-linecap: round"/>
     </g>
    </g>
    <g id="ytick_52">
     <g id="line2d_76">
      <path d="M 595.903119 479.196261 
L 821.065812 479.196261 
" clip-path="url(#p84fc7418c0)" style="fill: none; stroke: #ffffff; stroke-linecap: round"/>
     </g>
    </g>
    <g id="ytick_53">
     <g id="line2d_77">
      <path d="M 595.903119 443.409174 
L 821.065812 443.409174 
" clip-path="url(#p84fc7418c0)" style="fill: none; stroke: #ffffff; stroke-linecap: round"/>
     </g>
    </g>
    <g id="ytick_54">
     <g id="line2d_78">
      <path d="M 595.903119 407.622086 
L 821.065812 407.622086 
" clip-path="url(#p84fc7418c0)" style="fill: none; stroke: #ffffff; stroke-linecap: round"/>
     </g>
    </g>
   </g>
   <g id="line2d_79">
    <path d="M 606.137787 536.666963 
L 607.749546 535.661469 
L 610.973063 535.853809 
L 612.584822 535.712714 
L 614.196581 534.993348 
L 617.420098 534.295837 
L 619.031857 534.699235 
L 620.643616 534.909376 
L 623.867133 534.829367 
L 625.478892 534.475039 
L 627.09065 534.290607 
L 633.537685 534.113537 
L 636.761203 534.096381 
L 639.98472 533.992791 
L 641.596479 533.86445 
L 643.208238 533.877844 
L 644.819996 534.072273 
L 648.043514 534.130539 
L 649.655272 533.983008 
L 652.87879 533.994153 
L 654.490549 534.21401 
L 657.714066 534.108544 
L 660.937583 533.881865 
L 670.608136 534.198713 
L 672.219894 534.417822 
L 677.055171 534.456244 
L 678.666929 534.79725 
L 680.278688 535.023048 
L 681.890447 534.631678 
L 688.337482 534.801104 
L 689.94924 534.840403 
L 693.172758 534.710056 
L 696.396275 534.753623 
L 698.008034 534.702173 
L 699.619793 534.952673 
L 701.231551 535.009869 
L 702.84331 534.9275 
L 704.455069 534.693465 
L 706.066828 534.052674 
L 707.678586 533.812483 
L 710.902104 533.817693 
L 712.513862 533.725033 
L 718.960897 533.839213 
L 720.572656 533.699383 
L 723.796173 533.726464 
L 725.407932 533.423358 
L 730.243208 533.294704 
L 731.854967 533.460688 
L 733.466726 533.26417 
L 741.525519 533.419581 
L 743.137278 533.764646 
L 749.584313 533.92706 
L 751.196072 533.864937 
L 754.419589 533.981299 
L 757.643107 533.970511 
L 759.254865 533.962072 
L 760.866624 533.795503 
L 762.478383 533.883018 
L 767.313659 533.791017 
L 770.537176 533.726171 
L 772.148935 533.500177 
L 776.984211 533.570122 
L 780.207729 533.433318 
L 781.819487 533.629168 
L 785.043005 533.668345 
L 786.654763 533.607434 
L 788.266522 533.344971 
L 789.878281 533.496287 
L 791.49004 533.173384 
L 796.325316 533.190277 
L 797.937074 532.635355 
L 799.548833 532.638953 
L 801.160592 532.784563 
L 802.772351 532.522452 
L 805.995868 532.443323 
L 807.607627 532.461672 
L 810.831144 532.033356 
L 810.831144 532.033356 
" clip-path="url(#p84fc7418c0)" style="fill: none; stroke: #1f77b4; stroke-width: 1.5; stroke-linecap: round"/>
   </g>
   <g id="LineCollection_6">
    <path d="M 619.171037 698.685882 
L 619.171037 682.970294 
" clip-path="url(#p84fc7418c0)" style="fill: none; stroke: #000000; stroke-width: 1.5"/>
    <path d="M 638.211518 698.685882 
L 638.211518 682.970294 
" clip-path="url(#p84fc7418c0)" style="fill: none; stroke: #000000; stroke-width: 1.5"/>
    <path d="M 663.172631 698.685882 
L 663.172631 682.970294 
" clip-path="url(#p84fc7418c0)" style="fill: none; stroke: #000000; stroke-width: 1.5"/>
    <path d="M 683.739247 698.685882 
L 683.739247 682.970294 
" clip-path="url(#p84fc7418c0)" style="fill: none; stroke: #000000; stroke-width: 1.5"/>
    <path d="M 706.023014 698.685882 
L 706.023014 682.970294 
" clip-path="url(#p84fc7418c0)" style="fill: none; stroke: #000000; stroke-width: 1.5"/>
    <path d="M 729.40425 698.685882 
L 729.40425 682.970294 
" clip-path="url(#p84fc7418c0)" style="fill: none; stroke: #000000; stroke-width: 1.5"/>
    <path d="M 755.020225 698.685882 
L 755.020225 682.970294 
" clip-path="url(#p84fc7418c0)" style="fill: none; stroke: #000000; stroke-width: 1.5"/>
    <path d="M 778.101817 698.685882 
L 778.101817 682.970294 
" clip-path="url(#p84fc7418c0)" style="fill: none; stroke: #000000; stroke-width: 1.5"/>
    <path d="M 798.851915 698.685882 
L 798.851915 682.970294 
" clip-path="url(#p84fc7418c0)" style="fill: none; stroke: #000000; stroke-width: 1.5"/>
   </g>
   <g id="patch_28">
    <path d="M 595.903119 698.685882 
L 595.903119 384.374118 
" style="fill: none; stroke: #ffffff; stroke-width: 1.25; stroke-linejoin: miter; stroke-linecap: square"/>
   </g>
   <g id="patch_29">
    <path d="M 821.065812 698.685882 
L 821.065812 384.374118 
" style="fill: none; stroke: #ffffff; stroke-width: 1.25; stroke-linejoin: miter; stroke-linecap: square"/>
   </g>
   <g id="patch_30">
    <path d="M 595.903119 698.685882 
L 821.065812 698.685882 
" style="fill: none; stroke: #ffffff; stroke-width: 1.25; stroke-linejoin: miter; stroke-linecap: square"/>
   </g>
   <g id="patch_31">
    <path d="M 595.903119 384.374118 
L 821.065812 384.374118 
" style="fill: none; stroke: #ffffff; stroke-width: 1.25; stroke-linejoin: miter; stroke-linecap: square"/>
   </g>
  </g>
  <g id="axes_8">
   <g id="patch_32">
    <path d="M 55.512656 1075.86 
L 280.675349 1075.86 
L 280.675349 761.548235 
L 55.512656 761.548235 
z
" style="fill: #eaeaf2"/>
   </g>
   <g id="matplotlib.axis_13">
    <g id="xtick_20">
     <g id="line2d_80">
      <path d="M 111.072305 1075.86 
L 111.072305 761.548235 
" clip-path="url(#p32f794124d)" style="fill: none; stroke: #ffffff; stroke-linecap: round"/>
     </g>
     <g id="text_46">
      <!-- 0.25 -->
      <g style="fill: #262626" transform="translate(95.017032 1097.170391) scale(0.165 -0.165)">
       <use xlink:href="#ArialMT-30"/>
       <use xlink:href="#ArialMT-2e" x="55.615234"/>
       <use xlink:href="#ArialMT-32" x="83.398438"/>
       <use xlink:href="#ArialMT-35" x="139.013672"/>
      </g>
     </g>
    </g>
    <g id="xtick_21">
     <g id="line2d_81">
      <path d="M 168.887565 1075.86 
L 168.887565 761.548235 
" clip-path="url(#p32f794124d)" style="fill: none; stroke: #ffffff; stroke-linecap: round"/>
     </g>
     <g id="text_47">
      <!-- 0.50 -->
      <g style="fill: #262626" transform="translate(152.832291 1097.170391) scale(0.165 -0.165)">
       <use xlink:href="#ArialMT-30"/>
       <use xlink:href="#ArialMT-2e" x="55.615234"/>
       <use xlink:href="#ArialMT-35" x="83.398438"/>
       <use xlink:href="#ArialMT-30" x="139.013672"/>
      </g>
     </g>
    </g>
    <g id="xtick_22">
     <g id="line2d_82">
      <path d="M 226.702824 1075.86 
L 226.702824 761.548235 
" clip-path="url(#p32f794124d)" style="fill: none; stroke: #ffffff; stroke-linecap: round"/>
     </g>
     <g id="text_48">
      <!-- 0.75 -->
      <g style="fill: #262626" transform="translate(210.64755 1097.170391) scale(0.165 -0.165)">
       <use xlink:href="#ArialMT-30"/>
       <use xlink:href="#ArialMT-2e" x="55.615234"/>
       <use xlink:href="#ArialMT-37" x="83.398438"/>
       <use xlink:href="#ArialMT-35" x="139.013672"/>
      </g>
     </g>
    </g>
    <g id="text_49">
     <!-- x_6 -->
     <g style="fill: #262626" transform="translate(153.584315 1117.387266) scale(0.18 -0.18)">
      <use xlink:href="#ArialMT-78"/>
      <use xlink:href="#ArialMT-5f" x="50"/>
      <use xlink:href="#ArialMT-36" x="105.615234"/>
     </g>
    </g>
   </g>
   <g id="matplotlib.axis_14">
    <g id="ytick_55">
     <g id="line2d_83">
      <path d="M 55.512656 1071.092903 
L 280.675349 1071.092903 
" clip-path="url(#p32f794124d)" style="fill: none; stroke: #ffffff; stroke-linecap: round"/>
     </g>
     <g id="text_50">
      <!-- 10 -->
      <g style="fill: #262626" transform="translate(27.661563 1076.998098) scale(0.165 -0.165)">
       <use xlink:href="#ArialMT-31"/>
       <use xlink:href="#ArialMT-30" x="55.615234"/>
      </g>
     </g>
    </g>
    <g id="ytick_56">
     <g id="line2d_84">
      <path d="M 55.512656 1035.305815 
L 280.675349 1035.305815 
" clip-path="url(#p32f794124d)" style="fill: none; stroke: #ffffff; stroke-linecap: round"/>
     </g>
     <g id="text_51">
      <!-- 11 -->
      <g style="fill: #262626" transform="translate(28.878438 1041.211011) scale(0.165 -0.165)">
       <use xlink:href="#ArialMT-31"/>
       <use xlink:href="#ArialMT-31" x="48.240234"/>
      </g>
     </g>
    </g>
    <g id="ytick_57">
     <g id="line2d_85">
      <path d="M 55.512656 999.518728 
L 280.675349 999.518728 
" clip-path="url(#p32f794124d)" style="fill: none; stroke: #ffffff; stroke-linecap: round"/>
     </g>
     <g id="text_52">
      <!-- 12 -->
      <g style="fill: #262626" transform="translate(27.661563 1005.423923) scale(0.165 -0.165)">
       <use xlink:href="#ArialMT-31"/>
       <use xlink:href="#ArialMT-32" x="55.615234"/>
      </g>
     </g>
    </g>
    <g id="ytick_58">
     <g id="line2d_86">
      <path d="M 55.512656 963.731641 
L 280.675349 963.731641 
" clip-path="url(#p32f794124d)" style="fill: none; stroke: #ffffff; stroke-linecap: round"/>
     </g>
     <g id="text_53">
      <!-- 13 -->
      <g style="fill: #262626" transform="translate(27.661563 969.636836) scale(0.165 -0.165)">
       <use xlink:href="#ArialMT-31"/>
       <use xlink:href="#ArialMT-33" x="55.615234"/>
      </g>
     </g>
    </g>
    <g id="ytick_59">
     <g id="line2d_87">
      <path d="M 55.512656 927.944553 
L 280.675349 927.944553 
" clip-path="url(#p32f794124d)" style="fill: none; stroke: #ffffff; stroke-linecap: round"/>
     </g>
     <g id="text_54">
      <!-- 14 -->
      <g style="fill: #262626" transform="translate(27.661563 933.849749) scale(0.165 -0.165)">
       <use xlink:href="#ArialMT-31"/>
       <use xlink:href="#ArialMT-34" x="55.615234"/>
      </g>
     </g>
    </g>
    <g id="ytick_60">
     <g id="line2d_88">
      <path d="M 55.512656 892.157466 
L 280.675349 892.157466 
" clip-path="url(#p32f794124d)" style="fill: none; stroke: #ffffff; stroke-linecap: round"/>
     </g>
     <g id="text_55">
      <!-- 15 -->
      <g style="fill: #262626" transform="translate(27.661563 898.062661) scale(0.165 -0.165)">
       <use xlink:href="#ArialMT-31"/>
       <use xlink:href="#ArialMT-35" x="55.615234"/>
      </g>
     </g>
    </g>
    <g id="ytick_61">
     <g id="line2d_89">
      <path d="M 55.512656 856.370379 
L 280.675349 856.370379 
" clip-path="url(#p32f794124d)" style="fill: none; stroke: #ffffff; stroke-linecap: round"/>
     </g>
     <g id="text_56">
      <!-- 16 -->
      <g style="fill: #262626" transform="translate(27.661563 862.275574) scale(0.165 -0.165)">
       <use xlink:href="#ArialMT-31"/>
       <use xlink:href="#ArialMT-36" x="55.615234"/>
      </g>
     </g>
    </g>
    <g id="ytick_62">
     <g id="line2d_90">
      <path d="M 55.512656 820.583291 
L 280.675349 820.583291 
" clip-path="url(#p32f794124d)" style="fill: none; stroke: #ffffff; stroke-linecap: round"/>
     </g>
     <g id="text_57">
      <!-- 17 -->
      <g style="fill: #262626" transform="translate(27.661563 826.488487) scale(0.165 -0.165)">
       <use xlink:href="#ArialMT-31"/>
       <use xlink:href="#ArialMT-37" x="55.615234"/>
      </g>
     </g>
    </g>
    <g id="ytick_63">
     <g id="line2d_91">
      <path d="M 55.512656 784.796204 
L 280.675349 784.796204 
" clip-path="url(#p32f794124d)" style="fill: none; stroke: #ffffff; stroke-linecap: round"/>
     </g>
     <g id="text_58">
      <!-- 18 -->
      <g style="fill: #262626" transform="translate(27.661563 790.701399) scale(0.165 -0.165)">
       <use xlink:href="#ArialMT-31"/>
       <use xlink:href="#ArialMT-38" x="55.615234"/>
      </g>
     </g>
    </g>
    <g id="text_59">
     <!-- Partial dependence -->
     <g style="fill: #262626" transform="translate(20.084063 996.257399) rotate(-90) scale(0.18 -0.18)">
      <use xlink:href="#ArialMT-50"/>
      <use xlink:href="#ArialMT-61" x="66.699219"/>
      <use xlink:href="#ArialMT-72" x="122.314453"/>
      <use xlink:href="#ArialMT-74" x="155.615234"/>
      <use xlink:href="#ArialMT-69" x="183.398438"/>
      <use xlink:href="#ArialMT-61" x="205.615234"/>
      <use xlink:href="#ArialMT-6c" x="261.230469"/>
      <use xlink:href="#ArialMT-20" x="283.447266"/>
      <use xlink:href="#ArialMT-64" x="311.230469"/>
      <use xlink:href="#ArialMT-65" x="366.845703"/>
      <use xlink:href="#ArialMT-70" x="422.460938"/>
      <use xlink:href="#ArialMT-65" x="478.076172"/>
      <use xlink:href="#ArialMT-6e" x="533.691406"/>
      <use xlink:href="#ArialMT-64" x="589.306641"/>
      <use xlink:href="#ArialMT-65" x="644.921875"/>
      <use xlink:href="#ArialMT-6e" x="700.537109"/>
      <use xlink:href="#ArialMT-63" x="756.152344"/>
      <use xlink:href="#ArialMT-65" x="806.152344"/>
     </g>
    </g>
   </g>
   <g id="line2d_92">
    <path d="M 65.747324 911.665267 
L 68.970842 911.305566 
L 70.5826 911.285297 
L 72.194359 911.138573 
L 73.806118 910.834317 
L 77.029635 910.839073 
L 78.641394 911.067721 
L 83.47667 911.162284 
L 88.311946 911.053194 
L 89.923705 910.71115 
L 93.147222 910.810588 
L 96.37074 910.710387 
L 97.982498 910.661329 
L 101.206016 910.809758 
L 104.429533 910.960705 
L 109.264809 910.901456 
L 110.876568 910.925664 
L 112.488327 911.159213 
L 114.100086 911.175423 
L 115.711844 910.992391 
L 117.323603 911.058633 
L 118.935362 910.858388 
L 133.44119 910.724212 
L 135.052949 910.876285 
L 136.664708 910.773156 
L 151.170536 910.821051 
L 152.782295 910.60709 
L 156.005812 910.474902 
L 157.617571 910.309371 
L 159.22933 910.458486 
L 160.841088 910.418964 
L 162.452847 910.830182 
L 164.064606 910.67372 
L 165.676365 910.661063 
L 168.899882 910.845682 
L 172.123399 910.807895 
L 175.346917 910.980863 
L 181.793952 911.129138 
L 183.405711 911.30889 
L 189.852745 911.489755 
L 191.464504 911.405692 
L 205.970333 912.226731 
L 207.582091 912.111004 
L 210.805609 912.130367 
L 218.864402 912.077813 
L 220.476161 912.087281 
L 222.08792 912.213739 
L 225.311437 912.061621 
L 228.534955 912.01976 
L 230.146713 912.45615 
L 234.981989 912.403822 
L 236.593748 912.484338 
L 241.429024 913.089985 
L 252.711335 913.093099 
L 257.546612 913.172536 
L 259.15837 912.847316 
L 260.770129 913.329127 
L 262.381888 913.229359 
L 263.993646 912.848101 
L 265.605405 912.978095 
L 267.217164 913.299291 
L 268.828923 913.017753 
L 270.440681 912.875818 
L 270.440681 912.875818 
" clip-path="url(#p32f794124d)" style="fill: none; stroke: #1f77b4; stroke-width: 1.5; stroke-linecap: round"/>
   </g>
   <g id="LineCollection_7">
    <path d="M 80.188154 1075.86 
L 80.188154 1060.144412 
" clip-path="url(#p32f794124d)" style="fill: none; stroke: #000000; stroke-width: 1.5"/>
    <path d="M 100.128722 1075.86 
L 100.128722 1060.144412 
" clip-path="url(#p32f794124d)" style="fill: none; stroke: #000000; stroke-width: 1.5"/>
    <path d="M 124.218748 1075.86 
L 124.218748 1060.144412 
" clip-path="url(#p32f794124d)" style="fill: none; stroke: #000000; stroke-width: 1.5"/>
    <path d="M 148.618256 1075.86 
L 148.618256 1060.144412 
" clip-path="url(#p32f794124d)" style="fill: none; stroke: #000000; stroke-width: 1.5"/>
    <path d="M 171.675701 1075.86 
L 171.675701 1060.144412 
" clip-path="url(#p32f794124d)" style="fill: none; stroke: #000000; stroke-width: 1.5"/>
    <path d="M 193.132304 1075.86 
L 193.132304 1060.144412 
" clip-path="url(#p32f794124d)" style="fill: none; stroke: #000000; stroke-width: 1.5"/>
    <path d="M 215.891222 1075.86 
L 215.891222 1060.144412 
" clip-path="url(#p32f794124d)" style="fill: none; stroke: #000000; stroke-width: 1.5"/>
    <path d="M 237.203761 1075.86 
L 237.203761 1060.144412 
" clip-path="url(#p32f794124d)" style="fill: none; stroke: #000000; stroke-width: 1.5"/>
    <path d="M 259.11938 1075.86 
L 259.11938 1060.144412 
" clip-path="url(#p32f794124d)" style="fill: none; stroke: #000000; stroke-width: 1.5"/>
   </g>
   <g id="patch_33">
    <path d="M 55.512656 1075.86 
L 55.512656 761.548235 
" style="fill: none; stroke: #ffffff; stroke-width: 1.25; stroke-linejoin: miter; stroke-linecap: square"/>
   </g>
   <g id="patch_34">
    <path d="M 280.675349 1075.86 
L 280.675349 761.548235 
" style="fill: none; stroke: #ffffff; stroke-width: 1.25; stroke-linejoin: miter; stroke-linecap: square"/>
   </g>
   <g id="patch_35">
    <path d="M 55.512656 1075.86 
L 280.675349 1075.86 
" style="fill: none; stroke: #ffffff; stroke-width: 1.25; stroke-linejoin: miter; stroke-linecap: square"/>
   </g>
   <g id="patch_36">
    <path d="M 55.512656 761.548235 
L 280.675349 761.548235 
" style="fill: none; stroke: #ffffff; stroke-width: 1.25; stroke-linejoin: miter; stroke-linecap: square"/>
   </g>
  </g>
 </g>
 <defs>
  <clipPath id="pef50eaa1a0">
   <rect x="55.512656" y="7.2" width="225.162693" height="314.311765"/>
  </clipPath>
  <clipPath id="p64ab2ba794">
   <rect x="325.707888" y="7.2" width="225.162693" height="314.311765"/>
  </clipPath>
  <clipPath id="pa6d29bf646">
   <rect x="595.903119" y="7.2" width="225.162693" height="314.311765"/>
  </clipPath>
  <clipPath id="pe8919665b0">
   <rect x="55.512656" y="384.374118" width="225.162693" height="314.311765"/>
  </clipPath>
  <clipPath id="pf818b403e0">
   <rect x="325.707888" y="384.374118" width="225.162693" height="314.311765"/>
  </clipPath>
  <clipPath id="p84fc7418c0">
   <rect x="595.903119" y="384.374118" width="225.162693" height="314.311765"/>
  </clipPath>
  <clipPath id="p32f794124d">
   <rect x="55.512656" y="761.548235" width="225.162693" height="314.311765"/>
  </clipPath>
 </defs>
</svg>
