<?xml version="1.0" encoding="utf-8" standalone="no"?>
<!DOCTYPE svg PUBLIC "-//W3C//DTD SVG 1.1//EN"
  "http://www.w3.org/Graphics/SVG/1.1/DTD/svg11.dtd">
<svg xmlns:xlink="http://www.w3.org/1999/xlink" width="586.97315pt" height="396.853011pt" viewBox="0 0 586.97315 396.853011" xmlns="http://www.w3.org/2000/svg" version="1.1">
 <metadata>
  <rdf:RDF xmlns:dc="http://purl.org/dc/elements/1.1/" xmlns:cc="http://creativecommons.org/ns#" xmlns:rdf="http://www.w3.org/1999/02/22-rdf-syntax-ns#">
   <cc:Work>
    <dc:type rdf:resource="http://purl.org/dc/dcmitype/StillImage"/>
    <dc:date>2024-01-31T21:32:02.784080</dc:date>
    <dc:format>image/svg+xml</dc:format>
    <dc:creator>
     <cc:Agent>
      <dc:title>Matplotlib v3.8.0, https://matplotlib.org/</dc:title>
     </cc:Agent>
    </dc:creator>
   </cc:Work>
  </rdf:RDF>
 </metadata>
 <defs>
  <style type="text/css">*{stroke-linejoin: round; stroke-linecap: butt}</style>
 </defs>
 <g id="figure_1">
  <g id="patch_1">
   <path d="M 0 396.853011 
L 586.97315 396.853011 
L 586.97315 0 
L 0 0 
z
" style="fill: #ffffff"/>
  </g>
  <g id="axes_1">
   <g id="patch_2">
    <path d="M 38.06675 352.8285 
L 579.77315 352.8285 
L 579.77315 20.1885 
L 38.06675 20.1885 
z
" style="fill: #eaeaf2"/>
   </g>
   <g id="matplotlib.axis_1">
    <g id="xtick_1">
     <g id="line2d_1">
      <path d="M 61.403971 352.8285 
L 61.403971 20.1885 
" clip-path="url(#p7159ae23fa)" style="fill: none; stroke: #ffffff; stroke-width: 0.8; stroke-linecap: round"/>
     </g>
     <g id="text_1">
      <!-- 2015-01 -->
      <g style="fill: #262626" transform="translate(51.595693 388.416281) rotate(-45) scale(0.088 -0.088)">
       <defs>
        <path id="ArialMT-32" d="M 3222 541 
L 3222 0 
L 194 0 
Q 188 203 259 391 
Q 375 700 629 1000 
Q 884 1300 1366 1694 
Q 2113 2306 2375 2664 
Q 2638 3022 2638 3341 
Q 2638 3675 2398 3904 
Q 2159 4134 1775 4134 
Q 1369 4134 1125 3890 
Q 881 3647 878 3216 
L 300 3275 
Q 359 3922 746 4261 
Q 1134 4600 1788 4600 
Q 2447 4600 2831 4234 
Q 3216 3869 3216 3328 
Q 3216 3053 3103 2787 
Q 2991 2522 2730 2228 
Q 2469 1934 1863 1422 
Q 1356 997 1212 845 
Q 1069 694 975 541 
L 3222 541 
z
" transform="scale(0.015625)"/>
        <path id="ArialMT-30" d="M 266 2259 
Q 266 3072 433 3567 
Q 600 4063 929 4331 
Q 1259 4600 1759 4600 
Q 2128 4600 2406 4451 
Q 2684 4303 2865 4023 
Q 3047 3744 3150 3342 
Q 3253 2941 3253 2259 
Q 3253 1453 3087 958 
Q 2922 463 2592 192 
Q 2263 -78 1759 -78 
Q 1097 -78 719 397 
Q 266 969 266 2259 
z
M 844 2259 
Q 844 1131 1108 757 
Q 1372 384 1759 384 
Q 2147 384 2411 759 
Q 2675 1134 2675 2259 
Q 2675 3391 2411 3762 
Q 2147 4134 1753 4134 
Q 1366 4134 1134 3806 
Q 844 3388 844 2259 
z
" transform="scale(0.015625)"/>
        <path id="ArialMT-31" d="M 2384 0 
L 1822 0 
L 1822 3584 
Q 1619 3391 1289 3197 
Q 959 3003 697 2906 
L 697 3450 
Q 1169 3672 1522 3987 
Q 1875 4303 2022 4600 
L 2384 4600 
L 2384 0 
z
" transform="scale(0.015625)"/>
        <path id="ArialMT-35" d="M 266 1200 
L 856 1250 
Q 922 819 1161 601 
Q 1400 384 1738 384 
Q 2144 384 2425 690 
Q 2706 997 2706 1503 
Q 2706 1984 2436 2262 
Q 2166 2541 1728 2541 
Q 1456 2541 1237 2417 
Q 1019 2294 894 2097 
L 366 2166 
L 809 4519 
L 3088 4519 
L 3088 3981 
L 1259 3981 
L 1013 2750 
Q 1425 3038 1878 3038 
Q 2478 3038 2890 2622 
Q 3303 2206 3303 1553 
Q 3303 931 2941 478 
Q 2500 -78 1738 -78 
Q 1113 -78 717 272 
Q 322 622 266 1200 
z
" transform="scale(0.015625)"/>
        <path id="ArialMT-2d" d="M 203 1375 
L 203 1941 
L 1931 1941 
L 1931 1375 
L 203 1375 
z
" transform="scale(0.015625)"/>
       </defs>
       <use xlink:href="#ArialMT-32"/>
       <use xlink:href="#ArialMT-30" x="55.615234"/>
       <use xlink:href="#ArialMT-31" x="111.230469"/>
       <use xlink:href="#ArialMT-35" x="166.845703"/>
       <use xlink:href="#ArialMT-2d" x="222.460938"/>
       <use xlink:href="#ArialMT-30" x="255.761719"/>
       <use xlink:href="#ArialMT-31" x="311.376953"/>
      </g>
     </g>
    </g>
    <g id="xtick_2">
     <g id="line2d_2">
      <path d="M 137.266011 352.8285 
L 137.266011 20.1885 
" clip-path="url(#p7159ae23fa)" style="fill: none; stroke: #ffffff; stroke-width: 0.8; stroke-linecap: round"/>
     </g>
     <g id="text_2">
      <!-- 2015-03 -->
      <g style="fill: #262626" transform="translate(127.457733 388.416281) rotate(-45) scale(0.088 -0.088)">
       <defs>
        <path id="ArialMT-33" d="M 269 1209 
L 831 1284 
Q 928 806 1161 595 
Q 1394 384 1728 384 
Q 2125 384 2398 659 
Q 2672 934 2672 1341 
Q 2672 1728 2419 1979 
Q 2166 2231 1775 2231 
Q 1616 2231 1378 2169 
L 1441 2663 
Q 1497 2656 1531 2656 
Q 1891 2656 2178 2843 
Q 2466 3031 2466 3422 
Q 2466 3731 2256 3934 
Q 2047 4138 1716 4138 
Q 1388 4138 1169 3931 
Q 950 3725 888 3313 
L 325 3413 
Q 428 3978 793 4289 
Q 1159 4600 1703 4600 
Q 2078 4600 2393 4439 
Q 2709 4278 2876 4000 
Q 3044 3722 3044 3409 
Q 3044 3113 2884 2869 
Q 2725 2625 2413 2481 
Q 2819 2388 3044 2092 
Q 3269 1797 3269 1353 
Q 3269 753 2831 336 
Q 2394 -81 1725 -81 
Q 1122 -81 723 278 
Q 325 638 269 1209 
z
" transform="scale(0.015625)"/>
       </defs>
       <use xlink:href="#ArialMT-32"/>
       <use xlink:href="#ArialMT-30" x="55.615234"/>
       <use xlink:href="#ArialMT-31" x="111.230469"/>
       <use xlink:href="#ArialMT-35" x="166.845703"/>
       <use xlink:href="#ArialMT-2d" x="222.460938"/>
       <use xlink:href="#ArialMT-30" x="255.761719"/>
       <use xlink:href="#ArialMT-33" x="311.376953"/>
      </g>
     </g>
    </g>
    <g id="xtick_3">
     <g id="line2d_3">
      <path d="M 215.699646 352.8285 
L 215.699646 20.1885 
" clip-path="url(#p7159ae23fa)" style="fill: none; stroke: #ffffff; stroke-width: 0.8; stroke-linecap: round"/>
     </g>
     <g id="text_3">
      <!-- 2015-05 -->
      <g style="fill: #262626" transform="translate(205.891368 388.416281) rotate(-45) scale(0.088 -0.088)">
       <use xlink:href="#ArialMT-32"/>
       <use xlink:href="#ArialMT-30" x="55.615234"/>
       <use xlink:href="#ArialMT-31" x="111.230469"/>
       <use xlink:href="#ArialMT-35" x="166.845703"/>
       <use xlink:href="#ArialMT-2d" x="222.460938"/>
       <use xlink:href="#ArialMT-30" x="255.761719"/>
       <use xlink:href="#ArialMT-35" x="311.376953"/>
      </g>
     </g>
    </g>
    <g id="xtick_4">
     <g id="line2d_4">
      <path d="M 294.133281 352.8285 
L 294.133281 20.1885 
" clip-path="url(#p7159ae23fa)" style="fill: none; stroke: #ffffff; stroke-width: 0.8; stroke-linecap: round"/>
     </g>
     <g id="text_4">
      <!-- 2015-07 -->
      <g style="fill: #262626" transform="translate(284.325003 388.416281) rotate(-45) scale(0.088 -0.088)">
       <defs>
        <path id="ArialMT-37" d="M 303 3981 
L 303 4522 
L 3269 4522 
L 3269 4084 
Q 2831 3619 2401 2847 
Q 1972 2075 1738 1259 
Q 1569 684 1522 0 
L 944 0 
Q 953 541 1156 1306 
Q 1359 2072 1739 2783 
Q 2119 3494 2547 3981 
L 303 3981 
z
" transform="scale(0.015625)"/>
       </defs>
       <use xlink:href="#ArialMT-32"/>
       <use xlink:href="#ArialMT-30" x="55.615234"/>
       <use xlink:href="#ArialMT-31" x="111.230469"/>
       <use xlink:href="#ArialMT-35" x="166.845703"/>
       <use xlink:href="#ArialMT-2d" x="222.460938"/>
       <use xlink:href="#ArialMT-30" x="255.761719"/>
       <use xlink:href="#ArialMT-37" x="311.376953"/>
      </g>
     </g>
    </g>
    <g id="xtick_5">
     <g id="line2d_5">
      <path d="M 373.852713 352.8285 
L 373.852713 20.1885 
" clip-path="url(#p7159ae23fa)" style="fill: none; stroke: #ffffff; stroke-width: 0.8; stroke-linecap: round"/>
     </g>
     <g id="text_5">
      <!-- 2015-09 -->
      <g style="fill: #262626" transform="translate(364.044435 388.416281) rotate(-45) scale(0.088 -0.088)">
       <defs>
        <path id="ArialMT-39" d="M 350 1059 
L 891 1109 
Q 959 728 1153 556 
Q 1347 384 1650 384 
Q 1909 384 2104 503 
Q 2300 622 2425 820 
Q 2550 1019 2634 1356 
Q 2719 1694 2719 2044 
Q 2719 2081 2716 2156 
Q 2547 1888 2255 1720 
Q 1963 1553 1622 1553 
Q 1053 1553 659 1965 
Q 266 2378 266 3053 
Q 266 3750 677 4175 
Q 1088 4600 1706 4600 
Q 2153 4600 2523 4359 
Q 2894 4119 3086 3673 
Q 3278 3228 3278 2384 
Q 3278 1506 3087 986 
Q 2897 466 2520 194 
Q 2144 -78 1638 -78 
Q 1100 -78 759 220 
Q 419 519 350 1059 
z
M 2653 3081 
Q 2653 3566 2395 3850 
Q 2138 4134 1775 4134 
Q 1400 4134 1122 3828 
Q 844 3522 844 3034 
Q 844 2597 1108 2323 
Q 1372 2050 1759 2050 
Q 2150 2050 2401 2323 
Q 2653 2597 2653 3081 
z
" transform="scale(0.015625)"/>
       </defs>
       <use xlink:href="#ArialMT-32"/>
       <use xlink:href="#ArialMT-30" x="55.615234"/>
       <use xlink:href="#ArialMT-31" x="111.230469"/>
       <use xlink:href="#ArialMT-35" x="166.845703"/>
       <use xlink:href="#ArialMT-2d" x="222.460938"/>
       <use xlink:href="#ArialMT-30" x="255.761719"/>
       <use xlink:href="#ArialMT-39" x="311.376953"/>
      </g>
     </g>
    </g>
    <g id="xtick_6">
     <g id="line2d_6">
      <path d="M 452.286348 352.8285 
L 452.286348 20.1885 
" clip-path="url(#p7159ae23fa)" style="fill: none; stroke: #ffffff; stroke-width: 0.8; stroke-linecap: round"/>
     </g>
     <g id="text_6">
      <!-- 2015-11 -->
      <g style="fill: #262626" transform="translate(442.707526 387.957369) rotate(-45) scale(0.088 -0.088)">
       <use xlink:href="#ArialMT-32"/>
       <use xlink:href="#ArialMT-30" x="55.615234"/>
       <use xlink:href="#ArialMT-31" x="111.230469"/>
       <use xlink:href="#ArialMT-35" x="166.845703"/>
       <use xlink:href="#ArialMT-2d" x="222.460938"/>
       <use xlink:href="#ArialMT-31" x="255.761719"/>
       <use xlink:href="#ArialMT-31" x="304.001953"/>
      </g>
     </g>
    </g>
    <g id="xtick_7">
     <g id="line2d_7">
      <path d="M 530.719983 352.8285 
L 530.719983 20.1885 
" clip-path="url(#p7159ae23fa)" style="fill: none; stroke: #ffffff; stroke-width: 0.8; stroke-linecap: round"/>
     </g>
     <g id="text_7">
      <!-- 2016-01 -->
      <g style="fill: #262626" transform="translate(520.911705 388.416281) rotate(-45) scale(0.088 -0.088)">
       <defs>
        <path id="ArialMT-36" d="M 3184 3459 
L 2625 3416 
Q 2550 3747 2413 3897 
Q 2184 4138 1850 4138 
Q 1581 4138 1378 3988 
Q 1113 3794 959 3422 
Q 806 3050 800 2363 
Q 1003 2672 1297 2822 
Q 1591 2972 1913 2972 
Q 2475 2972 2870 2558 
Q 3266 2144 3266 1488 
Q 3266 1056 3080 686 
Q 2894 316 2569 119 
Q 2244 -78 1831 -78 
Q 1128 -78 684 439 
Q 241 956 241 2144 
Q 241 3472 731 4075 
Q 1159 4600 1884 4600 
Q 2425 4600 2770 4297 
Q 3116 3994 3184 3459 
z
M 888 1484 
Q 888 1194 1011 928 
Q 1134 663 1356 523 
Q 1578 384 1822 384 
Q 2178 384 2434 671 
Q 2691 959 2691 1453 
Q 2691 1928 2437 2201 
Q 2184 2475 1800 2475 
Q 1419 2475 1153 2201 
Q 888 1928 888 1484 
z
" transform="scale(0.015625)"/>
       </defs>
       <use xlink:href="#ArialMT-32"/>
       <use xlink:href="#ArialMT-30" x="55.615234"/>
       <use xlink:href="#ArialMT-31" x="111.230469"/>
       <use xlink:href="#ArialMT-36" x="166.845703"/>
       <use xlink:href="#ArialMT-2d" x="222.460938"/>
       <use xlink:href="#ArialMT-30" x="255.761719"/>
       <use xlink:href="#ArialMT-31" x="311.376953"/>
      </g>
     </g>
    </g>
   </g>
   <g id="matplotlib.axis_2">
    <g id="ytick_1">
     <g id="line2d_8">
      <path d="M 38.06675 308.170744 
L 579.77315 308.170744 
" clip-path="url(#p7159ae23fa)" style="fill: none; stroke: #ffffff; stroke-width: 0.8; stroke-linecap: round"/>
     </g>
     <g id="text_8">
      <!-- 7 -->
      <g style="fill: #262626" transform="translate(24.873125 311.320182) scale(0.088 -0.088)">
       <use xlink:href="#ArialMT-37"/>
      </g>
     </g>
    </g>
    <g id="ytick_2">
     <g id="line2d_9">
      <path d="M 38.06675 255.184405 
L 579.77315 255.184405 
" clip-path="url(#p7159ae23fa)" style="fill: none; stroke: #ffffff; stroke-width: 0.8; stroke-linecap: round"/>
     </g>
     <g id="text_9">
      <!-- 8 -->
      <g style="fill: #262626" transform="translate(24.873125 258.333843) scale(0.088 -0.088)">
       <defs>
        <path id="ArialMT-38" d="M 1131 2484 
Q 781 2613 612 2850 
Q 444 3088 444 3419 
Q 444 3919 803 4259 
Q 1163 4600 1759 4600 
Q 2359 4600 2725 4251 
Q 3091 3903 3091 3403 
Q 3091 3084 2923 2848 
Q 2756 2613 2416 2484 
Q 2838 2347 3058 2040 
Q 3278 1734 3278 1309 
Q 3278 722 2862 322 
Q 2447 -78 1769 -78 
Q 1091 -78 675 323 
Q 259 725 259 1325 
Q 259 1772 486 2073 
Q 713 2375 1131 2484 
z
M 1019 3438 
Q 1019 3113 1228 2906 
Q 1438 2700 1772 2700 
Q 2097 2700 2305 2904 
Q 2513 3109 2513 3406 
Q 2513 3716 2298 3927 
Q 2084 4138 1766 4138 
Q 1444 4138 1231 3931 
Q 1019 3725 1019 3438 
z
M 838 1322 
Q 838 1081 952 856 
Q 1066 631 1291 507 
Q 1516 384 1775 384 
Q 2178 384 2440 643 
Q 2703 903 2703 1303 
Q 2703 1709 2433 1975 
Q 2163 2241 1756 2241 
Q 1359 2241 1098 1978 
Q 838 1716 838 1322 
z
" transform="scale(0.015625)"/>
       </defs>
       <use xlink:href="#ArialMT-38"/>
      </g>
     </g>
    </g>
    <g id="ytick_3">
     <g id="line2d_10">
      <path d="M 38.06675 202.198066 
L 579.77315 202.198066 
" clip-path="url(#p7159ae23fa)" style="fill: none; stroke: #ffffff; stroke-width: 0.8; stroke-linecap: round"/>
     </g>
     <g id="text_10">
      <!-- 9 -->
      <g style="fill: #262626" transform="translate(24.873125 205.347504) scale(0.088 -0.088)">
       <use xlink:href="#ArialMT-39"/>
      </g>
     </g>
    </g>
    <g id="ytick_4">
     <g id="line2d_11">
      <path d="M 38.06675 149.211728 
L 579.77315 149.211728 
" clip-path="url(#p7159ae23fa)" style="fill: none; stroke: #ffffff; stroke-width: 0.8; stroke-linecap: round"/>
     </g>
     <g id="text_11">
      <!-- 10 -->
      <g style="fill: #262626" transform="translate(19.9795 152.361165) scale(0.088 -0.088)">
       <use xlink:href="#ArialMT-31"/>
       <use xlink:href="#ArialMT-30" x="55.615234"/>
      </g>
     </g>
    </g>
    <g id="ytick_5">
     <g id="line2d_12">
      <path d="M 38.06675 96.225389 
L 579.77315 96.225389 
" clip-path="url(#p7159ae23fa)" style="fill: none; stroke: #ffffff; stroke-width: 0.8; stroke-linecap: round"/>
     </g>
     <g id="text_12">
      <!-- 11 -->
      <g style="fill: #262626" transform="translate(20.6285 99.374826) scale(0.088 -0.088)">
       <use xlink:href="#ArialMT-31"/>
       <use xlink:href="#ArialMT-31" x="48.240234"/>
      </g>
     </g>
    </g>
    <g id="ytick_6">
     <g id="line2d_13">
      <path d="M 38.06675 43.23905 
L 579.77315 43.23905 
" clip-path="url(#p7159ae23fa)" style="fill: none; stroke: #ffffff; stroke-width: 0.8; stroke-linecap: round"/>
     </g>
     <g id="text_13">
      <!-- 12 -->
      <g style="fill: #262626" transform="translate(19.9795 46.388487) scale(0.088 -0.088)">
       <use xlink:href="#ArialMT-31"/>
       <use xlink:href="#ArialMT-32" x="55.615234"/>
      </g>
     </g>
    </g>
    <g id="text_14">
     <!-- $y$ -->
     <g style="fill: #262626" transform="translate(13.9635 189.3885) rotate(-90) scale(0.096 -0.096)">
      <defs>
       <path id="DejaVuSans-Oblique-79" d="M 1588 -325 
Q 1188 -997 936 -1164 
Q 684 -1331 294 -1331 
L -159 -1331 
L -63 -850 
L 269 -850 
Q 509 -850 678 -719 
Q 847 -588 1056 -206 
L 1234 128 
L 459 3500 
L 1069 3500 
L 1650 819 
L 3256 3500 
L 3859 3500 
L 1588 -325 
z
" transform="scale(0.015625)"/>
      </defs>
      <use xlink:href="#DejaVuSans-Oblique-79" transform="translate(0 0.3125)"/>
     </g>
    </g>
   </g>
   <g id="line2d_14">
    <path d="M 62.689768 239.181587 
L 63.975565 232.071763 
L 65.261363 205.664069 
L 66.54716 208.099748 
L 67.832957 219.989134 
L 69.118755 228.688744 
L 70.404552 233.022528 
L 71.690349 230.164477 
L 72.976147 238.906333 
L 74.261944 155.220607 
L 75.547741 112.386978 
L 76.833538 161.918149 
L 78.119336 196.365439 
L 79.405133 212.82125 
L 80.69093 213.691351 
L 81.976728 232.406062 
L 83.262525 208.621279 
L 84.548322 161.960971 
L 85.834119 204.736767 
L 87.119917 220.154058 
L 88.405714 224.195248 
L 89.691511 234.169693 
L 90.977309 259.226715 
L 92.263106 250.654774 
L 93.548903 236.167576 
L 94.834701 239.102797 
L 96.120498 240.458428 
L 97.406295 235.91986 
L 98.692092 223.486916 
L 99.97789 250.883728 
L 101.263687 200.373314 
L 102.549484 134.204698 
L 103.835282 187.721072 
L 105.121079 217.348191 
L 107.692673 242.811929 
L 108.978471 261.320227 
L 110.264268 265.104358 
L 111.550065 258.825374 
L 112.835863 233.221791 
L 114.12166 246.891502 
L 115.407457 262.756478 
L 116.693255 259.960771 
L 117.979052 265.297622 
L 119.264849 281.270106 
L 120.550646 244.383068 
L 121.836444 264.634883 
L 123.122241 265.578031 
L 124.408038 267.8538 
L 125.693836 270.897025 
L 126.979633 251.943159 
L 128.26543 289.598176 
L 129.551227 282.535599 
L 130.837025 279.525189 
L 132.122822 271.256906 
L 133.408619 281.474068 
L 134.694417 287.072957 
L 135.980214 305.930155 
L 137.266011 305.377249 
L 138.551809 288.955499 
L 139.837606 275.152145 
L 141.123403 266.034157 
L 142.4092 232.568207 
L 143.694998 259.592472 
L 144.980795 295.647988 
L 146.266592 297.235567 
L 147.55239 278.687663 
L 148.838187 277.293565 
L 150.123984 271.984086 
L 151.409781 276.014155 
L 152.695579 270.897025 
L 153.981376 300.144084 
L 155.267173 306.022869 
L 156.552971 290.214303 
L 157.838768 282.505823 
L 159.124565 289.530157 
L 160.410363 285.727403 
L 161.69616 292.71695 
L 162.981957 317.881239 
L 164.267754 312.899733 
L 165.553552 291.152139 
L 166.839349 255.6299 
L 168.125146 270.397262 
L 169.410944 293.188265 
L 170.696741 291.964341 
L 171.982538 313.164533 
L 173.268335 261.902169 
L 174.554133 303.61914 
L 175.83993 293.810994 
L 177.125727 296.843944 
L 178.411525 299.360919 
L 179.697322 296.882977 
L 180.983119 317.189351 
L 182.268917 318.700029 
L 183.554714 299.812918 
L 184.840511 305.745211 
L 186.126308 303.309666 
L 187.412106 295.762553 
L 188.697903 293.334132 
L 189.9837 324.22379 
L 191.269498 306.676454 
L 192.555295 298.912743 
L 193.841092 296.339124 
L 195.126889 290.317691 
L 196.412687 288.989131 
L 197.698484 294.217872 
L 198.984281 318.172214 
L 200.270079 291.2925 
L 201.555876 274.252961 
L 202.841673 286.685014 
L 204.127471 277.835907 
L 205.413268 282.446321 
L 206.699065 290.525074 
L 207.984862 297.274889 
L 209.27066 303.353766 
L 210.556457 290.872527 
L 211.842254 289.326624 
L 214.413849 278.109174 
L 215.699646 268.444056 
L 216.985443 300.519137 
L 218.271241 313.48405 
L 219.557038 290.629071 
L 220.842835 296.455195 
L 222.128633 269.087158 
L 223.41443 288.921889 
L 224.700227 292.753056 
L 225.986025 306.115746 
L 227.271822 311.750083 
L 229.843416 271.813516 
L 232.415011 293.88474 
L 233.700808 291.786713 
L 234.986606 321.919673 
L 236.272403 318.464795 
L 237.5582 300.602843 
L 238.843997 298.267544 
L 240.129795 300.728652 
L 241.415592 214.832652 
L 242.701389 240.377718 
L 243.987187 285.00478 
L 245.272984 299.689263 
L 246.558781 305.976492 
L 247.844579 298.912743 
L 249.130376 286.29989 
L 250.416173 294.590492 
L 251.70197 293.079127 
L 252.987768 322.676634 
L 254.273565 311.750083 
L 255.559362 304.243566 
L 256.84516 297.432469 
L 258.130957 299.442815 
L 259.416754 304.603712 
L 260.702551 313.111467 
L 261.988349 325.280909 
L 263.274146 333.727578 
L 264.559943 305.883858 
L 265.845741 305.883858 
L 267.131538 312.531223 
L 268.417335 305.102945 
L 270.98893 327.045022 
L 272.274727 333.337684 
L 273.560524 313.966967 
L 274.846322 312.061159 
L 276.132119 307.912066 
L 277.417916 314.891328 
L 278.703714 313.966967 
L 279.989511 337.7085 
L 281.275308 316.90371 
L 282.561105 293.737351 
L 283.846903 304.064406 
L 285.1327 289.939584 
L 286.418497 292.71695 
L 287.704295 293.77416 
L 288.990092 284.076799 
L 290.275889 324.4861 
L 291.561687 310.121172 
L 292.847484 307.290658 
L 294.133281 319.233155 
L 295.419078 317.707418 
L 296.704876 328.37237 
L 297.990673 336.04735 
L 299.27647 334.675198 
L 300.562268 315.609237 
L 301.848065 314.454325 
L 303.133862 308.298124 
L 304.419659 300.102575 
L 305.705457 297.749043 
L 306.991254 323.6383 
L 308.277051 309.078784 
L 309.562849 301.362215 
L 310.848646 303.442076 
L 312.134443 297.630106 
L 313.420241 250.378083 
L 314.706038 287.300576 
L 315.991835 305.514935 
L 317.277632 297.828483 
L 318.56343 284.786793 
L 319.849227 286.044688 
L 321.135024 283.044368 
L 322.420822 287.36579 
L 323.706619 298.347765 
L 324.992416 315.331966 
L 326.278213 316.960715 
L 327.564011 292.933959 
L 328.849808 296.30049 
L 330.135605 295.230022 
L 331.421403 291.928768 
L 332.7072 291.36282 
L 333.992997 310.372412 
L 335.278795 317.418978 
L 336.564592 298.548852 
L 337.850389 293.517033 
L 339.136186 293.810994 
L 340.421984 264.486373 
L 342.993578 307.768016 
L 344.279376 304.28845 
L 345.565173 294.106595 
L 346.85097 276.251703 
L 348.136767 278.632296 
L 349.422565 277.320551 
L 350.708362 292.825343 
L 351.994159 290.663782 
L 353.279957 296.455195 
L 354.565754 285.317754 
L 355.851551 268.421232 
L 357.137349 274.790638 
L 359.708943 264.507563 
L 360.99474 296.184757 
L 362.280538 282.894222 
L 363.566335 262.429401 
L 364.852132 257.88186 
L 367.423727 277.455686 
L 368.709524 279.076862 
L 369.995321 292.71695 
L 371.281119 266.318501 
L 373.852713 279.835629 
L 375.138511 272.919743 
L 376.424308 251.659675 
L 377.710105 247.272864 
L 378.995903 269.738161 
L 380.2817 270.160927 
L 381.567497 272.253239 
L 382.853294 260.744606 
L 384.139092 250.949325 
L 385.424889 244.936835 
L 386.710686 219.943413 
L 387.996484 263.416753 
L 389.282281 213.902971 
L 390.568078 199.087599 
L 391.853875 232.835668 
L 393.139673 251.36116 
L 394.42547 233.741037 
L 395.711267 163.950102 
L 396.997065 249.142615 
L 398.282862 232.359827 
L 399.568659 226.100965 
L 400.854457 238.076175 
L 402.140254 254.741144 
L 403.426051 248.826372 
L 404.711848 224.314229 
L 405.997646 275.856379 
L 407.283443 233.351126 
L 408.56924 173.531922 
L 409.855038 225.539285 
L 411.140835 247.533768 
L 412.426632 255.647828 
L 413.712429 261.260389 
L 414.998227 283.801545 
L 416.284024 235.30559 
L 417.569821 216.673637 
L 418.855619 251.196042 
L 420.141416 265.75133 
L 421.427213 268.444056 
L 422.713011 259.438161 
L 423.998808 289.292778 
L 425.284605 246.017169 
L 427.8562 241.354452 
L 429.141997 263.313041 
L 430.427794 268.948692 
L 431.713592 264.169531 
L 432.999389 289.022783 
L 434.285186 239.352702 
L 435.570983 215.880426 
L 436.856781 234.145788 
L 438.142578 266.936167 
L 439.428375 258.692267 
L 440.714173 262.592687 
L 441.99997 258.238419 
L 443.285767 244.688381 
L 444.571565 232.452339 
L 445.857362 252.177761 
L 447.143159 265.190166 
L 448.428956 266.494244 
L 449.714754 249.428856 
L 451.000551 275.255887 
L 452.286348 250.264569 
L 453.572146 181.414431 
L 454.857943 231.17164 
L 456.14374 250.183637 
L 457.429537 255.647828 
L 458.715335 237.793786 
L 460.001132 274.202037 
L 461.286929 229.416008 
L 462.572727 193.531452 
L 463.858524 245.20118 
L 465.144321 264.380548 
L 466.430119 257.26822 
L 467.715916 272.548428 
L 469.001713 299.524837 
L 470.28751 260.370838 
L 471.573308 168.588828 
L 472.859105 210.240223 
L 474.144902 234.879799 
L 475.4307 246.467609 
L 476.716497 252.379678 
L 478.002294 278.438966 
L 479.288091 241.601475 
L 480.573889 219.533687 
L 481.859686 238.945568 
L 483.145483 252.06033 
L 484.431281 261.94254 
L 485.717078 244.83439 
L 487.002875 276.836899 
L 488.288673 254.04072 
L 489.57447 35.3085 
L 490.860267 68.511197 
L 492.146064 217.470179 
L 493.431862 252.21136 
L 494.717659 250.867341 
L 496.003456 283.862589 
L 497.289254 254.442332 
L 498.575051 228.861514 
L 499.860848 256.188509 
L 501.146645 266.958361 
L 502.432443 241.395543 
L 503.71824 262.266617 
L 505.004037 291.715828 
L 506.289835 270.113786 
L 507.575632 238.256664 
L 508.861429 242.643317 
L 510.147227 265.383744 
L 511.433024 276.810159 
L 512.718821 280.147899 
L 514.004618 299.075278 
L 515.290416 260.942391 
L 516.576213 236.105538 
L 517.86201 249.33327 
L 519.147808 267.091716 
L 520.433605 289.768605 
L 521.719402 292.178283 
L 523.005199 301.788838 
L 524.290997 208.621279 
L 525.576794 188.918725 
L 526.862591 189.061421 
L 528.148389 234.445384 
L 530.719983 276.943997 
L 532.005781 264.444018 
L 533.291578 241.974183 
L 534.577375 186.559627 
L 535.863172 225.074046 
L 537.14897 236.50384 
L 538.434767 239.511146 
L 539.720564 239.802864 
L 541.006362 266.538271 
L 542.292159 240.256883 
L 543.577956 230.242129 
L 544.863753 248.028393 
L 546.149551 251.626424 
L 547.435348 253.93645 
L 548.721145 254.023327 
L 550.006943 264.869101 
L 551.29274 187.686253 
L 552.578537 131.526194 
L 553.864335 195.528612 
L 555.150132 207.95376 
L 555.150132 207.95376 
" clip-path="url(#p7159ae23fa)" style="fill: none; stroke: #1f77b4; stroke-opacity: 0.7; stroke-width: 1.2; stroke-linecap: round"/>
   </g>
   <g id="line2d_15">
    <path d="M 62.689768 204.78529 
L 75.547741 205.199246 
L 85.834119 205.509713 
L 98.692092 205.923668 
L 99.97789 205.949541 
L 101.263687 245.559934 
L 111.550065 245.870401 
L 123.122241 246.232612 
L 133.408619 246.543079 
L 135.980214 246.620695 
L 137.266011 265.817894 
L 147.55239 266.128361 
L 160.410363 266.542317 
L 171.982538 266.878656 
L 175.83993 267.008017 
L 177.125727 296.191899 
L 188.697903 296.528238 
L 201.555876 296.942194 
L 211.842254 297.252661 
L 214.413849 297.330278 
L 215.699646 297.200916 
L 225.986025 297.511383 
L 238.843997 297.925339 
L 250.416173 298.261678 
L 254.273565 298.391039 
L 255.559362 307.239344 
L 267.131538 307.575683 
L 279.989511 307.989639 
L 290.275889 308.300106 
L 292.847484 308.377722 
L 294.133281 301.055879 
L 304.419659 301.366346 
L 315.991835 301.728558 
L 326.278213 302.039024 
L 332.7072 302.246002 
L 333.992997 278.443545 
L 345.565173 278.779884 
L 358.423146 279.19384 
L 368.709524 279.504307 
L 372.566916 279.633668 
L 373.852713 228.380769 
L 386.710686 228.794725 
L 396.997065 229.105192 
L 408.56924 229.467403 
L 411.140835 229.54502 
L 412.426632 235.236912 
L 425.284605 235.650867 
L 451.000551 236.452907 
L 452.286348 254.5376 
L 465.144321 254.951555 
L 475.4307 255.262022 
L 487.002875 255.624233 
L 489.57447 255.70185 
L 490.860267 244.059344 
L 503.71824 244.4733 
L 514.004618 244.783767 
L 526.862591 245.197722 
L 529.434186 245.275339 
L 530.719983 219.299614 
L 543.577956 219.71357 
L 555.150132 220.049909 
L 555.150132 220.049909 
" clip-path="url(#p7159ae23fa)" style="fill: none; stroke-dasharray: 4.44,1.92; stroke-dashoffset: 0; stroke: #ff7f0e; stroke-width: 1.2"/>
   </g>
   <g id="line2d_16">
    <path d="M 62.689768 232.321263 
L 63.975565 245.713995 
L 65.261363 226.059473 
L 66.54716 199.400516 
L 67.832957 210.720792 
L 69.118755 220.318786 
L 70.404552 219.590529 
L 71.690349 218.660897 
L 72.976147 232.053629 
L 74.261944 212.399107 
L 75.547741 186.772981 
L 76.833538 198.093257 
L 78.119336 207.691251 
L 79.405133 206.962994 
L 80.69093 206.033362 
L 81.976728 219.426094 
L 83.262525 199.771572 
L 84.548322 185.881375 
L 85.834119 197.201651 
L 87.119917 206.799645 
L 88.405714 206.071388 
L 89.691511 205.141756 
L 90.977309 218.534488 
L 92.263106 198.879966 
L 93.548903 175.894099 
L 94.834701 187.214375 
L 96.120498 196.812369 
L 97.406295 196.084112 
L 98.692092 195.15448 
L 99.97789 208.547212 
L 101.263687 197.384313 
L 102.549484 191.607078 
L 103.835282 202.927354 
L 105.121079 212.525348 
L 107.692673 210.867459 
L 108.978471 224.26019 
L 110.264268 204.605669 
L 111.550065 243.722262 
L 112.835863 255.042538 
L 114.12166 264.640532 
L 115.407457 263.912275 
L 116.693255 262.982643 
L 117.979052 276.375375 
L 119.264849 256.720853 
L 120.550646 250.342472 
L 121.836444 261.662748 
L 123.122241 271.260742 
L 124.408038 270.532485 
L 125.693836 269.602853 
L 126.979633 282.995585 
L 128.26543 263.341063 
L 129.551227 250.385864 
L 130.837025 261.70614 
L 132.122822 271.304134 
L 133.408619 270.575877 
L 134.694417 269.646245 
L 135.980214 283.038977 
L 137.266011 277.21344 
L 138.551809 237.73269 
L 139.837606 249.052966 
L 141.123403 258.65096 
L 142.4092 257.922703 
L 143.694998 256.993071 
L 144.980795 270.385803 
L 146.266592 250.731281 
L 147.55239 234.992958 
L 148.838187 246.313233 
L 150.123984 255.911228 
L 151.409781 255.182971 
L 152.695579 254.253339 
L 153.981376 267.64607 
L 155.267173 247.991549 
L 156.552971 237.058788 
L 157.838768 248.379064 
L 159.124565 257.977058 
L 160.410363 257.248801 
L 161.69616 256.319169 
L 162.981957 269.711901 
L 164.267754 250.057379 
L 165.553552 256.408668 
L 166.839349 267.728944 
L 168.125146 277.326938 
L 169.410944 276.598681 
L 170.696741 275.669049 
L 171.982538 289.061781 
L 173.268335 269.407259 
L 174.554133 246.735641 
L 175.83993 258.055917 
L 177.125727 299.869315 
L 178.411525 299.141058 
L 179.697322 298.211426 
L 180.983119 311.604158 
L 182.268917 291.949636 
L 183.554714 277.915895 
L 184.840511 289.236171 
L 186.126308 298.834165 
L 187.412106 298.105908 
L 188.697903 297.176276 
L 189.9837 310.569007 
L 191.269498 290.914486 
L 192.555295 277.446023 
L 193.841092 288.766298 
L 195.126889 298.364293 
L 196.412687 297.636036 
L 197.698484 296.706404 
L 198.984281 310.099135 
L 200.270079 290.444614 
L 201.555876 266.533099 
L 202.841673 277.853375 
L 204.127471 287.451369 
L 205.413268 286.723112 
L 206.699065 285.79348 
L 207.984862 299.186211 
L 209.27066 279.53169 
L 210.556457 268.810364 
L 211.842254 280.13064 
L 213.128052 289.728634 
L 214.413849 289.000377 
L 215.699646 290.045859 
L 216.985443 303.438591 
L 218.271241 283.784069 
L 219.557038 270.412175 
L 220.842835 281.732451 
L 222.128633 291.330445 
L 223.41443 290.602188 
L 224.700227 289.672556 
L 225.986025 303.065288 
L 227.271822 283.410766 
L 228.557619 281.500286 
L 229.843416 292.820562 
L 231.129214 302.418556 
L 232.415011 301.690299 
L 233.700808 300.760667 
L 234.986606 314.153399 
L 236.272403 294.498877 
L 237.5582 284.164596 
L 238.843997 295.484872 
L 240.129795 305.082866 
L 241.415592 304.354609 
L 242.701389 303.424977 
L 243.987187 316.817709 
L 245.272984 297.163187 
L 246.558781 280.656381 
L 247.844579 291.976657 
L 249.130376 301.574651 
L 250.416173 300.846394 
L 251.70197 299.916762 
L 252.987768 313.309494 
L 254.273565 293.654972 
L 255.559362 289.550013 
L 256.84516 300.870289 
L 258.130957 310.468283 
L 259.416754 309.740026 
L 260.702551 308.810394 
L 261.988349 322.203126 
L 263.274146 302.548604 
L 264.559943 287.84137 
L 265.845741 299.161645 
L 267.131538 308.75964 
L 268.417335 308.031383 
L 269.703133 307.101751 
L 270.98893 320.494482 
L 272.274727 300.839961 
L 273.560524 290.922784 
L 274.846322 302.24306 
L 276.132119 311.841054 
L 277.417916 311.112797 
L 278.703714 310.183165 
L 279.989511 323.575896 
L 281.275308 303.921375 
L 282.561105 296.210029 
L 283.846903 307.530305 
L 285.1327 317.128299 
L 286.418497 316.400042 
L 287.704295 315.47041 
L 288.990092 328.863141 
L 290.275889 309.20862 
L 291.561687 305.308903 
L 292.847484 316.629179 
L 294.133281 311.615322 
L 295.419078 310.887065 
L 296.704876 309.957433 
L 297.990673 323.350165 
L 299.27647 303.695643 
L 300.562268 281.484351 
L 301.848065 292.804627 
L 303.133862 302.402621 
L 304.419659 301.674364 
L 305.705457 300.744732 
L 306.991254 314.137464 
L 308.277051 294.482942 
L 309.562849 279.653757 
L 310.848646 290.974033 
L 312.134443 300.572027 
L 313.420241 299.84377 
L 314.706038 298.914138 
L 315.991835 312.306869 
L 318.56343 272.571338 
L 319.849227 283.891614 
L 321.135024 293.489608 
L 322.420822 292.761351 
L 323.706619 291.831719 
L 324.992416 305.224451 
L 326.278213 285.569929 
L 327.564011 278.102963 
L 328.849808 289.423239 
L 330.135605 299.021233 
L 331.421403 298.292976 
L 332.7072 297.363344 
L 333.992997 295.321976 
L 335.278795 275.667455 
L 336.564592 258.874369 
L 337.850389 270.194645 
L 339.136186 279.792639 
L 340.421984 279.064382 
L 341.707781 278.13475 
L 342.993578 291.527482 
L 344.279376 271.87296 
L 345.565173 257.920972 
L 346.85097 269.241248 
L 348.136767 278.839242 
L 349.422565 278.110985 
L 350.708362 277.181353 
L 351.994159 290.574085 
L 353.279957 270.919563 
L 354.565754 255.029076 
L 355.851551 266.349352 
L 357.137349 275.947346 
L 358.423146 275.219089 
L 359.708943 274.289457 
L 360.99474 287.682188 
L 362.280538 268.027667 
L 363.566335 258.521932 
L 364.852132 269.842208 
L 366.13793 279.440203 
L 367.423727 278.711946 
L 368.709524 277.782313 
L 369.995321 291.175045 
L 371.281119 271.520524 
L 372.566916 262.071671 
L 373.852713 234.277924 
L 375.138511 243.875918 
L 376.424308 243.147661 
L 377.710105 242.218029 
L 378.995903 255.61076 
L 380.2817 235.956239 
L 381.567497 201.885464 
L 382.853294 213.20574 
L 384.139092 222.803734 
L 385.424889 222.075477 
L 386.710686 221.145845 
L 387.996484 234.538577 
L 389.282281 214.884055 
L 390.568078 214.309088 
L 391.853875 225.629364 
L 393.139673 235.227358 
L 394.42547 234.499101 
L 395.711267 233.569469 
L 396.997065 246.9622 
L 398.282862 227.307679 
L 399.568659 216.646308 
L 400.854457 227.966584 
L 402.140254 237.564578 
L 403.426051 236.836321 
L 404.711848 235.906689 
L 405.997646 249.299421 
L 407.283443 229.644899 
L 408.56924 219.030924 
L 409.855038 230.3512 
L 411.140835 239.949194 
L 412.426632 237.390248 
L 413.712429 236.460616 
L 414.998227 249.853348 
L 416.284024 230.198826 
L 417.569821 219.066216 
L 418.855619 230.386492 
L 420.141416 239.984486 
L 421.427213 239.256229 
L 422.713011 238.326597 
L 423.998808 251.719329 
L 425.284605 232.064807 
L 427.8562 228.760524 
L 429.141997 238.358518 
L 430.427794 237.630261 
L 431.713592 236.700629 
L 432.999389 250.093361 
L 434.285186 230.438839 
L 435.570983 213.571558 
L 436.856781 224.891834 
L 438.142578 234.489828 
L 439.428375 233.761571 
L 440.714173 232.831939 
L 441.99997 246.224671 
L 443.285767 226.570149 
L 444.571565 221.947917 
L 445.857362 233.268193 
L 447.143159 242.866187 
L 448.428956 242.13793 
L 449.714754 241.208298 
L 451.000551 254.60103 
L 452.286348 248.286613 
L 453.572146 236.422338 
L 454.857943 247.742614 
L 456.14374 257.340608 
L 457.429537 256.612351 
L 458.715335 255.682719 
L 460.001132 269.075451 
L 461.286929 249.420929 
L 462.572727 236.222639 
L 463.858524 247.542915 
L 465.144321 257.140909 
L 466.430119 256.412652 
L 467.715916 255.48302 
L 469.001713 268.875752 
L 470.28751 249.22123 
L 471.573308 232.676382 
L 472.859105 243.996658 
L 474.144902 253.594652 
L 475.4307 252.866395 
L 476.716497 251.936763 
L 478.002294 265.329495 
L 479.288091 245.674973 
L 480.573889 234.925571 
L 481.859686 246.245847 
L 483.145483 255.843842 
L 484.431281 255.115585 
L 485.717078 254.185952 
L 487.002875 267.578684 
L 488.288673 247.924163 
L 489.57447 231.007261 
L 490.860267 233.520025 
L 492.146064 243.118019 
L 493.431862 242.389762 
L 494.717659 241.46013 
L 496.003456 254.852862 
L 497.289254 235.19834 
L 498.575051 227.325001 
L 499.860848 238.645276 
L 501.146645 248.243271 
L 502.432443 247.515014 
L 503.71824 246.585382 
L 505.004037 259.978113 
L 506.289835 240.323592 
L 507.575632 235.362624 
L 508.861429 246.6829 
L 510.147227 256.280895 
L 511.433024 255.552638 
L 512.718821 254.623005 
L 514.004618 268.015737 
L 516.576213 227.140595 
L 517.86201 238.460871 
L 519.147808 248.058865 
L 520.433605 247.330608 
L 521.719402 246.400976 
L 523.005199 259.793707 
L 524.290997 240.139186 
L 525.576794 226.733744 
L 526.862591 238.05402 
L 528.148389 247.652014 
L 529.434186 246.923757 
L 530.719983 245.90598 
L 532.005781 259.298711 
L 533.291578 239.64419 
L 534.577375 226.906843 
L 535.863172 238.227119 
L 537.14897 247.825113 
L 538.434767 247.096856 
L 539.720564 246.167224 
L 541.006362 259.559956 
L 542.292159 239.905434 
L 543.577956 213.246477 
L 544.863753 224.566753 
L 546.149551 234.164748 
L 547.435348 233.436491 
L 548.721145 232.506858 
L 550.006943 245.89959 
L 551.29274 226.245068 
L 552.578537 200.618942 
L 553.864335 211.939218 
L 555.150132 221.537212 
L 555.150132 221.537212 
" clip-path="url(#p7159ae23fa)" style="fill: none; stroke-dasharray: 4.44,1.92; stroke-dashoffset: 0; stroke: #2ca02c; stroke-width: 1.2"/>
   </g>
   <g id="patch_3">
    <path d="M 38.06675 352.8285 
L 38.06675 20.1885 
" style="fill: none; stroke: #ffffff; stroke-linejoin: miter; stroke-linecap: square"/>
   </g>
   <g id="patch_4">
    <path d="M 579.77315 352.8285 
L 579.77315 20.1885 
" style="fill: none; stroke: #ffffff; stroke-linejoin: miter; stroke-linecap: square"/>
   </g>
   <g id="patch_5">
    <path d="M 38.06675 352.8285 
L 579.77315 352.8285 
" style="fill: none; stroke: #ffffff; stroke-linejoin: miter; stroke-linecap: square"/>
   </g>
   <g id="patch_6">
    <path d="M 38.06675 20.1885 
L 579.77315 20.1885 
" style="fill: none; stroke: #ffffff; stroke-linejoin: miter; stroke-linecap: square"/>
   </g>
   <g id="text_15">
    <!-- linear regression with dummies applied (mse= 0.262, mae=0.356) -->
    <g style="fill: #262626" transform="translate(169.3892 14.1885) scale(0.096 -0.096)">
     <defs>
      <path id="ArialMT-6c" d="M 409 0 
L 409 4581 
L 972 4581 
L 972 0 
L 409 0 
z
" transform="scale(0.015625)"/>
      <path id="ArialMT-69" d="M 425 3934 
L 425 4581 
L 988 4581 
L 988 3934 
L 425 3934 
z
M 425 0 
L 425 3319 
L 988 3319 
L 988 0 
L 425 0 
z
" transform="scale(0.015625)"/>
      <path id="ArialMT-6e" d="M 422 0 
L 422 3319 
L 928 3319 
L 928 2847 
Q 1294 3394 1984 3394 
Q 2284 3394 2536 3286 
Q 2788 3178 2913 3003 
Q 3038 2828 3088 2588 
Q 3119 2431 3119 2041 
L 3119 0 
L 2556 0 
L 2556 2019 
Q 2556 2363 2490 2533 
Q 2425 2703 2258 2804 
Q 2091 2906 1866 2906 
Q 1506 2906 1245 2678 
Q 984 2450 984 1813 
L 984 0 
L 422 0 
z
" transform="scale(0.015625)"/>
      <path id="ArialMT-65" d="M 2694 1069 
L 3275 997 
Q 3138 488 2766 206 
Q 2394 -75 1816 -75 
Q 1088 -75 661 373 
Q 234 822 234 1631 
Q 234 2469 665 2931 
Q 1097 3394 1784 3394 
Q 2450 3394 2872 2941 
Q 3294 2488 3294 1666 
Q 3294 1616 3291 1516 
L 816 1516 
Q 847 969 1125 678 
Q 1403 388 1819 388 
Q 2128 388 2347 550 
Q 2566 713 2694 1069 
z
M 847 1978 
L 2700 1978 
Q 2663 2397 2488 2606 
Q 2219 2931 1791 2931 
Q 1403 2931 1139 2672 
Q 875 2413 847 1978 
z
" transform="scale(0.015625)"/>
      <path id="ArialMT-61" d="M 2588 409 
Q 2275 144 1986 34 
Q 1697 -75 1366 -75 
Q 819 -75 525 192 
Q 231 459 231 875 
Q 231 1119 342 1320 
Q 453 1522 633 1644 
Q 813 1766 1038 1828 
Q 1203 1872 1538 1913 
Q 2219 1994 2541 2106 
Q 2544 2222 2544 2253 
Q 2544 2597 2384 2738 
Q 2169 2928 1744 2928 
Q 1347 2928 1158 2789 
Q 969 2650 878 2297 
L 328 2372 
Q 403 2725 575 2942 
Q 747 3159 1072 3276 
Q 1397 3394 1825 3394 
Q 2250 3394 2515 3294 
Q 2781 3194 2906 3042 
Q 3031 2891 3081 2659 
Q 3109 2516 3109 2141 
L 3109 1391 
Q 3109 606 3145 398 
Q 3181 191 3288 0 
L 2700 0 
Q 2613 175 2588 409 
z
M 2541 1666 
Q 2234 1541 1622 1453 
Q 1275 1403 1131 1340 
Q 988 1278 909 1158 
Q 831 1038 831 891 
Q 831 666 1001 516 
Q 1172 366 1500 366 
Q 1825 366 2078 508 
Q 2331 650 2450 897 
Q 2541 1088 2541 1459 
L 2541 1666 
z
" transform="scale(0.015625)"/>
      <path id="ArialMT-72" d="M 416 0 
L 416 3319 
L 922 3319 
L 922 2816 
Q 1116 3169 1280 3281 
Q 1444 3394 1641 3394 
Q 1925 3394 2219 3213 
L 2025 2691 
Q 1819 2813 1613 2813 
Q 1428 2813 1281 2702 
Q 1134 2591 1072 2394 
Q 978 2094 978 1738 
L 978 0 
L 416 0 
z
" transform="scale(0.015625)"/>
      <path id="ArialMT-20" transform="scale(0.015625)"/>
      <path id="ArialMT-67" d="M 319 -275 
L 866 -356 
Q 900 -609 1056 -725 
Q 1266 -881 1628 -881 
Q 2019 -881 2231 -725 
Q 2444 -569 2519 -288 
Q 2563 -116 2559 434 
Q 2191 0 1641 0 
Q 956 0 581 494 
Q 206 988 206 1678 
Q 206 2153 378 2554 
Q 550 2956 876 3175 
Q 1203 3394 1644 3394 
Q 2231 3394 2613 2919 
L 2613 3319 
L 3131 3319 
L 3131 450 
Q 3131 -325 2973 -648 
Q 2816 -972 2473 -1159 
Q 2131 -1347 1631 -1347 
Q 1038 -1347 672 -1080 
Q 306 -813 319 -275 
z
M 784 1719 
Q 784 1066 1043 766 
Q 1303 466 1694 466 
Q 2081 466 2343 764 
Q 2606 1063 2606 1700 
Q 2606 2309 2336 2618 
Q 2066 2928 1684 2928 
Q 1309 2928 1046 2623 
Q 784 2319 784 1719 
z
" transform="scale(0.015625)"/>
      <path id="ArialMT-73" d="M 197 991 
L 753 1078 
Q 800 744 1014 566 
Q 1228 388 1613 388 
Q 2000 388 2187 545 
Q 2375 703 2375 916 
Q 2375 1106 2209 1216 
Q 2094 1291 1634 1406 
Q 1016 1563 777 1677 
Q 538 1791 414 1992 
Q 291 2194 291 2438 
Q 291 2659 392 2848 
Q 494 3038 669 3163 
Q 800 3259 1026 3326 
Q 1253 3394 1513 3394 
Q 1903 3394 2198 3281 
Q 2494 3169 2634 2976 
Q 2775 2784 2828 2463 
L 2278 2388 
Q 2241 2644 2061 2787 
Q 1881 2931 1553 2931 
Q 1166 2931 1000 2803 
Q 834 2675 834 2503 
Q 834 2394 903 2306 
Q 972 2216 1119 2156 
Q 1203 2125 1616 2013 
Q 2213 1853 2448 1751 
Q 2684 1650 2818 1456 
Q 2953 1263 2953 975 
Q 2953 694 2789 445 
Q 2625 197 2315 61 
Q 2006 -75 1616 -75 
Q 969 -75 630 194 
Q 291 463 197 991 
z
" transform="scale(0.015625)"/>
      <path id="ArialMT-6f" d="M 213 1659 
Q 213 2581 725 3025 
Q 1153 3394 1769 3394 
Q 2453 3394 2887 2945 
Q 3322 2497 3322 1706 
Q 3322 1066 3130 698 
Q 2938 331 2570 128 
Q 2203 -75 1769 -75 
Q 1072 -75 642 372 
Q 213 819 213 1659 
z
M 791 1659 
Q 791 1022 1069 705 
Q 1347 388 1769 388 
Q 2188 388 2466 706 
Q 2744 1025 2744 1678 
Q 2744 2294 2464 2611 
Q 2184 2928 1769 2928 
Q 1347 2928 1069 2612 
Q 791 2297 791 1659 
z
" transform="scale(0.015625)"/>
      <path id="ArialMT-77" d="M 1034 0 
L 19 3319 
L 600 3319 
L 1128 1403 
L 1325 691 
Q 1338 744 1497 1375 
L 2025 3319 
L 2603 3319 
L 3100 1394 
L 3266 759 
L 3456 1400 
L 4025 3319 
L 4572 3319 
L 3534 0 
L 2950 0 
L 2422 1988 
L 2294 2553 
L 1622 0 
L 1034 0 
z
" transform="scale(0.015625)"/>
      <path id="ArialMT-74" d="M 1650 503 
L 1731 6 
Q 1494 -44 1306 -44 
Q 1000 -44 831 53 
Q 663 150 594 308 
Q 525 466 525 972 
L 525 2881 
L 113 2881 
L 113 3319 
L 525 3319 
L 525 4141 
L 1084 4478 
L 1084 3319 
L 1650 3319 
L 1650 2881 
L 1084 2881 
L 1084 941 
Q 1084 700 1114 631 
Q 1144 563 1211 522 
Q 1278 481 1403 481 
Q 1497 481 1650 503 
z
" transform="scale(0.015625)"/>
      <path id="ArialMT-68" d="M 422 0 
L 422 4581 
L 984 4581 
L 984 2938 
Q 1378 3394 1978 3394 
Q 2347 3394 2619 3248 
Q 2891 3103 3008 2847 
Q 3125 2591 3125 2103 
L 3125 0 
L 2563 0 
L 2563 2103 
Q 2563 2525 2380 2717 
Q 2197 2909 1863 2909 
Q 1613 2909 1392 2779 
Q 1172 2650 1078 2428 
Q 984 2206 984 1816 
L 984 0 
L 422 0 
z
" transform="scale(0.015625)"/>
      <path id="ArialMT-64" d="M 2575 0 
L 2575 419 
Q 2259 -75 1647 -75 
Q 1250 -75 917 144 
Q 584 363 401 755 
Q 219 1147 219 1656 
Q 219 2153 384 2558 
Q 550 2963 881 3178 
Q 1213 3394 1622 3394 
Q 1922 3394 2156 3267 
Q 2391 3141 2538 2938 
L 2538 4581 
L 3097 4581 
L 3097 0 
L 2575 0 
z
M 797 1656 
Q 797 1019 1065 703 
Q 1334 388 1700 388 
Q 2069 388 2326 689 
Q 2584 991 2584 1609 
Q 2584 2291 2321 2609 
Q 2059 2928 1675 2928 
Q 1300 2928 1048 2622 
Q 797 2316 797 1656 
z
" transform="scale(0.015625)"/>
      <path id="ArialMT-75" d="M 2597 0 
L 2597 488 
Q 2209 -75 1544 -75 
Q 1250 -75 995 37 
Q 741 150 617 320 
Q 494 491 444 738 
Q 409 903 409 1263 
L 409 3319 
L 972 3319 
L 972 1478 
Q 972 1038 1006 884 
Q 1059 663 1231 536 
Q 1403 409 1656 409 
Q 1909 409 2131 539 
Q 2353 669 2445 892 
Q 2538 1116 2538 1541 
L 2538 3319 
L 3100 3319 
L 3100 0 
L 2597 0 
z
" transform="scale(0.015625)"/>
      <path id="ArialMT-6d" d="M 422 0 
L 422 3319 
L 925 3319 
L 925 2853 
Q 1081 3097 1340 3245 
Q 1600 3394 1931 3394 
Q 2300 3394 2536 3241 
Q 2772 3088 2869 2813 
Q 3263 3394 3894 3394 
Q 4388 3394 4653 3120 
Q 4919 2847 4919 2278 
L 4919 0 
L 4359 0 
L 4359 2091 
Q 4359 2428 4304 2576 
Q 4250 2725 4106 2815 
Q 3963 2906 3769 2906 
Q 3419 2906 3187 2673 
Q 2956 2441 2956 1928 
L 2956 0 
L 2394 0 
L 2394 2156 
Q 2394 2531 2256 2718 
Q 2119 2906 1806 2906 
Q 1569 2906 1367 2781 
Q 1166 2656 1075 2415 
Q 984 2175 984 1722 
L 984 0 
L 422 0 
z
" transform="scale(0.015625)"/>
      <path id="ArialMT-70" d="M 422 -1272 
L 422 3319 
L 934 3319 
L 934 2888 
Q 1116 3141 1344 3267 
Q 1572 3394 1897 3394 
Q 2322 3394 2647 3175 
Q 2972 2956 3137 2557 
Q 3303 2159 3303 1684 
Q 3303 1175 3120 767 
Q 2938 359 2589 142 
Q 2241 -75 1856 -75 
Q 1575 -75 1351 44 
Q 1128 163 984 344 
L 984 -1272 
L 422 -1272 
z
M 931 1641 
Q 931 1000 1190 694 
Q 1450 388 1819 388 
Q 2194 388 2461 705 
Q 2728 1022 2728 1688 
Q 2728 2322 2467 2637 
Q 2206 2953 1844 2953 
Q 1484 2953 1207 2617 
Q 931 2281 931 1641 
z
" transform="scale(0.015625)"/>
      <path id="ArialMT-28" d="M 1497 -1347 
Q 1031 -759 709 28 
Q 388 816 388 1659 
Q 388 2403 628 3084 
Q 909 3875 1497 4659 
L 1900 4659 
Q 1522 4009 1400 3731 
Q 1209 3300 1100 2831 
Q 966 2247 966 1656 
Q 966 153 1900 -1347 
L 1497 -1347 
z
" transform="scale(0.015625)"/>
      <path id="ArialMT-3d" d="M 3381 2694 
L 356 2694 
L 356 3219 
L 3381 3219 
L 3381 2694 
z
M 3381 1303 
L 356 1303 
L 356 1828 
L 3381 1828 
L 3381 1303 
z
" transform="scale(0.015625)"/>
      <path id="ArialMT-2e" d="M 581 0 
L 581 641 
L 1222 641 
L 1222 0 
L 581 0 
z
" transform="scale(0.015625)"/>
      <path id="ArialMT-2c" d="M 569 0 
L 569 641 
L 1209 641 
L 1209 0 
Q 1209 -353 1084 -570 
Q 959 -788 688 -906 
L 531 -666 
Q 709 -588 793 -436 
Q 878 -284 888 0 
L 569 0 
z
" transform="scale(0.015625)"/>
      <path id="ArialMT-29" d="M 791 -1347 
L 388 -1347 
Q 1322 153 1322 1656 
Q 1322 2244 1188 2822 
Q 1081 3291 891 3722 
Q 769 4003 388 4659 
L 791 4659 
Q 1378 3875 1659 3084 
Q 1900 2403 1900 1659 
Q 1900 816 1576 28 
Q 1253 -759 791 -1347 
z
" transform="scale(0.015625)"/>
     </defs>
     <use xlink:href="#ArialMT-6c"/>
     <use xlink:href="#ArialMT-69" x="22.216797"/>
     <use xlink:href="#ArialMT-6e" x="44.433594"/>
     <use xlink:href="#ArialMT-65" x="100.048828"/>
     <use xlink:href="#ArialMT-61" x="155.664062"/>
     <use xlink:href="#ArialMT-72" x="211.279297"/>
     <use xlink:href="#ArialMT-20" x="244.580078"/>
     <use xlink:href="#ArialMT-72" x="272.363281"/>
     <use xlink:href="#ArialMT-65" x="305.664062"/>
     <use xlink:href="#ArialMT-67" x="361.279297"/>
     <use xlink:href="#ArialMT-72" x="416.894531"/>
     <use xlink:href="#ArialMT-65" x="450.195312"/>
     <use xlink:href="#ArialMT-73" x="505.810547"/>
     <use xlink:href="#ArialMT-73" x="555.810547"/>
     <use xlink:href="#ArialMT-69" x="605.810547"/>
     <use xlink:href="#ArialMT-6f" x="628.027344"/>
     <use xlink:href="#ArialMT-6e" x="683.642578"/>
     <use xlink:href="#ArialMT-20" x="739.257812"/>
     <use xlink:href="#ArialMT-77" x="767.041016"/>
     <use xlink:href="#ArialMT-69" x="839.257812"/>
     <use xlink:href="#ArialMT-74" x="861.474609"/>
     <use xlink:href="#ArialMT-68" x="889.257812"/>
     <use xlink:href="#ArialMT-20" x="944.873047"/>
     <use xlink:href="#ArialMT-64" x="972.65625"/>
     <use xlink:href="#ArialMT-75" x="1028.271484"/>
     <use xlink:href="#ArialMT-6d" x="1083.886719"/>
     <use xlink:href="#ArialMT-6d" x="1167.1875"/>
     <use xlink:href="#ArialMT-69" x="1250.488281"/>
     <use xlink:href="#ArialMT-65" x="1272.705078"/>
     <use xlink:href="#ArialMT-73" x="1328.320312"/>
     <use xlink:href="#ArialMT-20" x="1378.320312"/>
     <use xlink:href="#ArialMT-61" x="1406.103516"/>
     <use xlink:href="#ArialMT-70" x="1461.71875"/>
     <use xlink:href="#ArialMT-70" x="1517.333984"/>
     <use xlink:href="#ArialMT-6c" x="1572.949219"/>
     <use xlink:href="#ArialMT-69" x="1595.166016"/>
     <use xlink:href="#ArialMT-65" x="1617.382812"/>
     <use xlink:href="#ArialMT-64" x="1672.998047"/>
     <use xlink:href="#ArialMT-20" x="1728.613281"/>
     <use xlink:href="#ArialMT-28" x="1756.396484"/>
     <use xlink:href="#ArialMT-6d" x="1789.697266"/>
     <use xlink:href="#ArialMT-73" x="1872.998047"/>
     <use xlink:href="#ArialMT-65" x="1922.998047"/>
     <use xlink:href="#ArialMT-3d" x="1978.613281"/>
     <use xlink:href="#ArialMT-20" x="2037.011719"/>
     <use xlink:href="#ArialMT-30" x="2064.794922"/>
     <use xlink:href="#ArialMT-2e" x="2120.410156"/>
     <use xlink:href="#ArialMT-32" x="2148.193359"/>
     <use xlink:href="#ArialMT-36" x="2203.808594"/>
     <use xlink:href="#ArialMT-32" x="2259.423828"/>
     <use xlink:href="#ArialMT-2c" x="2315.039062"/>
     <use xlink:href="#ArialMT-20" x="2342.822266"/>
     <use xlink:href="#ArialMT-6d" x="2370.605469"/>
     <use xlink:href="#ArialMT-61" x="2453.90625"/>
     <use xlink:href="#ArialMT-65" x="2509.521484"/>
     <use xlink:href="#ArialMT-3d" x="2565.136719"/>
     <use xlink:href="#ArialMT-30" x="2623.535156"/>
     <use xlink:href="#ArialMT-2e" x="2679.150391"/>
     <use xlink:href="#ArialMT-33" x="2706.933594"/>
     <use xlink:href="#ArialMT-35" x="2762.548828"/>
     <use xlink:href="#ArialMT-36" x="2818.164062"/>
     <use xlink:href="#ArialMT-29" x="2873.779297"/>
    </g>
   </g>
   <g id="legend_1">
    <g id="patch_7">
     <path d="M 439.816025 64.572125 
L 573.61315 64.572125 
Q 575.37315 64.572125 575.37315 62.812125 
L 575.37315 26.3485 
Q 575.37315 24.5885 573.61315 24.5885 
L 439.816025 24.5885 
Q 438.056025 24.5885 438.056025 26.3485 
L 438.056025 62.812125 
Q 438.056025 64.572125 439.816025 64.572125 
z
" style="fill: #eaeaf2; opacity: 0.8; stroke: #cccccc; stroke-width: 0.8; stroke-linejoin: miter"/>
    </g>
    <g id="line2d_17">
     <path d="M 441.576025 31.327375 
L 450.376025 31.327375 
L 459.176025 31.327375 
" style="fill: none; stroke: #1f77b4; stroke-opacity: 0.7; stroke-width: 1.2; stroke-linecap: round"/>
    </g>
    <g id="text_16">
     <!-- test -->
     <g style="fill: #262626" transform="translate(466.216025 34.407375) scale(0.088 -0.088)">
      <use xlink:href="#ArialMT-74"/>
      <use xlink:href="#ArialMT-65" x="27.783203"/>
      <use xlink:href="#ArialMT-73" x="83.398438"/>
      <use xlink:href="#ArialMT-74" x="133.398438"/>
     </g>
    </g>
    <g id="line2d_18">
     <path d="M 441.576025 43.77525 
L 450.376025 43.77525 
L 459.176025 43.77525 
" style="fill: none; stroke-dasharray: 4.44,1.92; stroke-dashoffset: 0; stroke: #ff7f0e; stroke-width: 1.2"/>
    </g>
    <g id="text_17">
     <!-- prediction with dummies -->
     <g style="fill: #262626" transform="translate(466.216025 46.85525) scale(0.088 -0.088)">
      <defs>
       <path id="ArialMT-63" d="M 2588 1216 
L 3141 1144 
Q 3050 572 2676 248 
Q 2303 -75 1759 -75 
Q 1078 -75 664 370 
Q 250 816 250 1647 
Q 250 2184 428 2587 
Q 606 2991 970 3192 
Q 1334 3394 1763 3394 
Q 2303 3394 2647 3120 
Q 2991 2847 3088 2344 
L 2541 2259 
Q 2463 2594 2264 2762 
Q 2066 2931 1784 2931 
Q 1359 2931 1093 2626 
Q 828 2322 828 1663 
Q 828 994 1084 691 
Q 1341 388 1753 388 
Q 2084 388 2306 591 
Q 2528 794 2588 1216 
z
" transform="scale(0.015625)"/>
      </defs>
      <use xlink:href="#ArialMT-70"/>
      <use xlink:href="#ArialMT-72" x="55.615234"/>
      <use xlink:href="#ArialMT-65" x="88.916016"/>
      <use xlink:href="#ArialMT-64" x="144.53125"/>
      <use xlink:href="#ArialMT-69" x="200.146484"/>
      <use xlink:href="#ArialMT-63" x="222.363281"/>
      <use xlink:href="#ArialMT-74" x="272.363281"/>
      <use xlink:href="#ArialMT-69" x="300.146484"/>
      <use xlink:href="#ArialMT-6f" x="322.363281"/>
      <use xlink:href="#ArialMT-6e" x="377.978516"/>
      <use xlink:href="#ArialMT-20" x="433.59375"/>
      <use xlink:href="#ArialMT-77" x="461.376953"/>
      <use xlink:href="#ArialMT-69" x="533.59375"/>
      <use xlink:href="#ArialMT-74" x="555.810547"/>
      <use xlink:href="#ArialMT-68" x="583.59375"/>
      <use xlink:href="#ArialMT-20" x="639.208984"/>
      <use xlink:href="#ArialMT-64" x="666.992188"/>
      <use xlink:href="#ArialMT-75" x="722.607422"/>
      <use xlink:href="#ArialMT-6d" x="778.222656"/>
      <use xlink:href="#ArialMT-6d" x="861.523438"/>
      <use xlink:href="#ArialMT-69" x="944.824219"/>
      <use xlink:href="#ArialMT-65" x="967.041016"/>
      <use xlink:href="#ArialMT-73" x="1022.65625"/>
     </g>
    </g>
    <g id="line2d_19">
     <path d="M 441.576025 56.223125 
L 450.376025 56.223125 
L 459.176025 56.223125 
" style="fill: none; stroke-dasharray: 4.44,1.92; stroke-dashoffset: 0; stroke: #2ca02c; stroke-width: 1.2"/>
    </g>
    <g id="text_18">
     <!-- prediction with all dummies -->
     <g style="fill: #262626" transform="translate(466.216025 59.303125) scale(0.088 -0.088)">
      <use xlink:href="#ArialMT-70"/>
      <use xlink:href="#ArialMT-72" x="55.615234"/>
      <use xlink:href="#ArialMT-65" x="88.916016"/>
      <use xlink:href="#ArialMT-64" x="144.53125"/>
      <use xlink:href="#ArialMT-69" x="200.146484"/>
      <use xlink:href="#ArialMT-63" x="222.363281"/>
      <use xlink:href="#ArialMT-74" x="272.363281"/>
      <use xlink:href="#ArialMT-69" x="300.146484"/>
      <use xlink:href="#ArialMT-6f" x="322.363281"/>
      <use xlink:href="#ArialMT-6e" x="377.978516"/>
      <use xlink:href="#ArialMT-20" x="433.59375"/>
      <use xlink:href="#ArialMT-77" x="461.376953"/>
      <use xlink:href="#ArialMT-69" x="533.59375"/>
      <use xlink:href="#ArialMT-74" x="555.810547"/>
      <use xlink:href="#ArialMT-68" x="583.59375"/>
      <use xlink:href="#ArialMT-20" x="639.208984"/>
      <use xlink:href="#ArialMT-61" x="666.992188"/>
      <use xlink:href="#ArialMT-6c" x="722.607422"/>
      <use xlink:href="#ArialMT-6c" x="744.824219"/>
      <use xlink:href="#ArialMT-20" x="767.041016"/>
      <use xlink:href="#ArialMT-64" x="794.824219"/>
      <use xlink:href="#ArialMT-75" x="850.439453"/>
      <use xlink:href="#ArialMT-6d" x="906.054688"/>
      <use xlink:href="#ArialMT-6d" x="989.355469"/>
      <use xlink:href="#ArialMT-69" x="1072.65625"/>
      <use xlink:href="#ArialMT-65" x="1094.873047"/>
      <use xlink:href="#ArialMT-73" x="1150.488281"/>
     </g>
    </g>
   </g>
  </g>
 </g>
 <defs>
  <clipPath id="p7159ae23fa">
   <rect x="38.06675" y="20.1885" width="541.7064" height="332.64"/>
  </clipPath>
 </defs>
</svg>
