<?xml version="1.0" encoding="utf-8" standalone="no"?>
<!DOCTYPE svg PUBLIC "-//W3C//DTD SVG 1.1//EN"
  "http://www.w3.org/Graphics/SVG/1.1/DTD/svg11.dtd">
<svg xmlns:xlink="http://www.w3.org/1999/xlink" width="587.21765pt" height="396.853011pt" viewBox="0 0 587.21765 396.853011" xmlns="http://www.w3.org/2000/svg" version="1.1">
 <metadata>
  <rdf:RDF xmlns:dc="http://purl.org/dc/elements/1.1/" xmlns:cc="http://creativecommons.org/ns#" xmlns:rdf="http://www.w3.org/1999/02/22-rdf-syntax-ns#">
   <cc:Work>
    <dc:type rdf:resource="http://purl.org/dc/dcmitype/StillImage"/>
    <dc:date>2024-02-13T21:34:08.738980</dc:date>
    <dc:format>image/svg+xml</dc:format>
    <dc:creator>
     <cc:Agent>
      <dc:title>Matplotlib v3.8.0, https://matplotlib.org/</dc:title>
     </cc:Agent>
    </dc:creator>
   </cc:Work>
  </rdf:RDF>
 </metadata>
 <defs>
  <style type="text/css">*{stroke-linejoin: round; stroke-linecap: butt}</style>
 </defs>
 <g id="figure_1">
  <g id="patch_1">
   <path d="M 0 396.853011 
L 587.21765 396.853011 
L 587.21765 0 
L 0 0 
z
" style="fill: #ffffff"/>
  </g>
  <g id="axes_1">
   <g id="patch_2">
    <path d="M 38.31125 352.8285 
L 580.01765 352.8285 
L 580.01765 20.1885 
L 38.31125 20.1885 
z
" style="fill: #eaeaf2"/>
   </g>
   <g id="matplotlib.axis_1">
    <g id="xtick_1">
     <g id="line2d_1">
      <path d="M 62.6013 352.8285 
L 62.6013 20.1885 
" clip-path="url(#p509a873050)" style="fill: none; stroke: #ffffff; stroke-width: 0.8; stroke-linecap: round"/>
     </g>
     <g id="text_1">
      <!-- 2012-01 -->
      <g style="fill: #262626" transform="translate(52.793022 388.416281) rotate(-45) scale(0.088 -0.088)">
       <defs>
        <path id="ArialMT-32" d="M 3222 541 
L 3222 0 
L 194 0 
Q 188 203 259 391 
Q 375 700 629 1000 
Q 884 1300 1366 1694 
Q 2113 2306 2375 2664 
Q 2638 3022 2638 3341 
Q 2638 3675 2398 3904 
Q 2159 4134 1775 4134 
Q 1369 4134 1125 3890 
Q 881 3647 878 3216 
L 300 3275 
Q 359 3922 746 4261 
Q 1134 4600 1788 4600 
Q 2447 4600 2831 4234 
Q 3216 3869 3216 3328 
Q 3216 3053 3103 2787 
Q 2991 2522 2730 2228 
Q 2469 1934 1863 1422 
Q 1356 997 1212 845 
Q 1069 694 975 541 
L 3222 541 
z
" transform="scale(0.015625)"/>
        <path id="ArialMT-30" d="M 266 2259 
Q 266 3072 433 3567 
Q 600 4063 929 4331 
Q 1259 4600 1759 4600 
Q 2128 4600 2406 4451 
Q 2684 4303 2865 4023 
Q 3047 3744 3150 3342 
Q 3253 2941 3253 2259 
Q 3253 1453 3087 958 
Q 2922 463 2592 192 
Q 2263 -78 1759 -78 
Q 1097 -78 719 397 
Q 266 969 266 2259 
z
M 844 2259 
Q 844 1131 1108 757 
Q 1372 384 1759 384 
Q 2147 384 2411 759 
Q 2675 1134 2675 2259 
Q 2675 3391 2411 3762 
Q 2147 4134 1753 4134 
Q 1366 4134 1134 3806 
Q 844 3388 844 2259 
z
" transform="scale(0.015625)"/>
        <path id="ArialMT-31" d="M 2384 0 
L 1822 0 
L 1822 3584 
Q 1619 3391 1289 3197 
Q 959 3003 697 2906 
L 697 3450 
Q 1169 3672 1522 3987 
Q 1875 4303 2022 4600 
L 2384 4600 
L 2384 0 
z
" transform="scale(0.015625)"/>
        <path id="ArialMT-2d" d="M 203 1375 
L 203 1941 
L 1931 1941 
L 1931 1375 
L 203 1375 
z
" transform="scale(0.015625)"/>
       </defs>
       <use xlink:href="#ArialMT-32"/>
       <use xlink:href="#ArialMT-30" x="55.615234"/>
       <use xlink:href="#ArialMT-31" x="111.230469"/>
       <use xlink:href="#ArialMT-32" x="166.845703"/>
       <use xlink:href="#ArialMT-2d" x="222.460938"/>
       <use xlink:href="#ArialMT-30" x="255.761719"/>
       <use xlink:href="#ArialMT-31" x="311.376953"/>
      </g>
     </g>
    </g>
    <g id="xtick_2">
     <g id="line2d_2">
      <path d="M 123.201561 352.8285 
L 123.201561 20.1885 
" clip-path="url(#p509a873050)" style="fill: none; stroke: #ffffff; stroke-width: 0.8; stroke-linecap: round"/>
     </g>
     <g id="text_2">
      <!-- 2012-07 -->
      <g style="fill: #262626" transform="translate(113.393283 388.416281) rotate(-45) scale(0.088 -0.088)">
       <defs>
        <path id="ArialMT-37" d="M 303 3981 
L 303 4522 
L 3269 4522 
L 3269 4084 
Q 2831 3619 2401 2847 
Q 1972 2075 1738 1259 
Q 1569 684 1522 0 
L 944 0 
Q 953 541 1156 1306 
Q 1359 2072 1739 2783 
Q 2119 3494 2547 3981 
L 303 3981 
z
" transform="scale(0.015625)"/>
       </defs>
       <use xlink:href="#ArialMT-32"/>
       <use xlink:href="#ArialMT-30" x="55.615234"/>
       <use xlink:href="#ArialMT-31" x="111.230469"/>
       <use xlink:href="#ArialMT-32" x="166.845703"/>
       <use xlink:href="#ArialMT-2d" x="222.460938"/>
       <use xlink:href="#ArialMT-30" x="255.761719"/>
       <use xlink:href="#ArialMT-37" x="311.376953"/>
      </g>
     </g>
    </g>
    <g id="xtick_3">
     <g id="line2d_3">
      <path d="M 184.467759 352.8285 
L 184.467759 20.1885 
" clip-path="url(#p509a873050)" style="fill: none; stroke: #ffffff; stroke-width: 0.8; stroke-linecap: round"/>
     </g>
     <g id="text_3">
      <!-- 2013-01 -->
      <g style="fill: #262626" transform="translate(174.659481 388.416281) rotate(-45) scale(0.088 -0.088)">
       <defs>
        <path id="ArialMT-33" d="M 269 1209 
L 831 1284 
Q 928 806 1161 595 
Q 1394 384 1728 384 
Q 2125 384 2398 659 
Q 2672 934 2672 1341 
Q 2672 1728 2419 1979 
Q 2166 2231 1775 2231 
Q 1616 2231 1378 2169 
L 1441 2663 
Q 1497 2656 1531 2656 
Q 1891 2656 2178 2843 
Q 2466 3031 2466 3422 
Q 2466 3731 2256 3934 
Q 2047 4138 1716 4138 
Q 1388 4138 1169 3931 
Q 950 3725 888 3313 
L 325 3413 
Q 428 3978 793 4289 
Q 1159 4600 1703 4600 
Q 2078 4600 2393 4439 
Q 2709 4278 2876 4000 
Q 3044 3722 3044 3409 
Q 3044 3113 2884 2869 
Q 2725 2625 2413 2481 
Q 2819 2388 3044 2092 
Q 3269 1797 3269 1353 
Q 3269 753 2831 336 
Q 2394 -81 1725 -81 
Q 1122 -81 723 278 
Q 325 638 269 1209 
z
" transform="scale(0.015625)"/>
       </defs>
       <use xlink:href="#ArialMT-32"/>
       <use xlink:href="#ArialMT-30" x="55.615234"/>
       <use xlink:href="#ArialMT-31" x="111.230469"/>
       <use xlink:href="#ArialMT-33" x="166.845703"/>
       <use xlink:href="#ArialMT-2d" x="222.460938"/>
       <use xlink:href="#ArialMT-30" x="255.761719"/>
       <use xlink:href="#ArialMT-31" x="311.376953"/>
      </g>
     </g>
    </g>
    <g id="xtick_4">
     <g id="line2d_4">
      <path d="M 244.735052 352.8285 
L 244.735052 20.1885 
" clip-path="url(#p509a873050)" style="fill: none; stroke: #ffffff; stroke-width: 0.8; stroke-linecap: round"/>
     </g>
     <g id="text_4">
      <!-- 2013-07 -->
      <g style="fill: #262626" transform="translate(234.926773 388.416281) rotate(-45) scale(0.088 -0.088)">
       <use xlink:href="#ArialMT-32"/>
       <use xlink:href="#ArialMT-30" x="55.615234"/>
       <use xlink:href="#ArialMT-31" x="111.230469"/>
       <use xlink:href="#ArialMT-33" x="166.845703"/>
       <use xlink:href="#ArialMT-2d" x="222.460938"/>
       <use xlink:href="#ArialMT-30" x="255.761719"/>
       <use xlink:href="#ArialMT-37" x="311.376953"/>
      </g>
     </g>
    </g>
    <g id="xtick_5">
     <g id="line2d_5">
      <path d="M 306.00125 352.8285 
L 306.00125 20.1885 
" clip-path="url(#p509a873050)" style="fill: none; stroke: #ffffff; stroke-width: 0.8; stroke-linecap: round"/>
     </g>
     <g id="text_5">
      <!-- 2014-01 -->
      <g style="fill: #262626" transform="translate(296.192971 388.416281) rotate(-45) scale(0.088 -0.088)">
       <defs>
        <path id="ArialMT-34" d="M 2069 0 
L 2069 1097 
L 81 1097 
L 81 1613 
L 2172 4581 
L 2631 4581 
L 2631 1613 
L 3250 1613 
L 3250 1097 
L 2631 1097 
L 2631 0 
L 2069 0 
z
M 2069 1613 
L 2069 3678 
L 634 1613 
L 2069 1613 
z
" transform="scale(0.015625)"/>
       </defs>
       <use xlink:href="#ArialMT-32"/>
       <use xlink:href="#ArialMT-30" x="55.615234"/>
       <use xlink:href="#ArialMT-31" x="111.230469"/>
       <use xlink:href="#ArialMT-34" x="166.845703"/>
       <use xlink:href="#ArialMT-2d" x="222.460938"/>
       <use xlink:href="#ArialMT-30" x="255.761719"/>
       <use xlink:href="#ArialMT-31" x="311.376953"/>
      </g>
     </g>
    </g>
    <g id="xtick_6">
     <g id="line2d_6">
      <path d="M 366.268542 352.8285 
L 366.268542 20.1885 
" clip-path="url(#p509a873050)" style="fill: none; stroke: #ffffff; stroke-width: 0.8; stroke-linecap: round"/>
     </g>
     <g id="text_6">
      <!-- 2014-07 -->
      <g style="fill: #262626" transform="translate(356.460264 388.416281) rotate(-45) scale(0.088 -0.088)">
       <use xlink:href="#ArialMT-32"/>
       <use xlink:href="#ArialMT-30" x="55.615234"/>
       <use xlink:href="#ArialMT-31" x="111.230469"/>
       <use xlink:href="#ArialMT-34" x="166.845703"/>
       <use xlink:href="#ArialMT-2d" x="222.460938"/>
       <use xlink:href="#ArialMT-30" x="255.761719"/>
       <use xlink:href="#ArialMT-37" x="311.376953"/>
      </g>
     </g>
    </g>
    <g id="xtick_7">
     <g id="line2d_7">
      <path d="M 427.53474 352.8285 
L 427.53474 20.1885 
" clip-path="url(#p509a873050)" style="fill: none; stroke: #ffffff; stroke-width: 0.8; stroke-linecap: round"/>
     </g>
     <g id="text_7">
      <!-- 2015-01 -->
      <g style="fill: #262626" transform="translate(417.726462 388.416281) rotate(-45) scale(0.088 -0.088)">
       <defs>
        <path id="ArialMT-35" d="M 266 1200 
L 856 1250 
Q 922 819 1161 601 
Q 1400 384 1738 384 
Q 2144 384 2425 690 
Q 2706 997 2706 1503 
Q 2706 1984 2436 2262 
Q 2166 2541 1728 2541 
Q 1456 2541 1237 2417 
Q 1019 2294 894 2097 
L 366 2166 
L 809 4519 
L 3088 4519 
L 3088 3981 
L 1259 3981 
L 1013 2750 
Q 1425 3038 1878 3038 
Q 2478 3038 2890 2622 
Q 3303 2206 3303 1553 
Q 3303 931 2941 478 
Q 2500 -78 1738 -78 
Q 1113 -78 717 272 
Q 322 622 266 1200 
z
" transform="scale(0.015625)"/>
       </defs>
       <use xlink:href="#ArialMT-32"/>
       <use xlink:href="#ArialMT-30" x="55.615234"/>
       <use xlink:href="#ArialMT-31" x="111.230469"/>
       <use xlink:href="#ArialMT-35" x="166.845703"/>
       <use xlink:href="#ArialMT-2d" x="222.460938"/>
       <use xlink:href="#ArialMT-30" x="255.761719"/>
       <use xlink:href="#ArialMT-31" x="311.376953"/>
      </g>
     </g>
    </g>
    <g id="xtick_8">
     <g id="line2d_8">
      <path d="M 487.802033 352.8285 
L 487.802033 20.1885 
" clip-path="url(#p509a873050)" style="fill: none; stroke: #ffffff; stroke-width: 0.8; stroke-linecap: round"/>
     </g>
     <g id="text_8">
      <!-- 2015-07 -->
      <g style="fill: #262626" transform="translate(477.993755 388.416281) rotate(-45) scale(0.088 -0.088)">
       <use xlink:href="#ArialMT-32"/>
       <use xlink:href="#ArialMT-30" x="55.615234"/>
       <use xlink:href="#ArialMT-31" x="111.230469"/>
       <use xlink:href="#ArialMT-35" x="166.845703"/>
       <use xlink:href="#ArialMT-2d" x="222.460938"/>
       <use xlink:href="#ArialMT-30" x="255.761719"/>
       <use xlink:href="#ArialMT-37" x="311.376953"/>
      </g>
     </g>
    </g>
    <g id="xtick_9">
     <g id="line2d_9">
      <path d="M 549.068231 352.8285 
L 549.068231 20.1885 
" clip-path="url(#p509a873050)" style="fill: none; stroke: #ffffff; stroke-width: 0.8; stroke-linecap: round"/>
     </g>
     <g id="text_9">
      <!-- 2016-01 -->
      <g style="fill: #262626" transform="translate(539.259953 388.416281) rotate(-45) scale(0.088 -0.088)">
       <defs>
        <path id="ArialMT-36" d="M 3184 3459 
L 2625 3416 
Q 2550 3747 2413 3897 
Q 2184 4138 1850 4138 
Q 1581 4138 1378 3988 
Q 1113 3794 959 3422 
Q 806 3050 800 2363 
Q 1003 2672 1297 2822 
Q 1591 2972 1913 2972 
Q 2475 2972 2870 2558 
Q 3266 2144 3266 1488 
Q 3266 1056 3080 686 
Q 2894 316 2569 119 
Q 2244 -78 1831 -78 
Q 1128 -78 684 439 
Q 241 956 241 2144 
Q 241 3472 731 4075 
Q 1159 4600 1884 4600 
Q 2425 4600 2770 4297 
Q 3116 3994 3184 3459 
z
M 888 1484 
Q 888 1194 1011 928 
Q 1134 663 1356 523 
Q 1578 384 1822 384 
Q 2178 384 2434 671 
Q 2691 959 2691 1453 
Q 2691 1928 2437 2201 
Q 2184 2475 1800 2475 
Q 1419 2475 1153 2201 
Q 888 1928 888 1484 
z
" transform="scale(0.015625)"/>
       </defs>
       <use xlink:href="#ArialMT-32"/>
       <use xlink:href="#ArialMT-30" x="55.615234"/>
       <use xlink:href="#ArialMT-31" x="111.230469"/>
       <use xlink:href="#ArialMT-36" x="166.845703"/>
       <use xlink:href="#ArialMT-2d" x="222.460938"/>
       <use xlink:href="#ArialMT-30" x="255.761719"/>
       <use xlink:href="#ArialMT-31" x="311.376953"/>
      </g>
     </g>
    </g>
   </g>
   <g id="matplotlib.axis_2">
    <g id="ytick_1">
     <g id="line2d_10">
      <path d="M 38.31125 311.385825 
L 580.01765 311.385825 
" clip-path="url(#p509a873050)" style="fill: none; stroke: #ffffff; stroke-width: 0.8; stroke-linecap: round"/>
     </g>
     <g id="text_10">
      <!-- 7 -->
      <g style="fill: #262626" transform="translate(25.117625 314.535262) scale(0.088 -0.088)">
       <use xlink:href="#ArialMT-37"/>
      </g>
     </g>
    </g>
    <g id="ytick_2">
     <g id="line2d_11">
      <path d="M 38.31125 264.166862 
L 580.01765 264.166862 
" clip-path="url(#p509a873050)" style="fill: none; stroke: #ffffff; stroke-width: 0.8; stroke-linecap: round"/>
     </g>
     <g id="text_11">
      <!-- 8 -->
      <g style="fill: #262626" transform="translate(25.117625 267.316299) scale(0.088 -0.088)">
       <defs>
        <path id="ArialMT-38" d="M 1131 2484 
Q 781 2613 612 2850 
Q 444 3088 444 3419 
Q 444 3919 803 4259 
Q 1163 4600 1759 4600 
Q 2359 4600 2725 4251 
Q 3091 3903 3091 3403 
Q 3091 3084 2923 2848 
Q 2756 2613 2416 2484 
Q 2838 2347 3058 2040 
Q 3278 1734 3278 1309 
Q 3278 722 2862 322 
Q 2447 -78 1769 -78 
Q 1091 -78 675 323 
Q 259 725 259 1325 
Q 259 1772 486 2073 
Q 713 2375 1131 2484 
z
M 1019 3438 
Q 1019 3113 1228 2906 
Q 1438 2700 1772 2700 
Q 2097 2700 2305 2904 
Q 2513 3109 2513 3406 
Q 2513 3716 2298 3927 
Q 2084 4138 1766 4138 
Q 1444 4138 1231 3931 
Q 1019 3725 1019 3438 
z
M 838 1322 
Q 838 1081 952 856 
Q 1066 631 1291 507 
Q 1516 384 1775 384 
Q 2178 384 2440 643 
Q 2703 903 2703 1303 
Q 2703 1709 2433 1975 
Q 2163 2241 1756 2241 
Q 1359 2241 1098 1978 
Q 838 1716 838 1322 
z
" transform="scale(0.015625)"/>
       </defs>
       <use xlink:href="#ArialMT-38"/>
      </g>
     </g>
    </g>
    <g id="ytick_3">
     <g id="line2d_12">
      <path d="M 38.31125 216.947899 
L 580.01765 216.947899 
" clip-path="url(#p509a873050)" style="fill: none; stroke: #ffffff; stroke-width: 0.8; stroke-linecap: round"/>
     </g>
     <g id="text_12">
      <!-- 9 -->
      <g style="fill: #262626" transform="translate(25.117625 220.097336) scale(0.088 -0.088)">
       <defs>
        <path id="ArialMT-39" d="M 350 1059 
L 891 1109 
Q 959 728 1153 556 
Q 1347 384 1650 384 
Q 1909 384 2104 503 
Q 2300 622 2425 820 
Q 2550 1019 2634 1356 
Q 2719 1694 2719 2044 
Q 2719 2081 2716 2156 
Q 2547 1888 2255 1720 
Q 1963 1553 1622 1553 
Q 1053 1553 659 1965 
Q 266 2378 266 3053 
Q 266 3750 677 4175 
Q 1088 4600 1706 4600 
Q 2153 4600 2523 4359 
Q 2894 4119 3086 3673 
Q 3278 3228 3278 2384 
Q 3278 1506 3087 986 
Q 2897 466 2520 194 
Q 2144 -78 1638 -78 
Q 1100 -78 759 220 
Q 419 519 350 1059 
z
M 2653 3081 
Q 2653 3566 2395 3850 
Q 2138 4134 1775 4134 
Q 1400 4134 1122 3828 
Q 844 3522 844 3034 
Q 844 2597 1108 2323 
Q 1372 2050 1759 2050 
Q 2150 2050 2401 2323 
Q 2653 2597 2653 3081 
z
" transform="scale(0.015625)"/>
       </defs>
       <use xlink:href="#ArialMT-39"/>
      </g>
     </g>
    </g>
    <g id="ytick_4">
     <g id="line2d_13">
      <path d="M 38.31125 169.728936 
L 580.01765 169.728936 
" clip-path="url(#p509a873050)" style="fill: none; stroke: #ffffff; stroke-width: 0.8; stroke-linecap: round"/>
     </g>
     <g id="text_13">
      <!-- 10 -->
      <g style="fill: #262626" transform="translate(20.224 172.878373) scale(0.088 -0.088)">
       <use xlink:href="#ArialMT-31"/>
       <use xlink:href="#ArialMT-30" x="55.615234"/>
      </g>
     </g>
    </g>
    <g id="ytick_5">
     <g id="line2d_14">
      <path d="M 38.31125 122.509973 
L 580.01765 122.509973 
" clip-path="url(#p509a873050)" style="fill: none; stroke: #ffffff; stroke-width: 0.8; stroke-linecap: round"/>
     </g>
     <g id="text_14">
      <!-- 11 -->
      <g style="fill: #262626" transform="translate(20.873 125.65941) scale(0.088 -0.088)">
       <use xlink:href="#ArialMT-31"/>
       <use xlink:href="#ArialMT-31" x="48.240234"/>
      </g>
     </g>
    </g>
    <g id="ytick_6">
     <g id="line2d_15">
      <path d="M 38.31125 75.29101 
L 580.01765 75.29101 
" clip-path="url(#p509a873050)" style="fill: none; stroke: #ffffff; stroke-width: 0.8; stroke-linecap: round"/>
     </g>
     <g id="text_15">
      <!-- 12 -->
      <g style="fill: #262626" transform="translate(20.224 78.440447) scale(0.088 -0.088)">
       <use xlink:href="#ArialMT-31"/>
       <use xlink:href="#ArialMT-32" x="55.615234"/>
      </g>
     </g>
    </g>
    <g id="ytick_7">
     <g id="line2d_16">
      <path d="M 38.31125 28.072047 
L 580.01765 28.072047 
" clip-path="url(#p509a873050)" style="fill: none; stroke: #ffffff; stroke-width: 0.8; stroke-linecap: round"/>
     </g>
     <g id="text_16">
      <!-- 13 -->
      <g style="fill: #262626" transform="translate(20.224 31.221485) scale(0.088 -0.088)">
       <use xlink:href="#ArialMT-31"/>
       <use xlink:href="#ArialMT-33" x="55.615234"/>
      </g>
     </g>
    </g>
    <g id="text_17">
     <!-- target variable - $y$ -->
     <g style="fill: #262626" transform="translate(14.112 224.0445) rotate(-90) scale(0.096 -0.096)">
      <defs>
       <path id="ArialMT-74" d="M 1650 503 
L 1731 6 
Q 1494 -44 1306 -44 
Q 1000 -44 831 53 
Q 663 150 594 308 
Q 525 466 525 972 
L 525 2881 
L 113 2881 
L 113 3319 
L 525 3319 
L 525 4141 
L 1084 4478 
L 1084 3319 
L 1650 3319 
L 1650 2881 
L 1084 2881 
L 1084 941 
Q 1084 700 1114 631 
Q 1144 563 1211 522 
Q 1278 481 1403 481 
Q 1497 481 1650 503 
z
" transform="scale(0.015625)"/>
       <path id="ArialMT-61" d="M 2588 409 
Q 2275 144 1986 34 
Q 1697 -75 1366 -75 
Q 819 -75 525 192 
Q 231 459 231 875 
Q 231 1119 342 1320 
Q 453 1522 633 1644 
Q 813 1766 1038 1828 
Q 1203 1872 1538 1913 
Q 2219 1994 2541 2106 
Q 2544 2222 2544 2253 
Q 2544 2597 2384 2738 
Q 2169 2928 1744 2928 
Q 1347 2928 1158 2789 
Q 969 2650 878 2297 
L 328 2372 
Q 403 2725 575 2942 
Q 747 3159 1072 3276 
Q 1397 3394 1825 3394 
Q 2250 3394 2515 3294 
Q 2781 3194 2906 3042 
Q 3031 2891 3081 2659 
Q 3109 2516 3109 2141 
L 3109 1391 
Q 3109 606 3145 398 
Q 3181 191 3288 0 
L 2700 0 
Q 2613 175 2588 409 
z
M 2541 1666 
Q 2234 1541 1622 1453 
Q 1275 1403 1131 1340 
Q 988 1278 909 1158 
Q 831 1038 831 891 
Q 831 666 1001 516 
Q 1172 366 1500 366 
Q 1825 366 2078 508 
Q 2331 650 2450 897 
Q 2541 1088 2541 1459 
L 2541 1666 
z
" transform="scale(0.015625)"/>
       <path id="ArialMT-72" d="M 416 0 
L 416 3319 
L 922 3319 
L 922 2816 
Q 1116 3169 1280 3281 
Q 1444 3394 1641 3394 
Q 1925 3394 2219 3213 
L 2025 2691 
Q 1819 2813 1613 2813 
Q 1428 2813 1281 2702 
Q 1134 2591 1072 2394 
Q 978 2094 978 1738 
L 978 0 
L 416 0 
z
" transform="scale(0.015625)"/>
       <path id="ArialMT-67" d="M 319 -275 
L 866 -356 
Q 900 -609 1056 -725 
Q 1266 -881 1628 -881 
Q 2019 -881 2231 -725 
Q 2444 -569 2519 -288 
Q 2563 -116 2559 434 
Q 2191 0 1641 0 
Q 956 0 581 494 
Q 206 988 206 1678 
Q 206 2153 378 2554 
Q 550 2956 876 3175 
Q 1203 3394 1644 3394 
Q 2231 3394 2613 2919 
L 2613 3319 
L 3131 3319 
L 3131 450 
Q 3131 -325 2973 -648 
Q 2816 -972 2473 -1159 
Q 2131 -1347 1631 -1347 
Q 1038 -1347 672 -1080 
Q 306 -813 319 -275 
z
M 784 1719 
Q 784 1066 1043 766 
Q 1303 466 1694 466 
Q 2081 466 2343 764 
Q 2606 1063 2606 1700 
Q 2606 2309 2336 2618 
Q 2066 2928 1684 2928 
Q 1309 2928 1046 2623 
Q 784 2319 784 1719 
z
" transform="scale(0.015625)"/>
       <path id="ArialMT-65" d="M 2694 1069 
L 3275 997 
Q 3138 488 2766 206 
Q 2394 -75 1816 -75 
Q 1088 -75 661 373 
Q 234 822 234 1631 
Q 234 2469 665 2931 
Q 1097 3394 1784 3394 
Q 2450 3394 2872 2941 
Q 3294 2488 3294 1666 
Q 3294 1616 3291 1516 
L 816 1516 
Q 847 969 1125 678 
Q 1403 388 1819 388 
Q 2128 388 2347 550 
Q 2566 713 2694 1069 
z
M 847 1978 
L 2700 1978 
Q 2663 2397 2488 2606 
Q 2219 2931 1791 2931 
Q 1403 2931 1139 2672 
Q 875 2413 847 1978 
z
" transform="scale(0.015625)"/>
       <path id="ArialMT-20" transform="scale(0.015625)"/>
       <path id="ArialMT-76" d="M 1344 0 
L 81 3319 
L 675 3319 
L 1388 1331 
Q 1503 1009 1600 663 
Q 1675 925 1809 1294 
L 2547 3319 
L 3125 3319 
L 1869 0 
L 1344 0 
z
" transform="scale(0.015625)"/>
       <path id="ArialMT-69" d="M 425 3934 
L 425 4581 
L 988 4581 
L 988 3934 
L 425 3934 
z
M 425 0 
L 425 3319 
L 988 3319 
L 988 0 
L 425 0 
z
" transform="scale(0.015625)"/>
       <path id="ArialMT-62" d="M 941 0 
L 419 0 
L 419 4581 
L 981 4581 
L 981 2947 
Q 1338 3394 1891 3394 
Q 2197 3394 2470 3270 
Q 2744 3147 2920 2923 
Q 3097 2700 3197 2384 
Q 3297 2069 3297 1709 
Q 3297 856 2875 390 
Q 2453 -75 1863 -75 
Q 1275 -75 941 416 
L 941 0 
z
M 934 1684 
Q 934 1088 1097 822 
Q 1363 388 1816 388 
Q 2184 388 2453 708 
Q 2722 1028 2722 1663 
Q 2722 2313 2464 2622 
Q 2206 2931 1841 2931 
Q 1472 2931 1203 2611 
Q 934 2291 934 1684 
z
" transform="scale(0.015625)"/>
       <path id="ArialMT-6c" d="M 409 0 
L 409 4581 
L 972 4581 
L 972 0 
L 409 0 
z
" transform="scale(0.015625)"/>
       <path id="DejaVuSans-Oblique-79" d="M 1588 -325 
Q 1188 -997 936 -1164 
Q 684 -1331 294 -1331 
L -159 -1331 
L -63 -850 
L 269 -850 
Q 509 -850 678 -719 
Q 847 -588 1056 -206 
L 1234 128 
L 459 3500 
L 1069 3500 
L 1650 819 
L 3256 3500 
L 3859 3500 
L 1588 -325 
z
" transform="scale(0.015625)"/>
      </defs>
      <use xlink:href="#ArialMT-74" transform="translate(0 0.421875)"/>
      <use xlink:href="#ArialMT-61" transform="translate(27.783203 0.421875)"/>
      <use xlink:href="#ArialMT-72" transform="translate(83.398438 0.421875)"/>
      <use xlink:href="#ArialMT-67" transform="translate(116.699219 0.421875)"/>
      <use xlink:href="#ArialMT-65" transform="translate(172.314453 0.421875)"/>
      <use xlink:href="#ArialMT-74" transform="translate(227.929688 0.421875)"/>
      <use xlink:href="#ArialMT-20" transform="translate(255.712891 0.421875)"/>
      <use xlink:href="#ArialMT-76" transform="translate(283.496094 0.421875)"/>
      <use xlink:href="#ArialMT-61" transform="translate(333.496094 0.421875)"/>
      <use xlink:href="#ArialMT-72" transform="translate(389.111328 0.421875)"/>
      <use xlink:href="#ArialMT-69" transform="translate(422.412109 0.421875)"/>
      <use xlink:href="#ArialMT-61" transform="translate(444.628906 0.421875)"/>
      <use xlink:href="#ArialMT-62" transform="translate(500.244141 0.421875)"/>
      <use xlink:href="#ArialMT-6c" transform="translate(555.859375 0.421875)"/>
      <use xlink:href="#ArialMT-65" transform="translate(578.076172 0.421875)"/>
      <use xlink:href="#ArialMT-20" transform="translate(633.691406 0.421875)"/>
      <use xlink:href="#ArialMT-2d" transform="translate(661.474609 0.421875)"/>
      <use xlink:href="#ArialMT-20" transform="translate(694.775391 0.421875)"/>
      <use xlink:href="#DejaVuSans-Oblique-79" transform="translate(722.558594 0.421875)"/>
     </g>
    </g>
   </g>
   <g id="line2d_17">
    <path d="M 62.934268 158.174524 
L 63.267237 176.420762 
L 63.600205 208.090406 
L 63.933174 228.162896 
L 64.266142 240.478365 
L 64.599111 233.228313 
L 64.932079 167.892487 
L 65.598016 218.218188 
L 65.930984 219.0455 
L 66.263953 220.751237 
L 66.596921 229.870834 
L 66.92989 229.261843 
L 67.262858 157.359179 
L 67.595827 142.837984 
L 67.928795 190.448216 
L 68.261764 188.427515 
L 68.594732 165.663349 
L 69.260669 197.491043 
L 69.593638 177.115006 
L 69.926606 95.492462 
L 70.259574 156.426481 
L 70.592543 161.712704 
L 70.925511 184.701917 
L 71.25848 174.663044 
L 71.591448 199.180421 
L 71.924417 189.457975 
L 72.257385 153.605921 
L 72.590354 153.959199 
L 72.923322 159.424564 
L 73.256291 182.28623 
L 73.589259 160.877139 
L 73.922228 174.990217 
L 74.255196 118.964445 
L 74.588165 43.487064 
L 74.921133 126.065717 
L 75.254101 161.157 
L 75.58707 176.179308 
L 75.920038 173.235503 
L 76.253007 197.98764 
L 76.585975 201.157184 
L 77.251912 221.010908 
L 77.584881 208.439495 
L 77.917849 214.247484 
L 78.583786 245.131565 
L 78.916755 250.246742 
L 79.249723 211.474286 
L 79.582692 219.23473 
L 79.91566 247.575313 
L 80.248628 233.294169 
L 80.581597 233.807694 
L 80.914565 230.348264 
L 81.247534 246.933169 
L 81.580502 246.51714 
L 81.913471 239.745536 
L 82.246439 249.139222 
L 82.579408 245.492828 
L 83.245345 252.56767 
L 83.578313 234.326865 
L 83.911282 249.497776 
L 84.24425 243.723807 
L 84.577219 92.061744 
L 84.910187 105.355894 
L 85.243156 137.008819 
L 85.909092 170.386184 
L 86.242061 156.408693 
L 86.907998 165.220912 
L 87.240966 162.794122 
L 87.573935 163.076305 
L 87.906903 159.834797 
L 88.239872 168.1385 
L 88.57284 118.598608 
L 88.905809 114.271053 
L 89.238777 132.931691 
L 89.904714 199.192422 
L 90.237683 217.053397 
L 90.570651 224.839157 
L 90.903619 221.753421 
L 91.236588 228.059556 
L 91.569556 238.616444 
L 91.902525 245.46084 
L 92.235493 249.416574 
L 92.568462 248.057086 
L 92.90143 258.025609 
L 93.234399 247.253149 
L 93.567367 247.37509 
L 93.900336 255.58621 
L 94.233304 258.995174 
L 94.566273 261.114794 
L 94.899241 272.513017 
L 95.23221 271.02451 
L 95.565178 259.365744 
L 95.898146 259.898159 
L 96.231115 264.643803 
L 96.564083 259.494699 
L 96.897052 233.294169 
L 97.23002 262.226587 
L 97.562989 261.817894 
L 97.895957 253.708856 
L 98.228926 256.104157 
L 98.561894 248.328135 
L 98.894863 252.050129 
L 99.227831 261.442602 
L 99.5608 277.956615 
L 99.893768 268.077915 
L 100.226737 251.878868 
L 100.559705 250.56631 
L 100.892673 246.757552 
L 101.225642 234.251147 
L 101.55861 204.08216 
L 101.891579 232.267453 
L 102.224547 241.339819 
L 102.890484 256.050772 
L 103.223453 254.412198 
L 103.556421 255.244042 
L 103.88939 262.715591 
L 104.222358 261.577363 
L 104.555327 209.622125 
L 104.888295 224.8185 
L 105.221264 247.653407 
L 105.554232 255.507028 
L 105.887201 266.221982 
L 106.220169 270.333578 
L 106.553137 277.893021 
L 106.886106 272.702423 
L 107.219074 272.080244 
L 107.552043 269.51049 
L 107.885011 262.378857 
L 108.21798 266.404327 
L 108.550948 275.136428 
L 108.883917 288.807148 
L 109.216885 285.933526 
L 109.882822 249.54424 
L 110.548759 274.06951 
L 110.881728 275.417017 
L 111.214696 288.887293 
L 111.547664 281.182579 
L 111.880633 280.416606 
L 112.213601 272.683449 
L 112.54657 272.968875 
L 112.879538 264.611812 
L 113.545475 280.327303 
L 113.878444 278.597317 
L 114.211412 271.651402 
L 114.544381 267.309832 
L 114.877349 280.640605 
L 115.210318 277.219955 
L 115.543286 269.830861 
L 115.876255 266.955625 
L 116.542191 281.478767 
L 116.87516 271.318482 
L 117.208128 269.016416 
L 117.541097 277.282649 
L 117.874065 277.744966 
L 118.207034 285.908416 
L 118.540002 268.336744 
L 118.872971 273.544958 
L 119.205939 245.216319 
L 119.538908 255.59942 
L 119.871876 270.64143 
L 120.204845 267.752088 
L 120.537813 284.620772 
L 120.870782 286.872102 
L 121.536718 274.996756 
L 121.869687 282.588764 
L 122.202655 283.438728 
L 122.535624 285.933526 
L 122.868592 295.078055 
L 123.201561 289.506302 
L 123.534529 287.077514 
L 123.867498 281.046501 
L 124.200466 279.465337 
L 124.533435 285.037881 
L 124.866403 278.856051 
L 125.199372 282.752841 
L 125.53234 283.893566 
L 125.865309 276.35087 
L 126.198277 274.442164 
L 126.531246 263.866192 
L 126.864214 233.426158 
L 127.197182 245.1104 
L 127.530151 245.986036 
L 127.863119 262.838637 
L 128.196088 266.155849 
L 128.529056 264.388478 
L 128.862025 264.531928 
L 129.194993 267.191468 
L 129.527962 264.739907 
L 129.86093 274.383128 
L 130.193899 273.198466 
L 130.526867 261.652398 
L 130.859836 265.304444 
L 131.192804 258.388619 
L 131.858741 220.373785 
L 132.191709 250.673315 
L 132.524678 250.756709 
L 132.857646 256.452638 
L 133.190615 268.21578 
L 133.523583 270.568813 
L 133.856552 260.759763 
L 134.18952 260.378134 
L 134.522489 258.458749 
L 134.855457 258.825117 
L 135.188426 257.348969 
L 135.521394 261.114794 
L 135.854363 266.771143 
L 136.187331 252.76633 
L 136.5203 216.600035 
L 136.853268 232.892234 
L 137.186236 226.364966 
L 137.519205 246.495345 
L 137.852173 237.531741 
L 138.185142 246.018382 
L 138.51811 258.192805 
L 138.851079 245.717349 
L 139.184047 248.339463 
L 139.517016 220.354991 
L 139.849984 216.571122 
L 140.182953 246.310492 
L 140.515921 254.567057 
L 140.84889 245.953713 
L 141.181858 249.474561 
L 141.514827 229.156073 
L 141.847795 196.031839 
L 142.180763 210.05825 
L 142.513732 236.330629 
L 143.179669 246.889204 
L 143.512637 237.468705 
L 143.845606 241.860387 
L 144.178574 218.5305 
L 144.511543 237.721358 
L 144.844511 242.018674 
L 145.17748 229.04301 
L 145.510448 169.076338 
L 145.843417 231.531641 
L 146.176385 227.291632 
L 146.509354 177.331077 
L 146.842322 93.473125 
L 147.17529 187.26342 
L 147.508259 227.197419 
L 147.841227 232.002199 
L 148.174196 216.901792 
L 148.507164 228.930216 
L 148.840133 178.830299 
L 149.173101 188.018388 
L 149.50607 141.770613 
L 149.839038 228.4966 
L 150.172007 237.694223 
L 150.504975 197.816345 
L 150.837944 242.536803 
L 151.170912 190.996619 
L 151.503881 188.332052 
L 151.836849 232.186915 
L 152.169818 256.090805 
L 152.502786 252.76633 
L 152.835754 240.039205 
L 153.168723 248.886407 
L 153.501691 204.707527 
L 153.83466 176.827611 
L 154.167628 224.825385 
L 154.500597 240.660956 
L 154.833565 234.225934 
L 155.166534 214.951638 
L 155.499502 238.194188 
L 155.832471 178.318393 
L 156.165439 174.352306 
L 156.498408 220.89673 
L 156.831376 248.486969 
L 157.164345 252.990826 
L 157.497313 245.195116 
L 157.830281 252.753889 
L 158.16325 215.265498 
L 158.496218 212.03285 
L 158.829187 130.436075 
L 159.162155 227.393303 
L 159.495124 241.496368 
L 159.828092 241.057391 
L 160.161061 252.332841 
L 160.494029 191.286762 
L 161.492935 247.675743 
L 161.825903 248.079614 
L 162.158872 240.805607 
L 162.49184 238.986718 
L 162.824808 206.569382 
L 163.157777 148.749594 
L 163.490745 222.757562 
L 164.156682 240.641703 
L 164.489651 237.324936 
L 164.822619 242.506756 
L 165.155588 183.036111 
L 165.488556 184.508035 
L 165.821525 224.970197 
L 166.154493 245.846128 
L 166.487462 240.632079 
L 166.82043 224.162196 
L 167.153399 250.900014 
L 167.486367 204.438498 
L 167.819335 211.671899 
L 168.485272 248.498335 
L 168.818241 246.856256 
L 169.151209 251.091767 
L 169.484178 258.053434 
L 169.817146 208.488185 
L 170.150115 184.57551 
L 170.483083 233.228313 
L 170.816052 250.258539 
L 171.481989 220.267387 
L 171.814957 245.4715 
L 172.147926 194.871265 
L 172.480894 174.932738 
L 172.813863 224.067243 
L 173.146831 235.159313 
L 173.479799 241.427814 
L 173.812768 228.795219 
L 174.145736 233.302408 
L 174.478705 200.502735 
L 174.811673 184.988317 
L 175.144642 186.590747 
L 175.47761 229.748406 
L 175.810579 227.386034 
L 176.143547 171.590472 
L 176.476516 229.329964 
L 176.809484 205.018817 
L 177.142453 204.375944 
L 177.475421 196.771006 
L 177.80839 226.721984 
L 178.141358 230.971523 
L 178.474326 243.41659 
L 178.807295 250.424013 
L 179.140263 202.156185 
L 179.473232 200.519192 
L 179.8062 226.793712 
L 180.139169 239.660618 
L 181.138074 254.129602 
L 181.471043 204.8336 
L 181.804011 186.148576 
L 182.13698 234.066566 
L 182.469948 235.468834 
L 182.802917 218.584764 
L 183.135885 231.882121 
L 183.468853 239.014606 
L 184.13479 162.983295 
L 184.467759 211.67711 
L 185.133696 214.346649 
L 185.466664 201.069676 
L 185.799633 205.633864 
L 186.132601 163.461447 
L 186.46557 193.752793 
L 186.798538 211.64585 
L 187.131507 213.945765 
L 187.464475 218.224175 
L 187.797444 210.078399 
L 188.46338 98.545363 
L 189.129317 203.728491 
L 189.462286 224.202949 
L 190.128223 233.23654 
L 190.461191 242.707432 
L 190.79416 218.663256 
L 191.127128 168.732956 
L 191.460097 216.681088 
L 191.793065 223.514889 
L 192.126034 236.533116 
L 192.459002 238.847525 
L 192.791971 242.516769 
L 193.124939 238.930992 
L 193.457907 164.807687 
L 193.790876 233.442683 
L 194.123844 239.982223 
L 194.456813 241.242239 
L 194.789781 236.87846 
L 195.12275 238.203327 
L 195.455718 188.322516 
L 195.788687 168.492187 
L 196.121655 223.074957 
L 196.454624 239.238305 
L 197.453529 259.782533 
L 197.786498 262.333125 
L 198.119466 260.086658 
L 198.785403 265.336908 
L 199.118371 271.595752 
L 199.45134 269.192278 
L 199.784308 272.778399 
L 200.117277 272.531923 
L 200.450245 265.711858 
L 200.783214 263.850455 
L 201.116182 268.35405 
L 201.449151 271.171267 
L 201.782119 270.207396 
L 202.115088 275.800502 
L 202.448056 279.137957 
L 202.781025 271.540167 
L 203.113993 255.126175 
L 203.446962 265.190995 
L 204.112898 270.243413 
L 204.445867 276.268928 
L 204.778835 274.619717 
L 205.111804 271.949314 
L 205.444772 271.800123 
L 205.777741 271.429194 
L 206.110709 267.923295 
L 206.776646 283.701521 
L 207.109615 287.077514 
L 207.442583 275.59828 
L 207.775552 273.448455 
L 208.441489 246.191266 
L 209.107425 271.11618 
L 209.440394 268.701505 
L 209.773362 271.503147 
L 210.106331 269.386486 
L 210.772268 238.634889 
L 211.105236 263.256301 
L 211.438205 272.136468 
L 211.771173 243.713534 
L 212.43711 270.478199 
L 212.770079 274.599956 
L 213.103047 274.857496 
L 213.436016 274.897243 
L 213.768984 275.116449 
L 214.101952 288.673874 
L 214.434921 276.268928 
L 214.767889 283.224799 
L 215.100858 279.246831 
L 215.433826 285.958649 
L 215.766795 290.133534 
L 216.099763 290.464123 
L 216.7657 281.137176 
L 217.098669 279.443441 
L 217.431637 284.59635 
L 217.764606 260.539216 
L 218.430543 293.993207 
L 218.763511 294.082665 
L 219.429448 284.280015 
L 219.762416 284.523162 
L 220.095385 281.182579 
L 220.428353 271.097832 
L 220.761322 296.658884 
L 221.09429 286.059276 
L 221.427259 279.159711 
L 221.760227 276.824815 
L 222.093196 263.599373 
L 222.426164 265.09397 
L 222.759133 256.077457 
L 223.42507 273.8551 
L 223.758038 249.800612 
L 224.423975 274.659264 
L 224.756943 253.354775 
L 225.089912 268.858698 
L 225.42288 289.587644 
L 225.755849 285.458709 
L 226.088817 272.816433 
L 226.421786 277.282649 
L 226.754754 277.597373 
L 227.087723 277.094817 
L 227.420691 283.917627 
L 227.75366 298.852508 
L 228.086628 297.165938 
L 228.419597 288.994366 
L 228.752565 283.581889 
L 229.085534 282.541989 
L 229.418502 280.798039 
L 229.75147 282.964638 
L 230.084439 299.38381 
L 230.417407 302.883112 
L 231.083344 284.231535 
L 231.416313 287.439149 
L 231.749281 283.725484 
L 232.08225 292.152705 
L 232.415218 309.928767 
L 233.081155 299.38381 
L 233.414124 290.106089 
L 233.747092 285.359352 
L 234.080061 282.425255 
L 234.413029 291.216522 
L 235.078966 297.775223 
L 235.744903 286.008936 
L 236.077871 294.743922 
L 236.41084 298.066599 
L 236.743808 297.070449 
L 237.076777 297.517723 
L 237.409745 300.533076 
L 238.075682 265.385646 
L 238.408651 282.308809 
L 239.074588 295.59914 
L 239.407556 296.313416 
L 239.740524 292.267453 
L 240.073493 291.329015 
L 240.406461 289.182329 
L 241.072398 297.969274 
L 241.405367 296.001532 
L 241.738335 297.646297 
L 242.071304 302.34673 
L 242.404272 297.710716 
L 242.737241 295.691696 
L 243.070209 292.700261 
L 243.403178 284.59635 
L 243.736146 282.053633 
L 244.069115 298.687695 
L 244.402083 298.654801 
L 244.735052 296.848391 
L 245.06802 298.099086 
L 245.400988 296.219634 
L 245.733957 287.206352 
L 246.066925 287.751342 
L 246.399894 306.043372 
L 246.732862 304.679005 
L 247.065831 296.094881 
L 247.731768 286.413167 
L 248.064736 291.554808 
L 248.397705 289.047993 
L 248.730673 295.445282 
L 249.063642 294.653203 
L 249.39661 283.869518 
L 249.729579 281.822846 
L 250.062547 275.517632 
L 250.395515 266.972432 
L 250.728484 283.4864 
L 251.061452 291.63976 
L 251.394421 291.952564 
L 251.727389 283.153704 
L 252.393326 328.576051 
L 252.726295 280.820573 
L 253.059263 272.305544 
L 253.392232 281.455917 
L 253.7252 239.126323 
L 254.058169 239.163621 
L 254.391137 271.189644 
L 254.724106 273.81622 
L 255.390042 290.658041 
L 255.723011 281.228026 
L 256.055979 286.489347 
L 256.721916 268.25031 
L 257.054885 233.023102 
L 257.387853 250.199582 
L 258.386759 272.267919 
L 258.719727 271.521654 
L 259.052696 274.698844 
L 259.385664 275.17641 
L 259.718633 274.089051 
L 260.051601 278.618824 
L 260.384569 277.597373 
L 260.717538 256.953029 
L 261.050506 252.222013 
L 261.383475 266.938824 
L 261.716443 273.160123 
L 262.049412 272.702423 
L 262.38238 273.026168 
L 262.715349 285.633086 
L 263.048317 241.771583 
L 263.381286 273.99143 
L 263.714254 279.839133 
L 264.380191 265.711858 
L 264.71316 264.436247 
L 265.046128 273.160123 
L 265.379097 230.963681 
L 265.712065 265.711858 
L 266.045033 259.624007 
L 266.378002 262.378857 
L 266.71097 236.771931 
L 267.043939 128.560693 
L 267.376907 207.859105 
L 267.709876 209.832166 
L 268.042844 178.077297 
L 268.375813 227.860894 
L 268.708781 240.153375 
L 269.374718 220.656591 
L 269.707687 239.144968 
L 270.040655 150.086707 
L 270.373624 153.816652 
L 270.706592 210.033076 
L 271.03956 240.14385 
L 271.372529 245.932177 
L 271.705497 247.120481 
L 272.038466 258.039519 
L 272.371434 229.603434 
L 272.704403 229.420945 
L 273.037371 131.023633 
L 273.37034 138.60725 
L 274.036277 222.226749 
L 274.369245 220.361255 
L 275.035182 162.008498 
L 275.368151 200.990641 
L 275.701119 208.580833 
L 276.367056 236.842924 
L 276.700024 229.694943 
L 277.032993 171.932891 
L 277.365961 158.455656 
L 277.69893 207.357051 
L 278.031898 228.885175 
L 278.364867 227.546222 
L 278.697835 207.03946 
L 279.030804 239.228963 
L 279.696741 196.976704 
L 280.029709 215.570137 
L 280.362678 212.333122 
L 280.695646 195.78924 
L 281.361583 226.265483 
L 281.694551 207.105646 
L 282.02752 120.286473 
L 282.360488 201.479442 
L 282.693457 232.114549 
L 283.026425 236.940713 
L 283.359394 243.58019 
L 283.692362 255.191621 
L 284.025331 214.093641 
L 284.358299 204.184332 
L 284.691268 240.478365 
L 285.024236 255.322785 
L 285.357205 259.638396 
L 285.690173 262.120289 
L 286.023141 266.404327 
L 286.689078 226.815252 
L 287.022047 249.859073 
L 287.355015 258.543044 
L 287.687984 253.291825 
L 288.020952 256.722461 
L 288.353921 272.230324 
L 288.686889 237.065466 
L 289.019858 188.081587 
L 289.685795 246.911181 
L 290.018763 249.43976 
L 290.351732 234.352132 
L 290.6847 242.737607 
L 291.017669 221.393508 
L 291.350637 128.767329 
L 291.683605 209.622125 
L 292.016574 243.41659 
L 292.349542 243.223049 
L 292.682511 237.127966 
L 293.015479 246.582586 
L 293.348448 229.413356 
L 293.681416 151.38423 
L 294.014385 230.697834 
L 294.347353 254.943409 
L 294.680322 253.708856 
L 295.01329 251.175904 
L 295.346259 256.144235 
L 295.679227 225.337661 
L 296.012196 178.916159 
L 297.011101 236.816289 
L 297.344069 241.135134 
L 298.010006 220.808116 
L 298.342975 186.178938 
L 298.675943 223.334421 
L 299.008912 240.115287 
L 299.34188 234.335286 
L 299.674849 207.376079 
L 300.007817 221.489645 
L 300.340786 215.694815 
L 300.673754 205.725667 
L 301.672659 258.039519 
L 302.005628 250.388505 
L 302.338596 259.537762 
L 302.671565 192.451622 
L 303.004533 174.229525 
L 303.337502 219.906174 
L 303.67047 236.834044 
L 304.003439 230.363746 
L 304.336407 241.076815 
L 304.669376 240.286924 
L 305.335313 162.827451 
L 305.668281 208.585714 
L 306.00125 224.708481 
L 306.334218 224.839157 
L 306.667186 220.58101 
L 307.000155 221.98625 
L 307.333123 235.710983 
L 307.99906 217.352196 
L 308.332029 226.067143 
L 308.664997 223.837433 
L 308.997966 220.204911 
L 309.330934 223.898156 
L 309.663903 136.991669 
L 309.996871 107.987288 
L 310.32984 177.404162 
L 310.662808 188.376577 
L 310.995777 181.752268 
L 311.328745 185.04462 
L 311.661714 196.422609 
L 311.994682 98.729449 
L 312.32765 76.387483 
L 312.660619 144.109133 
L 312.993587 169.526713 
L 313.326556 182.345 
L 313.659524 176.034536 
L 313.992493 199.43309 
L 314.325461 193.784894 
L 314.65843 163.158305 
L 314.991398 169.736366 
L 315.324367 168.184123 
L 315.657335 151.768085 
L 315.990304 148.336243 
L 316.323272 158.389852 
L 316.989209 35.3085 
L 317.322177 133.517482 
L 317.655146 177.037362 
L 317.988114 203.237764 
L 318.321083 212.069623 
L 318.654051 226.593146 
L 319.652957 249.486167 
L 319.985925 253.015836 
L 320.318894 257.970008 
L 320.984831 275.537781 
L 321.317799 277.073992 
L 321.650768 271.949314 
L 321.983736 269.634821 
L 322.316704 268.198525 
L 322.649673 267.683778 
L 322.982641 275.820772 
L 323.31561 287.361422 
L 323.648578 285.062532 
L 323.981547 273.487032 
L 324.314515 279.094477 
L 324.647484 264.900515 
L 325.313421 279.051037 
L 325.646389 295.445282 
L 325.979358 292.324932 
L 326.312326 270.405833 
L 326.645295 268.963785 
L 326.978263 283.797446 
L 327.311231 277.660571 
L 327.6442 269.386486 
L 327.977168 296.001532 
L 328.310137 288.302695 
L 328.643105 285.235451 
L 328.976074 279.750914 
L 329.309042 264.723876 
L 329.642011 263.960724 
L 329.974979 280.640605 
L 330.307948 288.408449 
L 330.640916 290.160995 
L 330.973885 283.272255 
L 331.306853 282.588764 
L 331.639822 285.508465 
L 331.97279 282.215858 
L 332.305759 283.272255 
L 332.638727 295.017127 
L 332.971695 292.440101 
L 333.304664 259.768099 
L 333.637632 267.769181 
L 333.970601 278.769649 
L 334.303569 243.437009 
L 334.969506 296.816754 
L 335.302475 299.017899 
L 335.635443 290.741394 
L 335.968412 285.88332 
L 336.30138 283.749459 
L 336.634349 282.635585 
L 336.967317 289.452152 
L 337.300286 303.974508 
L 337.633254 288.355542 
L 337.966222 290.188472 
L 338.299191 289.182329 
L 338.632159 290.797043 
L 338.965128 286.744172 
L 339.298096 292.00966 
L 339.631065 304.011326 
L 339.964033 304.866159 
L 340.62997 286.974696 
L 340.962939 282.239079 
L 341.628876 292.874501 
L 341.961844 303.135524 
L 342.294813 259.854766 
L 342.627781 287.051789 
L 342.960749 271.447672 
L 343.293718 278.748073 
L 343.626686 271.967996 
L 343.959655 279.399679 
L 344.292623 299.65172 
L 344.625592 292.382481 
L 344.95856 278.597317 
L 345.291529 272.380883 
L 345.624497 282.495261 
L 345.957466 287.129007 
L 346.290434 279.465337 
L 346.623403 300.022596 
L 347.622308 246.462671 
L 347.955276 268.806242 
L 348.288245 263.039273 
L 348.621213 228.742825 
L 348.954182 260.305096 
L 349.28715 278.126621 
L 349.620119 270.387759 
L 350.286056 275.457237 
L 350.619024 279.883304 
L 350.951993 281.433078 
L 351.284961 294.804497 
L 351.61793 283.557998 
L 351.950898 268.406005 
L 352.283867 271.02451 
L 352.949803 288.170835 
L 353.282772 286.66758 
L 353.61574 309.720478 
L 353.948709 308.28763 
L 354.281677 300.533076 
L 354.614646 287.387317 
L 354.947614 249.451358 
L 355.280583 263.50556 
L 355.613551 287.908215 
L 355.94652 272.117719 
L 356.279488 304.232838 
L 356.945425 281.593182 
L 357.278394 288.914038 
L 357.611362 283.605791 
L 357.944331 299.75258 
L 358.277299 306.507064 
L 358.610267 306.468249 
L 358.943236 302.275671 
L 359.276204 292.440101 
L 359.609173 290.63029 
L 359.942141 277.956615 
L 360.27511 294.834815 
L 360.941047 297.904502 
L 361.274015 294.023007 
L 361.606984 298.753552 
L 361.939952 300.773202 
L 362.272921 300.876488 
L 362.605889 294.7742 
L 362.938858 312.546754 
L 363.271826 309.347858 
L 363.604794 288.673874 
L 363.937763 301.781227 
L 364.270731 300.807606 
L 364.6037 306.043372 
L 364.936668 307.64682 
L 365.269637 316.791939 
L 365.602605 317.326041 
L 365.935574 277.240844 
L 366.601511 300.807606 
L 366.934479 298.523455 
L 367.600416 318.263054 
L 367.933385 314.66779 
L 368.599321 296.532966 
L 368.93229 300.670141 
L 369.265258 280.371933 
L 369.598227 285.88332 
L 369.931195 301.466083 
L 370.597132 297.485634 
L 370.930101 286.872102 
L 371.263069 291.441777 
L 371.596038 253.607418 
L 371.929006 288.118194 
L 372.261975 300.773202 
L 372.594943 299.283735 
L 373.26088 280.438958 
L 373.593848 279.684858 
L 373.926817 267.752088 
L 374.259785 273.564282 
L 374.592754 289.832514 
L 374.925722 294.262091 
L 375.258691 254.103996 
L 375.591659 253.00333 
L 375.924628 267.871868 
L 376.590565 284.086395 
L 376.923533 284.620772 
L 377.256502 280.305004 
L 377.58947 251.380863 
L 377.922439 273.467739 
L 378.255407 281.984279 
L 378.588376 278.318611 
L 378.921344 261.397767 
L 379.254312 281.114491 
L 379.587281 271.893312 
L 379.920249 246.528042 
L 380.253218 235.391263 
L 380.586186 255.798014 
L 380.919155 262.424634 
L 381.252123 266.371121 
L 381.585092 274.324166 
L 382.251029 250.923941 
L 382.583997 254.761347 
L 382.916966 264.150359 
L 383.249934 269.492755 
L 383.582903 271.856014 
L 383.915871 265.12629 
L 384.248839 239.688907 
L 384.581808 247.341803 
L 384.914776 267.360651 
L 385.247745 271.874659 
L 385.913682 238.801218 
L 386.24665 262.915704 
L 386.579619 265.450708 
L 386.912587 246.484451 
L 387.245556 252.209715 
L 387.578524 243.11136 
L 387.911493 240.902288 
L 388.244461 224.543931 
L 388.57743 260.583243 
L 388.910398 228.742825 
L 389.243366 136.561738 
L 389.576335 166.89682 
L 389.909303 226.714817 
L 390.242272 230.433476 
L 390.57524 214.291532 
L 390.908209 234.817764 
L 391.241177 171.55035 
L 391.574146 183.490102 
L 392.240083 235.159313 
L 392.573051 222.187666 
L 392.90602 216.179643 
L 393.238988 254.761347 
L 393.571957 209.288983 
L 393.904925 188.262168 
L 394.237893 243.253555 
L 394.570862 256.735993 
L 394.90383 255.454314 
L 395.236799 224.550775 
L 395.569767 254.116797 
L 395.902736 248.294169 
L 396.235704 236.286725 
L 396.568673 231.050012 
L 396.901641 251.586716 
L 397.23461 251.19997 
L 397.567578 246.867236 
L 397.900547 262.501028 
L 398.233515 206.016019 
L 398.566484 171.396865 
L 398.899452 224.243737 
L 399.23242 232.388517 
L 399.565389 245.248142 
L 399.898357 236.763064 
L 400.231326 263.194191 
L 400.564294 211.870342 
L 400.897263 196.249369 
L 401.230231 240.497552 
L 401.5632 249.370235 
L 401.896168 248.794808 
L 402.229137 241.673108 
L 402.562105 254.670579 
L 402.895074 231.089305 
L 403.228042 109.55001 
L 403.561011 188.258994 
L 403.893979 222.678546 
L 404.226948 228.000606 
L 404.559916 176.50977 
L 404.892884 243.662203 
L 405.225853 226.230004 
L 405.558821 198.92114 
L 405.89179 228.266463 
L 406.224758 237.957181 
L 406.557727 242.028585 
L 406.890695 239.079742 
L 407.223664 262.01423 
L 407.556632 212.688533 
L 407.889601 195.503458 
L 408.222569 214.159512 
L 408.555538 251.915515 
L 408.888506 255.217824 
L 409.221475 254.943409 
L 409.554443 278.618824 
L 410.22038 215.395011 
L 410.553348 246.093941 
L 410.886317 253.874157 
L 411.552254 261.953732 
L 411.885222 284.328544 
L 412.218191 245.343737 
L 412.551159 230.573246 
L 412.884128 252.30819 
L 413.217096 264.531928 
L 413.550065 263.913434 
L 413.883033 260.348906 
L 414.216002 286.438547 
L 414.881938 213.43452 
L 415.214907 254.027258 
L 415.547875 265.679135 
L 415.880844 258.109133 
L 416.213812 266.354527 
L 416.546781 279.905405 
L 416.879749 265.793764 
L 417.212718 210.234845 
L 417.545686 250.613838 
L 417.878655 250.792495 
L 418.211623 249.952762 
L 418.544592 245.846128 
L 418.87756 277.871842 
L 419.210529 258.924242 
L 419.543497 228.960268 
L 420.209434 258.514929 
L 420.542402 253.028346 
L 420.875371 259.123119 
L 421.208339 277.766088 
L 421.541308 244.08477 
L 421.874276 224.060467 
L 422.540213 255.944183 
L 422.873182 259.337135 
L 423.539119 286.693097 
L 424.205056 246.911181 
L 424.538024 214.088156 
L 424.870993 255.705233 
L 425.203961 263.396348 
L 425.536929 259.294254 
L 425.869898 272.930719 
L 426.202866 245.846128 
L 426.535835 228.840176 
L 427.201772 267.78628 
L 427.53474 271.410724 
L 427.867709 249.905894 
L 428.200677 243.569949 
L 428.533646 220.036639 
L 428.866614 222.207203 
L 429.532551 240.55516 
L 429.86552 244.417226 
L 430.198488 241.870265 
L 430.531456 249.6606 
L 430.864425 175.08377 
L 431.197393 136.91243 
L 431.86333 211.750132 
L 432.196299 226.414786 
L 432.529267 227.19018 
L 432.862236 243.867861 
L 433.195204 222.671967 
L 433.528173 181.09047 
L 433.861141 219.210271 
L 434.19411 232.949444 
L 434.527078 236.550764 
L 434.860047 245.439527 
L 435.193015 267.769181 
L 435.525983 260.130265 
L 435.858952 247.219947 
L 436.19192 249.83568 
L 436.524889 251.043755 
L 436.857857 246.999194 
L 437.190826 235.919532 
L 437.523794 260.334298 
L 438.189731 156.355368 
L 438.5227 204.046674 
L 438.855668 230.448986 
L 439.521605 253.141086 
L 439.854574 269.634821 
L 440.187542 273.007063 
L 440.52051 267.411524 
L 440.853479 244.5948 
L 441.519416 270.914741 
L 441.852384 268.423337 
L 442.185353 273.17929 
L 442.518321 287.413226 
L 442.85129 254.541211 
L 443.184258 272.588688 
L 443.517227 273.429178 
L 444.183164 278.169218 
L 444.516132 261.278414 
L 444.849101 294.834815 
L 445.182069 288.540975 
L 445.515037 285.858237 
L 445.848006 278.489928 
L 446.180974 287.594987 
L 446.513943 292.584457 
L 446.846911 309.389116 
L 447.17988 308.896391 
L 447.845817 281.961183 
L 448.178785 273.835656 
L 448.511754 244.012356 
L 448.844722 268.095126 
L 449.177691 300.226126 
L 449.510659 301.640903 
L 449.843628 285.111873 
L 450.176596 283.869518 
L 450.509565 279.137957 
L 450.842533 282.729367 
L 451.175501 278.169218 
L 451.50847 304.232838 
L 451.841438 309.471738 
L 452.174407 295.383879 
L 452.507375 288.51444 
L 452.840344 294.7742 
L 453.173312 291.385362 
L 453.506281 297.614121 
L 453.839249 320.039366 
L 454.172218 315.60008 
L 454.505186 296.219634 
L 454.838155 264.563866 
L 455.171123 277.723853 
L 455.504092 298.034135 
L 455.83706 296.943431 
L 456.170028 315.836057 
L 456.502997 270.153421 
L 456.835965 307.329647 
L 457.168934 298.589083 
L 457.834871 303.534918 
L 458.167839 301.326691 
L 458.500808 319.422788 
L 458.833776 320.769034 
L 459.166745 303.937719 
L 459.499713 309.224302 
L 459.832682 307.053857 
L 460.16565 300.328221 
L 460.498619 298.164125 
L 460.831587 325.691553 
L 461.164555 310.054182 
L 461.497524 303.135524 
L 461.830492 300.842034 
L 462.163461 295.476013 
L 462.496429 294.292062 
L 462.829398 298.951673 
L 463.162366 320.298669 
L 463.495335 296.344718 
L 463.828303 281.159872 
L 464.161272 292.23874 
L 464.49424 284.352828 
L 464.827209 288.461415 
L 465.493146 301.675945 
L 465.826114 307.093157 
L 466.159082 295.970457 
L 466.492051 294.592821 
L 467.157988 284.59635 
L 467.490956 275.983246 
L 467.823925 304.567067 
L 468.156893 316.120796 
L 468.489862 295.7535 
L 468.82283 300.945471 
L 469.155799 276.556349 
L 469.488767 294.232139 
L 469.821736 297.646297 
L 470.154704 309.554506 
L 470.487673 314.575565 
L 471.15361 278.985952 
L 471.819546 298.654801 
L 472.152515 296.785138 
L 472.485483 323.638232 
L 472.818452 320.559404 
L 473.15142 304.641663 
L 473.484389 302.560552 
L 473.817357 304.753778 
L 474.150326 228.207254 
L 474.483294 250.97183 
L 474.816263 290.741394 
L 475.149231 303.827523 
L 475.4822 309.430409 
L 475.815168 303.135524 
L 476.148137 291.895536 
L 476.481105 299.283735 
L 476.814073 297.936877 
L 477.147042 324.3128 
L 477.812979 307.886106 
L 478.145947 301.816373 
L 478.478916 303.607899 
L 478.811884 308.207051 
L 479.144853 315.788767 
L 479.81079 334.160887 
L 480.143758 309.347858 
L 480.476727 309.347858 
L 480.809695 315.271681 
L 481.142664 308.651944 
L 481.8086 328.205704 
L 482.141569 333.813432 
L 482.474537 316.551149 
L 482.807506 314.852781 
L 483.140474 311.155302 
L 483.473443 317.374897 
L 483.806411 316.551149 
L 484.13938 337.7085 
L 484.805317 298.523455 
L 485.138285 307.726447 
L 485.471254 295.139062 
L 485.804222 297.614121 
L 486.137191 298.556257 
L 486.470159 289.91442 
L 486.803127 325.925311 
L 487.136096 313.123955 
L 487.469064 310.601533 
L 487.802033 321.244131 
L 488.135001 319.884465 
L 488.800938 336.22816 
L 489.133907 335.005362 
L 489.466875 318.014663 
L 489.799844 316.98546 
L 490.798749 302.098489 
L 491.131718 325.169792 
L 491.464686 312.195028 
L 491.797654 305.318379 
L 492.130623 307.171856 
L 492.463591 301.992498 
L 492.79656 259.88369 
L 493.129528 292.7873 
L 493.462497 309.019091 
L 493.795465 302.169282 
L 494.128434 290.547134 
L 494.461402 291.668111 
L 494.794371 288.994366 
L 495.127339 292.845416 
L 495.460308 302.632042 
L 495.793276 317.767573 
L 496.126245 319.219038 
L 496.459213 297.80751 
L 496.792182 300.807606 
L 497.12515 299.853655 
L 497.458118 296.91173 
L 497.791087 296.407384 
L 498.124055 313.347849 
L 498.457024 319.627421 
L 498.789992 302.811241 
L 499.122961 298.327118 
L 499.455929 298.589083 
L 499.788898 272.456343 
L 500.454835 311.026932 
L 500.787803 307.926105 
L 501.120772 298.852508 
L 501.45374 282.941058 
L 501.786709 285.062532 
L 502.119677 283.893566 
L 502.452645 297.710716 
L 502.785614 295.784433 
L 503.118582 300.945471 
L 503.451551 291.020301 
L 503.784519 275.962907 
L 504.117488 281.639025 
L 504.783425 272.475227 
L 505.116393 300.70447 
L 505.449362 288.860563 
L 505.78233 270.623265 
L 506.115299 266.570708 
L 506.781236 284.013992 
L 507.114204 285.458709 
L 507.447172 297.614121 
L 507.780141 274.089051 
L 508.446078 286.134887 
L 508.779046 279.97177 
L 509.112015 261.025786 
L 509.444983 257.116464 
L 509.777952 277.136493 
L 510.11092 277.513242 
L 510.443889 279.377813 
L 511.109826 260.392755 
L 511.442794 255.034703 
L 511.775763 232.761727 
L 512.108731 271.503147 
L 512.441699 227.378766 
L 512.774668 214.175995 
L 513.107636 244.250706 
L 513.440605 260.759763 
L 513.773573 245.057529 
L 514.106542 182.86309 
L 514.43951 258.782699 
L 514.772479 243.826658 
L 515.105447 238.249051 
L 515.438416 248.920802 
L 515.771384 263.771848 
L 516.104353 258.500878 
L 516.437321 236.656795 
L 516.77029 282.588764 
L 517.103258 244.710058 
L 517.436227 191.401963 
L 517.769195 237.748508 
L 518.102163 257.348969 
L 518.7681 269.581496 
L 519.101069 289.669126 
L 519.434037 246.451785 
L 519.767006 229.847855 
L 520.099974 260.612617 
L 520.432943 273.583614 
L 520.765911 275.983246 
L 521.09888 267.957611 
L 521.431848 294.562658 
L 521.764817 255.997447 
L 522.430754 251.84225 
L 522.763722 271.410724 
L 523.09669 276.432954 
L 523.429659 272.173988 
L 523.762627 294.322052 
L 524.095596 250.058384 
L 524.428564 229.140982 
L 524.761533 245.418224 
L 525.094501 274.639486 
L 525.42747 267.292905 
L 525.760438 270.768778 
L 526.093407 266.888457 
L 526.759344 243.9091 
L 527.092312 261.48748 
L 527.425281 273.083531 
L 527.758249 274.245664 
L 528.091217 259.037784 
L 528.424186 282.053633 
L 528.757154 259.782533 
L 529.090123 198.426488 
L 529.423091 242.767801 
L 529.75606 259.71041 
L 530.089028 264.579842 
L 530.421997 248.66915 
L 530.754965 281.114491 
L 531.420902 209.224615 
L 531.753871 255.270275 
L 532.086839 272.362037 
L 532.419808 266.02386 
L 532.752776 279.640872 
L 533.085744 303.680994 
L 533.418713 268.78877 
L 533.751681 186.996908 
L 534.08465 224.114695 
L 534.417618 246.07234 
L 534.750587 256.398858 
L 535.083555 261.667419 
L 535.416524 284.890245 
L 535.749492 252.062386 
L 536.082461 232.396599 
L 536.748398 261.382831 
L 537.081366 270.189397 
L 537.414335 254.943409 
L 537.747303 283.462558 
L 538.080272 263.147663 
L 538.41324 68.223673 
L 538.746208 97.812373 
L 539.079177 230.557696 
L 539.412145 261.517422 
L 539.745114 260.319695 
L 540.078082 289.723526 
L 540.744019 240.709124 
L 541.076988 265.061673 
L 541.409956 274.659264 
L 541.742925 251.878868 
L 542.075893 270.478199 
L 542.408862 296.721968 
L 542.74183 277.471232 
L 543.074799 249.081645 
L 543.407767 252.990826 
L 543.740735 273.256038 
L 544.073704 283.438728 
L 544.406672 286.413167 
L 544.739641 303.280368 
L 545.072609 269.298111 
L 545.405578 247.164662 
L 545.738546 258.952602 
L 546.404483 294.986693 
L 546.737452 297.134087 
L 547.07042 305.698566 
L 547.403389 222.671967 
L 547.736357 205.113966 
L 548.069326 205.241131 
L 548.402294 245.685209 
L 549.068231 283.557998 
L 549.401199 272.418598 
L 549.734168 252.394525 
L 550.067136 203.011648 
L 550.400105 237.333909 
L 550.733073 247.51961 
L 551.066042 250.199582 
L 551.39901 250.459547 
L 551.731979 274.284899 
L 552.064947 250.864147 
L 552.397916 241.939464 
L 552.730884 257.789756 
L 553.063853 260.996154 
L 553.396821 263.054742 
L 553.729789 263.132163 
L 554.062758 272.797412 
L 554.728695 153.96841 
L 555.061663 211.004391 
L 555.394632 222.077105 
L 555.394632 222.077105 
" clip-path="url(#p509a873050)" style="fill: none; stroke: #1f77b4; stroke-width: 1.2; stroke-linecap: round"/>
   </g>
   <g id="patch_3">
    <path d="M 38.31125 352.8285 
L 38.31125 20.1885 
" style="fill: none; stroke: #ffffff; stroke-linejoin: miter; stroke-linecap: square"/>
   </g>
   <g id="patch_4">
    <path d="M 580.01765 352.8285 
L 580.01765 20.1885 
" style="fill: none; stroke: #ffffff; stroke-linejoin: miter; stroke-linecap: square"/>
   </g>
   <g id="patch_5">
    <path d="M 38.31125 352.8285 
L 580.01765 352.8285 
" style="fill: none; stroke: #ffffff; stroke-linejoin: miter; stroke-linecap: square"/>
   </g>
   <g id="patch_6">
    <path d="M 38.31125 20.1885 
L 580.01765 20.1885 
" style="fill: none; stroke: #ffffff; stroke-linejoin: miter; stroke-linecap: square"/>
   </g>
   <g id="text_18">
    <!-- daily visits ot Peyton Manning wiki on a daily basis (log) -->
    <g style="fill: #262626" transform="translate(191.24945 14.1885) scale(0.096 -0.096)">
     <defs>
      <path id="ArialMT-64" d="M 2575 0 
L 2575 419 
Q 2259 -75 1647 -75 
Q 1250 -75 917 144 
Q 584 363 401 755 
Q 219 1147 219 1656 
Q 219 2153 384 2558 
Q 550 2963 881 3178 
Q 1213 3394 1622 3394 
Q 1922 3394 2156 3267 
Q 2391 3141 2538 2938 
L 2538 4581 
L 3097 4581 
L 3097 0 
L 2575 0 
z
M 797 1656 
Q 797 1019 1065 703 
Q 1334 388 1700 388 
Q 2069 388 2326 689 
Q 2584 991 2584 1609 
Q 2584 2291 2321 2609 
Q 2059 2928 1675 2928 
Q 1300 2928 1048 2622 
Q 797 2316 797 1656 
z
" transform="scale(0.015625)"/>
      <path id="ArialMT-79" d="M 397 -1278 
L 334 -750 
Q 519 -800 656 -800 
Q 844 -800 956 -737 
Q 1069 -675 1141 -563 
Q 1194 -478 1313 -144 
Q 1328 -97 1363 -6 
L 103 3319 
L 709 3319 
L 1400 1397 
Q 1534 1031 1641 628 
Q 1738 1016 1872 1384 
L 2581 3319 
L 3144 3319 
L 1881 -56 
Q 1678 -603 1566 -809 
Q 1416 -1088 1222 -1217 
Q 1028 -1347 759 -1347 
Q 597 -1347 397 -1278 
z
" transform="scale(0.015625)"/>
      <path id="ArialMT-73" d="M 197 991 
L 753 1078 
Q 800 744 1014 566 
Q 1228 388 1613 388 
Q 2000 388 2187 545 
Q 2375 703 2375 916 
Q 2375 1106 2209 1216 
Q 2094 1291 1634 1406 
Q 1016 1563 777 1677 
Q 538 1791 414 1992 
Q 291 2194 291 2438 
Q 291 2659 392 2848 
Q 494 3038 669 3163 
Q 800 3259 1026 3326 
Q 1253 3394 1513 3394 
Q 1903 3394 2198 3281 
Q 2494 3169 2634 2976 
Q 2775 2784 2828 2463 
L 2278 2388 
Q 2241 2644 2061 2787 
Q 1881 2931 1553 2931 
Q 1166 2931 1000 2803 
Q 834 2675 834 2503 
Q 834 2394 903 2306 
Q 972 2216 1119 2156 
Q 1203 2125 1616 2013 
Q 2213 1853 2448 1751 
Q 2684 1650 2818 1456 
Q 2953 1263 2953 975 
Q 2953 694 2789 445 
Q 2625 197 2315 61 
Q 2006 -75 1616 -75 
Q 969 -75 630 194 
Q 291 463 197 991 
z
" transform="scale(0.015625)"/>
      <path id="ArialMT-6f" d="M 213 1659 
Q 213 2581 725 3025 
Q 1153 3394 1769 3394 
Q 2453 3394 2887 2945 
Q 3322 2497 3322 1706 
Q 3322 1066 3130 698 
Q 2938 331 2570 128 
Q 2203 -75 1769 -75 
Q 1072 -75 642 372 
Q 213 819 213 1659 
z
M 791 1659 
Q 791 1022 1069 705 
Q 1347 388 1769 388 
Q 2188 388 2466 706 
Q 2744 1025 2744 1678 
Q 2744 2294 2464 2611 
Q 2184 2928 1769 2928 
Q 1347 2928 1069 2612 
Q 791 2297 791 1659 
z
" transform="scale(0.015625)"/>
      <path id="ArialMT-50" d="M 494 0 
L 494 4581 
L 2222 4581 
Q 2678 4581 2919 4538 
Q 3256 4481 3484 4323 
Q 3713 4166 3852 3881 
Q 3991 3597 3991 3256 
Q 3991 2672 3619 2267 
Q 3247 1863 2275 1863 
L 1100 1863 
L 1100 0 
L 494 0 
z
M 1100 2403 
L 2284 2403 
Q 2872 2403 3119 2622 
Q 3366 2841 3366 3238 
Q 3366 3525 3220 3729 
Q 3075 3934 2838 4000 
Q 2684 4041 2272 4041 
L 1100 4041 
L 1100 2403 
z
" transform="scale(0.015625)"/>
      <path id="ArialMT-6e" d="M 422 0 
L 422 3319 
L 928 3319 
L 928 2847 
Q 1294 3394 1984 3394 
Q 2284 3394 2536 3286 
Q 2788 3178 2913 3003 
Q 3038 2828 3088 2588 
Q 3119 2431 3119 2041 
L 3119 0 
L 2556 0 
L 2556 2019 
Q 2556 2363 2490 2533 
Q 2425 2703 2258 2804 
Q 2091 2906 1866 2906 
Q 1506 2906 1245 2678 
Q 984 2450 984 1813 
L 984 0 
L 422 0 
z
" transform="scale(0.015625)"/>
      <path id="ArialMT-4d" d="M 475 0 
L 475 4581 
L 1388 4581 
L 2472 1338 
Q 2622 884 2691 659 
Q 2769 909 2934 1394 
L 4031 4581 
L 4847 4581 
L 4847 0 
L 4263 0 
L 4263 3834 
L 2931 0 
L 2384 0 
L 1059 3900 
L 1059 0 
L 475 0 
z
" transform="scale(0.015625)"/>
      <path id="ArialMT-77" d="M 1034 0 
L 19 3319 
L 600 3319 
L 1128 1403 
L 1325 691 
Q 1338 744 1497 1375 
L 2025 3319 
L 2603 3319 
L 3100 1394 
L 3266 759 
L 3456 1400 
L 4025 3319 
L 4572 3319 
L 3534 0 
L 2950 0 
L 2422 1988 
L 2294 2553 
L 1622 0 
L 1034 0 
z
" transform="scale(0.015625)"/>
      <path id="ArialMT-6b" d="M 425 0 
L 425 4581 
L 988 4581 
L 988 1969 
L 2319 3319 
L 3047 3319 
L 1778 2088 
L 3175 0 
L 2481 0 
L 1384 1697 
L 988 1316 
L 988 0 
L 425 0 
z
" transform="scale(0.015625)"/>
      <path id="ArialMT-28" d="M 1497 -1347 
Q 1031 -759 709 28 
Q 388 816 388 1659 
Q 388 2403 628 3084 
Q 909 3875 1497 4659 
L 1900 4659 
Q 1522 4009 1400 3731 
Q 1209 3300 1100 2831 
Q 966 2247 966 1656 
Q 966 153 1900 -1347 
L 1497 -1347 
z
" transform="scale(0.015625)"/>
      <path id="ArialMT-29" d="M 791 -1347 
L 388 -1347 
Q 1322 153 1322 1656 
Q 1322 2244 1188 2822 
Q 1081 3291 891 3722 
Q 769 4003 388 4659 
L 791 4659 
Q 1378 3875 1659 3084 
Q 1900 2403 1900 1659 
Q 1900 816 1576 28 
Q 1253 -759 791 -1347 
z
" transform="scale(0.015625)"/>
     </defs>
     <use xlink:href="#ArialMT-64"/>
     <use xlink:href="#ArialMT-61" x="55.615234"/>
     <use xlink:href="#ArialMT-69" x="111.230469"/>
     <use xlink:href="#ArialMT-6c" x="133.447266"/>
     <use xlink:href="#ArialMT-79" x="155.664062"/>
     <use xlink:href="#ArialMT-20" x="205.664062"/>
     <use xlink:href="#ArialMT-76" x="233.447266"/>
     <use xlink:href="#ArialMT-69" x="283.447266"/>
     <use xlink:href="#ArialMT-73" x="305.664062"/>
     <use xlink:href="#ArialMT-69" x="355.664062"/>
     <use xlink:href="#ArialMT-74" x="377.880859"/>
     <use xlink:href="#ArialMT-73" x="405.664062"/>
     <use xlink:href="#ArialMT-20" x="455.664062"/>
     <use xlink:href="#ArialMT-6f" x="483.447266"/>
     <use xlink:href="#ArialMT-74" x="539.0625"/>
     <use xlink:href="#ArialMT-20" x="566.845703"/>
     <use xlink:href="#ArialMT-50" x="594.628906"/>
     <use xlink:href="#ArialMT-65" x="661.328125"/>
     <use xlink:href="#ArialMT-79" x="716.943359"/>
     <use xlink:href="#ArialMT-74" x="766.943359"/>
     <use xlink:href="#ArialMT-6f" x="794.726562"/>
     <use xlink:href="#ArialMT-6e" x="850.341797"/>
     <use xlink:href="#ArialMT-20" x="905.957031"/>
     <use xlink:href="#ArialMT-4d" x="933.740234"/>
     <use xlink:href="#ArialMT-61" x="1017.041016"/>
     <use xlink:href="#ArialMT-6e" x="1072.65625"/>
     <use xlink:href="#ArialMT-6e" x="1128.271484"/>
     <use xlink:href="#ArialMT-69" x="1183.886719"/>
     <use xlink:href="#ArialMT-6e" x="1206.103516"/>
     <use xlink:href="#ArialMT-67" x="1261.71875"/>
     <use xlink:href="#ArialMT-20" x="1317.333984"/>
     <use xlink:href="#ArialMT-77" x="1345.117188"/>
     <use xlink:href="#ArialMT-69" x="1417.333984"/>
     <use xlink:href="#ArialMT-6b" x="1439.550781"/>
     <use xlink:href="#ArialMT-69" x="1489.550781"/>
     <use xlink:href="#ArialMT-20" x="1511.767578"/>
     <use xlink:href="#ArialMT-6f" x="1539.550781"/>
     <use xlink:href="#ArialMT-6e" x="1595.166016"/>
     <use xlink:href="#ArialMT-20" x="1650.78125"/>
     <use xlink:href="#ArialMT-61" x="1678.564453"/>
     <use xlink:href="#ArialMT-20" x="1734.179688"/>
     <use xlink:href="#ArialMT-64" x="1761.962891"/>
     <use xlink:href="#ArialMT-61" x="1817.578125"/>
     <use xlink:href="#ArialMT-69" x="1873.193359"/>
     <use xlink:href="#ArialMT-6c" x="1895.410156"/>
     <use xlink:href="#ArialMT-79" x="1917.626953"/>
     <use xlink:href="#ArialMT-20" x="1967.626953"/>
     <use xlink:href="#ArialMT-62" x="1995.410156"/>
     <use xlink:href="#ArialMT-61" x="2051.025391"/>
     <use xlink:href="#ArialMT-73" x="2106.640625"/>
     <use xlink:href="#ArialMT-69" x="2156.640625"/>
     <use xlink:href="#ArialMT-73" x="2178.857422"/>
     <use xlink:href="#ArialMT-20" x="2228.857422"/>
     <use xlink:href="#ArialMT-28" x="2256.640625"/>
     <use xlink:href="#ArialMT-6c" x="2289.941406"/>
     <use xlink:href="#ArialMT-6f" x="2312.158203"/>
     <use xlink:href="#ArialMT-67" x="2367.773438"/>
     <use xlink:href="#ArialMT-29" x="2423.388672"/>
    </g>
   </g>
  </g>
 </g>
 <defs>
  <clipPath id="p509a873050">
   <rect x="38.31125" y="20.1885" width="541.7064" height="332.64"/>
  </clipPath>
 </defs>
</svg>
