<?xml version="1.0" encoding="utf-8" standalone="no"?>
<!DOCTYPE svg PUBLIC "-//W3C//DTD SVG 1.1//EN"
  "http://www.w3.org/Graphics/SVG/1.1/DTD/svg11.dtd">
<svg xmlns:xlink="http://www.w3.org/1999/xlink" width="586.97315pt" height="396.853011pt" viewBox="0 0 586.97315 396.853011" xmlns="http://www.w3.org/2000/svg" version="1.1">
 <metadata>
  <rdf:RDF xmlns:dc="http://purl.org/dc/elements/1.1/" xmlns:cc="http://creativecommons.org/ns#" xmlns:rdf="http://www.w3.org/1999/02/22-rdf-syntax-ns#">
   <cc:Work>
    <dc:type rdf:resource="http://purl.org/dc/dcmitype/StillImage"/>
    <dc:date>2024-03-20T22:12:20.756607</dc:date>
    <dc:format>image/svg+xml</dc:format>
    <dc:creator>
     <cc:Agent>
      <dc:title>Matplotlib v3.8.3, https://matplotlib.org/</dc:title>
     </cc:Agent>
    </dc:creator>
   </cc:Work>
  </rdf:RDF>
 </metadata>
 <defs>
  <style type="text/css">*{stroke-linejoin: round; stroke-linecap: butt}</style>
 </defs>
 <g id="figure_1">
  <g id="patch_1">
   <path d="M 0 396.853011 
L 586.97315 396.853011 
L 586.97315 0 
L 0 0 
z
" style="fill: #ffffff"/>
  </g>
  <g id="axes_1">
   <g id="patch_2">
    <path d="M 38.06675 352.8285 
L 579.77315 352.8285 
L 579.77315 20.1885 
L 38.06675 20.1885 
z
" style="fill: #eaeaf2"/>
   </g>
   <g id="matplotlib.axis_1">
    <g id="xtick_1">
     <g id="line2d_1">
      <path d="M 62.3568 352.8285 
L 62.3568 20.1885 
" clip-path="url(#pec71f9bc55)" style="fill: none; stroke: #ffffff; stroke-width: 0.8; stroke-linecap: round"/>
     </g>
     <g id="text_1">
      <!-- 2012-01 -->
      <g style="fill: #262626" transform="translate(52.548522 388.416281) rotate(-45) scale(0.088 -0.088)">
       <defs>
        <path id="ArialMT-32" d="M 3222 541 
L 3222 0 
L 194 0 
Q 188 203 259 391 
Q 375 700 629 1000 
Q 884 1300 1366 1694 
Q 2113 2306 2375 2664 
Q 2638 3022 2638 3341 
Q 2638 3675 2398 3904 
Q 2159 4134 1775 4134 
Q 1369 4134 1125 3890 
Q 881 3647 878 3216 
L 300 3275 
Q 359 3922 746 4261 
Q 1134 4600 1788 4600 
Q 2447 4600 2831 4234 
Q 3216 3869 3216 3328 
Q 3216 3053 3103 2787 
Q 2991 2522 2730 2228 
Q 2469 1934 1863 1422 
Q 1356 997 1212 845 
Q 1069 694 975 541 
L 3222 541 
z
" transform="scale(0.015625)"/>
        <path id="ArialMT-30" d="M 266 2259 
Q 266 3072 433 3567 
Q 600 4063 929 4331 
Q 1259 4600 1759 4600 
Q 2128 4600 2406 4451 
Q 2684 4303 2865 4023 
Q 3047 3744 3150 3342 
Q 3253 2941 3253 2259 
Q 3253 1453 3087 958 
Q 2922 463 2592 192 
Q 2263 -78 1759 -78 
Q 1097 -78 719 397 
Q 266 969 266 2259 
z
M 844 2259 
Q 844 1131 1108 757 
Q 1372 384 1759 384 
Q 2147 384 2411 759 
Q 2675 1134 2675 2259 
Q 2675 3391 2411 3762 
Q 2147 4134 1753 4134 
Q 1366 4134 1134 3806 
Q 844 3388 844 2259 
z
" transform="scale(0.015625)"/>
        <path id="ArialMT-31" d="M 2384 0 
L 1822 0 
L 1822 3584 
Q 1619 3391 1289 3197 
Q 959 3003 697 2906 
L 697 3450 
Q 1169 3672 1522 3987 
Q 1875 4303 2022 4600 
L 2384 4600 
L 2384 0 
z
" transform="scale(0.015625)"/>
        <path id="ArialMT-2d" d="M 203 1375 
L 203 1941 
L 1931 1941 
L 1931 1375 
L 203 1375 
z
" transform="scale(0.015625)"/>
       </defs>
       <use xlink:href="#ArialMT-32"/>
       <use xlink:href="#ArialMT-30" x="55.615234"/>
       <use xlink:href="#ArialMT-31" x="111.230469"/>
       <use xlink:href="#ArialMT-32" x="166.845703"/>
       <use xlink:href="#ArialMT-2d" x="222.460938"/>
       <use xlink:href="#ArialMT-30" x="255.761719"/>
       <use xlink:href="#ArialMT-31" x="311.376953"/>
      </g>
     </g>
    </g>
    <g id="xtick_2">
     <g id="line2d_2">
      <path d="M 122.957061 352.8285 
L 122.957061 20.1885 
" clip-path="url(#pec71f9bc55)" style="fill: none; stroke: #ffffff; stroke-width: 0.8; stroke-linecap: round"/>
     </g>
     <g id="text_2">
      <!-- 2012-07 -->
      <g style="fill: #262626" transform="translate(113.148783 388.416281) rotate(-45) scale(0.088 -0.088)">
       <defs>
        <path id="ArialMT-37" d="M 303 3981 
L 303 4522 
L 3269 4522 
L 3269 4084 
Q 2831 3619 2401 2847 
Q 1972 2075 1738 1259 
Q 1569 684 1522 0 
L 944 0 
Q 953 541 1156 1306 
Q 1359 2072 1739 2783 
Q 2119 3494 2547 3981 
L 303 3981 
z
" transform="scale(0.015625)"/>
       </defs>
       <use xlink:href="#ArialMT-32"/>
       <use xlink:href="#ArialMT-30" x="55.615234"/>
       <use xlink:href="#ArialMT-31" x="111.230469"/>
       <use xlink:href="#ArialMT-32" x="166.845703"/>
       <use xlink:href="#ArialMT-2d" x="222.460938"/>
       <use xlink:href="#ArialMT-30" x="255.761719"/>
       <use xlink:href="#ArialMT-37" x="311.376953"/>
      </g>
     </g>
    </g>
    <g id="xtick_3">
     <g id="line2d_3">
      <path d="M 184.223259 352.8285 
L 184.223259 20.1885 
" clip-path="url(#pec71f9bc55)" style="fill: none; stroke: #ffffff; stroke-width: 0.8; stroke-linecap: round"/>
     </g>
     <g id="text_3">
      <!-- 2013-01 -->
      <g style="fill: #262626" transform="translate(174.414981 388.416281) rotate(-45) scale(0.088 -0.088)">
       <defs>
        <path id="ArialMT-33" d="M 269 1209 
L 831 1284 
Q 928 806 1161 595 
Q 1394 384 1728 384 
Q 2125 384 2398 659 
Q 2672 934 2672 1341 
Q 2672 1728 2419 1979 
Q 2166 2231 1775 2231 
Q 1616 2231 1378 2169 
L 1441 2663 
Q 1497 2656 1531 2656 
Q 1891 2656 2178 2843 
Q 2466 3031 2466 3422 
Q 2466 3731 2256 3934 
Q 2047 4138 1716 4138 
Q 1388 4138 1169 3931 
Q 950 3725 888 3313 
L 325 3413 
Q 428 3978 793 4289 
Q 1159 4600 1703 4600 
Q 2078 4600 2393 4439 
Q 2709 4278 2876 4000 
Q 3044 3722 3044 3409 
Q 3044 3113 2884 2869 
Q 2725 2625 2413 2481 
Q 2819 2388 3044 2092 
Q 3269 1797 3269 1353 
Q 3269 753 2831 336 
Q 2394 -81 1725 -81 
Q 1122 -81 723 278 
Q 325 638 269 1209 
z
" transform="scale(0.015625)"/>
       </defs>
       <use xlink:href="#ArialMT-32"/>
       <use xlink:href="#ArialMT-30" x="55.615234"/>
       <use xlink:href="#ArialMT-31" x="111.230469"/>
       <use xlink:href="#ArialMT-33" x="166.845703"/>
       <use xlink:href="#ArialMT-2d" x="222.460938"/>
       <use xlink:href="#ArialMT-30" x="255.761719"/>
       <use xlink:href="#ArialMT-31" x="311.376953"/>
      </g>
     </g>
    </g>
    <g id="xtick_4">
     <g id="line2d_4">
      <path d="M 244.490552 352.8285 
L 244.490552 20.1885 
" clip-path="url(#pec71f9bc55)" style="fill: none; stroke: #ffffff; stroke-width: 0.8; stroke-linecap: round"/>
     </g>
     <g id="text_4">
      <!-- 2013-07 -->
      <g style="fill: #262626" transform="translate(234.682273 388.416281) rotate(-45) scale(0.088 -0.088)">
       <use xlink:href="#ArialMT-32"/>
       <use xlink:href="#ArialMT-30" x="55.615234"/>
       <use xlink:href="#ArialMT-31" x="111.230469"/>
       <use xlink:href="#ArialMT-33" x="166.845703"/>
       <use xlink:href="#ArialMT-2d" x="222.460938"/>
       <use xlink:href="#ArialMT-30" x="255.761719"/>
       <use xlink:href="#ArialMT-37" x="311.376953"/>
      </g>
     </g>
    </g>
    <g id="xtick_5">
     <g id="line2d_5">
      <path d="M 305.75675 352.8285 
L 305.75675 20.1885 
" clip-path="url(#pec71f9bc55)" style="fill: none; stroke: #ffffff; stroke-width: 0.8; stroke-linecap: round"/>
     </g>
     <g id="text_5">
      <!-- 2014-01 -->
      <g style="fill: #262626" transform="translate(295.948471 388.416281) rotate(-45) scale(0.088 -0.088)">
       <defs>
        <path id="ArialMT-34" d="M 2069 0 
L 2069 1097 
L 81 1097 
L 81 1613 
L 2172 4581 
L 2631 4581 
L 2631 1613 
L 3250 1613 
L 3250 1097 
L 2631 1097 
L 2631 0 
L 2069 0 
z
M 2069 1613 
L 2069 3678 
L 634 1613 
L 2069 1613 
z
" transform="scale(0.015625)"/>
       </defs>
       <use xlink:href="#ArialMT-32"/>
       <use xlink:href="#ArialMT-30" x="55.615234"/>
       <use xlink:href="#ArialMT-31" x="111.230469"/>
       <use xlink:href="#ArialMT-34" x="166.845703"/>
       <use xlink:href="#ArialMT-2d" x="222.460938"/>
       <use xlink:href="#ArialMT-30" x="255.761719"/>
       <use xlink:href="#ArialMT-31" x="311.376953"/>
      </g>
     </g>
    </g>
    <g id="xtick_6">
     <g id="line2d_6">
      <path d="M 366.024042 352.8285 
L 366.024042 20.1885 
" clip-path="url(#pec71f9bc55)" style="fill: none; stroke: #ffffff; stroke-width: 0.8; stroke-linecap: round"/>
     </g>
     <g id="text_6">
      <!-- 2014-07 -->
      <g style="fill: #262626" transform="translate(356.215764 388.416281) rotate(-45) scale(0.088 -0.088)">
       <use xlink:href="#ArialMT-32"/>
       <use xlink:href="#ArialMT-30" x="55.615234"/>
       <use xlink:href="#ArialMT-31" x="111.230469"/>
       <use xlink:href="#ArialMT-34" x="166.845703"/>
       <use xlink:href="#ArialMT-2d" x="222.460938"/>
       <use xlink:href="#ArialMT-30" x="255.761719"/>
       <use xlink:href="#ArialMT-37" x="311.376953"/>
      </g>
     </g>
    </g>
    <g id="xtick_7">
     <g id="line2d_7">
      <path d="M 427.29024 352.8285 
L 427.29024 20.1885 
" clip-path="url(#pec71f9bc55)" style="fill: none; stroke: #ffffff; stroke-width: 0.8; stroke-linecap: round"/>
     </g>
     <g id="text_7">
      <!-- 2015-01 -->
      <g style="fill: #262626" transform="translate(417.481962 388.416281) rotate(-45) scale(0.088 -0.088)">
       <defs>
        <path id="ArialMT-35" d="M 266 1200 
L 856 1250 
Q 922 819 1161 601 
Q 1400 384 1738 384 
Q 2144 384 2425 690 
Q 2706 997 2706 1503 
Q 2706 1984 2436 2262 
Q 2166 2541 1728 2541 
Q 1456 2541 1237 2417 
Q 1019 2294 894 2097 
L 366 2166 
L 809 4519 
L 3088 4519 
L 3088 3981 
L 1259 3981 
L 1013 2750 
Q 1425 3038 1878 3038 
Q 2478 3038 2890 2622 
Q 3303 2206 3303 1553 
Q 3303 931 2941 478 
Q 2500 -78 1738 -78 
Q 1113 -78 717 272 
Q 322 622 266 1200 
z
" transform="scale(0.015625)"/>
       </defs>
       <use xlink:href="#ArialMT-32"/>
       <use xlink:href="#ArialMT-30" x="55.615234"/>
       <use xlink:href="#ArialMT-31" x="111.230469"/>
       <use xlink:href="#ArialMT-35" x="166.845703"/>
       <use xlink:href="#ArialMT-2d" x="222.460938"/>
       <use xlink:href="#ArialMT-30" x="255.761719"/>
       <use xlink:href="#ArialMT-31" x="311.376953"/>
      </g>
     </g>
    </g>
    <g id="xtick_8">
     <g id="line2d_8">
      <path d="M 487.557533 352.8285 
L 487.557533 20.1885 
" clip-path="url(#pec71f9bc55)" style="fill: none; stroke: #ffffff; stroke-width: 0.8; stroke-linecap: round"/>
     </g>
     <g id="text_8">
      <!-- 2015-07 -->
      <g style="fill: #262626" transform="translate(477.749255 388.416281) rotate(-45) scale(0.088 -0.088)">
       <use xlink:href="#ArialMT-32"/>
       <use xlink:href="#ArialMT-30" x="55.615234"/>
       <use xlink:href="#ArialMT-31" x="111.230469"/>
       <use xlink:href="#ArialMT-35" x="166.845703"/>
       <use xlink:href="#ArialMT-2d" x="222.460938"/>
       <use xlink:href="#ArialMT-30" x="255.761719"/>
       <use xlink:href="#ArialMT-37" x="311.376953"/>
      </g>
     </g>
    </g>
    <g id="xtick_9">
     <g id="line2d_9">
      <path d="M 548.823731 352.8285 
L 548.823731 20.1885 
" clip-path="url(#pec71f9bc55)" style="fill: none; stroke: #ffffff; stroke-width: 0.8; stroke-linecap: round"/>
     </g>
     <g id="text_9">
      <!-- 2016-01 -->
      <g style="fill: #262626" transform="translate(539.015453 388.416281) rotate(-45) scale(0.088 -0.088)">
       <defs>
        <path id="ArialMT-36" d="M 3184 3459 
L 2625 3416 
Q 2550 3747 2413 3897 
Q 2184 4138 1850 4138 
Q 1581 4138 1378 3988 
Q 1113 3794 959 3422 
Q 806 3050 800 2363 
Q 1003 2672 1297 2822 
Q 1591 2972 1913 2972 
Q 2475 2972 2870 2558 
Q 3266 2144 3266 1488 
Q 3266 1056 3080 686 
Q 2894 316 2569 119 
Q 2244 -78 1831 -78 
Q 1128 -78 684 439 
Q 241 956 241 2144 
Q 241 3472 731 4075 
Q 1159 4600 1884 4600 
Q 2425 4600 2770 4297 
Q 3116 3994 3184 3459 
z
M 888 1484 
Q 888 1194 1011 928 
Q 1134 663 1356 523 
Q 1578 384 1822 384 
Q 2178 384 2434 671 
Q 2691 959 2691 1453 
Q 2691 1928 2437 2201 
Q 2184 2475 1800 2475 
Q 1419 2475 1153 2201 
Q 888 1928 888 1484 
z
" transform="scale(0.015625)"/>
       </defs>
       <use xlink:href="#ArialMT-32"/>
       <use xlink:href="#ArialMT-30" x="55.615234"/>
       <use xlink:href="#ArialMT-31" x="111.230469"/>
       <use xlink:href="#ArialMT-36" x="166.845703"/>
       <use xlink:href="#ArialMT-2d" x="222.460938"/>
       <use xlink:href="#ArialMT-30" x="255.761719"/>
       <use xlink:href="#ArialMT-31" x="311.376953"/>
      </g>
     </g>
    </g>
   </g>
   <g id="matplotlib.axis_2">
    <g id="ytick_1">
     <g id="line2d_10">
      <path d="M 38.06675 311.385825 
L 579.77315 311.385825 
" clip-path="url(#pec71f9bc55)" style="fill: none; stroke: #ffffff; stroke-width: 0.8; stroke-linecap: round"/>
     </g>
     <g id="text_10">
      <!-- 7 -->
      <g style="fill: #262626" transform="translate(24.873125 314.535262) scale(0.088 -0.088)">
       <use xlink:href="#ArialMT-37"/>
      </g>
     </g>
    </g>
    <g id="ytick_2">
     <g id="line2d_11">
      <path d="M 38.06675 264.166862 
L 579.77315 264.166862 
" clip-path="url(#pec71f9bc55)" style="fill: none; stroke: #ffffff; stroke-width: 0.8; stroke-linecap: round"/>
     </g>
     <g id="text_11">
      <!-- 8 -->
      <g style="fill: #262626" transform="translate(24.873125 267.316299) scale(0.088 -0.088)">
       <defs>
        <path id="ArialMT-38" d="M 1131 2484 
Q 781 2613 612 2850 
Q 444 3088 444 3419 
Q 444 3919 803 4259 
Q 1163 4600 1759 4600 
Q 2359 4600 2725 4251 
Q 3091 3903 3091 3403 
Q 3091 3084 2923 2848 
Q 2756 2613 2416 2484 
Q 2838 2347 3058 2040 
Q 3278 1734 3278 1309 
Q 3278 722 2862 322 
Q 2447 -78 1769 -78 
Q 1091 -78 675 323 
Q 259 725 259 1325 
Q 259 1772 486 2073 
Q 713 2375 1131 2484 
z
M 1019 3438 
Q 1019 3113 1228 2906 
Q 1438 2700 1772 2700 
Q 2097 2700 2305 2904 
Q 2513 3109 2513 3406 
Q 2513 3716 2298 3927 
Q 2084 4138 1766 4138 
Q 1444 4138 1231 3931 
Q 1019 3725 1019 3438 
z
M 838 1322 
Q 838 1081 952 856 
Q 1066 631 1291 507 
Q 1516 384 1775 384 
Q 2178 384 2440 643 
Q 2703 903 2703 1303 
Q 2703 1709 2433 1975 
Q 2163 2241 1756 2241 
Q 1359 2241 1098 1978 
Q 838 1716 838 1322 
z
" transform="scale(0.015625)"/>
       </defs>
       <use xlink:href="#ArialMT-38"/>
      </g>
     </g>
    </g>
    <g id="ytick_3">
     <g id="line2d_12">
      <path d="M 38.06675 216.947899 
L 579.77315 216.947899 
" clip-path="url(#pec71f9bc55)" style="fill: none; stroke: #ffffff; stroke-width: 0.8; stroke-linecap: round"/>
     </g>
     <g id="text_12">
      <!-- 9 -->
      <g style="fill: #262626" transform="translate(24.873125 220.097336) scale(0.088 -0.088)">
       <defs>
        <path id="ArialMT-39" d="M 350 1059 
L 891 1109 
Q 959 728 1153 556 
Q 1347 384 1650 384 
Q 1909 384 2104 503 
Q 2300 622 2425 820 
Q 2550 1019 2634 1356 
Q 2719 1694 2719 2044 
Q 2719 2081 2716 2156 
Q 2547 1888 2255 1720 
Q 1963 1553 1622 1553 
Q 1053 1553 659 1965 
Q 266 2378 266 3053 
Q 266 3750 677 4175 
Q 1088 4600 1706 4600 
Q 2153 4600 2523 4359 
Q 2894 4119 3086 3673 
Q 3278 3228 3278 2384 
Q 3278 1506 3087 986 
Q 2897 466 2520 194 
Q 2144 -78 1638 -78 
Q 1100 -78 759 220 
Q 419 519 350 1059 
z
M 2653 3081 
Q 2653 3566 2395 3850 
Q 2138 4134 1775 4134 
Q 1400 4134 1122 3828 
Q 844 3522 844 3034 
Q 844 2597 1108 2323 
Q 1372 2050 1759 2050 
Q 2150 2050 2401 2323 
Q 2653 2597 2653 3081 
z
" transform="scale(0.015625)"/>
       </defs>
       <use xlink:href="#ArialMT-39"/>
      </g>
     </g>
    </g>
    <g id="ytick_4">
     <g id="line2d_13">
      <path d="M 38.06675 169.728936 
L 579.77315 169.728936 
" clip-path="url(#pec71f9bc55)" style="fill: none; stroke: #ffffff; stroke-width: 0.8; stroke-linecap: round"/>
     </g>
     <g id="text_13">
      <!-- 10 -->
      <g style="fill: #262626" transform="translate(19.9795 172.878373) scale(0.088 -0.088)">
       <use xlink:href="#ArialMT-31"/>
       <use xlink:href="#ArialMT-30" x="55.615234"/>
      </g>
     </g>
    </g>
    <g id="ytick_5">
     <g id="line2d_14">
      <path d="M 38.06675 122.509973 
L 579.77315 122.509973 
" clip-path="url(#pec71f9bc55)" style="fill: none; stroke: #ffffff; stroke-width: 0.8; stroke-linecap: round"/>
     </g>
     <g id="text_14">
      <!-- 11 -->
      <g style="fill: #262626" transform="translate(20.6285 125.65941) scale(0.088 -0.088)">
       <use xlink:href="#ArialMT-31"/>
       <use xlink:href="#ArialMT-31" x="48.240234"/>
      </g>
     </g>
    </g>
    <g id="ytick_6">
     <g id="line2d_15">
      <path d="M 38.06675 75.29101 
L 579.77315 75.29101 
" clip-path="url(#pec71f9bc55)" style="fill: none; stroke: #ffffff; stroke-width: 0.8; stroke-linecap: round"/>
     </g>
     <g id="text_15">
      <!-- 12 -->
      <g style="fill: #262626" transform="translate(19.9795 78.440447) scale(0.088 -0.088)">
       <use xlink:href="#ArialMT-31"/>
       <use xlink:href="#ArialMT-32" x="55.615234"/>
      </g>
     </g>
    </g>
    <g id="ytick_7">
     <g id="line2d_16">
      <path d="M 38.06675 28.072047 
L 579.77315 28.072047 
" clip-path="url(#pec71f9bc55)" style="fill: none; stroke: #ffffff; stroke-width: 0.8; stroke-linecap: round"/>
     </g>
     <g id="text_16">
      <!-- 13 -->
      <g style="fill: #262626" transform="translate(19.9795 31.221485) scale(0.088 -0.088)">
       <use xlink:href="#ArialMT-31"/>
       <use xlink:href="#ArialMT-33" x="55.615234"/>
      </g>
     </g>
    </g>
    <g id="text_17">
     <!-- $y$ -->
     <g style="fill: #262626" transform="translate(13.9635 189.3885) rotate(-90) scale(0.096 -0.096)">
      <defs>
       <path id="DejaVuSans-Oblique-79" d="M 1588 -325 
Q 1188 -997 936 -1164 
Q 684 -1331 294 -1331 
L -159 -1331 
L -63 -850 
L 269 -850 
Q 509 -850 678 -719 
Q 847 -588 1056 -206 
L 1234 128 
L 459 3500 
L 1069 3500 
L 1650 819 
L 3256 3500 
L 3859 3500 
L 1588 -325 
z
" transform="scale(0.015625)"/>
      </defs>
      <use xlink:href="#DejaVuSans-Oblique-79" transform="translate(0 0.3125)"/>
     </g>
    </g>
   </g>
   <g id="line2d_17">
    <path d="M 62.689768 158.174524 
L 63.022737 176.420762 
L 63.355705 208.090406 
L 63.688674 228.162896 
L 64.021642 240.478365 
L 64.354611 233.228313 
L 64.687579 167.892487 
L 65.353516 218.218188 
L 65.686484 219.0455 
L 66.019453 220.751237 
L 66.352421 229.870834 
L 66.68539 229.261843 
L 67.018358 157.359179 
L 67.351327 142.837984 
L 67.684295 190.448216 
L 68.017264 188.427515 
L 68.350232 165.663349 
L 69.016169 197.491043 
L 69.349138 177.115006 
L 69.682106 95.492462 
L 70.015074 156.426481 
L 70.348043 161.712704 
L 70.681011 184.701917 
L 71.01398 174.663044 
L 71.346948 199.180421 
L 71.679917 189.457975 
L 72.012885 153.605921 
L 72.345854 153.959199 
L 72.678822 159.424564 
L 73.011791 182.28623 
L 73.344759 160.877139 
L 73.677728 174.990217 
L 74.010696 118.964445 
L 74.343665 43.487064 
L 74.676633 126.065717 
L 75.009601 161.157 
L 75.34257 176.179308 
L 75.675538 173.235503 
L 76.008507 197.98764 
L 76.341475 201.157184 
L 77.007412 221.010908 
L 77.340381 208.439495 
L 77.673349 214.247484 
L 78.339286 245.131565 
L 78.672255 250.246742 
L 79.005223 211.474286 
L 79.338192 219.23473 
L 79.67116 247.575313 
L 80.004128 233.294169 
L 80.337097 233.807694 
L 80.670065 230.348264 
L 81.003034 246.933169 
L 81.336002 246.51714 
L 81.668971 239.745536 
L 82.001939 249.139222 
L 82.334908 245.492828 
L 83.000845 252.56767 
L 83.333813 234.326865 
L 83.666782 249.497776 
L 83.99975 243.723807 
L 84.332719 92.061744 
L 84.665687 105.355894 
L 84.998656 137.008819 
L 85.664592 170.386184 
L 85.997561 156.408693 
L 86.663498 165.220912 
L 86.996466 162.794122 
L 87.329435 163.076305 
L 87.662403 159.834797 
L 87.995372 168.1385 
L 88.32834 118.598608 
L 88.661309 114.271053 
L 88.994277 132.931691 
L 89.660214 199.192422 
L 89.993183 217.053397 
L 90.326151 224.839157 
L 90.659119 221.753421 
L 90.992088 228.059556 
L 91.325056 238.616444 
L 91.658025 245.46084 
L 91.990993 249.416574 
L 92.323962 248.057086 
L 92.65693 258.025609 
L 92.989899 247.253149 
L 93.322867 247.37509 
L 93.655836 255.58621 
L 93.988804 258.995174 
L 94.321773 261.114794 
L 94.654741 272.513017 
L 94.98771 271.02451 
L 95.320678 259.365744 
L 95.653646 259.898159 
L 95.986615 264.643803 
L 96.319583 259.494699 
L 96.652552 233.294169 
L 96.98552 262.226587 
L 97.318489 261.817894 
L 97.651457 253.708856 
L 97.984426 256.104157 
L 98.317394 248.328135 
L 98.650363 252.050129 
L 98.983331 261.442602 
L 99.3163 277.956615 
L 99.649268 268.077915 
L 99.982237 251.878868 
L 100.315205 250.56631 
L 100.648173 246.757552 
L 100.981142 234.251147 
L 101.31411 204.08216 
L 101.647079 232.267453 
L 101.980047 241.339819 
L 102.645984 256.050772 
L 102.978953 254.412198 
L 103.311921 255.244042 
L 103.64489 262.715591 
L 103.977858 261.577363 
L 104.310827 209.622125 
L 104.643795 224.8185 
L 104.976764 247.653407 
L 105.309732 255.507028 
L 105.642701 266.221982 
L 105.975669 270.333578 
L 106.308637 277.893021 
L 106.641606 272.702423 
L 106.974574 272.080244 
L 107.307543 269.51049 
L 107.640511 262.378857 
L 107.97348 266.404327 
L 108.306448 275.136428 
L 108.639417 288.807148 
L 108.972385 285.933526 
L 109.638322 249.54424 
L 110.304259 274.06951 
L 110.637228 275.417017 
L 110.970196 288.887293 
L 111.303164 281.182579 
L 111.636133 280.416606 
L 111.969101 272.683449 
L 112.30207 272.968875 
L 112.635038 264.611812 
L 113.300975 280.327303 
L 113.633944 278.597317 
L 113.966912 271.651402 
L 114.299881 267.309832 
L 114.632849 280.640605 
L 114.965818 277.219955 
L 115.298786 269.830861 
L 115.631755 266.955625 
L 116.297691 281.478767 
L 116.63066 271.318482 
L 116.963628 269.016416 
L 117.296597 277.282649 
L 117.629565 277.744966 
L 117.962534 285.908416 
L 118.295502 268.336744 
L 118.628471 273.544958 
L 118.961439 245.216319 
L 119.294408 255.59942 
L 119.627376 270.64143 
L 119.960345 267.752088 
L 120.293313 284.620772 
L 120.626282 286.872102 
L 121.292218 274.996756 
L 121.625187 282.588764 
L 121.958155 283.438728 
L 122.291124 285.933526 
L 122.624092 295.078055 
L 122.957061 289.506302 
L 123.290029 287.077514 
L 123.622998 281.046501 
L 123.955966 279.465337 
L 124.288935 285.037881 
L 124.621903 278.856051 
L 124.954872 282.752841 
L 125.28784 283.893566 
L 125.620809 276.35087 
L 125.953777 274.442164 
L 126.286746 263.866192 
L 126.619714 233.426158 
L 126.952682 245.1104 
L 127.285651 245.986036 
L 127.618619 262.838637 
L 127.951588 266.155849 
L 128.284556 264.388478 
L 128.617525 264.531928 
L 128.950493 267.191468 
L 129.283462 264.739907 
L 129.61643 274.383128 
L 129.949399 273.198466 
L 130.282367 261.652398 
L 130.615336 265.304444 
L 130.948304 258.388619 
L 131.614241 220.373785 
L 131.947209 250.673315 
L 132.280178 250.756709 
L 132.613146 256.452638 
L 132.946115 268.21578 
L 133.279083 270.568813 
L 133.612052 260.759763 
L 133.94502 260.378134 
L 134.277989 258.458749 
L 134.610957 258.825117 
L 134.943926 257.348969 
L 135.276894 261.114794 
L 135.609863 266.771143 
L 135.942831 252.76633 
L 136.2758 216.600035 
L 136.608768 232.892234 
L 136.941736 226.364966 
L 137.274705 246.495345 
L 137.607673 237.531741 
L 137.940642 246.018382 
L 138.27361 258.192805 
L 138.606579 245.717349 
L 138.939547 248.339463 
L 139.272516 220.354991 
L 139.605484 216.571122 
L 139.938453 246.310492 
L 140.271421 254.567057 
L 140.60439 245.953713 
L 140.937358 249.474561 
L 141.270327 229.156073 
L 141.603295 196.031839 
L 141.936263 210.05825 
L 142.269232 236.330629 
L 142.935169 246.889204 
L 143.268137 237.468705 
L 143.601106 241.860387 
L 143.934074 218.5305 
L 144.267043 237.721358 
L 144.600011 242.018674 
L 144.93298 229.04301 
L 145.265948 169.076338 
L 145.598917 231.531641 
L 145.931885 227.291632 
L 146.264854 177.331077 
L 146.597822 93.473125 
L 146.93079 187.26342 
L 147.263759 227.197419 
L 147.596727 232.002199 
L 147.929696 216.901792 
L 148.262664 228.930216 
L 148.595633 178.830299 
L 148.928601 188.018388 
L 149.26157 141.770613 
L 149.594538 228.4966 
L 149.927507 237.694223 
L 150.260475 197.816345 
L 150.593444 242.536803 
L 150.926412 190.996619 
L 151.259381 188.332052 
L 151.592349 232.186915 
L 151.925318 256.090805 
L 152.258286 252.76633 
L 152.591254 240.039205 
L 152.924223 248.886407 
L 153.257191 204.707527 
L 153.59016 176.827611 
L 153.923128 224.825385 
L 154.256097 240.660956 
L 154.589065 234.225934 
L 154.922034 214.951638 
L 155.255002 238.194188 
L 155.587971 178.318393 
L 155.920939 174.352306 
L 156.253908 220.89673 
L 156.586876 248.486969 
L 156.919845 252.990826 
L 157.252813 245.195116 
L 157.585781 252.753889 
L 157.91875 215.265498 
L 158.251718 212.03285 
L 158.584687 130.436075 
L 158.917655 227.393303 
L 159.250624 241.496368 
L 159.583592 241.057391 
L 159.916561 252.332841 
L 160.249529 191.286762 
L 161.248435 247.675743 
L 161.581403 248.079614 
L 161.914372 240.805607 
L 162.24734 238.986718 
L 162.580308 206.569382 
L 162.913277 148.749594 
L 163.246245 222.757562 
L 163.912182 240.641703 
L 164.245151 237.324936 
L 164.578119 242.506756 
L 164.911088 183.036111 
L 165.244056 184.508035 
L 165.577025 224.970197 
L 165.909993 245.846128 
L 166.242962 240.632079 
L 166.57593 224.162196 
L 166.908899 250.900014 
L 167.241867 204.438498 
L 167.574835 211.671899 
L 168.240772 248.498335 
L 168.573741 246.856256 
L 168.906709 251.091767 
L 169.239678 258.053434 
L 169.572646 208.488185 
L 169.905615 184.57551 
L 170.238583 233.228313 
L 170.571552 250.258539 
L 171.237489 220.267387 
L 171.570457 245.4715 
L 171.903426 194.871265 
L 172.236394 174.932738 
L 172.569363 224.067243 
L 172.902331 235.159313 
L 173.235299 241.427814 
L 173.568268 228.795219 
L 173.901236 233.302408 
L 174.234205 200.502735 
L 174.567173 184.988317 
L 174.900142 186.590747 
L 175.23311 229.748406 
L 175.566079 227.386034 
L 175.899047 171.590472 
L 176.232016 229.329964 
L 176.564984 205.018817 
L 176.897953 204.375944 
L 177.230921 196.771006 
L 177.56389 226.721984 
L 177.896858 230.971523 
L 178.229826 243.41659 
L 178.562795 250.424013 
L 178.895763 202.156185 
L 179.228732 200.519192 
L 179.5617 226.793712 
L 179.894669 239.660618 
L 180.893574 254.129602 
L 181.226543 204.8336 
L 181.559511 186.148576 
L 181.89248 234.066566 
L 182.225448 235.468834 
L 182.558417 218.584764 
L 182.891385 231.882121 
L 183.224353 239.014606 
L 183.89029 162.983295 
L 184.223259 211.67711 
L 184.889196 214.346649 
L 185.222164 201.069676 
L 185.555133 205.633864 
L 185.888101 163.461447 
L 186.22107 193.752793 
L 186.554038 211.64585 
L 186.887007 213.945765 
L 187.219975 218.224175 
L 187.552944 210.078399 
L 188.21888 98.545363 
L 188.884817 203.728491 
L 189.217786 224.202949 
L 189.883723 233.23654 
L 190.216691 242.707432 
L 190.54966 218.663256 
L 190.882628 168.732956 
L 191.215597 216.681088 
L 191.548565 223.514889 
L 191.881534 236.533116 
L 192.214502 238.847525 
L 192.547471 242.516769 
L 192.880439 238.930992 
L 193.213407 164.807687 
L 193.546376 233.442683 
L 193.879344 239.982223 
L 194.212313 241.242239 
L 194.545281 236.87846 
L 194.87825 238.203327 
L 195.211218 188.322516 
L 195.544187 168.492187 
L 195.877155 223.074957 
L 196.210124 239.238305 
L 197.209029 259.782533 
L 197.541998 262.333125 
L 197.874966 260.086658 
L 198.540903 265.336908 
L 198.873871 271.595752 
L 199.20684 269.192278 
L 199.539808 272.778399 
L 199.872777 272.531923 
L 200.205745 265.711858 
L 200.538714 263.850455 
L 200.871682 268.35405 
L 201.204651 271.171267 
L 201.537619 270.207396 
L 201.870588 275.800502 
L 202.203556 279.137957 
L 202.536525 271.540167 
L 202.869493 255.126175 
L 203.202462 265.190995 
L 203.868398 270.243413 
L 204.201367 276.268928 
L 204.534335 274.619717 
L 204.867304 271.949314 
L 205.200272 271.800123 
L 205.533241 271.429194 
L 205.866209 267.923295 
L 206.532146 283.701521 
L 206.865115 287.077514 
L 207.198083 275.59828 
L 207.531052 273.448455 
L 208.196989 246.191266 
L 208.862925 271.11618 
L 209.195894 268.701505 
L 209.528862 271.503147 
L 209.861831 269.386486 
L 210.527768 238.634889 
L 210.860736 263.256301 
L 211.193705 272.136468 
L 211.526673 243.713534 
L 212.19261 270.478199 
L 212.525579 274.599956 
L 212.858547 274.857496 
L 213.191516 274.897243 
L 213.524484 275.116449 
L 213.857452 288.673874 
L 214.190421 276.268928 
L 214.523389 283.224799 
L 214.856358 279.246831 
L 215.189326 285.958649 
L 215.522295 290.133534 
L 215.855263 290.464123 
L 216.5212 281.137176 
L 216.854169 279.443441 
L 217.187137 284.59635 
L 217.520106 260.539216 
L 218.186043 293.993207 
L 218.519011 294.082665 
L 219.184948 284.280015 
L 219.517916 284.523162 
L 219.850885 281.182579 
L 220.183853 271.097832 
L 220.516822 296.658884 
L 220.84979 286.059276 
L 221.182759 279.159711 
L 221.515727 276.824815 
L 221.848696 263.599373 
L 222.181664 265.09397 
L 222.514633 256.077457 
L 223.18057 273.8551 
L 223.513538 249.800612 
L 224.179475 274.659264 
L 224.512443 253.354775 
L 224.845412 268.858698 
L 225.17838 289.587644 
L 225.511349 285.458709 
L 225.844317 272.816433 
L 226.177286 277.282649 
L 226.510254 277.597373 
L 226.843223 277.094817 
L 227.176191 283.917627 
L 227.50916 298.852508 
L 227.842128 297.165938 
L 228.175097 288.994366 
L 228.508065 283.581889 
L 228.841034 282.541989 
L 229.174002 280.798039 
L 229.50697 282.964638 
L 229.839939 299.38381 
L 230.172907 302.883112 
L 230.838844 284.231535 
L 231.171813 287.439149 
L 231.504781 283.725484 
L 231.83775 292.152705 
L 232.170718 309.928767 
L 232.836655 299.38381 
L 233.169624 290.106089 
L 233.502592 285.359352 
L 233.835561 282.425255 
L 234.168529 291.216522 
L 234.834466 297.775223 
L 235.500403 286.008936 
L 235.833371 294.743922 
L 236.16634 298.066599 
L 236.499308 297.070449 
L 236.832277 297.517723 
L 237.165245 300.533076 
L 237.831182 265.385646 
L 238.164151 282.308809 
L 238.830088 295.59914 
L 239.163056 296.313416 
L 239.496024 292.267453 
L 239.828993 291.329015 
L 240.161961 289.182329 
L 240.827898 297.969274 
L 241.160867 296.001532 
L 241.493835 297.646297 
L 241.826804 302.34673 
L 242.159772 297.710716 
L 242.492741 295.691696 
L 242.825709 292.700261 
L 243.158678 284.59635 
L 243.491646 282.053633 
L 243.824615 298.687695 
L 244.157583 298.654801 
L 244.490552 296.848391 
L 244.82352 298.099086 
L 245.156488 296.219634 
L 245.489457 287.206352 
L 245.822425 287.751342 
L 246.155394 306.043372 
L 246.488362 304.679005 
L 246.821331 296.094881 
L 247.487268 286.413167 
L 247.820236 291.554808 
L 248.153205 289.047993 
L 248.486173 295.445282 
L 248.819142 294.653203 
L 249.15211 283.869518 
L 249.485079 281.822846 
L 249.818047 275.517632 
L 250.151015 266.972432 
L 250.483984 283.4864 
L 250.816952 291.63976 
L 251.149921 291.952564 
L 251.482889 283.153704 
L 252.148826 328.576051 
L 252.481795 280.820573 
L 252.814763 272.305544 
L 253.147732 281.455917 
L 253.4807 239.126323 
L 253.813669 239.163621 
L 254.146637 271.189644 
L 254.479606 273.81622 
L 255.145542 290.658041 
L 255.478511 281.228026 
L 255.811479 286.489347 
L 256.477416 268.25031 
L 256.810385 233.023102 
L 257.143353 250.199582 
L 258.142259 272.267919 
L 258.475227 271.521654 
L 258.808196 274.698844 
L 259.141164 275.17641 
L 259.474133 274.089051 
L 259.807101 278.618824 
L 260.140069 277.597373 
L 260.473038 256.953029 
L 260.806006 252.222013 
L 261.138975 266.938824 
L 261.471943 273.160123 
L 261.804912 272.702423 
L 262.13788 273.026168 
L 262.470849 285.633086 
L 262.803817 241.771583 
L 263.136786 273.99143 
L 263.469754 279.839133 
L 264.135691 265.711858 
L 264.46866 264.436247 
L 264.801628 273.160123 
L 265.134597 230.963681 
L 265.467565 265.711858 
L 265.800533 259.624007 
L 266.133502 262.378857 
L 266.46647 236.771931 
L 266.799439 128.560693 
L 267.132407 207.859105 
L 267.465376 209.832166 
L 267.798344 178.077297 
L 268.131313 227.860894 
L 268.464281 240.153375 
L 269.130218 220.656591 
L 269.463187 239.144968 
L 269.796155 150.086707 
L 270.129124 153.816652 
L 270.462092 210.033076 
L 270.79506 240.14385 
L 271.128029 245.932177 
L 271.460997 247.120481 
L 271.793966 258.039519 
L 272.126934 229.603434 
L 272.459903 229.420945 
L 272.792871 131.023633 
L 273.12584 138.60725 
L 273.791777 222.226749 
L 274.124745 220.361255 
L 274.790682 162.008498 
L 275.123651 200.990641 
L 275.456619 208.580833 
L 276.122556 236.842924 
L 276.455524 229.694943 
L 276.788493 171.932891 
L 277.121461 158.455656 
L 277.45443 207.357051 
L 277.787398 228.885175 
L 278.120367 227.546222 
L 278.453335 207.03946 
L 278.786304 239.228963 
L 279.452241 196.976704 
L 279.785209 215.570137 
L 280.118178 212.333122 
L 280.451146 195.78924 
L 281.117083 226.265483 
L 281.450051 207.105646 
L 281.78302 120.286473 
L 282.115988 201.479442 
L 282.448957 232.114549 
L 282.781925 236.940713 
L 283.114894 243.58019 
L 283.447862 255.191621 
L 283.780831 214.093641 
L 284.113799 204.184332 
L 284.446768 240.478365 
L 284.779736 255.322785 
L 285.112705 259.638396 
L 285.445673 262.120289 
L 285.778641 266.404327 
L 286.444578 226.815252 
L 286.777547 249.859073 
L 287.110515 258.543044 
L 287.443484 253.291825 
L 287.776452 256.722461 
L 288.109421 272.230324 
L 288.442389 237.065466 
L 288.775358 188.081587 
L 289.441295 246.911181 
L 289.774263 249.43976 
L 290.107232 234.352132 
L 290.4402 242.737607 
L 290.773169 221.393508 
L 291.106137 128.767329 
L 291.439105 209.622125 
L 291.772074 243.41659 
L 292.105042 243.223049 
L 292.438011 237.127966 
L 292.770979 246.582586 
L 293.103948 229.413356 
L 293.436916 151.38423 
L 293.769885 230.697834 
L 294.102853 254.943409 
L 294.435822 253.708856 
L 294.76879 251.175904 
L 295.101759 256.144235 
L 295.434727 225.337661 
L 295.767696 178.916159 
L 296.766601 236.816289 
L 297.099569 241.135134 
L 297.765506 220.808116 
L 298.098475 186.178938 
L 298.431443 223.334421 
L 298.764412 240.115287 
L 299.09738 234.335286 
L 299.430349 207.376079 
L 299.763317 221.489645 
L 300.096286 215.694815 
L 300.429254 205.725667 
L 301.428159 258.039519 
L 301.761128 250.388505 
L 302.094096 259.537762 
L 302.427065 192.451622 
L 302.760033 174.229525 
L 303.093002 219.906174 
L 303.42597 236.834044 
L 303.758939 230.363746 
L 304.091907 241.076815 
L 304.424876 240.286924 
L 305.090813 162.827451 
L 305.423781 208.585714 
L 305.75675 224.708481 
L 306.089718 224.839157 
L 306.422686 220.58101 
L 306.755655 221.98625 
L 307.088623 235.710983 
L 307.75456 217.352196 
L 308.087529 226.067143 
L 308.420497 223.837433 
L 308.753466 220.204911 
L 309.086434 223.898156 
L 309.419403 136.991669 
L 309.752371 107.987288 
L 310.08534 177.404162 
L 310.418308 188.376577 
L 310.751277 181.752268 
L 311.084245 185.04462 
L 311.417214 196.422609 
L 311.750182 98.729449 
L 312.08315 76.387483 
L 312.416119 144.109133 
L 312.749087 169.526713 
L 313.082056 182.345 
L 313.415024 176.034536 
L 313.747993 199.43309 
L 314.080961 193.784894 
L 314.41393 163.158305 
L 314.746898 169.736366 
L 315.079867 168.184123 
L 315.412835 151.768085 
L 315.745804 148.336243 
L 316.078772 158.389852 
L 316.744709 35.3085 
L 317.077677 133.517482 
L 317.410646 177.037362 
L 317.743614 203.237764 
L 318.076583 212.069623 
L 318.409551 226.593146 
L 319.408457 249.486167 
L 319.741425 253.015836 
L 320.074394 257.970008 
L 320.740331 275.537781 
L 321.073299 277.073992 
L 321.406268 271.949314 
L 321.739236 269.634821 
L 322.072204 268.198525 
L 322.405173 267.683778 
L 322.738141 275.820772 
L 323.07111 287.361422 
L 323.404078 285.062532 
L 323.737047 273.487032 
L 324.070015 279.094477 
L 324.402984 264.900515 
L 325.068921 279.051037 
L 325.401889 295.445282 
L 325.734858 292.324932 
L 326.067826 270.405833 
L 326.400795 268.963785 
L 326.733763 283.797446 
L 327.066731 277.660571 
L 327.3997 269.386486 
L 327.732668 296.001532 
L 328.065637 288.302695 
L 328.398605 285.235451 
L 328.731574 279.750914 
L 329.064542 264.723876 
L 329.397511 263.960724 
L 329.730479 280.640605 
L 330.063448 288.408449 
L 330.396416 290.160995 
L 330.729385 283.272255 
L 331.062353 282.588764 
L 331.395322 285.508465 
L 331.72829 282.215858 
L 332.061259 283.272255 
L 332.394227 295.017127 
L 332.727195 292.440101 
L 333.060164 259.768099 
L 333.393132 267.769181 
L 333.726101 278.769649 
L 334.059069 243.437009 
L 334.725006 296.816754 
L 335.057975 299.017899 
L 335.390943 290.741394 
L 335.723912 285.88332 
L 336.05688 283.749459 
L 336.389849 282.635585 
L 336.722817 289.452152 
L 337.055786 303.974508 
L 337.388754 288.355542 
L 337.721722 290.188472 
L 338.054691 289.182329 
L 338.387659 290.797043 
L 338.720628 286.744172 
L 339.053596 292.00966 
L 339.386565 304.011326 
L 339.719533 304.866159 
L 340.38547 286.974696 
L 340.718439 282.239079 
L 341.384376 292.874501 
L 341.717344 303.135524 
L 342.050313 259.854766 
L 342.383281 287.051789 
L 342.716249 271.447672 
L 343.049218 278.748073 
L 343.382186 271.967996 
L 343.715155 279.399679 
L 344.048123 299.65172 
L 344.381092 292.382481 
L 344.71406 278.597317 
L 345.047029 272.380883 
L 345.379997 282.495261 
L 345.712966 287.129007 
L 346.045934 279.465337 
L 346.378903 300.022596 
L 347.377808 246.462671 
L 347.710776 268.806242 
L 348.043745 263.039273 
L 348.376713 228.742825 
L 348.709682 260.305096 
L 349.04265 278.126621 
L 349.375619 270.387759 
L 350.041556 275.457237 
L 350.374524 279.883304 
L 350.707493 281.433078 
L 351.040461 294.804497 
L 351.37343 283.557998 
L 351.706398 268.406005 
L 352.039367 271.02451 
L 352.705303 288.170835 
L 353.038272 286.66758 
L 353.37124 309.720478 
L 353.704209 308.28763 
L 354.037177 300.533076 
L 354.370146 287.387317 
L 354.703114 249.451358 
L 355.036083 263.50556 
L 355.369051 287.908215 
L 355.70202 272.117719 
L 356.034988 304.232838 
L 356.700925 281.593182 
L 357.033894 288.914038 
L 357.366862 283.605791 
L 357.699831 299.75258 
L 358.032799 306.507064 
L 358.365767 306.468249 
L 358.698736 302.275671 
L 359.031704 292.440101 
L 359.364673 290.63029 
L 359.697641 277.956615 
L 360.03061 294.834815 
L 360.696547 297.904502 
L 361.029515 294.023007 
L 361.362484 298.753552 
L 361.695452 300.773202 
L 362.028421 300.876488 
L 362.361389 294.7742 
L 362.694358 312.546754 
L 363.027326 309.347858 
L 363.360294 288.673874 
L 363.693263 301.781227 
L 364.026231 300.807606 
L 364.3592 306.043372 
L 364.692168 307.64682 
L 365.025137 316.791939 
L 365.358105 317.326041 
L 365.691074 277.240844 
L 366.357011 300.807606 
L 366.689979 298.523455 
L 367.355916 318.263054 
L 367.688885 314.66779 
L 368.354821 296.532966 
L 368.68779 300.670141 
L 369.020758 280.371933 
L 369.353727 285.88332 
L 369.686695 301.466083 
L 370.352632 297.485634 
L 370.685601 286.872102 
L 371.018569 291.441777 
L 371.351538 253.607418 
L 371.684506 288.118194 
L 372.017475 300.773202 
L 372.350443 299.283735 
L 373.01638 280.438958 
L 373.349348 279.684858 
L 373.682317 267.752088 
L 374.015285 273.564282 
L 374.348254 289.832514 
L 374.681222 294.262091 
L 375.014191 254.103996 
L 375.347159 253.00333 
L 375.680128 267.871868 
L 376.346065 284.086395 
L 376.679033 284.620772 
L 377.012002 280.305004 
L 377.34497 251.380863 
L 377.677939 273.467739 
L 378.010907 281.984279 
L 378.343876 278.318611 
L 378.676844 261.397767 
L 379.009812 281.114491 
L 379.342781 271.893312 
L 379.675749 246.528042 
L 380.008718 235.391263 
L 380.341686 255.798014 
L 380.674655 262.424634 
L 381.007623 266.371121 
L 381.340592 274.324166 
L 382.006529 250.923941 
L 382.339497 254.761347 
L 382.672466 264.150359 
L 383.005434 269.492755 
L 383.338403 271.856014 
L 383.671371 265.12629 
L 384.004339 239.688907 
L 384.337308 247.341803 
L 384.670276 267.360651 
L 385.003245 271.874659 
L 385.669182 238.801218 
L 386.00215 262.915704 
L 386.335119 265.450708 
L 386.668087 246.484451 
L 387.001056 252.209715 
L 387.334024 243.11136 
L 387.666993 240.902288 
L 387.999961 224.543931 
L 388.33293 260.583243 
L 388.665898 228.742825 
L 388.998866 136.561738 
L 389.331835 166.89682 
L 389.664803 226.714817 
L 389.997772 230.433476 
L 390.33074 214.291532 
L 390.663709 234.817764 
L 390.996677 171.55035 
L 391.329646 183.490102 
L 391.995583 235.159313 
L 392.328551 222.187666 
L 392.66152 216.179643 
L 392.994488 254.761347 
L 393.327457 209.288983 
L 393.660425 188.262168 
L 393.993393 243.253555 
L 394.326362 256.735993 
L 394.65933 255.454314 
L 394.992299 224.550775 
L 395.325267 254.116797 
L 395.658236 248.294169 
L 395.991204 236.286725 
L 396.324173 231.050012 
L 396.657141 251.586716 
L 396.99011 251.19997 
L 397.323078 246.867236 
L 397.656047 262.501028 
L 397.989015 206.016019 
L 398.321984 171.396865 
L 398.654952 224.243737 
L 398.98792 232.388517 
L 399.320889 245.248142 
L 399.653857 236.763064 
L 399.986826 263.194191 
L 400.319794 211.870342 
L 400.652763 196.249369 
L 400.985731 240.497552 
L 401.3187 249.370235 
L 401.651668 248.794808 
L 401.984637 241.673108 
L 402.317605 254.670579 
L 402.650574 231.089305 
L 402.983542 109.55001 
L 403.316511 188.258994 
L 403.649479 222.678546 
L 403.982448 228.000606 
L 404.315416 176.50977 
L 404.648384 243.662203 
L 404.981353 226.230004 
L 405.314321 198.92114 
L 405.64729 228.266463 
L 405.980258 237.957181 
L 406.313227 242.028585 
L 406.646195 239.079742 
L 406.979164 262.01423 
L 407.312132 212.688533 
L 407.645101 195.503458 
L 407.978069 214.159512 
L 408.311038 251.915515 
L 408.644006 255.217824 
L 408.976975 254.943409 
L 409.309943 278.618824 
L 409.97588 215.395011 
L 410.308848 246.093941 
L 410.641817 253.874157 
L 411.307754 261.953732 
L 411.640722 284.328544 
L 411.973691 245.343737 
L 412.306659 230.573246 
L 412.639628 252.30819 
L 412.972596 264.531928 
L 413.305565 263.913434 
L 413.638533 260.348906 
L 413.971502 286.438547 
L 414.637438 213.43452 
L 414.970407 254.027258 
L 415.303375 265.679135 
L 415.636344 258.109133 
L 415.969312 266.354527 
L 416.302281 279.905405 
L 416.635249 265.793764 
L 416.968218 210.234845 
L 417.301186 250.613838 
L 417.634155 250.792495 
L 417.967123 249.952762 
L 418.300092 245.846128 
L 418.63306 277.871842 
L 418.966029 258.924242 
L 419.298997 228.960268 
L 419.964934 258.514929 
L 420.297902 253.028346 
L 420.630871 259.123119 
L 420.963839 277.766088 
L 421.296808 244.08477 
L 421.629776 224.060467 
L 422.295713 255.944183 
L 422.628682 259.337135 
L 423.294619 286.693097 
L 423.960556 246.911181 
L 424.293524 214.088156 
L 424.626493 255.705233 
L 424.959461 263.396348 
L 425.292429 259.294254 
L 425.625398 272.930719 
L 425.958366 245.846128 
L 426.291335 228.840176 
L 426.957272 267.78628 
L 426.957272 267.78628 
" clip-path="url(#pec71f9bc55)" style="fill: none; stroke: #1f77b4; stroke-width: 1.2; stroke-linecap: round"/>
   </g>
   <g id="line2d_18">
    <path d="M 427.623209 249.905894 
L 427.956177 243.569949 
L 428.289146 220.036639 
L 428.622114 222.207203 
L 429.288051 240.55516 
L 429.62102 244.417226 
L 429.953988 241.870265 
L 430.286956 249.6606 
L 430.619925 175.08377 
L 430.952893 136.91243 
L 431.61883 211.750132 
L 431.951799 226.414786 
L 432.284767 227.19018 
L 432.617736 243.867861 
L 432.950704 222.671967 
L 433.283673 181.09047 
L 433.616641 219.210271 
L 433.94961 232.949444 
L 434.282578 236.550764 
L 434.615547 245.439527 
L 434.948515 267.769181 
L 435.281483 260.130265 
L 435.614452 247.219947 
L 435.94742 249.83568 
L 436.280389 251.043755 
L 436.613357 246.999194 
L 436.946326 235.919532 
L 437.279294 260.334298 
L 437.945231 156.355368 
L 438.2782 204.046674 
L 438.611168 230.448986 
L 439.277105 253.141086 
L 439.610074 269.634821 
L 439.943042 273.007063 
L 440.27601 267.411524 
L 440.608979 244.5948 
L 441.274916 270.914741 
L 441.607884 268.423337 
L 441.940853 273.17929 
L 442.273821 287.413226 
L 442.60679 254.541211 
L 442.939758 272.588688 
L 443.272727 273.429178 
L 443.938664 278.169218 
L 444.271632 261.278414 
L 444.604601 294.834815 
L 444.937569 288.540975 
L 445.270537 285.858237 
L 445.603506 278.489928 
L 445.936474 287.594987 
L 446.269443 292.584457 
L 446.602411 309.389116 
L 446.93538 308.896391 
L 447.601317 281.961183 
L 447.934285 273.835656 
L 448.267254 244.012356 
L 448.600222 268.095126 
L 448.933191 300.226126 
L 449.266159 301.640903 
L 449.599128 285.111873 
L 449.932096 283.869518 
L 450.265065 279.137957 
L 450.598033 282.729367 
L 450.931001 278.169218 
L 451.26397 304.232838 
L 451.596938 309.471738 
L 451.929907 295.383879 
L 452.262875 288.51444 
L 452.595844 294.7742 
L 452.928812 291.385362 
L 453.261781 297.614121 
L 453.594749 320.039366 
L 453.927718 315.60008 
L 454.260686 296.219634 
L 454.593655 264.563866 
L 454.926623 277.723853 
L 455.259592 298.034135 
L 455.59256 296.943431 
L 455.925528 315.836057 
L 456.258497 270.153421 
L 456.591465 307.329647 
L 456.924434 298.589083 
L 457.590371 303.534918 
L 457.923339 301.326691 
L 458.256308 319.422788 
L 458.589276 320.769034 
L 458.922245 303.937719 
L 459.255213 309.224302 
L 459.588182 307.053857 
L 459.92115 300.328221 
L 460.254119 298.164125 
L 460.587087 325.691553 
L 460.920055 310.054182 
L 461.253024 303.135524 
L 461.585992 300.842034 
L 461.918961 295.476013 
L 462.251929 294.292062 
L 462.584898 298.951673 
L 462.917866 320.298669 
L 463.250835 296.344718 
L 463.583803 281.159872 
L 463.916772 292.23874 
L 464.24974 284.352828 
L 464.582709 288.461415 
L 465.248646 301.675945 
L 465.581614 307.093157 
L 465.914582 295.970457 
L 466.247551 294.592821 
L 466.913488 284.59635 
L 467.246456 275.983246 
L 467.579425 304.567067 
L 467.912393 316.120796 
L 468.245362 295.7535 
L 468.57833 300.945471 
L 468.911299 276.556349 
L 469.244267 294.232139 
L 469.577236 297.646297 
L 469.910204 309.554506 
L 470.243173 314.575565 
L 470.90911 278.985952 
L 471.575046 298.654801 
L 471.908015 296.785138 
L 472.240983 323.638232 
L 472.573952 320.559404 
L 472.90692 304.641663 
L 473.239889 302.560552 
L 473.572857 304.753778 
L 473.905826 228.207254 
L 474.238794 250.97183 
L 474.571763 290.741394 
L 474.904731 303.827523 
L 475.2377 309.430409 
L 475.570668 303.135524 
L 475.903637 291.895536 
L 476.236605 299.283735 
L 476.569573 297.936877 
L 476.902542 324.3128 
L 477.568479 307.886106 
L 477.901447 301.816373 
L 478.234416 303.607899 
L 478.567384 308.207051 
L 478.900353 315.788767 
L 479.56629 334.160887 
L 479.899258 309.347858 
L 480.232227 309.347858 
L 480.565195 315.271681 
L 480.898164 308.651944 
L 481.5641 328.205704 
L 481.897069 333.813432 
L 482.230037 316.551149 
L 482.563006 314.852781 
L 482.895974 311.155302 
L 483.228943 317.374897 
L 483.561911 316.551149 
L 483.89488 337.7085 
L 484.560817 298.523455 
L 484.893785 307.726447 
L 485.226754 295.139062 
L 485.559722 297.614121 
L 485.892691 298.556257 
L 486.225659 289.91442 
L 486.558627 325.925311 
L 486.891596 313.123955 
L 487.224564 310.601533 
L 487.557533 321.244131 
L 487.890501 319.884465 
L 488.556438 336.22816 
L 488.889407 335.005362 
L 489.222375 318.014663 
L 489.555344 316.98546 
L 490.554249 302.098489 
L 490.887218 325.169792 
L 491.220186 312.195028 
L 491.553154 305.318379 
L 491.886123 307.171856 
L 492.219091 301.992498 
L 492.55206 259.88369 
L 492.885028 292.7873 
L 493.217997 309.019091 
L 493.550965 302.169282 
L 493.883934 290.547134 
L 494.216902 291.668111 
L 494.549871 288.994366 
L 494.882839 292.845416 
L 495.215808 302.632042 
L 495.548776 317.767573 
L 495.881745 319.219038 
L 496.214713 297.80751 
L 496.547682 300.807606 
L 496.88065 299.853655 
L 497.213618 296.91173 
L 497.546587 296.407384 
L 497.879555 313.347849 
L 498.212524 319.627421 
L 498.545492 302.811241 
L 498.878461 298.327118 
L 499.211429 298.589083 
L 499.544398 272.456343 
L 500.210335 311.026932 
L 500.543303 307.926105 
L 500.876272 298.852508 
L 501.20924 282.941058 
L 501.542209 285.062532 
L 501.875177 283.893566 
L 502.208145 297.710716 
L 502.541114 295.784433 
L 502.874082 300.945471 
L 503.207051 291.020301 
L 503.540019 275.962907 
L 503.872988 281.639025 
L 504.538925 272.475227 
L 504.871893 300.70447 
L 505.204862 288.860563 
L 505.53783 270.623265 
L 505.870799 266.570708 
L 506.536736 284.013992 
L 506.869704 285.458709 
L 507.202672 297.614121 
L 507.535641 274.089051 
L 508.201578 286.134887 
L 508.534546 279.97177 
L 508.867515 261.025786 
L 509.200483 257.116464 
L 509.533452 277.136493 
L 509.86642 277.513242 
L 510.199389 279.377813 
L 510.865326 260.392755 
L 511.198294 255.034703 
L 511.531263 232.761727 
L 511.864231 271.503147 
L 512.197199 227.378766 
L 512.530168 214.175995 
L 512.863136 244.250706 
L 513.196105 260.759763 
L 513.529073 245.057529 
L 513.862042 182.86309 
L 514.19501 258.782699 
L 514.527979 243.826658 
L 514.860947 238.249051 
L 515.193916 248.920802 
L 515.526884 263.771848 
L 515.859853 258.500878 
L 516.192821 236.656795 
L 516.52579 282.588764 
L 516.858758 244.710058 
L 517.191727 191.401963 
L 517.524695 237.748508 
L 517.857663 257.348969 
L 518.5236 269.581496 
L 518.856569 289.669126 
L 519.189537 246.451785 
L 519.522506 229.847855 
L 519.855474 260.612617 
L 520.188443 273.583614 
L 520.521411 275.983246 
L 520.85438 267.957611 
L 521.187348 294.562658 
L 521.520317 255.997447 
L 522.186254 251.84225 
L 522.519222 271.410724 
L 522.85219 276.432954 
L 523.185159 272.173988 
L 523.518127 294.322052 
L 523.851096 250.058384 
L 524.184064 229.140982 
L 524.517033 245.418224 
L 524.850001 274.639486 
L 525.18297 267.292905 
L 525.515938 270.768778 
L 525.848907 266.888457 
L 526.514844 243.9091 
L 526.847812 261.48748 
L 527.180781 273.083531 
L 527.513749 274.245664 
L 527.846717 259.037784 
L 528.179686 282.053633 
L 528.512654 259.782533 
L 528.845623 198.426488 
L 529.178591 242.767801 
L 529.51156 259.71041 
L 529.844528 264.579842 
L 530.177497 248.66915 
L 530.510465 281.114491 
L 531.176402 209.224615 
L 531.509371 255.270275 
L 531.842339 272.362037 
L 532.175308 266.02386 
L 532.508276 279.640872 
L 532.841244 303.680994 
L 533.174213 268.78877 
L 533.507181 186.996908 
L 533.84015 224.114695 
L 534.173118 246.07234 
L 534.506087 256.398858 
L 534.839055 261.667419 
L 535.172024 284.890245 
L 535.504992 252.062386 
L 535.837961 232.396599 
L 536.503898 261.382831 
L 536.836866 270.189397 
L 537.169835 254.943409 
L 537.502803 283.462558 
L 537.835772 263.147663 
L 538.16874 68.223673 
L 538.501708 97.812373 
L 538.834677 230.557696 
L 539.167645 261.517422 
L 539.500614 260.319695 
L 539.833582 289.723526 
L 540.499519 240.709124 
L 540.832488 265.061673 
L 541.165456 274.659264 
L 541.498425 251.878868 
L 541.831393 270.478199 
L 542.164362 296.721968 
L 542.49733 277.471232 
L 542.830299 249.081645 
L 543.163267 252.990826 
L 543.496235 273.256038 
L 543.829204 283.438728 
L 544.162172 286.413167 
L 544.495141 303.280368 
L 544.828109 269.298111 
L 545.161078 247.164662 
L 545.494046 258.952602 
L 546.159983 294.986693 
L 546.492952 297.134087 
L 546.82592 305.698566 
L 547.158889 222.671967 
L 547.491857 205.113966 
L 547.824826 205.241131 
L 548.157794 245.685209 
L 548.823731 283.557998 
L 549.156699 272.418598 
L 549.489668 252.394525 
L 549.822636 203.011648 
L 550.155605 237.333909 
L 550.488573 247.51961 
L 550.821542 250.199582 
L 551.15451 250.459547 
L 551.487479 274.284899 
L 551.820447 250.864147 
L 552.153416 241.939464 
L 552.486384 257.789756 
L 552.819353 260.996154 
L 553.152321 263.054742 
L 553.485289 263.132163 
L 553.818258 272.797412 
L 554.484195 153.96841 
L 554.817163 211.004391 
L 555.150132 222.077105 
L 555.150132 222.077105 
" clip-path="url(#pec71f9bc55)" style="fill: none; stroke: #ff7f0e; stroke-width: 1.2; stroke-linecap: round"/>
   </g>
   <g id="line2d_19">
    <path d="M 427.623209 262.994862 
L 555.150132 274.88473 
L 555.150132 274.88473 
" clip-path="url(#pec71f9bc55)" style="fill: none; stroke-dasharray: 4.44,1.92; stroke-dashoffset: 0; stroke: #2ca02c; stroke-width: 1.2"/>
   </g>
   <g id="patch_3">
    <path d="M 38.06675 352.8285 
L 38.06675 20.1885 
" style="fill: none; stroke: #ffffff; stroke-linejoin: miter; stroke-linecap: square"/>
   </g>
   <g id="patch_4">
    <path d="M 579.77315 352.8285 
L 579.77315 20.1885 
" style="fill: none; stroke: #ffffff; stroke-linejoin: miter; stroke-linecap: square"/>
   </g>
   <g id="patch_5">
    <path d="M 38.06675 352.8285 
L 579.77315 352.8285 
" style="fill: none; stroke: #ffffff; stroke-linejoin: miter; stroke-linecap: square"/>
   </g>
   <g id="patch_6">
    <path d="M 38.06675 20.1885 
L 579.77315 20.1885 
" style="fill: none; stroke: #ffffff; stroke-linejoin: miter; stroke-linecap: square"/>
   </g>
   <g id="text_18">
    <!-- linear regression applied (MSE= 0.617, MAE=0.615) -->
    <g style="fill: #262626" transform="translate(197.66345 14.1885) scale(0.096 -0.096)">
     <defs>
      <path id="ArialMT-6c" d="M 409 0 
L 409 4581 
L 972 4581 
L 972 0 
L 409 0 
z
" transform="scale(0.015625)"/>
      <path id="ArialMT-69" d="M 425 3934 
L 425 4581 
L 988 4581 
L 988 3934 
L 425 3934 
z
M 425 0 
L 425 3319 
L 988 3319 
L 988 0 
L 425 0 
z
" transform="scale(0.015625)"/>
      <path id="ArialMT-6e" d="M 422 0 
L 422 3319 
L 928 3319 
L 928 2847 
Q 1294 3394 1984 3394 
Q 2284 3394 2536 3286 
Q 2788 3178 2913 3003 
Q 3038 2828 3088 2588 
Q 3119 2431 3119 2041 
L 3119 0 
L 2556 0 
L 2556 2019 
Q 2556 2363 2490 2533 
Q 2425 2703 2258 2804 
Q 2091 2906 1866 2906 
Q 1506 2906 1245 2678 
Q 984 2450 984 1813 
L 984 0 
L 422 0 
z
" transform="scale(0.015625)"/>
      <path id="ArialMT-65" d="M 2694 1069 
L 3275 997 
Q 3138 488 2766 206 
Q 2394 -75 1816 -75 
Q 1088 -75 661 373 
Q 234 822 234 1631 
Q 234 2469 665 2931 
Q 1097 3394 1784 3394 
Q 2450 3394 2872 2941 
Q 3294 2488 3294 1666 
Q 3294 1616 3291 1516 
L 816 1516 
Q 847 969 1125 678 
Q 1403 388 1819 388 
Q 2128 388 2347 550 
Q 2566 713 2694 1069 
z
M 847 1978 
L 2700 1978 
Q 2663 2397 2488 2606 
Q 2219 2931 1791 2931 
Q 1403 2931 1139 2672 
Q 875 2413 847 1978 
z
" transform="scale(0.015625)"/>
      <path id="ArialMT-61" d="M 2588 409 
Q 2275 144 1986 34 
Q 1697 -75 1366 -75 
Q 819 -75 525 192 
Q 231 459 231 875 
Q 231 1119 342 1320 
Q 453 1522 633 1644 
Q 813 1766 1038 1828 
Q 1203 1872 1538 1913 
Q 2219 1994 2541 2106 
Q 2544 2222 2544 2253 
Q 2544 2597 2384 2738 
Q 2169 2928 1744 2928 
Q 1347 2928 1158 2789 
Q 969 2650 878 2297 
L 328 2372 
Q 403 2725 575 2942 
Q 747 3159 1072 3276 
Q 1397 3394 1825 3394 
Q 2250 3394 2515 3294 
Q 2781 3194 2906 3042 
Q 3031 2891 3081 2659 
Q 3109 2516 3109 2141 
L 3109 1391 
Q 3109 606 3145 398 
Q 3181 191 3288 0 
L 2700 0 
Q 2613 175 2588 409 
z
M 2541 1666 
Q 2234 1541 1622 1453 
Q 1275 1403 1131 1340 
Q 988 1278 909 1158 
Q 831 1038 831 891 
Q 831 666 1001 516 
Q 1172 366 1500 366 
Q 1825 366 2078 508 
Q 2331 650 2450 897 
Q 2541 1088 2541 1459 
L 2541 1666 
z
" transform="scale(0.015625)"/>
      <path id="ArialMT-72" d="M 416 0 
L 416 3319 
L 922 3319 
L 922 2816 
Q 1116 3169 1280 3281 
Q 1444 3394 1641 3394 
Q 1925 3394 2219 3213 
L 2025 2691 
Q 1819 2813 1613 2813 
Q 1428 2813 1281 2702 
Q 1134 2591 1072 2394 
Q 978 2094 978 1738 
L 978 0 
L 416 0 
z
" transform="scale(0.015625)"/>
      <path id="ArialMT-20" transform="scale(0.015625)"/>
      <path id="ArialMT-67" d="M 319 -275 
L 866 -356 
Q 900 -609 1056 -725 
Q 1266 -881 1628 -881 
Q 2019 -881 2231 -725 
Q 2444 -569 2519 -288 
Q 2563 -116 2559 434 
Q 2191 0 1641 0 
Q 956 0 581 494 
Q 206 988 206 1678 
Q 206 2153 378 2554 
Q 550 2956 876 3175 
Q 1203 3394 1644 3394 
Q 2231 3394 2613 2919 
L 2613 3319 
L 3131 3319 
L 3131 450 
Q 3131 -325 2973 -648 
Q 2816 -972 2473 -1159 
Q 2131 -1347 1631 -1347 
Q 1038 -1347 672 -1080 
Q 306 -813 319 -275 
z
M 784 1719 
Q 784 1066 1043 766 
Q 1303 466 1694 466 
Q 2081 466 2343 764 
Q 2606 1063 2606 1700 
Q 2606 2309 2336 2618 
Q 2066 2928 1684 2928 
Q 1309 2928 1046 2623 
Q 784 2319 784 1719 
z
" transform="scale(0.015625)"/>
      <path id="ArialMT-73" d="M 197 991 
L 753 1078 
Q 800 744 1014 566 
Q 1228 388 1613 388 
Q 2000 388 2187 545 
Q 2375 703 2375 916 
Q 2375 1106 2209 1216 
Q 2094 1291 1634 1406 
Q 1016 1563 777 1677 
Q 538 1791 414 1992 
Q 291 2194 291 2438 
Q 291 2659 392 2848 
Q 494 3038 669 3163 
Q 800 3259 1026 3326 
Q 1253 3394 1513 3394 
Q 1903 3394 2198 3281 
Q 2494 3169 2634 2976 
Q 2775 2784 2828 2463 
L 2278 2388 
Q 2241 2644 2061 2787 
Q 1881 2931 1553 2931 
Q 1166 2931 1000 2803 
Q 834 2675 834 2503 
Q 834 2394 903 2306 
Q 972 2216 1119 2156 
Q 1203 2125 1616 2013 
Q 2213 1853 2448 1751 
Q 2684 1650 2818 1456 
Q 2953 1263 2953 975 
Q 2953 694 2789 445 
Q 2625 197 2315 61 
Q 2006 -75 1616 -75 
Q 969 -75 630 194 
Q 291 463 197 991 
z
" transform="scale(0.015625)"/>
      <path id="ArialMT-6f" d="M 213 1659 
Q 213 2581 725 3025 
Q 1153 3394 1769 3394 
Q 2453 3394 2887 2945 
Q 3322 2497 3322 1706 
Q 3322 1066 3130 698 
Q 2938 331 2570 128 
Q 2203 -75 1769 -75 
Q 1072 -75 642 372 
Q 213 819 213 1659 
z
M 791 1659 
Q 791 1022 1069 705 
Q 1347 388 1769 388 
Q 2188 388 2466 706 
Q 2744 1025 2744 1678 
Q 2744 2294 2464 2611 
Q 2184 2928 1769 2928 
Q 1347 2928 1069 2612 
Q 791 2297 791 1659 
z
" transform="scale(0.015625)"/>
      <path id="ArialMT-70" d="M 422 -1272 
L 422 3319 
L 934 3319 
L 934 2888 
Q 1116 3141 1344 3267 
Q 1572 3394 1897 3394 
Q 2322 3394 2647 3175 
Q 2972 2956 3137 2557 
Q 3303 2159 3303 1684 
Q 3303 1175 3120 767 
Q 2938 359 2589 142 
Q 2241 -75 1856 -75 
Q 1575 -75 1351 44 
Q 1128 163 984 344 
L 984 -1272 
L 422 -1272 
z
M 931 1641 
Q 931 1000 1190 694 
Q 1450 388 1819 388 
Q 2194 388 2461 705 
Q 2728 1022 2728 1688 
Q 2728 2322 2467 2637 
Q 2206 2953 1844 2953 
Q 1484 2953 1207 2617 
Q 931 2281 931 1641 
z
" transform="scale(0.015625)"/>
      <path id="ArialMT-64" d="M 2575 0 
L 2575 419 
Q 2259 -75 1647 -75 
Q 1250 -75 917 144 
Q 584 363 401 755 
Q 219 1147 219 1656 
Q 219 2153 384 2558 
Q 550 2963 881 3178 
Q 1213 3394 1622 3394 
Q 1922 3394 2156 3267 
Q 2391 3141 2538 2938 
L 2538 4581 
L 3097 4581 
L 3097 0 
L 2575 0 
z
M 797 1656 
Q 797 1019 1065 703 
Q 1334 388 1700 388 
Q 2069 388 2326 689 
Q 2584 991 2584 1609 
Q 2584 2291 2321 2609 
Q 2059 2928 1675 2928 
Q 1300 2928 1048 2622 
Q 797 2316 797 1656 
z
" transform="scale(0.015625)"/>
      <path id="ArialMT-28" d="M 1497 -1347 
Q 1031 -759 709 28 
Q 388 816 388 1659 
Q 388 2403 628 3084 
Q 909 3875 1497 4659 
L 1900 4659 
Q 1522 4009 1400 3731 
Q 1209 3300 1100 2831 
Q 966 2247 966 1656 
Q 966 153 1900 -1347 
L 1497 -1347 
z
" transform="scale(0.015625)"/>
      <path id="ArialMT-4d" d="M 475 0 
L 475 4581 
L 1388 4581 
L 2472 1338 
Q 2622 884 2691 659 
Q 2769 909 2934 1394 
L 4031 4581 
L 4847 4581 
L 4847 0 
L 4263 0 
L 4263 3834 
L 2931 0 
L 2384 0 
L 1059 3900 
L 1059 0 
L 475 0 
z
" transform="scale(0.015625)"/>
      <path id="ArialMT-53" d="M 288 1472 
L 859 1522 
Q 900 1178 1048 958 
Q 1197 738 1509 602 
Q 1822 466 2213 466 
Q 2559 466 2825 569 
Q 3091 672 3220 851 
Q 3350 1031 3350 1244 
Q 3350 1459 3225 1620 
Q 3100 1781 2813 1891 
Q 2628 1963 1997 2114 
Q 1366 2266 1113 2400 
Q 784 2572 623 2826 
Q 463 3081 463 3397 
Q 463 3744 659 4045 
Q 856 4347 1234 4503 
Q 1613 4659 2075 4659 
Q 2584 4659 2973 4495 
Q 3363 4331 3572 4012 
Q 3781 3694 3797 3291 
L 3216 3247 
Q 3169 3681 2898 3903 
Q 2628 4125 2100 4125 
Q 1550 4125 1298 3923 
Q 1047 3722 1047 3438 
Q 1047 3191 1225 3031 
Q 1400 2872 2139 2705 
Q 2878 2538 3153 2413 
Q 3553 2228 3743 1945 
Q 3934 1663 3934 1294 
Q 3934 928 3725 604 
Q 3516 281 3123 101 
Q 2731 -78 2241 -78 
Q 1619 -78 1198 103 
Q 778 284 539 648 
Q 300 1013 288 1472 
z
" transform="scale(0.015625)"/>
      <path id="ArialMT-45" d="M 506 0 
L 506 4581 
L 3819 4581 
L 3819 4041 
L 1113 4041 
L 1113 2638 
L 3647 2638 
L 3647 2100 
L 1113 2100 
L 1113 541 
L 3925 541 
L 3925 0 
L 506 0 
z
" transform="scale(0.015625)"/>
      <path id="ArialMT-3d" d="M 3381 2694 
L 356 2694 
L 356 3219 
L 3381 3219 
L 3381 2694 
z
M 3381 1303 
L 356 1303 
L 356 1828 
L 3381 1828 
L 3381 1303 
z
" transform="scale(0.015625)"/>
      <path id="ArialMT-2e" d="M 581 0 
L 581 641 
L 1222 641 
L 1222 0 
L 581 0 
z
" transform="scale(0.015625)"/>
      <path id="ArialMT-2c" d="M 569 0 
L 569 641 
L 1209 641 
L 1209 0 
Q 1209 -353 1084 -570 
Q 959 -788 688 -906 
L 531 -666 
Q 709 -588 793 -436 
Q 878 -284 888 0 
L 569 0 
z
" transform="scale(0.015625)"/>
      <path id="ArialMT-41" d="M -9 0 
L 1750 4581 
L 2403 4581 
L 4278 0 
L 3588 0 
L 3053 1388 
L 1138 1388 
L 634 0 
L -9 0 
z
M 1313 1881 
L 2866 1881 
L 2388 3150 
Q 2169 3728 2063 4100 
Q 1975 3659 1816 3225 
L 1313 1881 
z
" transform="scale(0.015625)"/>
      <path id="ArialMT-29" d="M 791 -1347 
L 388 -1347 
Q 1322 153 1322 1656 
Q 1322 2244 1188 2822 
Q 1081 3291 891 3722 
Q 769 4003 388 4659 
L 791 4659 
Q 1378 3875 1659 3084 
Q 1900 2403 1900 1659 
Q 1900 816 1576 28 
Q 1253 -759 791 -1347 
z
" transform="scale(0.015625)"/>
     </defs>
     <use xlink:href="#ArialMT-6c"/>
     <use xlink:href="#ArialMT-69" x="22.216797"/>
     <use xlink:href="#ArialMT-6e" x="44.433594"/>
     <use xlink:href="#ArialMT-65" x="100.048828"/>
     <use xlink:href="#ArialMT-61" x="155.664062"/>
     <use xlink:href="#ArialMT-72" x="211.279297"/>
     <use xlink:href="#ArialMT-20" x="244.580078"/>
     <use xlink:href="#ArialMT-72" x="272.363281"/>
     <use xlink:href="#ArialMT-65" x="305.664062"/>
     <use xlink:href="#ArialMT-67" x="361.279297"/>
     <use xlink:href="#ArialMT-72" x="416.894531"/>
     <use xlink:href="#ArialMT-65" x="450.195312"/>
     <use xlink:href="#ArialMT-73" x="505.810547"/>
     <use xlink:href="#ArialMT-73" x="555.810547"/>
     <use xlink:href="#ArialMT-69" x="605.810547"/>
     <use xlink:href="#ArialMT-6f" x="628.027344"/>
     <use xlink:href="#ArialMT-6e" x="683.642578"/>
     <use xlink:href="#ArialMT-20" x="739.257812"/>
     <use xlink:href="#ArialMT-61" x="767.041016"/>
     <use xlink:href="#ArialMT-70" x="822.65625"/>
     <use xlink:href="#ArialMT-70" x="878.271484"/>
     <use xlink:href="#ArialMT-6c" x="933.886719"/>
     <use xlink:href="#ArialMT-69" x="956.103516"/>
     <use xlink:href="#ArialMT-65" x="978.320312"/>
     <use xlink:href="#ArialMT-64" x="1033.935547"/>
     <use xlink:href="#ArialMT-20" x="1089.550781"/>
     <use xlink:href="#ArialMT-28" x="1117.333984"/>
     <use xlink:href="#ArialMT-4d" x="1150.634766"/>
     <use xlink:href="#ArialMT-53" x="1233.935547"/>
     <use xlink:href="#ArialMT-45" x="1300.634766"/>
     <use xlink:href="#ArialMT-3d" x="1367.333984"/>
     <use xlink:href="#ArialMT-20" x="1425.732422"/>
     <use xlink:href="#ArialMT-30" x="1453.515625"/>
     <use xlink:href="#ArialMT-2e" x="1509.130859"/>
     <use xlink:href="#ArialMT-36" x="1536.914062"/>
     <use xlink:href="#ArialMT-31" x="1592.529297"/>
     <use xlink:href="#ArialMT-37" x="1648.144531"/>
     <use xlink:href="#ArialMT-2c" x="1703.759766"/>
     <use xlink:href="#ArialMT-20" x="1731.542969"/>
     <use xlink:href="#ArialMT-4d" x="1759.326172"/>
     <use xlink:href="#ArialMT-41" x="1842.626953"/>
     <use xlink:href="#ArialMT-45" x="1909.326172"/>
     <use xlink:href="#ArialMT-3d" x="1976.025391"/>
     <use xlink:href="#ArialMT-30" x="2034.423828"/>
     <use xlink:href="#ArialMT-2e" x="2090.039062"/>
     <use xlink:href="#ArialMT-36" x="2117.822266"/>
     <use xlink:href="#ArialMT-31" x="2173.4375"/>
     <use xlink:href="#ArialMT-35" x="2229.052734"/>
     <use xlink:href="#ArialMT-29" x="2284.667969"/>
    </g>
   </g>
   <g id="legend_1">
    <g id="patch_7">
     <path d="M 507.29965 64.572125 
L 573.61315 64.572125 
Q 575.37315 64.572125 575.37315 62.812125 
L 575.37315 26.3485 
Q 575.37315 24.5885 573.61315 24.5885 
L 507.29965 24.5885 
Q 505.53965 24.5885 505.53965 26.3485 
L 505.53965 62.812125 
Q 505.53965 64.572125 507.29965 64.572125 
z
" style="fill: #eaeaf2; opacity: 0.8; stroke: #cccccc; stroke-width: 0.8; stroke-linejoin: miter"/>
    </g>
    <g id="line2d_20">
     <path d="M 509.05965 31.327375 
L 517.85965 31.327375 
L 526.65965 31.327375 
" style="fill: none; stroke: #1f77b4; stroke-width: 1.2; stroke-linecap: round"/>
    </g>
    <g id="text_19">
     <!-- train -->
     <g style="fill: #262626" transform="translate(533.69965 34.407375) scale(0.088 -0.088)">
      <defs>
       <path id="ArialMT-74" d="M 1650 503 
L 1731 6 
Q 1494 -44 1306 -44 
Q 1000 -44 831 53 
Q 663 150 594 308 
Q 525 466 525 972 
L 525 2881 
L 113 2881 
L 113 3319 
L 525 3319 
L 525 4141 
L 1084 4478 
L 1084 3319 
L 1650 3319 
L 1650 2881 
L 1084 2881 
L 1084 941 
Q 1084 700 1114 631 
Q 1144 563 1211 522 
Q 1278 481 1403 481 
Q 1497 481 1650 503 
z
" transform="scale(0.015625)"/>
      </defs>
      <use xlink:href="#ArialMT-74"/>
      <use xlink:href="#ArialMT-72" x="27.783203"/>
      <use xlink:href="#ArialMT-61" x="61.083984"/>
      <use xlink:href="#ArialMT-69" x="116.699219"/>
      <use xlink:href="#ArialMT-6e" x="138.916016"/>
     </g>
    </g>
    <g id="line2d_21">
     <path d="M 509.05965 43.77525 
L 517.85965 43.77525 
L 526.65965 43.77525 
" style="fill: none; stroke: #ff7f0e; stroke-width: 1.2; stroke-linecap: round"/>
    </g>
    <g id="text_20">
     <!-- test -->
     <g style="fill: #262626" transform="translate(533.69965 46.85525) scale(0.088 -0.088)">
      <use xlink:href="#ArialMT-74"/>
      <use xlink:href="#ArialMT-65" x="27.783203"/>
      <use xlink:href="#ArialMT-73" x="83.398438"/>
      <use xlink:href="#ArialMT-74" x="133.398438"/>
     </g>
    </g>
    <g id="line2d_22">
     <path d="M 509.05965 56.223125 
L 517.85965 56.223125 
L 526.65965 56.223125 
" style="fill: none; stroke-dasharray: 4.44,1.92; stroke-dashoffset: 0; stroke: #2ca02c; stroke-width: 1.2"/>
    </g>
    <g id="text_21">
     <!-- prediction -->
     <g style="fill: #262626" transform="translate(533.69965 59.303125) scale(0.088 -0.088)">
      <defs>
       <path id="ArialMT-63" d="M 2588 1216 
L 3141 1144 
Q 3050 572 2676 248 
Q 2303 -75 1759 -75 
Q 1078 -75 664 370 
Q 250 816 250 1647 
Q 250 2184 428 2587 
Q 606 2991 970 3192 
Q 1334 3394 1763 3394 
Q 2303 3394 2647 3120 
Q 2991 2847 3088 2344 
L 2541 2259 
Q 2463 2594 2264 2762 
Q 2066 2931 1784 2931 
Q 1359 2931 1093 2626 
Q 828 2322 828 1663 
Q 828 994 1084 691 
Q 1341 388 1753 388 
Q 2084 388 2306 591 
Q 2528 794 2588 1216 
z
" transform="scale(0.015625)"/>
      </defs>
      <use xlink:href="#ArialMT-70"/>
      <use xlink:href="#ArialMT-72" x="55.615234"/>
      <use xlink:href="#ArialMT-65" x="88.916016"/>
      <use xlink:href="#ArialMT-64" x="144.53125"/>
      <use xlink:href="#ArialMT-69" x="200.146484"/>
      <use xlink:href="#ArialMT-63" x="222.363281"/>
      <use xlink:href="#ArialMT-74" x="272.363281"/>
      <use xlink:href="#ArialMT-69" x="300.146484"/>
      <use xlink:href="#ArialMT-6f" x="322.363281"/>
      <use xlink:href="#ArialMT-6e" x="377.978516"/>
     </g>
    </g>
   </g>
  </g>
 </g>
 <defs>
  <clipPath id="pec71f9bc55">
   <rect x="38.06675" y="20.1885" width="541.7064" height="332.64"/>
  </clipPath>
 </defs>
</svg>
