<?xml version="1.0" encoding="utf-8" standalone="no"?>
<!DOCTYPE svg PUBLIC "-//W3C//DTD SVG 1.1//EN"
  "http://www.w3.org/Graphics/SVG/1.1/DTD/svg11.dtd">
<svg xmlns:xlink="http://www.w3.org/1999/xlink" width="399.287187pt" height="280.512pt" viewBox="0 0 399.287187 280.512" xmlns="http://www.w3.org/2000/svg" version="1.1">
 <metadata>
  <rdf:RDF xmlns:dc="http://purl.org/dc/elements/1.1/" xmlns:cc="http://creativecommons.org/ns#" xmlns:rdf="http://www.w3.org/1999/02/22-rdf-syntax-ns#">
   <cc:Work>
    <dc:type rdf:resource="http://purl.org/dc/dcmitype/StillImage"/>
    <dc:date>2024-01-22T16:48:00.131358</dc:date>
    <dc:format>image/svg+xml</dc:format>
    <dc:creator>
     <cc:Agent>
      <dc:title>Matplotlib v3.8.0, https://matplotlib.org/</dc:title>
     </cc:Agent>
    </dc:creator>
   </cc:Work>
  </rdf:RDF>
 </metadata>
 <defs>
  <style type="text/css">*{stroke-linejoin: round; stroke-linecap: butt}</style>
 </defs>
 <g id="figure_1">
  <g id="patch_1">
   <path d="M 0 280.512 
L 399.287187 280.512 
L 399.287187 0 
L 0 0 
z
" style="fill: #ffffff"/>
  </g>
  <g id="axes_1">
   <g id="patch_2">
    <path d="M 34.967188 273.312 
L 392.087188 273.312 
L 392.087188 7.2 
L 34.967188 7.2 
z
" style="fill: #eaeaf2"/>
   </g>
   <g id="matplotlib.axis_1">
    <g id="xtick_1"/>
   </g>
   <g id="matplotlib.axis_2">
    <g id="ytick_1">
     <g id="line2d_1">
      <path d="M 34.967188 246.599918 
L 392.087188 246.599918 
" clip-path="url(#p117e23b004)" style="fill: none; stroke: #ffffff; stroke-width: 0.8; stroke-linecap: round"/>
     </g>
     <g id="text_1">
      <!-- 10 -->
      <g style="fill: #262626" transform="translate(20.345313 250.178824) scale(0.1 -0.1)">
       <defs>
        <path id="ArialMT-31" d="M 2384 0 
L 1822 0 
L 1822 3584 
Q 1619 3391 1289 3197 
Q 959 3003 697 2906 
L 697 3450 
Q 1169 3672 1522 3987 
Q 1875 4303 2022 4600 
L 2384 4600 
L 2384 0 
z
" transform="scale(0.015625)"/>
        <path id="ArialMT-30" d="M 266 2259 
Q 266 3072 433 3567 
Q 600 4063 929 4331 
Q 1259 4600 1759 4600 
Q 2128 4600 2406 4451 
Q 2684 4303 2865 4023 
Q 3047 3744 3150 3342 
Q 3253 2941 3253 2259 
Q 3253 1453 3087 958 
Q 2922 463 2592 192 
Q 2263 -78 1759 -78 
Q 1097 -78 719 397 
Q 266 969 266 2259 
z
M 844 2259 
Q 844 1131 1108 757 
Q 1372 384 1759 384 
Q 2147 384 2411 759 
Q 2675 1134 2675 2259 
Q 2675 3391 2411 3762 
Q 2147 4134 1753 4134 
Q 1366 4134 1134 3806 
Q 844 3388 844 2259 
z
" transform="scale(0.015625)"/>
       </defs>
       <use xlink:href="#ArialMT-31"/>
       <use xlink:href="#ArialMT-30" x="55.615234"/>
      </g>
     </g>
    </g>
    <g id="ytick_2">
     <g id="line2d_2">
      <path d="M 34.967188 215.322295 
L 392.087188 215.322295 
" clip-path="url(#p117e23b004)" style="fill: none; stroke: #ffffff; stroke-width: 0.8; stroke-linecap: round"/>
     </g>
     <g id="text_2">
      <!-- 20 -->
      <g style="fill: #262626" transform="translate(20.345313 218.901201) scale(0.1 -0.1)">
       <defs>
        <path id="ArialMT-32" d="M 3222 541 
L 3222 0 
L 194 0 
Q 188 203 259 391 
Q 375 700 629 1000 
Q 884 1300 1366 1694 
Q 2113 2306 2375 2664 
Q 2638 3022 2638 3341 
Q 2638 3675 2398 3904 
Q 2159 4134 1775 4134 
Q 1369 4134 1125 3890 
Q 881 3647 878 3216 
L 300 3275 
Q 359 3922 746 4261 
Q 1134 4600 1788 4600 
Q 2447 4600 2831 4234 
Q 3216 3869 3216 3328 
Q 3216 3053 3103 2787 
Q 2991 2522 2730 2228 
Q 2469 1934 1863 1422 
Q 1356 997 1212 845 
Q 1069 694 975 541 
L 3222 541 
z
" transform="scale(0.015625)"/>
       </defs>
       <use xlink:href="#ArialMT-32"/>
       <use xlink:href="#ArialMT-30" x="55.615234"/>
      </g>
     </g>
    </g>
    <g id="ytick_3">
     <g id="line2d_3">
      <path d="M 34.967188 184.044672 
L 392.087188 184.044672 
" clip-path="url(#p117e23b004)" style="fill: none; stroke: #ffffff; stroke-width: 0.8; stroke-linecap: round"/>
     </g>
     <g id="text_3">
      <!-- 30 -->
      <g style="fill: #262626" transform="translate(20.345313 187.623578) scale(0.1 -0.1)">
       <defs>
        <path id="ArialMT-33" d="M 269 1209 
L 831 1284 
Q 928 806 1161 595 
Q 1394 384 1728 384 
Q 2125 384 2398 659 
Q 2672 934 2672 1341 
Q 2672 1728 2419 1979 
Q 2166 2231 1775 2231 
Q 1616 2231 1378 2169 
L 1441 2663 
Q 1497 2656 1531 2656 
Q 1891 2656 2178 2843 
Q 2466 3031 2466 3422 
Q 2466 3731 2256 3934 
Q 2047 4138 1716 4138 
Q 1388 4138 1169 3931 
Q 950 3725 888 3313 
L 325 3413 
Q 428 3978 793 4289 
Q 1159 4600 1703 4600 
Q 2078 4600 2393 4439 
Q 2709 4278 2876 4000 
Q 3044 3722 3044 3409 
Q 3044 3113 2884 2869 
Q 2725 2625 2413 2481 
Q 2819 2388 3044 2092 
Q 3269 1797 3269 1353 
Q 3269 753 2831 336 
Q 2394 -81 1725 -81 
Q 1122 -81 723 278 
Q 325 638 269 1209 
z
" transform="scale(0.015625)"/>
       </defs>
       <use xlink:href="#ArialMT-33"/>
       <use xlink:href="#ArialMT-30" x="55.615234"/>
      </g>
     </g>
    </g>
    <g id="ytick_4">
     <g id="line2d_4">
      <path d="M 34.967188 152.767049 
L 392.087188 152.767049 
" clip-path="url(#p117e23b004)" style="fill: none; stroke: #ffffff; stroke-width: 0.8; stroke-linecap: round"/>
     </g>
     <g id="text_4">
      <!-- 40 -->
      <g style="fill: #262626" transform="translate(20.345313 156.345955) scale(0.1 -0.1)">
       <defs>
        <path id="ArialMT-34" d="M 2069 0 
L 2069 1097 
L 81 1097 
L 81 1613 
L 2172 4581 
L 2631 4581 
L 2631 1613 
L 3250 1613 
L 3250 1097 
L 2631 1097 
L 2631 0 
L 2069 0 
z
M 2069 1613 
L 2069 3678 
L 634 1613 
L 2069 1613 
z
" transform="scale(0.015625)"/>
       </defs>
       <use xlink:href="#ArialMT-34"/>
       <use xlink:href="#ArialMT-30" x="55.615234"/>
      </g>
     </g>
    </g>
    <g id="ytick_5">
     <g id="line2d_5">
      <path d="M 34.967188 121.489426 
L 392.087188 121.489426 
" clip-path="url(#p117e23b004)" style="fill: none; stroke: #ffffff; stroke-width: 0.8; stroke-linecap: round"/>
     </g>
     <g id="text_5">
      <!-- 50 -->
      <g style="fill: #262626" transform="translate(20.345313 125.068332) scale(0.1 -0.1)">
       <defs>
        <path id="ArialMT-35" d="M 266 1200 
L 856 1250 
Q 922 819 1161 601 
Q 1400 384 1738 384 
Q 2144 384 2425 690 
Q 2706 997 2706 1503 
Q 2706 1984 2436 2262 
Q 2166 2541 1728 2541 
Q 1456 2541 1237 2417 
Q 1019 2294 894 2097 
L 366 2166 
L 809 4519 
L 3088 4519 
L 3088 3981 
L 1259 3981 
L 1013 2750 
Q 1425 3038 1878 3038 
Q 2478 3038 2890 2622 
Q 3303 2206 3303 1553 
Q 3303 931 2941 478 
Q 2500 -78 1738 -78 
Q 1113 -78 717 272 
Q 322 622 266 1200 
z
" transform="scale(0.015625)"/>
       </defs>
       <use xlink:href="#ArialMT-35"/>
       <use xlink:href="#ArialMT-30" x="55.615234"/>
      </g>
     </g>
    </g>
    <g id="ytick_6">
     <g id="line2d_6">
      <path d="M 34.967188 90.211803 
L 392.087188 90.211803 
" clip-path="url(#p117e23b004)" style="fill: none; stroke: #ffffff; stroke-width: 0.8; stroke-linecap: round"/>
     </g>
     <g id="text_6">
      <!-- 60 -->
      <g style="fill: #262626" transform="translate(20.345313 93.790709) scale(0.1 -0.1)">
       <defs>
        <path id="ArialMT-36" d="M 3184 3459 
L 2625 3416 
Q 2550 3747 2413 3897 
Q 2184 4138 1850 4138 
Q 1581 4138 1378 3988 
Q 1113 3794 959 3422 
Q 806 3050 800 2363 
Q 1003 2672 1297 2822 
Q 1591 2972 1913 2972 
Q 2475 2972 2870 2558 
Q 3266 2144 3266 1488 
Q 3266 1056 3080 686 
Q 2894 316 2569 119 
Q 2244 -78 1831 -78 
Q 1128 -78 684 439 
Q 241 956 241 2144 
Q 241 3472 731 4075 
Q 1159 4600 1884 4600 
Q 2425 4600 2770 4297 
Q 3116 3994 3184 3459 
z
M 888 1484 
Q 888 1194 1011 928 
Q 1134 663 1356 523 
Q 1578 384 1822 384 
Q 2178 384 2434 671 
Q 2691 959 2691 1453 
Q 2691 1928 2437 2201 
Q 2184 2475 1800 2475 
Q 1419 2475 1153 2201 
Q 888 1928 888 1484 
z
" transform="scale(0.015625)"/>
       </defs>
       <use xlink:href="#ArialMT-36"/>
       <use xlink:href="#ArialMT-30" x="55.615234"/>
      </g>
     </g>
    </g>
    <g id="ytick_7">
     <g id="line2d_7">
      <path d="M 34.967188 58.93418 
L 392.087188 58.93418 
" clip-path="url(#p117e23b004)" style="fill: none; stroke: #ffffff; stroke-width: 0.8; stroke-linecap: round"/>
     </g>
     <g id="text_7">
      <!-- 70 -->
      <g style="fill: #262626" transform="translate(20.345313 62.513086) scale(0.1 -0.1)">
       <defs>
        <path id="ArialMT-37" d="M 303 3981 
L 303 4522 
L 3269 4522 
L 3269 4084 
Q 2831 3619 2401 2847 
Q 1972 2075 1738 1259 
Q 1569 684 1522 0 
L 944 0 
Q 953 541 1156 1306 
Q 1359 2072 1739 2783 
Q 2119 3494 2547 3981 
L 303 3981 
z
" transform="scale(0.015625)"/>
       </defs>
       <use xlink:href="#ArialMT-37"/>
       <use xlink:href="#ArialMT-30" x="55.615234"/>
      </g>
     </g>
    </g>
    <g id="ytick_8">
     <g id="line2d_8">
      <path d="M 34.967188 27.656557 
L 392.087188 27.656557 
" clip-path="url(#p117e23b004)" style="fill: none; stroke: #ffffff; stroke-width: 0.8; stroke-linecap: round"/>
     </g>
     <g id="text_8">
      <!-- 80 -->
      <g style="fill: #262626" transform="translate(20.345313 31.235463) scale(0.1 -0.1)">
       <defs>
        <path id="ArialMT-38" d="M 1131 2484 
Q 781 2613 612 2850 
Q 444 3088 444 3419 
Q 444 3919 803 4259 
Q 1163 4600 1759 4600 
Q 2359 4600 2725 4251 
Q 3091 3903 3091 3403 
Q 3091 3084 2923 2848 
Q 2756 2613 2416 2484 
Q 2838 2347 3058 2040 
Q 3278 1734 3278 1309 
Q 3278 722 2862 322 
Q 2447 -78 1769 -78 
Q 1091 -78 675 323 
Q 259 725 259 1325 
Q 259 1772 486 2073 
Q 713 2375 1131 2484 
z
M 1019 3438 
Q 1019 3113 1228 2906 
Q 1438 2700 1772 2700 
Q 2097 2700 2305 2904 
Q 2513 3109 2513 3406 
Q 2513 3716 2298 3927 
Q 2084 4138 1766 4138 
Q 1444 4138 1231 3931 
Q 1019 3725 1019 3438 
z
M 838 1322 
Q 838 1081 952 856 
Q 1066 631 1291 507 
Q 1516 384 1775 384 
Q 2178 384 2440 643 
Q 2703 903 2703 1303 
Q 2703 1709 2433 1975 
Q 2163 2241 1756 2241 
Q 1359 2241 1098 1978 
Q 838 1716 838 1322 
z
" transform="scale(0.015625)"/>
       </defs>
       <use xlink:href="#ArialMT-38"/>
       <use xlink:href="#ArialMT-30" x="55.615234"/>
      </g>
     </g>
    </g>
    <g id="text_9">
     <!-- age -->
     <g style="fill: #262626" transform="translate(14.240625 148.597406) rotate(-90) scale(0.1 -0.1)">
      <defs>
       <path id="ArialMT-61" d="M 2588 409 
Q 2275 144 1986 34 
Q 1697 -75 1366 -75 
Q 819 -75 525 192 
Q 231 459 231 875 
Q 231 1119 342 1320 
Q 453 1522 633 1644 
Q 813 1766 1038 1828 
Q 1203 1872 1538 1913 
Q 2219 1994 2541 2106 
Q 2544 2222 2544 2253 
Q 2544 2597 2384 2738 
Q 2169 2928 1744 2928 
Q 1347 2928 1158 2789 
Q 969 2650 878 2297 
L 328 2372 
Q 403 2725 575 2942 
Q 747 3159 1072 3276 
Q 1397 3394 1825 3394 
Q 2250 3394 2515 3294 
Q 2781 3194 2906 3042 
Q 3031 2891 3081 2659 
Q 3109 2516 3109 2141 
L 3109 1391 
Q 3109 606 3145 398 
Q 3181 191 3288 0 
L 2700 0 
Q 2613 175 2588 409 
z
M 2541 1666 
Q 2234 1541 1622 1453 
Q 1275 1403 1131 1340 
Q 988 1278 909 1158 
Q 831 1038 831 891 
Q 831 666 1001 516 
Q 1172 366 1500 366 
Q 1825 366 2078 508 
Q 2331 650 2450 897 
Q 2541 1088 2541 1459 
L 2541 1666 
z
" transform="scale(0.015625)"/>
       <path id="ArialMT-67" d="M 319 -275 
L 866 -356 
Q 900 -609 1056 -725 
Q 1266 -881 1628 -881 
Q 2019 -881 2231 -725 
Q 2444 -569 2519 -288 
Q 2563 -116 2559 434 
Q 2191 0 1641 0 
Q 956 0 581 494 
Q 206 988 206 1678 
Q 206 2153 378 2554 
Q 550 2956 876 3175 
Q 1203 3394 1644 3394 
Q 2231 3394 2613 2919 
L 2613 3319 
L 3131 3319 
L 3131 450 
Q 3131 -325 2973 -648 
Q 2816 -972 2473 -1159 
Q 2131 -1347 1631 -1347 
Q 1038 -1347 672 -1080 
Q 306 -813 319 -275 
z
M 784 1719 
Q 784 1066 1043 766 
Q 1303 466 1694 466 
Q 2081 466 2343 764 
Q 2606 1063 2606 1700 
Q 2606 2309 2336 2618 
Q 2066 2928 1684 2928 
Q 1309 2928 1046 2623 
Q 784 2319 784 1719 
z
" transform="scale(0.015625)"/>
       <path id="ArialMT-65" d="M 2694 1069 
L 3275 997 
Q 3138 488 2766 206 
Q 2394 -75 1816 -75 
Q 1088 -75 661 373 
Q 234 822 234 1631 
Q 234 2469 665 2931 
Q 1097 3394 1784 3394 
Q 2450 3394 2872 2941 
Q 3294 2488 3294 1666 
Q 3294 1616 3291 1516 
L 816 1516 
Q 847 969 1125 678 
Q 1403 388 1819 388 
Q 2128 388 2347 550 
Q 2566 713 2694 1069 
z
M 847 1978 
L 2700 1978 
Q 2663 2397 2488 2606 
Q 2219 2931 1791 2931 
Q 1403 2931 1139 2672 
Q 875 2413 847 1978 
z
" transform="scale(0.015625)"/>
      </defs>
      <use xlink:href="#ArialMT-61"/>
      <use xlink:href="#ArialMT-67" x="55.615234"/>
      <use xlink:href="#ArialMT-65" x="111.230469"/>
     </g>
    </g>
   </g>
   <g id="PolyCollection_1">
    <defs>
     <path id="m38586fe7fb" d="M 209.955988 -28.151396 
L 207.797097 -28.151396 
L 206.931617 -30.352948 
L 205.793666 -32.554501 
L 204.327429 -34.756053 
L 202.476168 -36.957605 
L 200.185928 -39.159158 
L 197.409982 -41.36071 
L 194.113673 -43.562262 
L 190.27917 -45.763815 
L 185.909538 -47.965367 
L 181.031456 -50.16692 
L 175.69601 -52.368472 
L 169.977106 -54.570024 
L 163.967351 -56.771577 
L 157.771603 -58.973129 
L 151.498739 -61.174681 
L 145.252602 -63.376234 
L 139.123284 -65.577786 
L 133.180015 -67.779338 
L 127.466807 -69.980891 
L 122.001651 -72.182443 
L 116.779602 -74.383995 
L 111.779434 -76.585548 
L 106.972997 -78.7871 
L 102.335896 -80.988653 
L 97.857839 -83.190205 
L 93.55099 -85.391757 
L 89.454952 -87.59331 
L 85.637462 -89.794862 
L 82.190596 -91.996414 
L 79.222896 -94.197967 
L 76.848489 -96.399519 
L 75.174631 -98.601071 
L 74.289302 -100.802624 
L 74.250388 -103.004176 
L 75.07768 -105.205729 
L 76.748499 -107.407281 
L 79.197234 -109.608833 
L 82.318662 -111.810386 
L 85.974484 -114.011938 
L 90.00235 -116.21349 
L 94.226438 -118.415043 
L 98.468728 -120.616595 
L 102.560129 -122.818147 
L 106.350748 -125.0197 
L 109.7187 -127.221252 
L 112.576991 -129.422804 
L 114.878101 -131.624357 
L 116.616002 -133.825909 
L 117.825478 -136.027462 
L 118.578757 -138.229014 
L 118.979606 -140.430566 
L 119.155272 -142.632119 
L 119.246802 -144.833671 
L 119.398457 -147.035223 
L 119.747081 -149.236776 
L 120.412279 -151.438328 
L 121.488271 -153.63988 
L 123.03808 -155.841433 
L 125.090523 -158.042985 
L 127.640148 -160.244537 
L 130.649943 -162.44609 
L 134.05636 -164.647642 
L 137.775978 -166.849195 
L 141.712975 -169.050747 
L 145.766642 -171.252299 
L 149.838209 -173.453852 
L 153.836504 -175.655404 
L 157.682172 -177.856956 
L 161.310414 -180.058509 
L 164.672415 -182.260061 
L 167.735717 -184.461613 
L 170.483864 -186.663166 
L 172.915553 -188.864718 
L 175.043481 -191.06627 
L 176.892942 -193.267823 
L 178.50012 -195.469375 
L 179.910009 -197.670928 
L 181.173847 -199.87248 
L 182.346065 -202.074032 
L 183.480812 -204.275585 
L 184.628273 -206.477137 
L 185.831087 -208.678689 
L 187.121224 -210.880242 
L 188.517712 -213.081794 
L 190.025496 -215.283346 
L 191.635604 -217.484899 
L 193.326621 -219.686451 
L 195.067294 -221.888003 
L 196.819947 -224.089556 
L 198.544284 -226.291108 
L 200.201128 -228.492661 
L 201.75569 -230.694213 
L 203.180049 -232.895765 
L 204.454669 -235.097318 
L 205.568909 -237.29887 
L 206.52063 -239.500422 
L 207.315089 -241.701975 
L 207.963363 -243.903527 
L 208.480561 -246.105079 
L 209.955988 -246.105079 
L 209.955988 -246.105079 
L 209.955988 -243.903527 
L 209.955988 -241.701975 
L 209.955988 -239.500422 
L 209.955988 -237.29887 
L 209.955988 -235.097318 
L 209.955988 -232.895765 
L 209.955988 -230.694213 
L 209.955988 -228.492661 
L 209.955988 -226.291108 
L 209.955988 -224.089556 
L 209.955988 -221.888003 
L 209.955988 -219.686451 
L 209.955988 -217.484899 
L 209.955988 -215.283346 
L 209.955988 -213.081794 
L 209.955988 -210.880242 
L 209.955988 -208.678689 
L 209.955988 -206.477137 
L 209.955988 -204.275585 
L 209.955988 -202.074032 
L 209.955988 -199.87248 
L 209.955988 -197.670928 
L 209.955988 -195.469375 
L 209.955988 -193.267823 
L 209.955988 -191.06627 
L 209.955988 -188.864718 
L 209.955988 -186.663166 
L 209.955988 -184.461613 
L 209.955988 -182.260061 
L 209.955988 -180.058509 
L 209.955988 -177.856956 
L 209.955988 -175.655404 
L 209.955988 -173.453852 
L 209.955988 -171.252299 
L 209.955988 -169.050747 
L 209.955988 -166.849195 
L 209.955988 -164.647642 
L 209.955988 -162.44609 
L 209.955988 -160.244537 
L 209.955988 -158.042985 
L 209.955988 -155.841433 
L 209.955988 -153.63988 
L 209.955988 -151.438328 
L 209.955988 -149.236776 
L 209.955988 -147.035223 
L 209.955988 -144.833671 
L 209.955988 -142.632119 
L 209.955988 -140.430566 
L 209.955988 -138.229014 
L 209.955988 -136.027462 
L 209.955988 -133.825909 
L 209.955988 -131.624357 
L 209.955988 -129.422804 
L 209.955988 -127.221252 
L 209.955988 -125.0197 
L 209.955988 -122.818147 
L 209.955988 -120.616595 
L 209.955988 -118.415043 
L 209.955988 -116.21349 
L 209.955988 -114.011938 
L 209.955988 -111.810386 
L 209.955988 -109.608833 
L 209.955988 -107.407281 
L 209.955988 -105.205729 
L 209.955988 -103.004176 
L 209.955988 -100.802624 
L 209.955988 -98.601071 
L 209.955988 -96.399519 
L 209.955988 -94.197967 
L 209.955988 -91.996414 
L 209.955988 -89.794862 
L 209.955988 -87.59331 
L 209.955988 -85.391757 
L 209.955988 -83.190205 
L 209.955988 -80.988653 
L 209.955988 -78.7871 
L 209.955988 -76.585548 
L 209.955988 -74.383995 
L 209.955988 -72.182443 
L 209.955988 -69.980891 
L 209.955988 -67.779338 
L 209.955988 -65.577786 
L 209.955988 -63.376234 
L 209.955988 -61.174681 
L 209.955988 -58.973129 
L 209.955988 -56.771577 
L 209.955988 -54.570024 
L 209.955988 -52.368472 
L 209.955988 -50.16692 
L 209.955988 -47.965367 
L 209.955988 -45.763815 
L 209.955988 -43.562262 
L 209.955988 -41.36071 
L 209.955988 -39.159158 
L 209.955988 -36.957605 
L 209.955988 -34.756053 
L 209.955988 -32.554501 
L 209.955988 -30.352948 
L 209.955988 -28.151396 
z
" style="stroke: #3f3f3f; stroke-width: 1.25"/>
    </defs>
    <g clip-path="url(#p117e23b004)">
     <use xlink:href="#m38586fe7fb" x="0" y="280.512" style="fill: #3274a1; stroke: #3f3f3f; stroke-width: 1.25"/>
    </g>
   </g>
   <g id="PolyCollection_2">
    <defs>
     <path id="m14aa3e4392" d="M 222.594219 -19.296 
L 217.098388 -19.296 
L 217.098388 -21.739636 
L 217.098388 -24.183273 
L 217.098388 -26.626909 
L 217.098388 -29.070545 
L 217.098388 -31.514182 
L 217.098388 -33.957818 
L 217.098388 -36.401455 
L 217.098388 -38.845091 
L 217.098388 -41.288727 
L 217.098388 -43.732364 
L 217.098388 -46.176 
L 217.098388 -48.619636 
L 217.098388 -51.063273 
L 217.098388 -53.506909 
L 217.098388 -55.950545 
L 217.098388 -58.394182 
L 217.098388 -60.837818 
L 217.098388 -63.281455 
L 217.098388 -65.725091 
L 217.098388 -68.168727 
L 217.098388 -70.612364 
L 217.098388 -73.056 
L 217.098388 -75.499636 
L 217.098388 -77.943273 
L 217.098388 -80.386909 
L 217.098388 -82.830545 
L 217.098388 -85.274182 
L 217.098388 -87.717818 
L 217.098388 -90.161455 
L 217.098388 -92.605091 
L 217.098388 -95.048727 
L 217.098388 -97.492364 
L 217.098388 -99.936 
L 217.098388 -102.379636 
L 217.098388 -104.823273 
L 217.098388 -107.266909 
L 217.098388 -109.710545 
L 217.098388 -112.154182 
L 217.098388 -114.597818 
L 217.098388 -117.041455 
L 217.098388 -119.485091 
L 217.098388 -121.928727 
L 217.098388 -124.372364 
L 217.098388 -126.816 
L 217.098388 -129.259636 
L 217.098388 -131.703273 
L 217.098388 -134.146909 
L 217.098388 -136.590545 
L 217.098388 -139.034182 
L 217.098388 -141.477818 
L 217.098388 -143.921455 
L 217.098388 -146.365091 
L 217.098388 -148.808727 
L 217.098388 -151.252364 
L 217.098388 -153.696 
L 217.098388 -156.139636 
L 217.098388 -158.583273 
L 217.098388 -161.026909 
L 217.098388 -163.470545 
L 217.098388 -165.914182 
L 217.098388 -168.357818 
L 217.098388 -170.801455 
L 217.098388 -173.245091 
L 217.098388 -175.688727 
L 217.098388 -178.132364 
L 217.098388 -180.576 
L 217.098388 -183.019636 
L 217.098388 -185.463273 
L 217.098388 -187.906909 
L 217.098388 -190.350545 
L 217.098388 -192.794182 
L 217.098388 -195.237818 
L 217.098388 -197.681455 
L 217.098388 -200.125091 
L 217.098388 -202.568727 
L 217.098388 -205.012364 
L 217.098388 -207.456 
L 217.098388 -209.899636 
L 217.098388 -212.343273 
L 217.098388 -214.786909 
L 217.098388 -217.230545 
L 217.098388 -219.674182 
L 217.098388 -222.117818 
L 217.098388 -224.561455 
L 217.098388 -227.005091 
L 217.098388 -229.448727 
L 217.098388 -231.892364 
L 217.098388 -234.336 
L 217.098388 -236.779636 
L 217.098388 -239.223273 
L 217.098388 -241.666909 
L 217.098388 -244.110545 
L 217.098388 -246.554182 
L 217.098388 -248.997818 
L 217.098388 -251.441455 
L 217.098388 -253.885091 
L 217.098388 -256.328727 
L 217.098388 -258.772364 
L 217.098388 -261.216 
L 219.790231 -261.216 
L 219.790231 -261.216 
L 220.631521 -258.772364 
L 221.672722 -256.328727 
L 222.940879 -253.885091 
L 224.460801 -251.441455 
L 226.253205 -248.997818 
L 228.332756 -246.554182 
L 230.706151 -244.110545 
L 233.37043 -241.666909 
L 236.311707 -239.223273 
L 239.504493 -236.779636 
L 242.911753 -234.336 
L 246.485791 -231.892364 
L 250.169964 -229.448727 
L 253.901153 -227.005091 
L 257.612845 -224.561455 
L 261.238573 -222.117818 
L 264.715469 -219.674182 
L 267.987621 -217.230545 
L 271.00896 -214.786909 
L 273.745459 -212.343273 
L 276.176496 -209.899636 
L 278.295304 -207.456 
L 280.108555 -205.012364 
L 281.63516 -202.568727 
L 282.904466 -200.125091 
L 283.954024 -197.681455 
L 284.827125 -195.237818 
L 285.570285 -192.794182 
L 286.230812 -190.350545 
L 286.85458 -187.906909 
L 287.48407 -185.463273 
L 288.156757 -183.019636 
L 288.903881 -180.576 
L 289.74965 -178.132364 
L 290.710932 -175.688727 
L 291.797454 -173.245091 
L 293.012532 -170.801455 
L 294.354298 -168.357818 
L 295.817328 -165.914182 
L 297.394554 -163.470545 
L 299.079219 -161.026909 
L 300.866667 -158.583273 
L 302.755697 -156.139636 
L 304.749265 -153.696 
L 306.854374 -151.252364 
L 309.081096 -148.808727 
L 311.44077 -146.365091 
L 313.943566 -143.921455 
L 316.595677 -141.477818 
L 319.396495 -139.034182 
L 322.336125 -136.590545 
L 325.393603 -134.146909 
L 328.536057 -131.703273 
L 331.718998 -129.259636 
L 334.887756 -126.816 
L 337.979968 -124.372364 
L 340.92889 -121.928727 
L 343.667226 -119.485091 
L 346.131113 -117.041455 
L 348.263883 -114.597818 
L 350.019247 -112.154182 
L 351.363629 -109.710545 
L 352.27742 -107.266909 
L 352.755066 -104.823273 
L 352.803988 -102.379636 
L 352.442414 -99.936 
L 351.69636 -97.492364 
L 350.595996 -95.048727 
L 349.171768 -92.605091 
L 347.450628 -90.161455 
L 345.452772 -87.717818 
L 343.18922 -85.274182 
L 340.660543 -82.830545 
L 337.856923 -80.386909 
L 334.759618 -77.943273 
L 331.34375 -75.499636 
L 327.582187 -73.056 
L 323.45015 -70.612364 
L 318.930079 -68.168727 
L 314.01623 -65.725091 
L 308.718471 -63.281455 
L 303.064824 -60.837818 
L 297.102431 -58.394182 
L 290.896778 -55.950545 
L 284.529204 -53.506909 
L 278.092945 -51.063273 
L 271.688068 -48.619636 
L 265.415824 -46.176 
L 259.372943 -43.732364 
L 253.646419 -41.288727 
L 248.309217 -38.845091 
L 243.417232 -36.401455 
L 239.00766 -33.957818 
L 235.098793 -31.514182 
L 231.691097 -29.070545 
L 228.76934 -26.626909 
L 226.305442 -24.183273 
L 224.261721 -21.739636 
L 222.594219 -19.296 
z
" style="stroke: #3f3f3f; stroke-width: 1.25"/>
    </defs>
    <g clip-path="url(#p117e23b004)">
     <use xlink:href="#m14aa3e4392" x="0" y="280.512" style="fill: #e1812c; stroke: #3f3f3f; stroke-width: 1.25"/>
    </g>
   </g>
   <g id="patch_3">
    <path d="M 213.527188 277.877541 
L 213.527188 277.877541 
L 213.527188 277.877541 
L 213.527188 277.877541 
z
" clip-path="url(#p117e23b004)" style="fill: #3274a1; stroke: #3f3f3f; stroke-width: 1.25; stroke-linejoin: miter"/>
   </g>
   <g id="patch_4">
    <path d="M 213.527188 277.877541 
L 213.527188 277.877541 
L 213.527188 277.877541 
L 213.527188 277.877541 
z
" clip-path="url(#p117e23b004)" style="fill: #e1812c; stroke: #3f3f3f; stroke-width: 1.25; stroke-linejoin: miter"/>
   </g>
   <g id="line2d_9">
    <path d="M 207.143488 221.57782 
L 207.143488 65.189705 
" clip-path="url(#p117e23b004)" style="fill: none; stroke: #3f3f3f; stroke-width: 1.875; stroke-linecap: round"/>
   </g>
   <g id="line2d_10">
    <path d="M 207.143488 187.172435 
L 207.143488 129.308832 
" clip-path="url(#p117e23b004)" style="fill: none; stroke: #3f3f3f; stroke-width: 5.625; stroke-linecap: round"/>
   </g>
   <g id="line2d_11">
    <path d="M 207.143488 168.405861 
" clip-path="url(#p117e23b004)" style="fill: none; stroke: #3f3f3f; stroke-width: 1.5; stroke-linecap: round"/>
    <defs>
     <path id="meabc158087" d="M 2.34375 0 
L -2.34375 -0 
" style="stroke: #ffffff; stroke-width: 1.125"/>
    </defs>
    <g clip-path="url(#p117e23b004)">
     <use xlink:href="#meabc158087" x="207.143488" y="168.405861" style="fill: #ffffff; stroke: #ffffff; stroke-width: 1.125"/>
    </g>
   </g>
   <g id="line2d_12">
    <path d="M 219.910888 221.57782 
L 219.910888 58.93418 
" clip-path="url(#p117e23b004)" style="fill: none; stroke: #3f3f3f; stroke-width: 1.875; stroke-linecap: round"/>
   </g>
   <g id="line2d_13">
    <path d="M 219.910888 191.082137 
L 219.910888 119.925545 
" clip-path="url(#p117e23b004)" style="fill: none; stroke: #3f3f3f; stroke-width: 5.625; stroke-linecap: round"/>
   </g>
   <g id="line2d_14">
    <path d="M 219.910888 162.150336 
" clip-path="url(#p117e23b004)" style="fill: none; stroke: #3f3f3f; stroke-width: 1.5; stroke-linecap: round"/>
    <g clip-path="url(#p117e23b004)">
     <use xlink:href="#meabc158087" x="219.910888" y="162.150336" style="fill: #ffffff; stroke: #ffffff; stroke-width: 1.125"/>
    </g>
   </g>
   <g id="patch_5">
    <path d="M 34.967188 273.312 
L 34.967188 7.2 
" style="fill: none"/>
   </g>
   <g id="patch_6">
    <path d="M 392.087188 273.312 
L 392.087188 7.2 
" style="fill: none"/>
   </g>
   <g id="patch_7">
    <path d="M 34.967188 273.312 
L 392.087188 273.312 
" style="fill: none"/>
   </g>
   <g id="patch_8">
    <path d="M 34.967188 7.2 
L 392.087188 7.2 
" style="fill: none"/>
   </g>
   <g id="legend_1">
    <g id="text_10">
     <!-- gender_male -->
     <g style="fill: #262626" transform="translate(324.718438 23.357812) scale(0.1 -0.1)">
      <defs>
       <path id="ArialMT-6e" d="M 422 0 
L 422 3319 
L 928 3319 
L 928 2847 
Q 1294 3394 1984 3394 
Q 2284 3394 2536 3286 
Q 2788 3178 2913 3003 
Q 3038 2828 3088 2588 
Q 3119 2431 3119 2041 
L 3119 0 
L 2556 0 
L 2556 2019 
Q 2556 2363 2490 2533 
Q 2425 2703 2258 2804 
Q 2091 2906 1866 2906 
Q 1506 2906 1245 2678 
Q 984 2450 984 1813 
L 984 0 
L 422 0 
z
" transform="scale(0.015625)"/>
       <path id="ArialMT-64" d="M 2575 0 
L 2575 419 
Q 2259 -75 1647 -75 
Q 1250 -75 917 144 
Q 584 363 401 755 
Q 219 1147 219 1656 
Q 219 2153 384 2558 
Q 550 2963 881 3178 
Q 1213 3394 1622 3394 
Q 1922 3394 2156 3267 
Q 2391 3141 2538 2938 
L 2538 4581 
L 3097 4581 
L 3097 0 
L 2575 0 
z
M 797 1656 
Q 797 1019 1065 703 
Q 1334 388 1700 388 
Q 2069 388 2326 689 
Q 2584 991 2584 1609 
Q 2584 2291 2321 2609 
Q 2059 2928 1675 2928 
Q 1300 2928 1048 2622 
Q 797 2316 797 1656 
z
" transform="scale(0.015625)"/>
       <path id="ArialMT-72" d="M 416 0 
L 416 3319 
L 922 3319 
L 922 2816 
Q 1116 3169 1280 3281 
Q 1444 3394 1641 3394 
Q 1925 3394 2219 3213 
L 2025 2691 
Q 1819 2813 1613 2813 
Q 1428 2813 1281 2702 
Q 1134 2591 1072 2394 
Q 978 2094 978 1738 
L 978 0 
L 416 0 
z
" transform="scale(0.015625)"/>
       <path id="ArialMT-5f" d="M -97 -1272 
L -97 -866 
L 3631 -866 
L 3631 -1272 
L -97 -1272 
z
" transform="scale(0.015625)"/>
       <path id="ArialMT-6d" d="M 422 0 
L 422 3319 
L 925 3319 
L 925 2853 
Q 1081 3097 1340 3245 
Q 1600 3394 1931 3394 
Q 2300 3394 2536 3241 
Q 2772 3088 2869 2813 
Q 3263 3394 3894 3394 
Q 4388 3394 4653 3120 
Q 4919 2847 4919 2278 
L 4919 0 
L 4359 0 
L 4359 2091 
Q 4359 2428 4304 2576 
Q 4250 2725 4106 2815 
Q 3963 2906 3769 2906 
Q 3419 2906 3187 2673 
Q 2956 2441 2956 1928 
L 2956 0 
L 2394 0 
L 2394 2156 
Q 2394 2531 2256 2718 
Q 2119 2906 1806 2906 
Q 1569 2906 1367 2781 
Q 1166 2656 1075 2415 
Q 984 2175 984 1722 
L 984 0 
L 422 0 
z
" transform="scale(0.015625)"/>
       <path id="ArialMT-6c" d="M 409 0 
L 409 4581 
L 972 4581 
L 972 0 
L 409 0 
z
" transform="scale(0.015625)"/>
      </defs>
      <use xlink:href="#ArialMT-67"/>
      <use xlink:href="#ArialMT-65" x="55.615234"/>
      <use xlink:href="#ArialMT-6e" x="111.230469"/>
      <use xlink:href="#ArialMT-64" x="166.845703"/>
      <use xlink:href="#ArialMT-65" x="222.460938"/>
      <use xlink:href="#ArialMT-72" x="278.076172"/>
      <use xlink:href="#ArialMT-5f" x="311.376953"/>
      <use xlink:href="#ArialMT-6d" x="366.992188"/>
      <use xlink:href="#ArialMT-61" x="450.292969"/>
      <use xlink:href="#ArialMT-6c" x="505.908203"/>
      <use xlink:href="#ArialMT-65" x="528.125"/>
     </g>
    </g>
    <g id="patch_9">
     <path d="M 327.677031 37.620312 
L 347.677031 37.620312 
L 347.677031 30.620312 
L 327.677031 30.620312 
z
" style="fill: #3274a1; stroke: #3f3f3f; stroke-width: 1.25; stroke-linejoin: miter"/>
    </g>
    <g id="text_11">
     <!-- False -->
     <g style="fill: #262626" transform="translate(355.677031 37.620312) scale(0.1 -0.1)">
      <defs>
       <path id="ArialMT-46" d="M 525 0 
L 525 4581 
L 3616 4581 
L 3616 4041 
L 1131 4041 
L 1131 2622 
L 3281 2622 
L 3281 2081 
L 1131 2081 
L 1131 0 
L 525 0 
z
" transform="scale(0.015625)"/>
       <path id="ArialMT-73" d="M 197 991 
L 753 1078 
Q 800 744 1014 566 
Q 1228 388 1613 388 
Q 2000 388 2187 545 
Q 2375 703 2375 916 
Q 2375 1106 2209 1216 
Q 2094 1291 1634 1406 
Q 1016 1563 777 1677 
Q 538 1791 414 1992 
Q 291 2194 291 2438 
Q 291 2659 392 2848 
Q 494 3038 669 3163 
Q 800 3259 1026 3326 
Q 1253 3394 1513 3394 
Q 1903 3394 2198 3281 
Q 2494 3169 2634 2976 
Q 2775 2784 2828 2463 
L 2278 2388 
Q 2241 2644 2061 2787 
Q 1881 2931 1553 2931 
Q 1166 2931 1000 2803 
Q 834 2675 834 2503 
Q 834 2394 903 2306 
Q 972 2216 1119 2156 
Q 1203 2125 1616 2013 
Q 2213 1853 2448 1751 
Q 2684 1650 2818 1456 
Q 2953 1263 2953 975 
Q 2953 694 2789 445 
Q 2625 197 2315 61 
Q 2006 -75 1616 -75 
Q 969 -75 630 194 
Q 291 463 197 991 
z
" transform="scale(0.015625)"/>
      </defs>
      <use xlink:href="#ArialMT-46"/>
      <use xlink:href="#ArialMT-61" x="61.083984"/>
      <use xlink:href="#ArialMT-6c" x="116.699219"/>
      <use xlink:href="#ArialMT-73" x="138.916016"/>
      <use xlink:href="#ArialMT-65" x="188.916016"/>
     </g>
    </g>
    <g id="patch_10">
     <path d="M 327.677031 51.765625 
L 347.677031 51.765625 
L 347.677031 44.765625 
L 327.677031 44.765625 
z
" style="fill: #e1812c; stroke: #3f3f3f; stroke-width: 1.25; stroke-linejoin: miter"/>
    </g>
    <g id="text_12">
     <!-- True -->
     <g style="fill: #262626" transform="translate(355.677031 51.765625) scale(0.1 -0.1)">
      <defs>
       <path id="ArialMT-54" d="M 1659 0 
L 1659 4041 
L 150 4041 
L 150 4581 
L 3781 4581 
L 3781 4041 
L 2266 4041 
L 2266 0 
L 1659 0 
z
" transform="scale(0.015625)"/>
       <path id="ArialMT-75" d="M 2597 0 
L 2597 488 
Q 2209 -75 1544 -75 
Q 1250 -75 995 37 
Q 741 150 617 320 
Q 494 491 444 738 
Q 409 903 409 1263 
L 409 3319 
L 972 3319 
L 972 1478 
Q 972 1038 1006 884 
Q 1059 663 1231 536 
Q 1403 409 1656 409 
Q 1909 409 2131 539 
Q 2353 669 2445 892 
Q 2538 1116 2538 1541 
L 2538 3319 
L 3100 3319 
L 3100 0 
L 2597 0 
z
" transform="scale(0.015625)"/>
      </defs>
      <use xlink:href="#ArialMT-54"/>
      <use xlink:href="#ArialMT-72" x="57.333984"/>
      <use xlink:href="#ArialMT-75" x="90.634766"/>
      <use xlink:href="#ArialMT-65" x="146.25"/>
     </g>
    </g>
   </g>
  </g>
 </g>
 <defs>
  <clipPath id="p117e23b004">
   <rect x="34.967188" y="7.2" width="357.12" height="266.112"/>
  </clipPath>
 </defs>
</svg>
