<?xml version="1.0" encoding="utf-8" standalone="no"?>
<!DOCTYPE svg PUBLIC "-//W3C//DTD SVG 1.1//EN"
  "http://www.w3.org/Graphics/SVG/1.1/DTD/svg11.dtd">
<svg xmlns:xlink="http://www.w3.org/1999/xlink" width="386.421562pt" height="293.157312pt" viewBox="0 0 386.421562 293.157312" xmlns="http://www.w3.org/2000/svg" version="1.1">
 <metadata>
  <rdf:RDF xmlns:dc="http://purl.org/dc/elements/1.1/" xmlns:cc="http://creativecommons.org/ns#" xmlns:rdf="http://www.w3.org/1999/02/22-rdf-syntax-ns#">
   <cc:Work>
    <dc:type rdf:resource="http://purl.org/dc/dcmitype/StillImage"/>
    <dc:date>2024-01-22T16:54:16.943486</dc:date>
    <dc:format>image/svg+xml</dc:format>
    <dc:creator>
     <cc:Agent>
      <dc:title>Matplotlib v3.8.0, https://matplotlib.org/</dc:title>
     </cc:Agent>
    </dc:creator>
   </cc:Work>
  </rdf:RDF>
 </metadata>
 <defs>
  <style type="text/css">*{stroke-linejoin: round; stroke-linecap: butt}</style>
 </defs>
 <g id="figure_1">
  <g id="patch_1">
   <path d="M 0 293.157312 
L 386.421562 293.157312 
L 386.421562 0 
L 0 0 
z
" style="fill: #ffffff"/>
  </g>
  <g id="axes_1">
   <g id="patch_2">
    <path d="M 22.101563 273.312 
L 379.221563 273.312 
L 379.221563 7.2 
L 22.101563 7.2 
z
" style="fill: #eaeaf2"/>
   </g>
   <g id="matplotlib.axis_1">
    <g id="xtick_1">
     <g id="line2d_1">
      <path d="M 83.470772 273.312 
L 83.470772 7.2 
" clip-path="url(#p7670c2aaae)" style="fill: none; stroke: #ffffff; stroke-width: 0.8; stroke-linecap: round"/>
     </g>
     <g id="text_1">
      <!-- −5 -->
      <g style="fill: #262626" transform="translate(77.76999 283.969812) scale(0.1 -0.1)">
       <defs>
        <path id="ArialMT-2212" d="M 3381 1997 
L 356 1997 
L 356 2522 
L 3381 2522 
L 3381 1997 
z
" transform="scale(0.015625)"/>
        <path id="ArialMT-35" d="M 266 1200 
L 856 1250 
Q 922 819 1161 601 
Q 1400 384 1738 384 
Q 2144 384 2425 690 
Q 2706 997 2706 1503 
Q 2706 1984 2436 2262 
Q 2166 2541 1728 2541 
Q 1456 2541 1237 2417 
Q 1019 2294 894 2097 
L 366 2166 
L 809 4519 
L 3088 4519 
L 3088 3981 
L 1259 3981 
L 1013 2750 
Q 1425 3038 1878 3038 
Q 2478 3038 2890 2622 
Q 3303 2206 3303 1553 
Q 3303 931 2941 478 
Q 2500 -78 1738 -78 
Q 1113 -78 717 272 
Q 322 622 266 1200 
z
" transform="scale(0.015625)"/>
       </defs>
       <use xlink:href="#ArialMT-2212"/>
       <use xlink:href="#ArialMT-35" x="58.398438"/>
      </g>
     </g>
    </g>
    <g id="xtick_2">
     <g id="line2d_2">
      <path d="M 161.260734 273.312 
L 161.260734 7.2 
" clip-path="url(#p7670c2aaae)" style="fill: none; stroke: #ffffff; stroke-width: 0.8; stroke-linecap: round"/>
     </g>
     <g id="text_2">
      <!-- 0 -->
      <g style="fill: #262626" transform="translate(158.480266 283.969812) scale(0.1 -0.1)">
       <defs>
        <path id="ArialMT-30" d="M 266 2259 
Q 266 3072 433 3567 
Q 600 4063 929 4331 
Q 1259 4600 1759 4600 
Q 2128 4600 2406 4451 
Q 2684 4303 2865 4023 
Q 3047 3744 3150 3342 
Q 3253 2941 3253 2259 
Q 3253 1453 3087 958 
Q 2922 463 2592 192 
Q 2263 -78 1759 -78 
Q 1097 -78 719 397 
Q 266 969 266 2259 
z
M 844 2259 
Q 844 1131 1108 757 
Q 1372 384 1759 384 
Q 2147 384 2411 759 
Q 2675 1134 2675 2259 
Q 2675 3391 2411 3762 
Q 2147 4134 1753 4134 
Q 1366 4134 1134 3806 
Q 844 3388 844 2259 
z
" transform="scale(0.015625)"/>
       </defs>
       <use xlink:href="#ArialMT-30"/>
      </g>
     </g>
    </g>
    <g id="xtick_3">
     <g id="line2d_3">
      <path d="M 239.050697 273.312 
L 239.050697 7.2 
" clip-path="url(#p7670c2aaae)" style="fill: none; stroke: #ffffff; stroke-width: 0.8; stroke-linecap: round"/>
     </g>
     <g id="text_3">
      <!-- 5 -->
      <g style="fill: #262626" transform="translate(236.270229 283.969812) scale(0.1 -0.1)">
       <use xlink:href="#ArialMT-35"/>
      </g>
     </g>
    </g>
    <g id="xtick_4">
     <g id="line2d_4">
      <path d="M 316.84066 273.312 
L 316.84066 7.2 
" clip-path="url(#p7670c2aaae)" style="fill: none; stroke: #ffffff; stroke-width: 0.8; stroke-linecap: round"/>
     </g>
     <g id="text_4">
      <!-- 10 -->
      <g style="fill: #262626" transform="translate(311.279723 283.969812) scale(0.1 -0.1)">
       <defs>
        <path id="ArialMT-31" d="M 2384 0 
L 1822 0 
L 1822 3584 
Q 1619 3391 1289 3197 
Q 959 3003 697 2906 
L 697 3450 
Q 1169 3672 1522 3987 
Q 1875 4303 2022 4600 
L 2384 4600 
L 2384 0 
z
" transform="scale(0.015625)"/>
       </defs>
       <use xlink:href="#ArialMT-31"/>
       <use xlink:href="#ArialMT-30" x="55.615234"/>
      </g>
     </g>
    </g>
   </g>
   <g id="matplotlib.axis_2">
    <g id="ytick_1">
     <g id="line2d_5">
      <path d="M 22.101563 252.500084 
L 379.221563 252.500084 
" clip-path="url(#p7670c2aaae)" style="fill: none; stroke: #ffffff; stroke-width: 0.8; stroke-linecap: round"/>
     </g>
     <g id="text_5">
      <!-- −4 -->
      <g style="fill: #262626" transform="translate(7.2 256.078991) scale(0.1 -0.1)">
       <defs>
        <path id="ArialMT-34" d="M 2069 0 
L 2069 1097 
L 81 1097 
L 81 1613 
L 2172 4581 
L 2631 4581 
L 2631 1613 
L 3250 1613 
L 3250 1097 
L 2631 1097 
L 2631 0 
L 2069 0 
z
M 2069 1613 
L 2069 3678 
L 634 1613 
L 2069 1613 
z
" transform="scale(0.015625)"/>
       </defs>
       <use xlink:href="#ArialMT-2212"/>
       <use xlink:href="#ArialMT-34" x="58.398438"/>
      </g>
     </g>
    </g>
    <g id="ytick_2">
     <g id="line2d_6">
      <path d="M 22.101563 215.998804 
L 379.221563 215.998804 
" clip-path="url(#p7670c2aaae)" style="fill: none; stroke: #ffffff; stroke-width: 0.8; stroke-linecap: round"/>
     </g>
     <g id="text_6">
      <!-- −2 -->
      <g style="fill: #262626" transform="translate(7.2 219.57771) scale(0.1 -0.1)">
       <defs>
        <path id="ArialMT-32" d="M 3222 541 
L 3222 0 
L 194 0 
Q 188 203 259 391 
Q 375 700 629 1000 
Q 884 1300 1366 1694 
Q 2113 2306 2375 2664 
Q 2638 3022 2638 3341 
Q 2638 3675 2398 3904 
Q 2159 4134 1775 4134 
Q 1369 4134 1125 3890 
Q 881 3647 878 3216 
L 300 3275 
Q 359 3922 746 4261 
Q 1134 4600 1788 4600 
Q 2447 4600 2831 4234 
Q 3216 3869 3216 3328 
Q 3216 3053 3103 2787 
Q 2991 2522 2730 2228 
Q 2469 1934 1863 1422 
Q 1356 997 1212 845 
Q 1069 694 975 541 
L 3222 541 
z
" transform="scale(0.015625)"/>
       </defs>
       <use xlink:href="#ArialMT-2212"/>
       <use xlink:href="#ArialMT-32" x="58.398438"/>
      </g>
     </g>
    </g>
    <g id="ytick_3">
     <g id="line2d_7">
      <path d="M 22.101563 179.497524 
L 379.221563 179.497524 
" clip-path="url(#p7670c2aaae)" style="fill: none; stroke: #ffffff; stroke-width: 0.8; stroke-linecap: round"/>
     </g>
     <g id="text_7">
      <!-- 0 -->
      <g style="fill: #262626" transform="translate(13.040625 183.07643) scale(0.1 -0.1)">
       <use xlink:href="#ArialMT-30"/>
      </g>
     </g>
    </g>
    <g id="ytick_4">
     <g id="line2d_8">
      <path d="M 22.101563 142.996243 
L 379.221563 142.996243 
" clip-path="url(#p7670c2aaae)" style="fill: none; stroke: #ffffff; stroke-width: 0.8; stroke-linecap: round"/>
     </g>
     <g id="text_8">
      <!-- 2 -->
      <g style="fill: #262626" transform="translate(13.040625 146.57515) scale(0.1 -0.1)">
       <use xlink:href="#ArialMT-32"/>
      </g>
     </g>
    </g>
    <g id="ytick_5">
     <g id="line2d_9">
      <path d="M 22.101563 106.494963 
L 379.221563 106.494963 
" clip-path="url(#p7670c2aaae)" style="fill: none; stroke: #ffffff; stroke-width: 0.8; stroke-linecap: round"/>
     </g>
     <g id="text_9">
      <!-- 4 -->
      <g style="fill: #262626" transform="translate(13.040625 110.073869) scale(0.1 -0.1)">
       <use xlink:href="#ArialMT-34"/>
      </g>
     </g>
    </g>
    <g id="ytick_6">
     <g id="line2d_10">
      <path d="M 22.101563 69.993683 
L 379.221563 69.993683 
" clip-path="url(#p7670c2aaae)" style="fill: none; stroke: #ffffff; stroke-width: 0.8; stroke-linecap: round"/>
     </g>
     <g id="text_10">
      <!-- 6 -->
      <g style="fill: #262626" transform="translate(13.040625 73.572589) scale(0.1 -0.1)">
       <defs>
        <path id="ArialMT-36" d="M 3184 3459 
L 2625 3416 
Q 2550 3747 2413 3897 
Q 2184 4138 1850 4138 
Q 1581 4138 1378 3988 
Q 1113 3794 959 3422 
Q 806 3050 800 2363 
Q 1003 2672 1297 2822 
Q 1591 2972 1913 2972 
Q 2475 2972 2870 2558 
Q 3266 2144 3266 1488 
Q 3266 1056 3080 686 
Q 2894 316 2569 119 
Q 2244 -78 1831 -78 
Q 1128 -78 684 439 
Q 241 956 241 2144 
Q 241 3472 731 4075 
Q 1159 4600 1884 4600 
Q 2425 4600 2770 4297 
Q 3116 3994 3184 3459 
z
M 888 1484 
Q 888 1194 1011 928 
Q 1134 663 1356 523 
Q 1578 384 1822 384 
Q 2178 384 2434 671 
Q 2691 959 2691 1453 
Q 2691 1928 2437 2201 
Q 2184 2475 1800 2475 
Q 1419 2475 1153 2201 
Q 888 1928 888 1484 
z
" transform="scale(0.015625)"/>
       </defs>
       <use xlink:href="#ArialMT-36"/>
      </g>
     </g>
    </g>
    <g id="ytick_7">
     <g id="line2d_11">
      <path d="M 22.101563 33.492402 
L 379.221563 33.492402 
" clip-path="url(#p7670c2aaae)" style="fill: none; stroke: #ffffff; stroke-width: 0.8; stroke-linecap: round"/>
     </g>
     <g id="text_11">
      <!-- 8 -->
      <g style="fill: #262626" transform="translate(13.040625 37.071309) scale(0.1 -0.1)">
       <defs>
        <path id="ArialMT-38" d="M 1131 2484 
Q 781 2613 612 2850 
Q 444 3088 444 3419 
Q 444 3919 803 4259 
Q 1163 4600 1759 4600 
Q 2359 4600 2725 4251 
Q 3091 3903 3091 3403 
Q 3091 3084 2923 2848 
Q 2756 2613 2416 2484 
Q 2838 2347 3058 2040 
Q 3278 1734 3278 1309 
Q 3278 722 2862 322 
Q 2447 -78 1769 -78 
Q 1091 -78 675 323 
Q 259 725 259 1325 
Q 259 1772 486 2073 
Q 713 2375 1131 2484 
z
M 1019 3438 
Q 1019 3113 1228 2906 
Q 1438 2700 1772 2700 
Q 2097 2700 2305 2904 
Q 2513 3109 2513 3406 
Q 2513 3716 2298 3927 
Q 2084 4138 1766 4138 
Q 1444 4138 1231 3931 
Q 1019 3725 1019 3438 
z
M 838 1322 
Q 838 1081 952 856 
Q 1066 631 1291 507 
Q 1516 384 1775 384 
Q 2178 384 2440 643 
Q 2703 903 2703 1303 
Q 2703 1709 2433 1975 
Q 2163 2241 1756 2241 
Q 1359 2241 1098 1978 
Q 838 1716 838 1322 
z
" transform="scale(0.015625)"/>
       </defs>
       <use xlink:href="#ArialMT-38"/>
      </g>
     </g>
    </g>
   </g>
   <g id="PathCollection_1">
    <defs>
     <path id="C0_0_7c2ba9ab1e" d="M 0 3 
C 0.795609 3 1.55874 2.683901 2.12132 2.12132 
C 2.683901 1.55874 3 0.795609 3 -0 
C 3 -0.795609 2.683901 -1.55874 2.12132 -2.12132 
C 1.55874 -2.683901 0.795609 -3 0 -3 
C -0.795609 -3 -1.55874 -2.683901 -2.12132 -2.12132 
C -2.683901 -1.55874 -3 -0.795609 -3 0 
C -3 0.795609 -2.683901 1.55874 -2.12132 2.12132 
C -1.55874 2.683901 -0.795609 3 0 3 
z
"/>
    </defs>
    <g clip-path="url(#p7670c2aaae)">
     <use xlink:href="#C0_0_7c2ba9ab1e" x="111.592416" y="175.182284" style="fill: #ff7f0e; stroke: #ff7f0e"/>
    </g>
    <g clip-path="url(#p7670c2aaae)">
     <use xlink:href="#C0_0_7c2ba9ab1e" x="74.764528" y="261.216" style="fill: #ff7f0e; stroke: #ff7f0e"/>
    </g>
    <g clip-path="url(#p7670c2aaae)">
     <use xlink:href="#C0_0_7c2ba9ab1e" x="120.305462" y="177.79645" style="fill: #1f77b4; stroke: #1f77b4"/>
    </g>
    <g clip-path="url(#p7670c2aaae)">
     <use xlink:href="#C0_0_7c2ba9ab1e" x="72.616872" y="260.554238" style="fill: #1f77b4; stroke: #1f77b4"/>
    </g>
    <g clip-path="url(#p7670c2aaae)">
     <use xlink:href="#C0_0_7c2ba9ab1e" x="112.412575" y="176.403065" style="fill: #1f77b4; stroke: #1f77b4"/>
    </g>
    <g clip-path="url(#p7670c2aaae)">
     <use xlink:href="#C0_0_7c2ba9ab1e" x="72.858816" y="260.21294" style="fill: #1f77b4; stroke: #1f77b4"/>
    </g>
    <g clip-path="url(#p7670c2aaae)">
     <use xlink:href="#C0_0_7c2ba9ab1e" x="123.526713" y="180.996493" style="fill: #1f77b4; stroke: #1f77b4"/>
    </g>
    <g clip-path="url(#p7670c2aaae)">
     <use xlink:href="#C0_0_7c2ba9ab1e" x="81.026007" y="257.498048" style="fill: #1f77b4; stroke: #1f77b4"/>
    </g>
    <g clip-path="url(#p7670c2aaae)">
     <use xlink:href="#C0_0_7c2ba9ab1e" x="131.777775" y="180.868461" style="fill: #ff7f0e; stroke: #ff7f0e"/>
    </g>
    <g clip-path="url(#p7670c2aaae)">
     <use xlink:href="#C0_0_7c2ba9ab1e" x="69.523994" y="260.641551" style="fill: #1f77b4; stroke: #1f77b4"/>
    </g>
    <g clip-path="url(#p7670c2aaae)">
     <use xlink:href="#C0_0_7c2ba9ab1e" x="130.794725" y="179.602255" style="fill: #ff7f0e; stroke: #ff7f0e"/>
    </g>
    <g clip-path="url(#p7670c2aaae)">
     <use xlink:href="#C0_0_7c2ba9ab1e" x="79.478985" y="255.396086" style="fill: #1f77b4; stroke: #1f77b4"/>
    </g>
    <g clip-path="url(#p7670c2aaae)">
     <use xlink:href="#C0_0_7c2ba9ab1e" x="129.751006" y="179.16262" style="fill: #1f77b4; stroke: #1f77b4"/>
    </g>
    <g clip-path="url(#p7670c2aaae)">
     <use xlink:href="#C0_0_7c2ba9ab1e" x="72.216504" y="258.668728" style="fill: #1f77b4; stroke: #1f77b4"/>
    </g>
    <g clip-path="url(#p7670c2aaae)">
     <use xlink:href="#C0_0_7c2ba9ab1e" x="123.319592" y="179.515157" style="fill: #ff7f0e; stroke: #ff7f0e"/>
    </g>
    <g clip-path="url(#p7670c2aaae)">
     <use xlink:href="#C0_0_7c2ba9ab1e" x="74.940721" y="257.828467" style="fill: #ff7f0e; stroke: #ff7f0e"/>
    </g>
    <g clip-path="url(#p7670c2aaae)">
     <use xlink:href="#C0_0_7c2ba9ab1e" x="114.876339" y="172.917523" style="fill: #1f77b4; stroke: #1f77b4"/>
    </g>
    <g clip-path="url(#p7670c2aaae)">
     <use xlink:href="#C0_0_7c2ba9ab1e" x="67.580076" y="258.583503" style="fill: #ff7f0e; stroke: #ff7f0e"/>
    </g>
    <g clip-path="url(#p7670c2aaae)">
     <use xlink:href="#C0_0_7c2ba9ab1e" x="122.091449" y="171.838179" style="fill: #ff7f0e; stroke: #ff7f0e"/>
    </g>
    <g clip-path="url(#p7670c2aaae)">
     <use xlink:href="#C0_0_7c2ba9ab1e" x="79.252324" y="256.905201" style="fill: #1f77b4; stroke: #1f77b4"/>
    </g>
    <g clip-path="url(#p7670c2aaae)">
     <use xlink:href="#C0_0_7c2ba9ab1e" x="116.006315" y="172.709098" style="fill: #ff7f0e; stroke: #ff7f0e"/>
    </g>
    <g clip-path="url(#p7670c2aaae)">
     <use xlink:href="#C0_0_7c2ba9ab1e" x="69.120109" y="258.211085" style="fill: #ff7f0e; stroke: #ff7f0e"/>
    </g>
    <g clip-path="url(#p7670c2aaae)">
     <use xlink:href="#C0_0_7c2ba9ab1e" x="127.758551" y="179.371773" style="fill: #1f77b4; stroke: #1f77b4"/>
    </g>
    <g clip-path="url(#p7670c2aaae)">
     <use xlink:href="#C0_0_7c2ba9ab1e" x="67.793769" y="251.512894" style="fill: #ff7f0e; stroke: #ff7f0e"/>
    </g>
    <g clip-path="url(#p7670c2aaae)">
     <use xlink:href="#C0_0_7c2ba9ab1e" x="129.330829" y="178.121386" style="fill: #1f77b4; stroke: #1f77b4"/>
    </g>
    <g clip-path="url(#p7670c2aaae)">
     <use xlink:href="#C0_0_7c2ba9ab1e" x="72.931556" y="250.300415" style="fill: #ff7f0e; stroke: #ff7f0e"/>
    </g>
    <g clip-path="url(#p7670c2aaae)">
     <use xlink:href="#C0_0_7c2ba9ab1e" x="117.604814" y="168.859754" style="fill: #1f77b4; stroke: #1f77b4"/>
    </g>
    <g clip-path="url(#p7670c2aaae)">
     <use xlink:href="#C0_0_7c2ba9ab1e" x="72.343266" y="181.673207" style="fill: #ff7f0e; stroke: #ff7f0e"/>
    </g>
    <g clip-path="url(#p7670c2aaae)">
     <use xlink:href="#C0_0_7c2ba9ab1e" x="115.766716" y="170.836944" style="fill: #1f77b4; stroke: #1f77b4"/>
    </g>
    <g clip-path="url(#p7670c2aaae)">
     <use xlink:href="#C0_0_7c2ba9ab1e" x="74.646973" y="250.426337" style="fill: #1f77b4; stroke: #1f77b4"/>
    </g>
    <g clip-path="url(#p7670c2aaae)">
     <use xlink:href="#C0_0_7c2ba9ab1e" x="130.645848" y="181.343351" style="fill: #ff7f0e; stroke: #ff7f0e"/>
    </g>
    <g clip-path="url(#p7670c2aaae)">
     <use xlink:href="#C0_0_7c2ba9ab1e" x="66.240108" y="251.843553" style="fill: #1f77b4; stroke: #1f77b4"/>
    </g>
    <g clip-path="url(#p7670c2aaae)">
     <use xlink:href="#C0_0_7c2ba9ab1e" x="127.851213" y="178.391866" style="fill: #ff7f0e; stroke: #ff7f0e"/>
    </g>
    <g clip-path="url(#p7670c2aaae)">
     <use xlink:href="#C0_0_7c2ba9ab1e" x="76.032973" y="249.015344" style="fill: #ff7f0e; stroke: #ff7f0e"/>
    </g>
    <g clip-path="url(#p7670c2aaae)">
     <use xlink:href="#C0_0_7c2ba9ab1e" x="126.471304" y="175.61488" style="fill: #1f77b4; stroke: #1f77b4"/>
    </g>
    <g clip-path="url(#p7670c2aaae)">
     <use xlink:href="#C0_0_7c2ba9ab1e" x="71.659342" y="248.936107" style="fill: #1f77b4; stroke: #1f77b4"/>
    </g>
    <g clip-path="url(#p7670c2aaae)">
     <use xlink:href="#C0_0_7c2ba9ab1e" x="124.1546" y="175.612618" style="fill: #1f77b4; stroke: #1f77b4"/>
    </g>
    <g clip-path="url(#p7670c2aaae)">
     <use xlink:href="#C0_0_7c2ba9ab1e" x="67.917838" y="246.628416" style="fill: #1f77b4; stroke: #1f77b4"/>
    </g>
    <g clip-path="url(#p7670c2aaae)">
     <use xlink:href="#C0_0_7c2ba9ab1e" x="117.871436" y="170.558845" style="fill: #1f77b4; stroke: #1f77b4"/>
    </g>
    <g clip-path="url(#p7670c2aaae)">
     <use xlink:href="#C0_0_7c2ba9ab1e" x="70.225329" y="245.803425" style="fill: #1f77b4; stroke: #1f77b4"/>
    </g>
    <g clip-path="url(#p7670c2aaae)">
     <use xlink:href="#C0_0_7c2ba9ab1e" x="119.905302" y="136.72863" style="fill: #1f77b4; stroke: #1f77b4"/>
    </g>
    <g clip-path="url(#p7670c2aaae)">
     <use xlink:href="#C0_0_7c2ba9ab1e" x="75.029544" y="249.206874" style="fill: #ff7f0e; stroke: #ff7f0e"/>
    </g>
    <g clip-path="url(#p7670c2aaae)">
     <use xlink:href="#C0_0_7c2ba9ab1e" x="113.762836" y="158.777702" style="fill: #ff7f0e; stroke: #ff7f0e"/>
    </g>
    <g clip-path="url(#p7670c2aaae)">
     <use xlink:href="#C0_0_7c2ba9ab1e" x="71.402027" y="176.466158" style="fill: #1f77b4; stroke: #1f77b4"/>
    </g>
    <g clip-path="url(#p7670c2aaae)">
     <use xlink:href="#C0_0_7c2ba9ab1e" x="118.878126" y="164.988558" style="fill: #1f77b4; stroke: #1f77b4"/>
    </g>
    <g clip-path="url(#p7670c2aaae)">
     <use xlink:href="#C0_0_7c2ba9ab1e" x="69.045381" y="178.435297" style="fill: #1f77b4; stroke: #1f77b4"/>
    </g>
    <g clip-path="url(#p7670c2aaae)">
     <use xlink:href="#C0_0_7c2ba9ab1e" x="109.092027" y="139.410657" style="fill: #1f77b4; stroke: #1f77b4"/>
    </g>
    <g clip-path="url(#p7670c2aaae)">
     <use xlink:href="#C0_0_7c2ba9ab1e" x="78.715415" y="169.792787" style="fill: #1f77b4; stroke: #1f77b4"/>
    </g>
    <g clip-path="url(#p7670c2aaae)">
     <use xlink:href="#C0_0_7c2ba9ab1e" x="80.018587" y="168.18437" style="fill: #1f77b4; stroke: #1f77b4"/>
    </g>
    <g clip-path="url(#p7670c2aaae)">
     <use xlink:href="#C0_0_7c2ba9ab1e" x="82.56239" y="169.947301" style="fill: #1f77b4; stroke: #1f77b4"/>
    </g>
    <g clip-path="url(#p7670c2aaae)">
     <use xlink:href="#C0_0_7c2ba9ab1e" x="107.134302" y="140.512069" style="fill: #1f77b4; stroke: #1f77b4"/>
    </g>
    <g clip-path="url(#p7670c2aaae)">
     <use xlink:href="#C0_0_7c2ba9ab1e" x="72.095291" y="173.960991" style="fill: #ff7f0e; stroke: #ff7f0e"/>
    </g>
    <g clip-path="url(#p7670c2aaae)">
     <use xlink:href="#C0_0_7c2ba9ab1e" x="73.492478" y="172.156277" style="fill: #1f77b4; stroke: #1f77b4"/>
    </g>
    <g clip-path="url(#p7670c2aaae)">
     <use xlink:href="#C0_0_7c2ba9ab1e" x="114.412894" y="129.824213" style="fill: #ff7f0e; stroke: #ff7f0e"/>
    </g>
    <g clip-path="url(#p7670c2aaae)">
     <use xlink:href="#C0_0_7c2ba9ab1e" x="108.302158" y="144.966502" style="fill: #1f77b4; stroke: #1f77b4"/>
    </g>
    <g clip-path="url(#p7670c2aaae)">
     <use xlink:href="#C0_0_7c2ba9ab1e" x="105.364288" y="148.882605" style="fill: #ff7f0e; stroke: #ff7f0e"/>
    </g>
    <g clip-path="url(#p7670c2aaae)">
     <use xlink:href="#C0_0_7c2ba9ab1e" x="107.895061" y="141.882996" style="fill: #1f77b4; stroke: #1f77b4"/>
    </g>
    <g clip-path="url(#p7670c2aaae)">
     <use xlink:href="#C0_0_7c2ba9ab1e" x="122.554271" y="126.336122" style="fill: #ff7f0e; stroke: #ff7f0e"/>
    </g>
    <g clip-path="url(#p7670c2aaae)">
     <use xlink:href="#C0_0_7c2ba9ab1e" x="74.257606" y="168.245807" style="fill: #1f77b4; stroke: #1f77b4"/>
    </g>
    <g clip-path="url(#p7670c2aaae)">
     <use xlink:href="#C0_0_7c2ba9ab1e" x="107.868546" y="140.438685" style="fill: #ff7f0e; stroke: #ff7f0e"/>
    </g>
    <g clip-path="url(#p7670c2aaae)">
     <use xlink:href="#C0_0_7c2ba9ab1e" x="121.788172" y="127.943433" style="fill: #ff7f0e; stroke: #ff7f0e"/>
    </g>
    <g clip-path="url(#p7670c2aaae)">
     <use xlink:href="#C0_0_7c2ba9ab1e" x="67.144239" y="166.581416" style="fill: #ff7f0e; stroke: #ff7f0e"/>
    </g>
    <g clip-path="url(#p7670c2aaae)">
     <use xlink:href="#C0_0_7c2ba9ab1e" x="123.365057" y="127.089557" style="fill: #1f77b4; stroke: #1f77b4"/>
    </g>
    <g clip-path="url(#p7670c2aaae)">
     <use xlink:href="#C0_0_7c2ba9ab1e" x="111.887084" y="131.805683" style="fill: #1f77b4; stroke: #1f77b4"/>
    </g>
    <g clip-path="url(#p7670c2aaae)">
     <use xlink:href="#C0_0_7c2ba9ab1e" x="118.341128" y="124.664922" style="fill: #ff7f0e; stroke: #ff7f0e"/>
    </g>
    <g clip-path="url(#p7670c2aaae)">
     <use xlink:href="#C0_0_7c2ba9ab1e" x="65.322483" y="164.857086" style="fill: #ff7f0e; stroke: #ff7f0e"/>
    </g>
    <g clip-path="url(#p7670c2aaae)">
     <use xlink:href="#C0_0_7c2ba9ab1e" x="94.479394" y="142.255075" style="fill: #1f77b4; stroke: #1f77b4"/>
    </g>
    <g clip-path="url(#p7670c2aaae)">
     <use xlink:href="#C0_0_7c2ba9ab1e" x="124.34534" y="125.750934" style="fill: #1f77b4; stroke: #1f77b4"/>
    </g>
    <g clip-path="url(#p7670c2aaae)">
     <use xlink:href="#C0_0_7c2ba9ab1e" x="65.75447" y="165.352484" style="fill: #ff7f0e; stroke: #ff7f0e"/>
    </g>
    <g clip-path="url(#p7670c2aaae)">
     <use xlink:href="#C0_0_7c2ba9ab1e" x="77.087071" y="166.282664" style="fill: #1f77b4; stroke: #1f77b4"/>
    </g>
    <g clip-path="url(#p7670c2aaae)">
     <use xlink:href="#C0_0_7c2ba9ab1e" x="122.620483" y="126.758058" style="fill: #ff7f0e; stroke: #ff7f0e"/>
    </g>
    <g clip-path="url(#p7670c2aaae)">
     <use xlink:href="#C0_0_7c2ba9ab1e" x="98.137267" y="137.382912" style="fill: #1f77b4; stroke: #1f77b4"/>
    </g>
    <g clip-path="url(#p7670c2aaae)">
     <use xlink:href="#C0_0_7c2ba9ab1e" x="116.890456" y="124.768186" style="fill: #1f77b4; stroke: #1f77b4"/>
    </g>
    <g clip-path="url(#p7670c2aaae)">
     <use xlink:href="#C0_0_7c2ba9ab1e" x="114.924123" y="124.410989" style="fill: #1f77b4; stroke: #1f77b4"/>
    </g>
    <g clip-path="url(#p7670c2aaae)">
     <use xlink:href="#C0_0_7c2ba9ab1e" x="116.550149" y="120.6253" style="fill: #ff7f0e; stroke: #ff7f0e"/>
    </g>
    <g clip-path="url(#p7670c2aaae)">
     <use xlink:href="#C0_0_7c2ba9ab1e" x="64.262072" y="155.989746" style="fill: #ff7f0e; stroke: #ff7f0e"/>
    </g>
    <g clip-path="url(#p7670c2aaae)">
     <use xlink:href="#C0_0_7c2ba9ab1e" x="91.127665" y="137.347344" style="fill: #1f77b4; stroke: #1f77b4"/>
    </g>
    <g clip-path="url(#p7670c2aaae)">
     <use xlink:href="#C0_0_7c2ba9ab1e" x="88.770106" y="138.544924" style="fill: #ff7f0e; stroke: #ff7f0e"/>
    </g>
    <g clip-path="url(#p7670c2aaae)">
     <use xlink:href="#C0_0_7c2ba9ab1e" x="62.79914" y="156.110475" style="fill: #1f77b4; stroke: #1f77b4"/>
    </g>
    <g clip-path="url(#p7670c2aaae)">
     <use xlink:href="#C0_0_7c2ba9ab1e" x="93.427143" y="130.949518" style="fill: #1f77b4; stroke: #1f77b4"/>
    </g>
    <g clip-path="url(#p7670c2aaae)">
     <use xlink:href="#C0_0_7c2ba9ab1e" x="111.945269" y="122.328304" style="fill: #ff7f0e; stroke: #ff7f0e"/>
    </g>
    <g clip-path="url(#p7670c2aaae)">
     <use xlink:href="#C0_0_7c2ba9ab1e" x="87.455488" y="140.731353" style="fill: #ff7f0e; stroke: #ff7f0e"/>
    </g>
    <g clip-path="url(#p7670c2aaae)">
     <use xlink:href="#C0_0_7c2ba9ab1e" x="123.077047" y="121.053815" style="fill: #ff7f0e; stroke: #ff7f0e"/>
    </g>
    <g clip-path="url(#p7670c2aaae)">
     <use xlink:href="#C0_0_7c2ba9ab1e" x="92.353979" y="131.249879" style="fill: #1f77b4; stroke: #1f77b4"/>
    </g>
    <g clip-path="url(#p7670c2aaae)">
     <use xlink:href="#C0_0_7c2ba9ab1e" x="62.837791" y="157.93304" style="fill: #1f77b4; stroke: #1f77b4"/>
    </g>
    <g clip-path="url(#p7670c2aaae)">
     <use xlink:href="#C0_0_7c2ba9ab1e" x="92.04342" y="130.793181" style="fill: #ff7f0e; stroke: #ff7f0e"/>
    </g>
    <g clip-path="url(#p7670c2aaae)">
     <use xlink:href="#C0_0_7c2ba9ab1e" x="106.448951" y="119.633519" style="fill: #1f77b4; stroke: #1f77b4"/>
    </g>
    <g clip-path="url(#p7670c2aaae)">
     <use xlink:href="#C0_0_7c2ba9ab1e" x="60.849065" y="153.624743" style="fill: #1f77b4; stroke: #1f77b4"/>
    </g>
    <g clip-path="url(#p7670c2aaae)">
     <use xlink:href="#C0_0_7c2ba9ab1e" x="69.8143" y="149.897211" style="fill: #1f77b4; stroke: #1f77b4"/>
    </g>
    <g clip-path="url(#p7670c2aaae)">
     <use xlink:href="#C0_0_7c2ba9ab1e" x="91.070348" y="122.329192" style="fill: #1f77b4; stroke: #1f77b4"/>
    </g>
    <g clip-path="url(#p7670c2aaae)">
     <use xlink:href="#C0_0_7c2ba9ab1e" x="124.667386" y="114.992679" style="fill: #1f77b4; stroke: #1f77b4"/>
    </g>
    <g clip-path="url(#p7670c2aaae)">
     <use xlink:href="#C0_0_7c2ba9ab1e" x="57.112672" y="136.904287" style="fill: #ff7f0e; stroke: #ff7f0e"/>
    </g>
    <g clip-path="url(#p7670c2aaae)">
     <use xlink:href="#C0_0_7c2ba9ab1e" x="91.058835" y="121.81993" style="fill: #ff7f0e; stroke: #ff7f0e"/>
    </g>
    <g clip-path="url(#p7670c2aaae)">
     <use xlink:href="#C0_0_7c2ba9ab1e" x="80.185699" y="120.505282" style="fill: #1f77b4; stroke: #1f77b4"/>
    </g>
    <g clip-path="url(#p7670c2aaae)">
     <use xlink:href="#C0_0_7c2ba9ab1e" x="71.710805" y="123.399113" style="fill: #1f77b4; stroke: #1f77b4"/>
    </g>
    <g clip-path="url(#p7670c2aaae)">
     <use xlink:href="#C0_0_7c2ba9ab1e" x="59.523096" y="147.907348" style="fill: #ff7f0e; stroke: #ff7f0e"/>
    </g>
    <g clip-path="url(#p7670c2aaae)">
     <use xlink:href="#C0_0_7c2ba9ab1e" x="89.704453" y="120.521365" style="fill: #1f77b4; stroke: #1f77b4"/>
    </g>
    <g clip-path="url(#p7670c2aaae)">
     <use xlink:href="#C0_0_7c2ba9ab1e" x="62.036898" y="145.402736" style="fill: #1f77b4; stroke: #1f77b4"/>
    </g>
    <g clip-path="url(#p7670c2aaae)">
     <use xlink:href="#C0_0_7c2ba9ab1e" x="87.933277" y="120.021954" style="fill: #ff7f0e; stroke: #ff7f0e"/>
    </g>
    <g clip-path="url(#p7670c2aaae)">
     <use xlink:href="#C0_0_7c2ba9ab1e" x="56.249544" y="142.479641" style="fill: #ff7f0e; stroke: #ff7f0e"/>
    </g>
    <g clip-path="url(#p7670c2aaae)">
     <use xlink:href="#C0_0_7c2ba9ab1e" x="59.409465" y="133.016908" style="fill: #1f77b4; stroke: #1f77b4"/>
    </g>
    <g clip-path="url(#p7670c2aaae)">
     <use xlink:href="#C0_0_7c2ba9ab1e" x="91.134119" y="117.99034" style="fill: #1f77b4; stroke: #1f77b4"/>
    </g>
    <g clip-path="url(#p7670c2aaae)">
     <use xlink:href="#C0_0_7c2ba9ab1e" x="122.565974" y="114.842551" style="fill: #ff7f0e; stroke: #ff7f0e"/>
    </g>
    <g clip-path="url(#p7670c2aaae)">
     <use xlink:href="#C0_0_7c2ba9ab1e" x="62.622614" y="149.722015" style="fill: #ff7f0e; stroke: #ff7f0e"/>
    </g>
    <g clip-path="url(#p7670c2aaae)">
     <use xlink:href="#C0_0_7c2ba9ab1e" x="97.901118" y="116.129136" style="fill: #ff7f0e; stroke: #ff7f0e"/>
    </g>
    <g clip-path="url(#p7670c2aaae)">
     <use xlink:href="#C0_0_7c2ba9ab1e" x="58.027983" y="134.869236" style="fill: #1f77b4; stroke: #1f77b4"/>
    </g>
    <g clip-path="url(#p7670c2aaae)">
     <use xlink:href="#C0_0_7c2ba9ab1e" x="122.809253" y="113.084011" style="fill: #1f77b4; stroke: #1f77b4"/>
    </g>
    <g clip-path="url(#p7670c2aaae)">
     <use xlink:href="#C0_0_7c2ba9ab1e" x="91.027365" y="115.896825" style="fill: #ff7f0e; stroke: #ff7f0e"/>
    </g>
    <g clip-path="url(#p7670c2aaae)">
     <use xlink:href="#C0_0_7c2ba9ab1e" x="122.156789" y="112.005822" style="fill: #ff7f0e; stroke: #ff7f0e"/>
    </g>
    <g clip-path="url(#p7670c2aaae)">
     <use xlink:href="#C0_0_7c2ba9ab1e" x="122.602474" y="112.45286" style="fill: #ff7f0e; stroke: #ff7f0e"/>
    </g>
    <g clip-path="url(#p7670c2aaae)">
     <use xlink:href="#C0_0_7c2ba9ab1e" x="122.683433" y="112.197479" style="fill: #ff7f0e; stroke: #ff7f0e"/>
    </g>
    <g clip-path="url(#p7670c2aaae)">
     <use xlink:href="#C0_0_7c2ba9ab1e" x="58.028902" y="146.741193" style="fill: #1f77b4; stroke: #1f77b4"/>
    </g>
    <g clip-path="url(#p7670c2aaae)">
     <use xlink:href="#C0_0_7c2ba9ab1e" x="76.178912" y="119.010048" style="fill: #1f77b4; stroke: #1f77b4"/>
    </g>
    <g clip-path="url(#p7670c2aaae)">
     <use xlink:href="#C0_0_7c2ba9ab1e" x="55.713726" y="139.850608" style="fill: #ff7f0e; stroke: #ff7f0e"/>
    </g>
    <g clip-path="url(#p7670c2aaae)">
     <use xlink:href="#C0_0_7c2ba9ab1e" x="55.46765" y="141.11253" style="fill: #1f77b4; stroke: #1f77b4"/>
    </g>
    <g clip-path="url(#p7670c2aaae)">
     <use xlink:href="#C0_0_7c2ba9ab1e" x="56.389793" y="140.681308" style="fill: #1f77b4; stroke: #1f77b4"/>
    </g>
    <g clip-path="url(#p7670c2aaae)">
     <use xlink:href="#C0_0_7c2ba9ab1e" x="119.787598" y="109.070514" style="fill: #1f77b4; stroke: #1f77b4"/>
    </g>
    <g clip-path="url(#p7670c2aaae)">
     <use xlink:href="#C0_0_7c2ba9ab1e" x="97.543295" y="114.609857" style="fill: #1f77b4; stroke: #1f77b4"/>
    </g>
    <g clip-path="url(#p7670c2aaae)">
     <use xlink:href="#C0_0_7c2ba9ab1e" x="86.576862" y="114.734116" style="fill: #1f77b4; stroke: #1f77b4"/>
    </g>
    <g clip-path="url(#p7670c2aaae)">
     <use xlink:href="#C0_0_7c2ba9ab1e" x="97.071218" y="114.922662" style="fill: #1f77b4; stroke: #1f77b4"/>
    </g>
    <g clip-path="url(#p7670c2aaae)">
     <use xlink:href="#C0_0_7c2ba9ab1e" x="59.53978" y="147.207963" style="fill: #ff7f0e; stroke: #ff7f0e"/>
    </g>
    <g clip-path="url(#p7670c2aaae)">
     <use xlink:href="#C0_0_7c2ba9ab1e" x="75.053699" y="116.160187" style="fill: #1f77b4; stroke: #1f77b4"/>
    </g>
    <g clip-path="url(#p7670c2aaae)">
     <use xlink:href="#C0_0_7c2ba9ab1e" x="96.574259" y="113.597076" style="fill: #1f77b4; stroke: #1f77b4"/>
    </g>
    <g clip-path="url(#p7670c2aaae)">
     <use xlink:href="#C0_0_7c2ba9ab1e" x="357.905116" y="48.868936" style="fill: #ff7f0e; stroke: #ff7f0e"/>
    </g>
    <g clip-path="url(#p7670c2aaae)">
     <use xlink:href="#C0_0_7c2ba9ab1e" x="59.890459" y="123.216272" style="fill: #1f77b4; stroke: #1f77b4"/>
    </g>
    <g clip-path="url(#p7670c2aaae)">
     <use xlink:href="#C0_0_7c2ba9ab1e" x="332.150307" y="34.448355" style="fill: #1f77b4; stroke: #1f77b4"/>
    </g>
    <g clip-path="url(#p7670c2aaae)">
     <use xlink:href="#C0_0_7c2ba9ab1e" x="75.459847" y="112.286815" style="fill: #ff7f0e; stroke: #ff7f0e"/>
    </g>
    <g clip-path="url(#p7670c2aaae)">
     <use xlink:href="#C0_0_7c2ba9ab1e" x="358.937819" y="48.040755" style="fill: #ff7f0e; stroke: #ff7f0e"/>
    </g>
    <g clip-path="url(#p7670c2aaae)">
     <use xlink:href="#C0_0_7c2ba9ab1e" x="40.071829" y="70.00443" style="fill: #ff7f0e; stroke: #ff7f0e"/>
    </g>
    <g clip-path="url(#p7670c2aaae)">
     <use xlink:href="#C0_0_7c2ba9ab1e" x="332.758204" y="37.341964" style="fill: #ff7f0e; stroke: #ff7f0e"/>
    </g>
    <g clip-path="url(#p7670c2aaae)">
     <use xlink:href="#C0_0_7c2ba9ab1e" x="39.470312" y="73.145863" style="fill: #ff7f0e; stroke: #ff7f0e"/>
    </g>
    <g clip-path="url(#p7670c2aaae)">
     <use xlink:href="#C0_0_7c2ba9ab1e" x="334.016374" y="40.963213" style="fill: #ff7f0e; stroke: #ff7f0e"/>
    </g>
    <g clip-path="url(#p7670c2aaae)">
     <use xlink:href="#C0_0_7c2ba9ab1e" x="61.043017" y="124.32707" style="fill: #1f77b4; stroke: #1f77b4"/>
    </g>
    <g clip-path="url(#p7670c2aaae)">
     <use xlink:href="#C0_0_7c2ba9ab1e" x="333.256024" y="32.164075" style="fill: #1f77b4; stroke: #1f77b4"/>
    </g>
    <g clip-path="url(#p7670c2aaae)">
     <use xlink:href="#C0_0_7c2ba9ab1e" x="49.291085" y="81.286468" style="fill: #ff7f0e; stroke: #ff7f0e"/>
    </g>
    <g clip-path="url(#p7670c2aaae)">
     <use xlink:href="#C0_0_7c2ba9ab1e" x="355.897012" y="46.66854" style="fill: #1f77b4; stroke: #1f77b4"/>
    </g>
    <g clip-path="url(#p7670c2aaae)">
     <use xlink:href="#C0_0_7c2ba9ab1e" x="43.052345" y="74.694427" style="fill: #1f77b4; stroke: #1f77b4"/>
    </g>
    <g clip-path="url(#p7670c2aaae)">
     <use xlink:href="#C0_0_7c2ba9ab1e" x="333.107992" y="35.106706" style="fill: #ff7f0e; stroke: #ff7f0e"/>
    </g>
    <g clip-path="url(#p7670c2aaae)">
     <use xlink:href="#C0_0_7c2ba9ab1e" x="49.445445" y="81.894709" style="fill: #ff7f0e; stroke: #ff7f0e"/>
    </g>
    <g clip-path="url(#p7670c2aaae)">
     <use xlink:href="#C0_0_7c2ba9ab1e" x="333.583126" y="35.007514" style="fill: #1f77b4; stroke: #1f77b4"/>
    </g>
    <g clip-path="url(#p7670c2aaae)">
     <use xlink:href="#C0_0_7c2ba9ab1e" x="38.33429" y="71.463044" style="fill: #1f77b4; stroke: #1f77b4"/>
    </g>
    <g clip-path="url(#p7670c2aaae)">
     <use xlink:href="#C0_0_7c2ba9ab1e" x="358.819862" y="47.021526" style="fill: #ff7f0e; stroke: #ff7f0e"/>
    </g>
    <g clip-path="url(#p7670c2aaae)">
     <use xlink:href="#C0_0_7c2ba9ab1e" x="63.437061" y="123.22762" style="fill: #1f77b4; stroke: #1f77b4"/>
    </g>
    <g clip-path="url(#p7670c2aaae)">
     <use xlink:href="#C0_0_7c2ba9ab1e" x="355.724395" y="48.98039" style="fill: #1f77b4; stroke: #1f77b4"/>
    </g>
    <g clip-path="url(#p7670c2aaae)">
     <use xlink:href="#C0_0_7c2ba9ab1e" x="47.649825" y="79.62927" style="fill: #ff7f0e; stroke: #ff7f0e"/>
    </g>
    <g clip-path="url(#p7670c2aaae)">
     <use xlink:href="#C0_0_7c2ba9ab1e" x="361.566372" y="42.103487" style="fill: #ff7f0e; stroke: #ff7f0e"/>
    </g>
    <g clip-path="url(#p7670c2aaae)">
     <use xlink:href="#C0_0_7c2ba9ab1e" x="74.808595" y="106.019802" style="fill: #ff7f0e; stroke: #ff7f0e"/>
    </g>
    <g clip-path="url(#p7670c2aaae)">
     <use xlink:href="#C0_0_7c2ba9ab1e" x="335.952547" y="34.205901" style="fill: #1f77b4; stroke: #1f77b4"/>
    </g>
    <g clip-path="url(#p7670c2aaae)">
     <use xlink:href="#C0_0_7c2ba9ab1e" x="47.631442" y="67.601256" style="fill: #1f77b4; stroke: #1f77b4"/>
    </g>
    <g clip-path="url(#p7670c2aaae)">
     <use xlink:href="#C0_0_7c2ba9ab1e" x="360.685959" y="48.62757" style="fill: #ff7f0e; stroke: #ff7f0e"/>
    </g>
    <g clip-path="url(#p7670c2aaae)">
     <use xlink:href="#C0_0_7c2ba9ab1e" x="47.283545" y="70.092187" style="fill: #ff7f0e; stroke: #ff7f0e"/>
    </g>
    <g clip-path="url(#p7670c2aaae)">
     <use xlink:href="#C0_0_7c2ba9ab1e" x="359.469363" y="51.774328" style="fill: #ff7f0e; stroke: #ff7f0e"/>
    </g>
    <g clip-path="url(#p7670c2aaae)">
     <use xlink:href="#C0_0_7c2ba9ab1e" x="47.987254" y="67.982481" style="fill: #1f77b4; stroke: #1f77b4"/>
    </g>
    <g clip-path="url(#p7670c2aaae)">
     <use xlink:href="#C0_0_7c2ba9ab1e" x="335.493734" y="37.263623" style="fill: #1f77b4; stroke: #1f77b4"/>
    </g>
    <g clip-path="url(#p7670c2aaae)">
     <use xlink:href="#C0_0_7c2ba9ab1e" x="43.291536" y="68.832854" style="fill: #1f77b4; stroke: #1f77b4"/>
    </g>
    <g clip-path="url(#p7670c2aaae)">
     <use xlink:href="#C0_0_7c2ba9ab1e" x="358.178181" y="44.706456" style="fill: #1f77b4; stroke: #1f77b4"/>
    </g>
    <g clip-path="url(#p7670c2aaae)">
     <use xlink:href="#C0_0_7c2ba9ab1e" x="45.707806" y="76.372868" style="fill: #ff7f0e; stroke: #ff7f0e"/>
    </g>
    <g clip-path="url(#p7670c2aaae)">
     <use xlink:href="#C0_0_7c2ba9ab1e" x="338.887535" y="32.905657" style="fill: #1f77b4; stroke: #1f77b4"/>
    </g>
    <g clip-path="url(#p7670c2aaae)">
     <use xlink:href="#C0_0_7c2ba9ab1e" x="46.785503" y="78.6403" style="fill: #ff7f0e; stroke: #ff7f0e"/>
    </g>
    <g clip-path="url(#p7670c2aaae)">
     <use xlink:href="#C0_0_7c2ba9ab1e" x="337.791699" y="32.035311" style="fill: #1f77b4; stroke: #1f77b4"/>
    </g>
    <g clip-path="url(#p7670c2aaae)">
     <use xlink:href="#C0_0_7c2ba9ab1e" x="73.395057" y="103.360118" style="fill: #1f77b4; stroke: #1f77b4"/>
    </g>
    <g clip-path="url(#p7670c2aaae)">
     <use xlink:href="#C0_0_7c2ba9ab1e" x="349.830383" y="40.113632" style="fill: #1f77b4; stroke: #1f77b4"/>
    </g>
    <g clip-path="url(#p7670c2aaae)">
     <use xlink:href="#C0_0_7c2ba9ab1e" x="49.535433" y="82.049389" style="fill: #ff7f0e; stroke: #ff7f0e"/>
    </g>
    <g clip-path="url(#p7670c2aaae)">
     <use xlink:href="#C0_0_7c2ba9ab1e" x="362.367555" y="42.929519" style="fill: #1f77b4; stroke: #1f77b4"/>
    </g>
    <g clip-path="url(#p7670c2aaae)">
     <use xlink:href="#C0_0_7c2ba9ab1e" x="44.843239" y="61.337197" style="fill: #ff7f0e; stroke: #ff7f0e"/>
    </g>
    <g clip-path="url(#p7670c2aaae)">
     <use xlink:href="#C0_0_7c2ba9ab1e" x="340.89733" y="31.165262" style="fill: #1f77b4; stroke: #1f77b4"/>
    </g>
    <g clip-path="url(#p7670c2aaae)">
     <use xlink:href="#C0_0_7c2ba9ab1e" x="48.26026" y="65.610557" style="fill: #ff7f0e; stroke: #ff7f0e"/>
    </g>
    <g clip-path="url(#p7670c2aaae)">
     <use xlink:href="#C0_0_7c2ba9ab1e" x="362.116048" y="38.435287" style="fill: #1f77b4; stroke: #1f77b4"/>
    </g>
    <g clip-path="url(#p7670c2aaae)">
     <use xlink:href="#C0_0_7c2ba9ab1e" x="48.078666" y="62.005303" style="fill: #1f77b4; stroke: #1f77b4"/>
    </g>
    <g clip-path="url(#p7670c2aaae)">
     <use xlink:href="#C0_0_7c2ba9ab1e" x="342.303487" y="28.565069" style="fill: #ff7f0e; stroke: #ff7f0e"/>
    </g>
    <g clip-path="url(#p7670c2aaae)">
     <use xlink:href="#C0_0_7c2ba9ab1e" x="43.196882" y="67.360307" style="fill: #ff7f0e; stroke: #ff7f0e"/>
    </g>
    <g clip-path="url(#p7670c2aaae)">
     <use xlink:href="#C0_0_7c2ba9ab1e" x="345.021984" y="28.588131" style="fill: #ff7f0e; stroke: #ff7f0e"/>
    </g>
    <g clip-path="url(#p7670c2aaae)">
     <use xlink:href="#C0_0_7c2ba9ab1e" x="45.849932" y="70.301554" style="fill: #ff7f0e; stroke: #ff7f0e"/>
    </g>
    <g clip-path="url(#p7670c2aaae)">
     <use xlink:href="#C0_0_7c2ba9ab1e" x="360.694713" y="33.81204" style="fill: #ff7f0e; stroke: #ff7f0e"/>
    </g>
    <g clip-path="url(#p7670c2aaae)">
     <use xlink:href="#C0_0_7c2ba9ab1e" x="39.835805" y="62.756345" style="fill: #1f77b4; stroke: #1f77b4"/>
    </g>
    <g clip-path="url(#p7670c2aaae)">
     <use xlink:href="#C0_0_7c2ba9ab1e" x="358.48914" y="32.403379" style="fill: #1f77b4; stroke: #1f77b4"/>
    </g>
    <g clip-path="url(#p7670c2aaae)">
     <use xlink:href="#C0_0_7c2ba9ab1e" x="39.387646" y="60.81613" style="fill: #ff7f0e; stroke: #ff7f0e"/>
    </g>
    <g clip-path="url(#p7670c2aaae)">
     <use xlink:href="#C0_0_7c2ba9ab1e" x="344.158159" y="26.920473" style="fill: #ff7f0e; stroke: #ff7f0e"/>
    </g>
    <g clip-path="url(#p7670c2aaae)">
     <use xlink:href="#C0_0_7c2ba9ab1e" x="40.452553" y="60.073747" style="fill: #ff7f0e; stroke: #ff7f0e"/>
    </g>
    <g clip-path="url(#p7670c2aaae)">
     <use xlink:href="#C0_0_7c2ba9ab1e" x="360.277682" y="29.995809" style="fill: #ff7f0e; stroke: #ff7f0e"/>
    </g>
    <g clip-path="url(#p7670c2aaae)">
     <use xlink:href="#C0_0_7c2ba9ab1e" x="49.260573" y="53.887559" style="fill: #1f77b4; stroke: #1f77b4"/>
    </g>
    <g clip-path="url(#p7670c2aaae)">
     <use xlink:href="#C0_0_7c2ba9ab1e" x="360.881589" y="27.026923" style="fill: #1f77b4; stroke: #1f77b4"/>
    </g>
    <g clip-path="url(#p7670c2aaae)">
     <use xlink:href="#C0_0_7c2ba9ab1e" x="43.1576" y="54.786449" style="fill: #ff7f0e; stroke: #ff7f0e"/>
    </g>
    <g clip-path="url(#p7670c2aaae)">
     <use xlink:href="#C0_0_7c2ba9ab1e" x="362.536403" y="25.83023" style="fill: #1f77b4; stroke: #1f77b4"/>
    </g>
    <g clip-path="url(#p7670c2aaae)">
     <use xlink:href="#C0_0_7c2ba9ab1e" x="48.611984" y="54.534857" style="fill: #1f77b4; stroke: #1f77b4"/>
    </g>
    <g clip-path="url(#p7670c2aaae)">
     <use xlink:href="#C0_0_7c2ba9ab1e" x="362.988835" y="27.193455" style="fill: #ff7f0e; stroke: #ff7f0e"/>
    </g>
    <g clip-path="url(#p7670c2aaae)">
     <use xlink:href="#C0_0_7c2ba9ab1e" x="41.782877" y="55.178735" style="fill: #1f77b4; stroke: #1f77b4"/>
    </g>
    <g clip-path="url(#p7670c2aaae)">
     <use xlink:href="#C0_0_7c2ba9ab1e" x="352.261112" y="23.362334" style="fill: #ff7f0e; stroke: #ff7f0e"/>
    </g>
    <g clip-path="url(#p7670c2aaae)">
     <use xlink:href="#C0_0_7c2ba9ab1e" x="44.60677" y="50.904879" style="fill: #1f77b4; stroke: #1f77b4"/>
    </g>
    <g clip-path="url(#p7670c2aaae)">
     <use xlink:href="#C0_0_7c2ba9ab1e" x="361.312373" y="22.336056" style="fill: #1f77b4; stroke: #1f77b4"/>
    </g>
    <g clip-path="url(#p7670c2aaae)">
     <use xlink:href="#C0_0_7c2ba9ab1e" x="46.044337" y="50.317298" style="fill: #1f77b4; stroke: #1f77b4"/>
    </g>
    <g clip-path="url(#p7670c2aaae)">
     <use xlink:href="#C0_0_7c2ba9ab1e" x="354.162462" y="24.165374" style="fill: #1f77b4; stroke: #1f77b4"/>
    </g>
    <g clip-path="url(#p7670c2aaae)">
     <use xlink:href="#C0_0_7c2ba9ab1e" x="42.071676" y="48.387709" style="fill: #ff7f0e; stroke: #ff7f0e"/>
    </g>
    <g clip-path="url(#p7670c2aaae)">
     <use xlink:href="#C0_0_7c2ba9ab1e" x="360.320889" y="21.781475" style="fill: #1f77b4; stroke: #1f77b4"/>
    </g>
    <g clip-path="url(#p7670c2aaae)">
     <use xlink:href="#C0_0_7c2ba9ab1e" x="42.281008" y="48.061101" style="fill: #1f77b4; stroke: #1f77b4"/>
    </g>
    <g clip-path="url(#p7670c2aaae)">
     <use xlink:href="#C0_0_7c2ba9ab1e" x="358.616117" y="19.296" style="fill: #1f77b4; stroke: #1f77b4"/>
    </g>
    <g clip-path="url(#p7670c2aaae)">
     <use xlink:href="#C0_0_7c2ba9ab1e" x="43.720073" y="47.339666" style="fill: #1f77b4; stroke: #1f77b4"/>
    </g>
    <g clip-path="url(#p7670c2aaae)">
     <use xlink:href="#C0_0_7c2ba9ab1e" x="357.440784" y="20.498906" style="fill: #ff7f0e; stroke: #ff7f0e"/>
    </g>
    <g clip-path="url(#p7670c2aaae)">
     <use xlink:href="#C0_0_7c2ba9ab1e" x="41.722415" y="46.199018" style="fill: #ff7f0e; stroke: #ff7f0e"/>
    </g>
    <g clip-path="url(#p7670c2aaae)">
     <use xlink:href="#C0_0_7c2ba9ab1e" x="358.476736" y="20.352163" style="fill: #ff7f0e; stroke: #ff7f0e"/>
    </g>
   </g>
   <g id="patch_3">
    <path d="M 22.101563 273.312 
L 22.101563 7.2 
" style="fill: none"/>
   </g>
   <g id="patch_4">
    <path d="M 379.221563 273.312 
L 379.221563 7.2 
" style="fill: none"/>
   </g>
   <g id="patch_5">
    <path d="M 22.101562 273.312 
L 379.221563 273.312 
" style="fill: none"/>
   </g>
   <g id="patch_6">
    <path d="M 22.101562 7.2 
L 379.221563 7.2 
" style="fill: none"/>
   </g>
  </g>
 </g>
 <defs>
  <clipPath id="p7670c2aaae">
   <rect x="22.101563" y="7.2" width="357.12" height="266.112"/>
  </clipPath>
 </defs>
</svg>
