<?xml version="1.0" encoding="utf-8" standalone="no"?>
<!DOCTYPE svg PUBLIC "-//W3C//DTD SVG 1.1//EN"
  "http://www.w3.org/Graphics/SVG/1.1/DTD/svg11.dtd">
<svg xmlns:xlink="http://www.w3.org/1999/xlink" width="487.420781pt" height="349.525156pt" viewBox="0 0 487.420781 349.525156" xmlns="http://www.w3.org/2000/svg" version="1.1">
 <metadata>
  <rdf:RDF xmlns:dc="http://purl.org/dc/elements/1.1/" xmlns:cc="http://creativecommons.org/ns#" xmlns:rdf="http://www.w3.org/1999/02/22-rdf-syntax-ns#">
   <cc:Work>
    <dc:type rdf:resource="http://purl.org/dc/dcmitype/StillImage"/>
    <dc:date>2024-02-05T22:03:13.523354</dc:date>
    <dc:format>image/svg+xml</dc:format>
    <dc:creator>
     <cc:Agent>
      <dc:title>Matplotlib v3.8.0, https://matplotlib.org/</dc:title>
     </cc:Agent>
    </dc:creator>
   </cc:Work>
  </rdf:RDF>
 </metadata>
 <defs>
  <style type="text/css">*{stroke-linejoin: round; stroke-linecap: butt}</style>
 </defs>
 <g id="figure_1">
  <g id="patch_1">
   <path d="M 0 349.525156 
L 487.420781 349.525156 
L 487.420781 0 
L 0 0 
z
" style="fill: #ffffff"/>
  </g>
  <g id="axes_1">
   <g id="patch_2">
    <path d="M 33.820781 312.12 
L 480.220781 312.12 
L 480.220781 7.2 
L 33.820781 7.2 
z
" style="fill: #eaeaf2"/>
   </g>
   <g id="matplotlib.axis_1">
    <g id="xtick_1">
     <g id="line2d_1">
      <path d="M 69.720082 312.12 
L 69.720082 7.2 
" clip-path="url(#p6d853ac1ff)" style="fill: none; stroke: #ffffff; stroke-linecap: round"/>
     </g>
     <g id="text_1">
      <!-- 20 -->
      <g style="fill: #262626" transform="translate(64.159144 326.277812) scale(0.1 -0.1)">
       <defs>
        <path id="ArialMT-32" d="M 3222 541 
L 3222 0 
L 194 0 
Q 188 203 259 391 
Q 375 700 629 1000 
Q 884 1300 1366 1694 
Q 2113 2306 2375 2664 
Q 2638 3022 2638 3341 
Q 2638 3675 2398 3904 
Q 2159 4134 1775 4134 
Q 1369 4134 1125 3890 
Q 881 3647 878 3216 
L 300 3275 
Q 359 3922 746 4261 
Q 1134 4600 1788 4600 
Q 2447 4600 2831 4234 
Q 3216 3869 3216 3328 
Q 3216 3053 3103 2787 
Q 2991 2522 2730 2228 
Q 2469 1934 1863 1422 
Q 1356 997 1212 845 
Q 1069 694 975 541 
L 3222 541 
z
" transform="scale(0.015625)"/>
        <path id="ArialMT-30" d="M 266 2259 
Q 266 3072 433 3567 
Q 600 4063 929 4331 
Q 1259 4600 1759 4600 
Q 2128 4600 2406 4451 
Q 2684 4303 2865 4023 
Q 3047 3744 3150 3342 
Q 3253 2941 3253 2259 
Q 3253 1453 3087 958 
Q 2922 463 2592 192 
Q 2263 -78 1759 -78 
Q 1097 -78 719 397 
Q 266 969 266 2259 
z
M 844 2259 
Q 844 1131 1108 757 
Q 1372 384 1759 384 
Q 2147 384 2411 759 
Q 2675 1134 2675 2259 
Q 2675 3391 2411 3762 
Q 2147 4134 1753 4134 
Q 1366 4134 1134 3806 
Q 844 3388 844 2259 
z
" transform="scale(0.015625)"/>
       </defs>
       <use xlink:href="#ArialMT-32"/>
       <use xlink:href="#ArialMT-30" x="55.615234"/>
      </g>
     </g>
    </g>
    <g id="xtick_2">
     <g id="line2d_2">
      <path d="M 147.76204 312.12 
L 147.76204 7.2 
" clip-path="url(#p6d853ac1ff)" style="fill: none; stroke: #ffffff; stroke-linecap: round"/>
     </g>
     <g id="text_2">
      <!-- 30 -->
      <g style="fill: #262626" transform="translate(142.201102 326.277812) scale(0.1 -0.1)">
       <defs>
        <path id="ArialMT-33" d="M 269 1209 
L 831 1284 
Q 928 806 1161 595 
Q 1394 384 1728 384 
Q 2125 384 2398 659 
Q 2672 934 2672 1341 
Q 2672 1728 2419 1979 
Q 2166 2231 1775 2231 
Q 1616 2231 1378 2169 
L 1441 2663 
Q 1497 2656 1531 2656 
Q 1891 2656 2178 2843 
Q 2466 3031 2466 3422 
Q 2466 3731 2256 3934 
Q 2047 4138 1716 4138 
Q 1388 4138 1169 3931 
Q 950 3725 888 3313 
L 325 3413 
Q 428 3978 793 4289 
Q 1159 4600 1703 4600 
Q 2078 4600 2393 4439 
Q 2709 4278 2876 4000 
Q 3044 3722 3044 3409 
Q 3044 3113 2884 2869 
Q 2725 2625 2413 2481 
Q 2819 2388 3044 2092 
Q 3269 1797 3269 1353 
Q 3269 753 2831 336 
Q 2394 -81 1725 -81 
Q 1122 -81 723 278 
Q 325 638 269 1209 
z
" transform="scale(0.015625)"/>
       </defs>
       <use xlink:href="#ArialMT-33"/>
       <use xlink:href="#ArialMT-30" x="55.615234"/>
      </g>
     </g>
    </g>
    <g id="xtick_3">
     <g id="line2d_3">
      <path d="M 225.803998 312.12 
L 225.803998 7.2 
" clip-path="url(#p6d853ac1ff)" style="fill: none; stroke: #ffffff; stroke-linecap: round"/>
     </g>
     <g id="text_3">
      <!-- 40 -->
      <g style="fill: #262626" transform="translate(220.243061 326.277812) scale(0.1 -0.1)">
       <defs>
        <path id="ArialMT-34" d="M 2069 0 
L 2069 1097 
L 81 1097 
L 81 1613 
L 2172 4581 
L 2631 4581 
L 2631 1613 
L 3250 1613 
L 3250 1097 
L 2631 1097 
L 2631 0 
L 2069 0 
z
M 2069 1613 
L 2069 3678 
L 634 1613 
L 2069 1613 
z
" transform="scale(0.015625)"/>
       </defs>
       <use xlink:href="#ArialMT-34"/>
       <use xlink:href="#ArialMT-30" x="55.615234"/>
      </g>
     </g>
    </g>
    <g id="xtick_4">
     <g id="line2d_4">
      <path d="M 303.845956 312.12 
L 303.845956 7.2 
" clip-path="url(#p6d853ac1ff)" style="fill: none; stroke: #ffffff; stroke-linecap: round"/>
     </g>
     <g id="text_4">
      <!-- 50 -->
      <g style="fill: #262626" transform="translate(298.285019 326.277812) scale(0.1 -0.1)">
       <defs>
        <path id="ArialMT-35" d="M 266 1200 
L 856 1250 
Q 922 819 1161 601 
Q 1400 384 1738 384 
Q 2144 384 2425 690 
Q 2706 997 2706 1503 
Q 2706 1984 2436 2262 
Q 2166 2541 1728 2541 
Q 1456 2541 1237 2417 
Q 1019 2294 894 2097 
L 366 2166 
L 809 4519 
L 3088 4519 
L 3088 3981 
L 1259 3981 
L 1013 2750 
Q 1425 3038 1878 3038 
Q 2478 3038 2890 2622 
Q 3303 2206 3303 1553 
Q 3303 931 2941 478 
Q 2500 -78 1738 -78 
Q 1113 -78 717 272 
Q 322 622 266 1200 
z
" transform="scale(0.015625)"/>
       </defs>
       <use xlink:href="#ArialMT-35"/>
       <use xlink:href="#ArialMT-30" x="55.615234"/>
      </g>
     </g>
    </g>
    <g id="xtick_5">
     <g id="line2d_5">
      <path d="M 381.887914 312.12 
L 381.887914 7.2 
" clip-path="url(#p6d853ac1ff)" style="fill: none; stroke: #ffffff; stroke-linecap: round"/>
     </g>
     <g id="text_5">
      <!-- 60 -->
      <g style="fill: #262626" transform="translate(376.326977 326.277812) scale(0.1 -0.1)">
       <defs>
        <path id="ArialMT-36" d="M 3184 3459 
L 2625 3416 
Q 2550 3747 2413 3897 
Q 2184 4138 1850 4138 
Q 1581 4138 1378 3988 
Q 1113 3794 959 3422 
Q 806 3050 800 2363 
Q 1003 2672 1297 2822 
Q 1591 2972 1913 2972 
Q 2475 2972 2870 2558 
Q 3266 2144 3266 1488 
Q 3266 1056 3080 686 
Q 2894 316 2569 119 
Q 2244 -78 1831 -78 
Q 1128 -78 684 439 
Q 241 956 241 2144 
Q 241 3472 731 4075 
Q 1159 4600 1884 4600 
Q 2425 4600 2770 4297 
Q 3116 3994 3184 3459 
z
M 888 1484 
Q 888 1194 1011 928 
Q 1134 663 1356 523 
Q 1578 384 1822 384 
Q 2178 384 2434 671 
Q 2691 959 2691 1453 
Q 2691 1928 2437 2201 
Q 2184 2475 1800 2475 
Q 1419 2475 1153 2201 
Q 888 1928 888 1484 
z
" transform="scale(0.015625)"/>
       </defs>
       <use xlink:href="#ArialMT-36"/>
       <use xlink:href="#ArialMT-30" x="55.615234"/>
      </g>
     </g>
    </g>
    <g id="xtick_6">
     <g id="line2d_6">
      <path d="M 459.929872 312.12 
L 459.929872 7.2 
" clip-path="url(#p6d853ac1ff)" style="fill: none; stroke: #ffffff; stroke-linecap: round"/>
     </g>
     <g id="text_6">
      <!-- 70 -->
      <g style="fill: #262626" transform="translate(454.368935 326.277812) scale(0.1 -0.1)">
       <defs>
        <path id="ArialMT-37" d="M 303 3981 
L 303 4522 
L 3269 4522 
L 3269 4084 
Q 2831 3619 2401 2847 
Q 1972 2075 1738 1259 
Q 1569 684 1522 0 
L 944 0 
Q 953 541 1156 1306 
Q 1359 2072 1739 2783 
Q 2119 3494 2547 3981 
L 303 3981 
z
" transform="scale(0.015625)"/>
       </defs>
       <use xlink:href="#ArialMT-37"/>
       <use xlink:href="#ArialMT-30" x="55.615234"/>
      </g>
     </g>
    </g>
    <g id="text_7">
     <!-- age -->
     <g style="fill: #262626" transform="translate(247.845234 340.01) scale(0.11 -0.11)">
      <defs>
       <path id="ArialMT-61" d="M 2588 409 
Q 2275 144 1986 34 
Q 1697 -75 1366 -75 
Q 819 -75 525 192 
Q 231 459 231 875 
Q 231 1119 342 1320 
Q 453 1522 633 1644 
Q 813 1766 1038 1828 
Q 1203 1872 1538 1913 
Q 2219 1994 2541 2106 
Q 2544 2222 2544 2253 
Q 2544 2597 2384 2738 
Q 2169 2928 1744 2928 
Q 1347 2928 1158 2789 
Q 969 2650 878 2297 
L 328 2372 
Q 403 2725 575 2942 
Q 747 3159 1072 3276 
Q 1397 3394 1825 3394 
Q 2250 3394 2515 3294 
Q 2781 3194 2906 3042 
Q 3031 2891 3081 2659 
Q 3109 2516 3109 2141 
L 3109 1391 
Q 3109 606 3145 398 
Q 3181 191 3288 0 
L 2700 0 
Q 2613 175 2588 409 
z
M 2541 1666 
Q 2234 1541 1622 1453 
Q 1275 1403 1131 1340 
Q 988 1278 909 1158 
Q 831 1038 831 891 
Q 831 666 1001 516 
Q 1172 366 1500 366 
Q 1825 366 2078 508 
Q 2331 650 2450 897 
Q 2541 1088 2541 1459 
L 2541 1666 
z
" transform="scale(0.015625)"/>
       <path id="ArialMT-67" d="M 319 -275 
L 866 -356 
Q 900 -609 1056 -725 
Q 1266 -881 1628 -881 
Q 2019 -881 2231 -725 
Q 2444 -569 2519 -288 
Q 2563 -116 2559 434 
Q 2191 0 1641 0 
Q 956 0 581 494 
Q 206 988 206 1678 
Q 206 2153 378 2554 
Q 550 2956 876 3175 
Q 1203 3394 1644 3394 
Q 2231 3394 2613 2919 
L 2613 3319 
L 3131 3319 
L 3131 450 
Q 3131 -325 2973 -648 
Q 2816 -972 2473 -1159 
Q 2131 -1347 1631 -1347 
Q 1038 -1347 672 -1080 
Q 306 -813 319 -275 
z
M 784 1719 
Q 784 1066 1043 766 
Q 1303 466 1694 466 
Q 2081 466 2343 764 
Q 2606 1063 2606 1700 
Q 2606 2309 2336 2618 
Q 2066 2928 1684 2928 
Q 1309 2928 1046 2623 
Q 784 2319 784 1719 
z
" transform="scale(0.015625)"/>
       <path id="ArialMT-65" d="M 2694 1069 
L 3275 997 
Q 3138 488 2766 206 
Q 2394 -75 1816 -75 
Q 1088 -75 661 373 
Q 234 822 234 1631 
Q 234 2469 665 2931 
Q 1097 3394 1784 3394 
Q 2450 3394 2872 2941 
Q 3294 2488 3294 1666 
Q 3294 1616 3291 1516 
L 816 1516 
Q 847 969 1125 678 
Q 1403 388 1819 388 
Q 2128 388 2347 550 
Q 2566 713 2694 1069 
z
M 847 1978 
L 2700 1978 
Q 2663 2397 2488 2606 
Q 2219 2931 1791 2931 
Q 1403 2931 1139 2672 
Q 875 2413 847 1978 
z
" transform="scale(0.015625)"/>
      </defs>
      <use xlink:href="#ArialMT-61"/>
      <use xlink:href="#ArialMT-67" x="55.615234"/>
      <use xlink:href="#ArialMT-65" x="111.230469"/>
     </g>
    </g>
   </g>
   <g id="matplotlib.axis_2">
    <g id="ytick_1">
     <g id="text_8">
      <!-- 0 -->
      <g style="fill: #262626" transform="translate(21.259844 36.188906) scale(0.1 -0.1)">
       <use xlink:href="#ArialMT-30"/>
      </g>
     </g>
    </g>
    <g id="ytick_2">
     <g id="text_9">
      <!-- 1 -->
      <g style="fill: #262626" transform="translate(21.259844 87.008906) scale(0.1 -0.1)">
       <defs>
        <path id="ArialMT-31" d="M 2384 0 
L 1822 0 
L 1822 3584 
Q 1619 3391 1289 3197 
Q 959 3003 697 2906 
L 697 3450 
Q 1169 3672 1522 3987 
Q 1875 4303 2022 4600 
L 2384 4600 
L 2384 0 
z
" transform="scale(0.015625)"/>
       </defs>
       <use xlink:href="#ArialMT-31"/>
      </g>
     </g>
    </g>
    <g id="ytick_3">
     <g id="text_10">
      <!-- 2 -->
      <g style="fill: #262626" transform="translate(21.259844 137.828906) scale(0.1 -0.1)">
       <use xlink:href="#ArialMT-32"/>
      </g>
     </g>
    </g>
    <g id="ytick_4">
     <g id="text_11">
      <!-- 3 -->
      <g style="fill: #262626" transform="translate(21.259844 188.648906) scale(0.1 -0.1)">
       <use xlink:href="#ArialMT-33"/>
      </g>
     </g>
    </g>
    <g id="ytick_5">
     <g id="text_12">
      <!-- 4 -->
      <g style="fill: #262626" transform="translate(21.259844 239.468906) scale(0.1 -0.1)">
       <use xlink:href="#ArialMT-34"/>
      </g>
     </g>
    </g>
    <g id="ytick_6">
     <g id="text_13">
      <!-- 5 -->
      <g style="fill: #262626" transform="translate(21.259844 290.288906) scale(0.1 -0.1)">
       <use xlink:href="#ArialMT-35"/>
      </g>
     </g>
    </g>
    <g id="text_14">
     <!-- cluster -->
     <g style="fill: #262626" transform="translate(15.073594 175.858359) rotate(-90) scale(0.11 -0.11)">
      <defs>
       <path id="ArialMT-63" d="M 2588 1216 
L 3141 1144 
Q 3050 572 2676 248 
Q 2303 -75 1759 -75 
Q 1078 -75 664 370 
Q 250 816 250 1647 
Q 250 2184 428 2587 
Q 606 2991 970 3192 
Q 1334 3394 1763 3394 
Q 2303 3394 2647 3120 
Q 2991 2847 3088 2344 
L 2541 2259 
Q 2463 2594 2264 2762 
Q 2066 2931 1784 2931 
Q 1359 2931 1093 2626 
Q 828 2322 828 1663 
Q 828 994 1084 691 
Q 1341 388 1753 388 
Q 2084 388 2306 591 
Q 2528 794 2588 1216 
z
" transform="scale(0.015625)"/>
       <path id="ArialMT-6c" d="M 409 0 
L 409 4581 
L 972 4581 
L 972 0 
L 409 0 
z
" transform="scale(0.015625)"/>
       <path id="ArialMT-75" d="M 2597 0 
L 2597 488 
Q 2209 -75 1544 -75 
Q 1250 -75 995 37 
Q 741 150 617 320 
Q 494 491 444 738 
Q 409 903 409 1263 
L 409 3319 
L 972 3319 
L 972 1478 
Q 972 1038 1006 884 
Q 1059 663 1231 536 
Q 1403 409 1656 409 
Q 1909 409 2131 539 
Q 2353 669 2445 892 
Q 2538 1116 2538 1541 
L 2538 3319 
L 3100 3319 
L 3100 0 
L 2597 0 
z
" transform="scale(0.015625)"/>
       <path id="ArialMT-73" d="M 197 991 
L 753 1078 
Q 800 744 1014 566 
Q 1228 388 1613 388 
Q 2000 388 2187 545 
Q 2375 703 2375 916 
Q 2375 1106 2209 1216 
Q 2094 1291 1634 1406 
Q 1016 1563 777 1677 
Q 538 1791 414 1992 
Q 291 2194 291 2438 
Q 291 2659 392 2848 
Q 494 3038 669 3163 
Q 800 3259 1026 3326 
Q 1253 3394 1513 3394 
Q 1903 3394 2198 3281 
Q 2494 3169 2634 2976 
Q 2775 2784 2828 2463 
L 2278 2388 
Q 2241 2644 2061 2787 
Q 1881 2931 1553 2931 
Q 1166 2931 1000 2803 
Q 834 2675 834 2503 
Q 834 2394 903 2306 
Q 972 2216 1119 2156 
Q 1203 2125 1616 2013 
Q 2213 1853 2448 1751 
Q 2684 1650 2818 1456 
Q 2953 1263 2953 975 
Q 2953 694 2789 445 
Q 2625 197 2315 61 
Q 2006 -75 1616 -75 
Q 969 -75 630 194 
Q 291 463 197 991 
z
" transform="scale(0.015625)"/>
       <path id="ArialMT-74" d="M 1650 503 
L 1731 6 
Q 1494 -44 1306 -44 
Q 1000 -44 831 53 
Q 663 150 594 308 
Q 525 466 525 972 
L 525 2881 
L 113 2881 
L 113 3319 
L 525 3319 
L 525 4141 
L 1084 4478 
L 1084 3319 
L 1650 3319 
L 1650 2881 
L 1084 2881 
L 1084 941 
Q 1084 700 1114 631 
Q 1144 563 1211 522 
Q 1278 481 1403 481 
Q 1497 481 1650 503 
z
" transform="scale(0.015625)"/>
       <path id="ArialMT-72" d="M 416 0 
L 416 3319 
L 922 3319 
L 922 2816 
Q 1116 3169 1280 3281 
Q 1444 3394 1641 3394 
Q 1925 3394 2219 3213 
L 2025 2691 
Q 1819 2813 1613 2813 
Q 1428 2813 1281 2702 
Q 1134 2591 1072 2394 
Q 978 2094 978 1738 
L 978 0 
L 416 0 
z
" transform="scale(0.015625)"/>
      </defs>
      <use xlink:href="#ArialMT-63"/>
      <use xlink:href="#ArialMT-6c" x="50"/>
      <use xlink:href="#ArialMT-75" x="72.216797"/>
      <use xlink:href="#ArialMT-73" x="127.832031"/>
      <use xlink:href="#ArialMT-74" x="177.832031"/>
      <use xlink:href="#ArialMT-65" x="205.615234"/>
      <use xlink:href="#ArialMT-72" x="261.230469"/>
     </g>
    </g>
   </g>
   <g id="patch_3">
    <path d="M -86.363834 32.61 
L -86.363834 32.61 
L -86.363834 32.61 
L -86.363834 32.61 
z
" clip-path="url(#p6d853ac1ff)" style="fill: #3274a1; stroke: #3d3d3d; stroke-width: 0.3; stroke-linejoin: miter"/>
   </g>
   <g id="patch_4">
    <path d="M -86.363834 32.61 
L -86.363834 32.61 
L -86.363834 32.61 
L -86.363834 32.61 
z
" clip-path="url(#p6d853ac1ff)" style="fill: #e1812c; stroke: #3d3d3d; stroke-width: 0.3; stroke-linejoin: miter"/>
   </g>
   <g id="patch_5">
    <path d="M -86.363834 32.61 
L -86.363834 32.61 
L -86.363834 32.61 
L -86.363834 32.61 
z
" clip-path="url(#p6d853ac1ff)" style="fill: #3a923a; stroke: #3d3d3d; stroke-width: 0.3; stroke-linejoin: miter"/>
   </g>
   <g id="patch_6">
    <path d="M -86.363834 32.61 
L -86.363834 32.61 
L -86.363834 32.61 
L -86.363834 32.61 
z
" clip-path="url(#p6d853ac1ff)" style="fill: #c03d3e; stroke: #3d3d3d; stroke-width: 0.3; stroke-linejoin: miter"/>
   </g>
   <g id="patch_7">
    <path d="M -86.363834 32.61 
L -86.363834 32.61 
L -86.363834 32.61 
L -86.363834 32.61 
z
" clip-path="url(#p6d853ac1ff)" style="fill: #9372b2; stroke: #3d3d3d; stroke-width: 0.3; stroke-linejoin: miter"/>
   </g>
   <g id="patch_8">
    <path d="M -86.363834 32.61 
L -86.363834 32.61 
L -86.363834 32.61 
L -86.363834 32.61 
z
" clip-path="url(#p6d853ac1ff)" style="fill: #845b53; stroke: #3d3d3d; stroke-width: 0.3; stroke-linejoin: miter"/>
   </g>
   <g id="patch_9">
    <path d="M 77.524278 12.282 
L 77.524278 52.938 
L 159.468334 52.938 
L 159.468334 12.282 
L 77.524278 12.282 
z
" clip-path="url(#p6d853ac1ff)" style="fill: #3274a1; stroke: #3d3d3d; stroke-linejoin: miter"/>
   </g>
   <g id="line2d_7">
    <path d="M 77.524278 32.61 
L 54.11169 32.61 
" clip-path="url(#p6d853ac1ff)" style="fill: none; stroke: #3d3d3d"/>
   </g>
   <g id="line2d_8">
    <path d="M 159.468334 32.61 
L 225.803998 32.61 
" clip-path="url(#p6d853ac1ff)" style="fill: none; stroke: #3d3d3d"/>
   </g>
   <g id="line2d_9">
    <path d="M 54.11169 22.446 
L 54.11169 42.774 
" clip-path="url(#p6d853ac1ff)" style="fill: none; stroke: #3d3d3d; stroke-linecap: round"/>
   </g>
   <g id="line2d_10">
    <path d="M 225.803998 22.446 
L 225.803998 42.774 
" clip-path="url(#p6d853ac1ff)" style="fill: none; stroke: #3d3d3d; stroke-linecap: round"/>
   </g>
   <g id="line2d_11"/>
   <g id="patch_10">
    <path d="M 192.636166 63.102 
L 192.636166 103.758 
L 329.209592 103.758 
L 329.209592 63.102 
L 192.636166 63.102 
z
" clip-path="url(#p6d853ac1ff)" style="fill: #e1812c; stroke: #3d3d3d; stroke-linejoin: miter"/>
   </g>
   <g id="line2d_12">
    <path d="M 192.636166 83.43 
L 69.720082 83.43 
" clip-path="url(#p6d853ac1ff)" style="fill: none; stroke: #3d3d3d"/>
   </g>
   <g id="line2d_13">
    <path d="M 329.209592 83.43 
L 436.517285 83.43 
" clip-path="url(#p6d853ac1ff)" style="fill: none; stroke: #3d3d3d"/>
   </g>
   <g id="line2d_14">
    <path d="M 69.720082 73.266 
L 69.720082 93.594 
" clip-path="url(#p6d853ac1ff)" style="fill: none; stroke: #3d3d3d; stroke-linecap: round"/>
   </g>
   <g id="line2d_15">
    <path d="M 436.517285 73.266 
L 436.517285 93.594 
" clip-path="url(#p6d853ac1ff)" style="fill: none; stroke: #3d3d3d; stroke-linecap: round"/>
   </g>
   <g id="line2d_16"/>
   <g id="patch_11">
    <path d="M 147.76204 113.922 
L 147.76204 154.578 
L 190.685117 154.578 
L 190.685117 113.922 
L 147.76204 113.922 
z
" clip-path="url(#p6d853ac1ff)" style="fill: #3a923a; stroke: #3d3d3d; stroke-linejoin: miter"/>
   </g>
   <g id="line2d_17">
    <path d="M 147.76204 134.25 
L 124.349453 134.25 
" clip-path="url(#p6d853ac1ff)" style="fill: none; stroke: #3d3d3d"/>
   </g>
   <g id="line2d_18">
    <path d="M 190.685117 134.25 
L 225.803998 134.25 
" clip-path="url(#p6d853ac1ff)" style="fill: none; stroke: #3d3d3d"/>
   </g>
   <g id="line2d_19">
    <path d="M 124.349453 124.086 
L 124.349453 144.414 
" clip-path="url(#p6d853ac1ff)" style="fill: none; stroke: #3d3d3d; stroke-linecap: round"/>
   </g>
   <g id="line2d_20">
    <path d="M 225.803998 124.086 
L 225.803998 144.414 
" clip-path="url(#p6d853ac1ff)" style="fill: none; stroke: #3d3d3d; stroke-linecap: round"/>
   </g>
   <g id="line2d_21"/>
   <g id="patch_12">
    <path d="M 294.090711 164.742 
L 294.090711 205.398 
L 420.908893 205.398 
L 420.908893 164.742 
L 294.090711 164.742 
z
" clip-path="url(#p6d853ac1ff)" style="fill: #c03d3e; stroke: #3d3d3d; stroke-linejoin: miter"/>
   </g>
   <g id="line2d_22">
    <path d="M 294.090711 185.07 
L 249.216585 185.07 
" clip-path="url(#p6d853ac1ff)" style="fill: none; stroke: #3d3d3d"/>
   </g>
   <g id="line2d_23">
    <path d="M 420.908893 185.07 
L 459.929872 185.07 
" clip-path="url(#p6d853ac1ff)" style="fill: none; stroke: #3d3d3d"/>
   </g>
   <g id="line2d_24">
    <path d="M 249.216585 174.906 
L 249.216585 195.234 
" clip-path="url(#p6d853ac1ff)" style="fill: none; stroke: #3d3d3d; stroke-linecap: round"/>
   </g>
   <g id="line2d_25">
    <path d="M 459.929872 174.906 
L 459.929872 195.234 
" clip-path="url(#p6d853ac1ff)" style="fill: none; stroke: #3d3d3d; stroke-linecap: round"/>
   </g>
   <g id="line2d_26"/>
   <g id="patch_13">
    <path d="M 178.978823 215.562 
L 178.978823 256.218 
L 280.433369 256.218 
L 280.433369 215.562 
L 178.978823 215.562 
z
" clip-path="url(#p6d853ac1ff)" style="fill: #9372b2; stroke: #3d3d3d; stroke-linejoin: miter"/>
   </g>
   <g id="line2d_27">
    <path d="M 178.978823 235.89 
L 61.915886 235.89 
" clip-path="url(#p6d853ac1ff)" style="fill: none; stroke: #3d3d3d"/>
   </g>
   <g id="line2d_28">
    <path d="M 280.433369 235.89 
L 374.083718 235.89 
" clip-path="url(#p6d853ac1ff)" style="fill: none; stroke: #3d3d3d"/>
   </g>
   <g id="line2d_29">
    <path d="M 61.915886 225.726 
L 61.915886 246.054 
" clip-path="url(#p6d853ac1ff)" style="fill: none; stroke: #3d3d3d; stroke-linecap: round"/>
   </g>
   <g id="line2d_30">
    <path d="M 374.083718 225.726 
L 374.083718 246.054 
" clip-path="url(#p6d853ac1ff)" style="fill: none; stroke: #3d3d3d; stroke-linecap: round"/>
   </g>
   <g id="line2d_31"/>
   <g id="patch_14">
    <path d="M 77.524278 266.382 
L 77.524278 307.038 
L 145.810991 307.038 
L 145.810991 266.382 
L 77.524278 266.382 
z
" clip-path="url(#p6d853ac1ff)" style="fill: #845b53; stroke: #3d3d3d; stroke-linejoin: miter"/>
   </g>
   <g id="line2d_32">
    <path d="M 77.524278 286.71 
L 54.11169 286.71 
" clip-path="url(#p6d853ac1ff)" style="fill: none; stroke: #3d3d3d"/>
   </g>
   <g id="line2d_33">
    <path d="M 145.810991 286.71 
L 186.783019 286.71 
" clip-path="url(#p6d853ac1ff)" style="fill: none; stroke: #3d3d3d"/>
   </g>
   <g id="line2d_34">
    <path d="M 54.11169 276.546 
L 54.11169 296.874 
" clip-path="url(#p6d853ac1ff)" style="fill: none; stroke: #3d3d3d; stroke-linecap: round"/>
   </g>
   <g id="line2d_35">
    <path d="M 186.783019 276.546 
L 186.783019 296.874 
" clip-path="url(#p6d853ac1ff)" style="fill: none; stroke: #3d3d3d; stroke-linecap: round"/>
   </g>
   <g id="line2d_36"/>
   <g id="line2d_37">
    <path d="M 116.545257 12.282 
L 116.545257 52.938 
" clip-path="url(#p6d853ac1ff)" style="fill: none; stroke: #3d3d3d"/>
   </g>
   <g id="line2d_38">
    <path d="M 268.727075 63.102 
L 268.727075 103.758 
" clip-path="url(#p6d853ac1ff)" style="fill: none; stroke: #3d3d3d"/>
   </g>
   <g id="line2d_39">
    <path d="M 163.370432 113.922 
L 163.370432 154.578 
" clip-path="url(#p6d853ac1ff)" style="fill: none; stroke: #3d3d3d"/>
   </g>
   <g id="line2d_40">
    <path d="M 331.160641 164.742 
L 331.160641 205.398 
" clip-path="url(#p6d853ac1ff)" style="fill: none; stroke: #3d3d3d"/>
   </g>
   <g id="line2d_41">
    <path d="M 237.510292 215.562 
L 237.510292 256.218 
" clip-path="url(#p6d853ac1ff)" style="fill: none; stroke: #3d3d3d"/>
   </g>
   <g id="line2d_42">
    <path d="M 93.132669 266.382 
L 93.132669 307.038 
" clip-path="url(#p6d853ac1ff)" style="fill: none; stroke: #3d3d3d"/>
   </g>
   <g id="patch_15">
    <path d="M 33.820781 312.12 
L 33.820781 7.2 
" style="fill: none"/>
   </g>
   <g id="patch_16">
    <path d="M 480.220781 312.12 
L 480.220781 7.2 
" style="fill: none"/>
   </g>
   <g id="patch_17">
    <path d="M 33.820781 312.12 
L 480.220781 312.12 
" style="fill: none"/>
   </g>
   <g id="patch_18">
    <path d="M 33.820781 7.2 
L 480.220781 7.2 
" style="fill: none"/>
   </g>
   <g id="legend_1">
    <g id="text_15">
     <!-- cluster -->
     <g style="fill: #262626" transform="translate(435.878906 215.863125) scale(0.12 -0.12)">
      <use xlink:href="#ArialMT-63"/>
      <use xlink:href="#ArialMT-6c" x="50"/>
      <use xlink:href="#ArialMT-75" x="72.216797"/>
      <use xlink:href="#ArialMT-73" x="127.832031"/>
      <use xlink:href="#ArialMT-74" x="177.832031"/>
      <use xlink:href="#ArialMT-65" x="205.615234"/>
      <use xlink:href="#ArialMT-72" x="261.230469"/>
     </g>
    </g>
    <g id="patch_19">
     <path d="M 436.769375 230.405938 
L 456.769375 230.405938 
L 456.769375 223.405938 
L 436.769375 223.405938 
z
" style="fill: #3274a1; stroke: #3d3d3d; stroke-width: 0.3; stroke-linejoin: miter"/>
    </g>
    <g id="text_16">
     <!-- 0 -->
     <g style="fill: #262626" transform="translate(464.769375 230.405938) scale(0.1 -0.1)">
      <use xlink:href="#ArialMT-30"/>
     </g>
    </g>
    <g id="patch_20">
     <path d="M 436.769375 244.55125 
L 456.769375 244.55125 
L 456.769375 237.55125 
L 436.769375 237.55125 
z
" style="fill: #e1812c; stroke: #3d3d3d; stroke-width: 0.3; stroke-linejoin: miter"/>
    </g>
    <g id="text_17">
     <!-- 1 -->
     <g style="fill: #262626" transform="translate(464.769375 244.55125) scale(0.1 -0.1)">
      <use xlink:href="#ArialMT-31"/>
     </g>
    </g>
    <g id="patch_21">
     <path d="M 436.769375 258.696563 
L 456.769375 258.696563 
L 456.769375 251.696563 
L 436.769375 251.696563 
z
" style="fill: #3a923a; stroke: #3d3d3d; stroke-width: 0.3; stroke-linejoin: miter"/>
    </g>
    <g id="text_18">
     <!-- 2 -->
     <g style="fill: #262626" transform="translate(464.769375 258.696563) scale(0.1 -0.1)">
      <use xlink:href="#ArialMT-32"/>
     </g>
    </g>
    <g id="patch_22">
     <path d="M 436.769375 272.841875 
L 456.769375 272.841875 
L 456.769375 265.841875 
L 436.769375 265.841875 
z
" style="fill: #c03d3e; stroke: #3d3d3d; stroke-width: 0.3; stroke-linejoin: miter"/>
    </g>
    <g id="text_19">
     <!-- 3 -->
     <g style="fill: #262626" transform="translate(464.769375 272.841875) scale(0.1 -0.1)">
      <use xlink:href="#ArialMT-33"/>
     </g>
    </g>
    <g id="patch_23">
     <path d="M 436.769375 286.987188 
L 456.769375 286.987188 
L 456.769375 279.987188 
L 436.769375 279.987188 
z
" style="fill: #9372b2; stroke: #3d3d3d; stroke-width: 0.3; stroke-linejoin: miter"/>
    </g>
    <g id="text_20">
     <!-- 4 -->
     <g style="fill: #262626" transform="translate(464.769375 286.987188) scale(0.1 -0.1)">
      <use xlink:href="#ArialMT-34"/>
     </g>
    </g>
    <g id="patch_24">
     <path d="M 436.769375 301.1325 
L 456.769375 301.1325 
L 456.769375 294.1325 
L 436.769375 294.1325 
z
" style="fill: #845b53; stroke: #3d3d3d; stroke-width: 0.3; stroke-linejoin: miter"/>
    </g>
    <g id="text_21">
     <!-- 5 -->
     <g style="fill: #262626" transform="translate(464.769375 301.1325) scale(0.1 -0.1)">
      <use xlink:href="#ArialMT-35"/>
     </g>
    </g>
   </g>
  </g>
 </g>
 <defs>
  <clipPath id="p6d853ac1ff">
   <rect x="33.820781" y="7.2" width="446.4" height="304.92"/>
  </clipPath>
 </defs>
</svg>
